<?xml version="1.0" standalone="no"?>
<!DOCTYPE svg PUBLIC "-//W3C//DTD SVG 20010904//EN"
 "http://www.w3.org/TR/2001/REC-SVG-20010904/DTD/svg10.dtd">
<svg version="1.0" xmlns="http://www.w3.org/2000/svg"
 width="225.000000pt" height="225.000000pt" viewBox="0 0 225.000000 225.000000"
 preserveAspectRatio="xMidYMid meet">

<g transform="translate(0.000000,225.000000) scale(0.100000,-0.100000)"
fill="#000000" stroke="none">
<path d="M986 1640 c-83 -13 -200 -47 -247 -71 -22 -11 -58 -36 -79 -56 -33
-29 -40 -42 -40 -73 l0 -38 -52 -7 c-29 -4 -62 -11 -73 -16 -13 -6 -8 -7 18
-3 20 4 52 3 71 0 32 -6 35 -10 59 -88 14 -45 25 -83 24 -85 -2 -1 -32 10 -67
25 -119 49 -261 33 -324 -37 -10 -11 -23 -18 -29 -14 -6 3 -7 1 -3 -5 4 -7 3
-12 -2 -12 -10 0 -35 -50 -28 -57 2 -3 11 8 19 24 65 123 231 156 390 76 41
-21 48 -28 45 -50 -2 -15 -10 -28 -18 -30 -12 -4 -12 -3 -2 5 10 7 6 9 -15 10
-15 0 -66 3 -114 7 -67 6 -98 4 -143 -9 -32 -10 -56 -19 -54 -21 2 -2 26 3 53
11 67 21 191 13 268 -16 50 -19 65 -31 103 -82 56 -76 57 -93 4 -102 -40 -6
-124 -36 -118 -42 2 -1 28 6 58 16 73 26 102 25 129 -4 21 -22 54 -109 45
-118 -2 -3 13 -5 33 -6 21 -1 73 -11 115 -24 84 -25 92 -36 66 -92 -14 -33 2
-93 38 -135 l25 -30 -33 -21 c-18 -11 -28 -20 -21 -20 6 0 25 12 42 26 l31 26
-24 19 c-13 11 -32 39 -42 64 -16 44 -16 46 2 67 10 11 38 29 61 40 51 23 70
16 108 -40 l26 -37 -29 -25 c-16 -14 -45 -38 -63 -53 -19 -16 -21 -19 -6 -8
26 18 46 22 192 35 52 4 167 28 162 33 -2 2 -44 -3 -93 -11 -49 -8 -116 -17
-148 -20 l-60 -5 35 34 c30 31 43 36 114 45 90 13 218 40 213 46 -2 2 -46 -5
-98 -15 -52 -11 -116 -21 -141 -24 l-47 -4 1 32 c1 45 -16 63 -71 71 l-47 7
67 13 c37 7 75 18 85 24 16 11 16 11 -2 5 -89 -28 -292 -32 -375 -6 -78 24
-266 313 -324 499 -14 46 -26 86 -26 89 0 3 16 -9 36 -27 46 -40 104 -65 214
-93 74 -19 113 -22 295 -22 223 0 313 12 400 56 22 10 31 16 20 13 -11 -4 -46
-15 -77 -25 -95 -30 -220 -42 -393 -36 -228 8 -369 45 -454 122 -48 43 -54 85
-20 129 23 29 115 86 139 85 8 0 -6 -11 -31 -24 -51 -26 -99 -77 -99 -103 0
-60 79 -114 225 -153 111 -31 419 -34 540 -5 44 10 87 23 95 28 13 8 13 9 0 5
-64 -19 -177 -38 -205 -35 -19 2 -35 0 -35 -4 0 -4 -46 -8 -102 -8 -255 0
-484 72 -501 157 -10 50 26 86 129 128 31 13 50 25 43 28 -8 2 -2 3 12 1 15
-2 44 0 65 3 35 6 37 7 14 13 -14 4 72 6 190 5 156 -1 234 -6 286 -18 178 -40
252 -91 245 -167 -1 -11 1 -11 9 2 15 25 -11 77 -53 104 -86 55 -208 83 -412
94 l-150 8 155 -3 c313 -7 500 -84 500 -206 0 -25 -10 -42 -45 -76 -55 -52
-51 -57 5 -7 l40 36 -7 -33 c-3 -19 -14 -58 -25 -88 -10 -30 -16 -56 -14 -59
3 -2 15 31 28 73 l23 77 76 -5 c45 -3 95 -13 122 -25 39 -17 47 -26 53 -57 10
-53 -1 -123 -23 -154 -11 -14 -39 -36 -63 -48 -24 -13 -37 -23 -29 -23 9 0 33
12 54 26 43 29 48 26 66 -41 5 -22 12 -44 15 -50 6 -15 -5 70 -12 92 -6 14 -4
16 6 6 8 -7 22 -43 32 -80 18 -65 18 -66 13 -19 -3 27 -18 72 -34 100 -20 36
-26 57 -20 71 11 29 11 108 -2 143 -14 40 -69 62 -171 69 l-78 6 0 60 c0 57
-2 62 -42 102 -46 45 -114 75 -227 101 -80 18 -381 27 -465 14z m42 -17 c-10
-2 -28 -2 -40 0 -13 2 -5 4 17 4 22 1 32 -1 23 -4z m-125 -20 c-7 -2 -19 -2
-25 0 -7 3 -2 5 12 5 14 0 19 -2 13 -5z m-76 -19 c-3 -3 -12 -4 -19 -1 -8 3
-5 6 6 6 11 1 17 -2 13 -5z m-118 -462 l22 -43 -26 17 c-18 11 -25 25 -25 47
0 36 1 35 29 -21z m1261 -33 c0 -6 -4 -7 -10 -4 -5 3 -10 11 -10 16 0 6 5 7
10 4 6 -3 10 -11 10 -16z m-1100 -216 c34 -43 69 -81 78 -85 12 -4 7 -7 -14
-7 -40 -1 -57 14 -78 70 -9 26 -26 55 -36 64 -18 16 -26 35 -16 35 2 0 32 -35
66 -77z m224 -114 c29 0 29 -1 9 -11 -16 -8 -32 -6 -65 6 -39 15 -40 16 -9 11
18 -3 48 -5 65 -6z m165 -25 c38 -8 72 -51 51 -64 -7 -4 -10 -12 -6 -18 3 -6
2 -13 -3 -17 -6 -3 -17 8 -26 25 -25 47 -57 64 -99 50 -19 -6 -45 -19 -58 -29
l-23 -19 3 39 4 39 63 0 c34 0 77 -3 94 -6z"/>
<path d="M1078 1583 c7 -3 16 -2 19 1 4 3 -2 6 -13 5 -11 0 -14 -3 -6 -6z"/>
<path d="M1491 1537 c16 -12 79 -45 79 -42 0 7 -63 45 -74 45 -5 0 -7 -1 -5
-3z"/>
<path d="M1088 1524 c6 -3 9 -11 6 -16 -4 -7 -2 -8 4 -4 15 9 53 -11 49 -25
-1 -6 6 -13 15 -14 11 -2 15 2 11 11 -3 10 0 12 10 8 8 -3 17 -1 21 4 3 5 -5
8 -17 7 -12 -1 -29 3 -37 11 -8 7 -28 15 -45 18 -16 3 -24 3 -17 0z"/>
<path d="M1252 1511 c20 -4 44 -14 53 -21 8 -7 18 -11 20 -8 11 11 -27 30 -67
34 l-43 3 37 -8z"/>
<path d="M1034 1445 c11 -8 24 -15 30 -15 5 0 1 7 -10 15 -10 8 -23 14 -29 14
-5 0 -1 -6 9 -14z"/>
<path d="M1290 1450 c-9 -6 -10 -10 -3 -10 6 0 15 5 18 10 8 12 4 12 -15 0z"/>
<path d="M1634 1388 l-19 -23 23 19 c12 11 22 21 22 23 0 8 -8 2 -26 -19z"/>
<path d="M410 1344 c-48 -27 -134 -106 -152 -139 -6 -11 14 8 45 41 31 33 82
75 114 92 32 17 54 32 48 32 -5 0 -30 -12 -55 -26z"/>
<path d="M1570 1350 c-19 -11 -31 -19 -27 -20 11 0 67 29 67 35 0 7 -1 7 -40
-15z"/>
<path d="M837 1349 c7 -7 15 -10 18 -7 3 3 -2 9 -12 12 -14 6 -15 5 -6 -5z"/>
<path d="M988 1313 c7 -3 16 -2 19 1 4 3 -2 6 -13 5 -11 0 -14 -3 -6 -6z"/>
<path d="M1198 1303 c6 -2 18 -2 25 0 6 3 1 5 -13 5 -14 0 -19 -2 -12 -5z"/>
<path d="M1821 1280 c-39 -9 -79 -37 -95 -65 -10 -18 -10 -18 2 -3 13 16 18
15 70 -12 32 -16 68 -38 82 -49 21 -17 22 -21 11 -38 -8 -10 -2 -5 13 10 14
15 26 35 26 44 0 14 -2 14 -14 -3 -15 -19 -15 -19 -33 0 -16 18 -17 19 0 7 9
-8 20 -11 24 -8 3 3 -24 25 -61 49 -76 48 -72 61 16 56 52 -3 53 -4 64 -43 7
-22 13 -33 13 -24 2 27 -20 79 -32 79 -7 0 -21 2 -32 4 -11 3 -35 1 -54 -4z
m-21 -55 c17 -9 30 -18 30 -21 0 -4 -59 23 -69 32 -10 9 13 3 39 -11z"/>
<path d="M1642 1165 c-17 -37 -14 -45 4 -12 9 16 14 31 11 33 -2 2 -9 -7 -15
-21z"/>
<path d="M1694 1153 c-9 -35 13 -75 48 -84 30 -8 107 6 123 22 6 7 0 6 -18 0
-16 -6 -48 -11 -72 -11 -36 0 -48 5 -61 25 -10 16 -14 34 -10 50 4 14 4 25 1
25 -2 0 -8 -12 -11 -27z"/>
<path d="M232 1054 l-47 -47 50 43 c28 24 52 45 54 47 2 2 1 3 -3 3 -4 0 -28
-21 -54 -46z"/>
<path d="M1595 1070 c-9 -16 -13 -30 -11 -30 3 0 12 14 21 30 9 17 13 30 11
30 -3 0 -12 -13 -21 -30z"/>
<path d="M190 1070 c-6 -11 -8 -20 -6 -20 3 0 10 9 16 20 6 11 8 20 6 20 -3 0
-10 -9 -16 -20z"/>
<path d="M163 1013 c-13 -48 -6 -205 11 -252 50 -136 222 -267 421 -322 61
-16 93 -19 163 -15 115 7 130 8 210 5 38 -1 76 2 84 7 18 10 -167 9 -267 -2
-81 -8 -100 11 -100 100 0 33 3 75 8 91 6 25 5 27 -4 11 -21 -34 -23 -139 -4
-175 l17 -34 -37 7 c-60 12 -159 44 -180 60 -16 11 -21 31 -26 88 l-7 73 2
-73 c0 -39 -2 -72 -6 -72 -5 0 -8 5 -8 11 0 5 -4 8 -9 5 -13 -9 -99 50 -156
108 -89 89 -100 118 -100 274 0 72 -1 132 -2 132 -2 0 -6 -12 -10 -27z"/>
<path d="M1707 1025 c-43 -7 -82 -17 -85 -20 -4 -4 7 -5 23 -1 17 3 63 11 104
16 41 6 77 13 80 15 7 8 -38 4 -122 -10z"/>
<path d="M1529 971 c-13 -17 -53 -63 -88 -103 l-64 -73 74 76 c41 41 85 83 99
92 18 12 20 15 5 10 -18 -6 -18 -5 -6 10 7 9 11 17 9 17 -3 0 -16 -13 -29 -29z"/>
<path d="M1585 990 c-3 -6 1 -7 9 -4 18 7 21 14 7 14 -6 0 -13 -4 -16 -10z"/>
<path d="M1971 944 c0 -11 3 -14 6 -6 3 7 2 16 -1 19 -3 4 -6 -2 -5 -13z"/>
<path d="M2011 913 c-1 -6 -4 -20 -7 -30 -5 -17 -5 -17 6 0 6 10 9 23 6 30 -3
9 -5 9 -5 0z"/>
<path d="M1900 841 c-53 -54 -46 -55 13 -2 23 21 56 64 45 60 -2 -1 -28 -27
-58 -58z"/>
<path d="M572 849 c-23 -17 -42 -33 -42 -35 0 -3 20 9 45 27 40 29 51 39 42
39 -2 0 -22 -14 -45 -31z"/>
<path d="M1941 797 l-55 -62 48 45 c39 37 75 82 64 79 -2 0 -28 -28 -57 -62z"/>
<path d="M513 788 c-15 -20 -25 -38 -20 -38 3 0 12 11 21 25 17 26 16 35 -1
13z"/>
<path d="M788 761 c-25 -16 -49 -35 -54 -43 -4 -7 1 -6 12 4 10 9 39 28 64 42
25 14 40 26 34 26 -5 0 -31 -13 -56 -29z"/>
<path d="M1814 774 c-18 -14 -18 -15 4 -4 12 6 22 13 22 15 0 8 -5 6 -26 -11z"/>
<path d="M1730 735 c-14 -8 -20 -14 -15 -14 6 0 21 6 35 14 14 8 21 14 15 14
-5 0 -21 -6 -35 -14z"/>
<path d="M476 725 c-9 -26 -7 -32 5 -12 6 10 9 21 6 23 -2 3 -7 -2 -11 -11z"/>
<path d="M1847 721 c-41 -26 -46 -36 -10 -17 17 9 35 20 38 26 8 13 6 12 -28
-9z"/>
<path d="M1650 705 c-19 -7 -28 -14 -20 -14 8 0 29 6 45 14 39 17 21 18 -25 0z"/>
<path d="M461 674 c0 -11 3 -14 6 -6 3 7 2 16 -1 19 -3 4 -6 -2 -5 -13z"/>
<path d="M1757 674 c-3 -4 -41 -19 -84 -35 -43 -15 -73 -28 -67 -28 16 -1 117
34 150 53 16 8 24 15 18 16 -6 0 -14 -3 -17 -6z"/>
<path d="M1568 603 c7 -3 16 -2 19 1 4 3 -2 6 -13 5 -11 0 -14 -3 -6 -6z"/>
</g>
</svg>
