<?xml version="1.0" standalone="no"?>
<!DOCTYPE svg PUBLIC "-//W3C//DTD SVG 20010904//EN"
 "http://www.w3.org/TR/2001/REC-SVG-20010904/DTD/svg10.dtd">
<svg version="1.0" xmlns="http://www.w3.org/2000/svg"
 width="500.000000pt" height="500.000000pt" viewBox="0 0 500.000000 500.000000"
 preserveAspectRatio="xMidYMid meet">

<g transform="translate(0.000000,500.000000) scale(0.100000,-0.100000)"
fill="#000000" stroke="none">
<path d="M3220 2605 c13 -14 26 -25 28 -25 3 0 -5 11 -18 25 -13 14 -26 25
-28 25 -3 0 5 -11 18 -25z"/>
<path d="M3913 2017 c-32 -34 -73 -122 -73 -157 0 -11 -7 -34 -15 -50 -11 -21
-15 -58 -15 -117 0 -49 -1 -101 -2 -118 -2 -39 10 -85 22 -85 19 0 26 65 14
125 -8 33 -13 71 -14 85 0 22 3 20 23 -15 12 -22 31 -61 41 -87 10 -27 22 -48
27 -48 14 0 11 57 -6 97 -17 41 -20 90 -5 95 7 2 11 47 12 117 0 75 5 126 15
148 8 20 12 37 10 39 -2 2 -17 -11 -34 -29z"/>
<path d="M3943 1695 c0 -22 2 -30 4 -17 2 12 2 30 0 40 -3 9 -5 -1 -4 -23z"/>
<path d="M3940 1576 c0 -8 5 -18 10 -21 6 -3 10 1 10 9 0 8 -4 18 -10 21 -5 3
-10 -1 -10 -9z"/>
<path d="M3906 1433 c-6 -14 -5 -15 5 -6 7 7 10 15 7 18 -3 3 -9 -2 -12 -12z"/>
<path d="M3840 1383 c0 -13 5 -23 10 -23 13 0 13 11 0 30 -8 12 -10 11 -10 -7z"/>
</g>
</svg>
