<?xml version="1.0" standalone="no"?>
<!DOCTYPE svg PUBLIC "-//W3C//DTD SVG 20010904//EN"
 "http://www.w3.org/TR/2001/REC-SVG-20010904/DTD/svg10.dtd">
<svg version="1.0" xmlns="http://www.w3.org/2000/svg"
 width="1200.000000pt" height="600.000000pt" viewBox="0 0 1200.000000 600.000000"
 preserveAspectRatio="xMidYMid meet">
<metadata>
Created by potrace 1.16, written by Peter Selinger 2001-2019
</metadata>
<g transform="translate(0.000000,600.000000) scale(0.100000,-0.100000)"
fill="#000000" stroke="none">
<path d="M2 5373 l3 -627 33 -19 c43 -25 163 -58 235 -64 47 -3 57 -2 57 11 0
9 -14 23 -32 32 -18 9 -38 23 -46 30 -7 8 -20 14 -27 14 -8 0 -17 5 -20 10 -6
10 21 9 138 -5 32 -5 37 -3 37 15 0 11 -4 20 -9 20 -5 0 -11 8 -13 18 -4 15 2
19 31 21 20 1 40 6 44 10 5 5 -13 27 -38 49 -33 29 -62 44 -101 53 -29 7 -61
20 -70 30 -14 16 -14 18 3 27 10 5 41 13 69 17 48 6 55 4 109 -31 l58 -37 68
17 c48 12 75 13 93 6 17 -6 26 -6 26 1 0 14 -46 59 -62 60 -29 2 -56 9 -108
28 -30 11 -66 20 -80 21 -14 0 -36 7 -49 17 l-24 16 57 18 c41 13 63 16 82 9
40 -16 49 -12 63 25 7 19 19 35 27 35 11 0 14 8 12 27 -3 26 0 28 39 34 23 3
51 13 61 22 10 9 25 17 33 17 28 0 37 19 26 56 -8 27 -15 34 -37 34 -29 0 -69
24 -54 32 5 3 38 2 73 -2 62 -8 72 -7 109 7 9 3 37 7 61 8 41 2 60 15 61 41 0
6 -24 18 -53 26 -47 14 -62 14 -123 1 -38 -8 -81 -17 -95 -20 -20 -4 -27 0
-32 16 -5 21 15 34 63 40 6 0 10 10 10 21 0 11 5 20 10 20 6 0 10 5 10 11 0 7
8 18 18 25 16 12 16 14 -2 27 -10 8 -16 19 -12 25 3 5 0 12 -6 15 -28 9 2 17
75 20 42 2 79 6 82 9 4 4 -13 19 -37 34 -94 60 -113 94 -54 94 18 0 47 -7 62
-15 16 -8 34 -15 41 -15 16 0 13 57 -3 71 -22 18 -4 39 35 39 36 0 189 -31
371 -76 157 -39 172 -42 250 -58 41 -8 102 -21 135 -30 33 -8 116 -30 185 -47
69 -17 148 -38 175 -46 28 -7 86 -22 130 -32 185 -44 699 -175 805 -206 63
-18 135 -36 160 -40 25 -3 54 -10 65 -15 17 -8 181 -50 775 -198 36 -9 68 -21
72 -27 5 -6 19 -4 40 7 18 9 50 20 71 24 20 3 37 10 37 15 0 5 5 9 11 9 15 0
109 43 109 50 0 3 -8 6 -17 7 -50 3 -70 8 -66 18 2 7 -44 24 -124 45 -70 18
-157 43 -193 55 -36 13 -121 37 -190 55 -69 18 -170 45 -224 61 -54 16 -104
29 -111 29 -7 0 -82 20 -166 44 -85 24 -172 46 -194 50 -22 4 -83 20 -135 36
-99 30 -221 63 -400 106 -95 24 -157 41 -420 118 -47 13 -114 30 -150 36 -36
6 -79 18 -97 26 -18 8 -57 19 -88 25 -31 6 -74 17 -97 25 -34 12 -170 14 -844
14 l-804 0 2 -627z"/>
<path d="M6435 5990 c4 -6 15 -8 26 -5 20 7 24 -2 10 -24 -5 -7 -14 -10 -20
-7 -16 10 -14 -6 5 -32 13 -18 13 -26 3 -38 -19 -23 -5 -26 21 -4 27 24 55 27
46 5 -4 -10 1 -15 14 -15 11 0 20 -6 20 -14 0 -20 40 -32 51 -15 12 20 89 16
127 -6 35 -21 47 -17 37 15 -5 16 -13 20 -27 17 -32 -9 -63 11 -89 59 -23 44
-24 44 -32 19 -9 -26 -35 -33 -55 -13 -9 9 -18 9 -37 0 -21 -10 -25 -9 -25 3
0 8 6 15 14 15 19 0 28 14 20 34 -5 12 -20 16 -61 16 -35 0 -52 -4 -48 -10z"/>
<path d="M10305 5976 c22 -13 65 -27 95 -31 81 -11 152 -41 203 -85 42 -37 47
-39 77 -28 27 9 38 8 60 -6 16 -9 41 -16 57 -17 27 -1 26 -1 -7 -10 -19 -5
-53 -8 -75 -8 -22 0 -45 0 -52 0 -14 -1 -5 -41 11 -47 6 -2 25 -9 41 -15 17
-7 63 -13 103 -13 64 -1 76 -4 92 -24 12 -15 34 -24 64 -28 56 -8 67 -20 27
-29 -19 -4 -41 -1 -60 9 -41 22 -61 20 -61 -5 0 -16 -4 -19 -22 -13 -31 9 -34
12 -20 26 33 33 -18 38 -78 8 l-40 -20 -20 20 c-22 22 -41 25 -56 10 -6 -6
-27 -3 -61 9 -29 10 -78 19 -111 20 -32 0 -74 7 -94 15 -20 9 -71 23 -114 31
-54 11 -85 23 -97 37 -21 25 -29 19 -34 -22 -4 -37 11 -44 107 -54 36 -4 74
-11 85 -15 53 -22 123 -41 146 -41 15 0 32 -7 39 -15 7 -8 22 -15 33 -15 11 0
36 -5 54 -12 28 -10 36 -10 43 2 7 12 10 11 16 -5 4 -11 9 -24 12 -29 6 -11
-66 -1 -173 25 -95 22 -276 40 -289 29 -11 -11 34 -39 59 -38 33 2 139 -23
160 -38 11 -8 35 -14 55 -15 19 -1 46 -4 59 -8 l23 -6 -20 -25 c-17 -21 -22
-22 -36 -11 -9 8 -33 12 -61 9 -25 -2 -45 0 -45 3 0 9 -79 26 -155 34 -33 4
-85 15 -115 27 -30 11 -85 24 -122 29 -37 4 -75 13 -85 18 -27 16 -140 41
-181 41 -20 0 -55 5 -77 10 -48 11 -59 3 -43 -32 13 -27 57 -48 100 -48 13 0
28 -3 32 -7 15 -15 145 -40 155 -30 7 7 19 7 36 -1 14 -7 35 -12 46 -12 11 0
39 -9 61 -20 23 -11 51 -20 63 -20 11 0 30 -6 41 -14 11 -8 33 -16 49 -18 40
-4 46 -35 9 -44 -18 -5 -31 -2 -38 7 -8 10 -40 15 -106 18 -52 1 -106 9 -120
16 -27 14 -46 17 -194 35 -49 6 -125 19 -168 29 -66 16 -80 16 -95 5 -17 -13
-17 -15 5 -33 12 -11 28 -22 35 -24 9 -4 8 -8 -3 -16 -19 -14 -86 -14 -111 0
-27 14 -59 2 -59 -22 0 -14 7 -19 26 -19 14 0 33 -4 43 -10 24 -12 91 6 91 25
0 24 19 17 26 -10 4 -18 18 -28 57 -42 29 -10 59 -18 67 -20 8 -1 40 -5 70 -8
30 -4 75 -14 99 -23 36 -13 41 -17 28 -27 -17 -12 -73 -4 -249 35 -92 21 -148
25 -148 12 0 -5 30 -14 68 -21 37 -7 108 -23 157 -36 123 -32 226 -55 250 -55
16 0 17 -2 5 -10 -8 -5 -11 -12 -7 -16 3 -4 13 -2 21 5 8 7 15 8 18 2 2 -6 21
-5 50 3 59 15 71 26 30 28 -52 2 -57 3 -62 9 -3 3 -14 11 -25 18 l-20 13 20
-7 c18 -6 42 -10 115 -19 14 -1 31 -4 38 -4 6 -1 12 -7 12 -12 0 -16 -90 -51
-111 -45 -18 6 -24 -3 -20 -32 1 -6 -3 -14 -9 -18 -5 -3 -10 -1 -10 4 0 6 -11
11 -25 11 -14 0 -25 -4 -25 -10 0 -5 9 -10 21 -10 11 0 17 -4 14 -10 -10 -16
17 -11 37 7 14 12 21 14 30 5 8 -8 1 -15 -26 -28 -20 -10 -36 -22 -36 -28 0
-5 -6 -2 -13 9 -8 10 -19 15 -26 11 -9 -6 -9 -11 1 -23 24 -29 51 -32 76 -10
16 15 21 17 17 6 -8 -20 -44 -40 -66 -36 -10 2 -24 9 -33 16 -14 12 -16 12
-11 -1 4 -10 -1 -17 -14 -21 -13 -3 -19 -1 -15 5 5 7 -11 8 -50 4 -41 -6 -56
-4 -56 5 0 7 -10 10 -29 6 -15 -3 -33 -1 -38 4 -6 6 -19 9 -29 7 -16 -4 -14
-7 11 -17 16 -7 39 -10 51 -7 13 4 24 1 26 -6 5 -14 129 -29 142 -17 6 5 16 9
24 9 11 0 12 -3 3 -14 -10 -12 -8 -19 8 -35 12 -12 31 -21 44 -21 21 0 21 -1
-6 -19 -24 -15 -26 -19 -12 -25 26 -10 35 -7 35 9 0 8 5 15 10 15 6 0 10 -5
10 -10 0 -7 6 -7 19 0 11 5 29 10 40 10 12 0 21 4 21 9 0 11 56 20 71 10 17
-10 -19 -59 -45 -59 -18 -1 -17 -3 9 -17 29 -16 49 -21 163 -45 28 -6 52 -17
52 -24 0 -17 24 -24 88 -24 77 0 157 -40 242 -120 42 -39 71 -59 82 -57 17 5
68 -34 68 -51 0 -13 -47 -35 -59 -28 -8 5 -8 13 -1 27 12 21 7 24 -20 9 -11
-6 -17 -16 -14 -24 7 -19 -24 -42 -38 -28 -7 7 -27 12 -46 12 -27 0 -33 -3
-28 -16 3 -8 2 -12 -3 -9 -5 3 -13 1 -16 -5 -4 -6 -16 -8 -27 -4 -14 4 -18 2
-14 -5 4 -6 0 -11 -9 -11 -9 0 -13 5 -10 10 3 6 -1 13 -9 16 -9 3 -16 12 -16
20 0 8 -6 11 -15 8 -8 -4 -15 -1 -15 5 0 6 -11 16 -25 21 -27 10 -58 3 -49
-11 9 -15 -13 -10 -26 6 -7 8 -23 15 -36 15 -12 0 -26 5 -29 10 -3 6 -23 7
-43 4 -39 -6 -196 23 -269 50 -24 8 -61 17 -82 20 -22 2 -63 16 -92 31 -38 19
-62 25 -84 21 -29 -6 -91 13 -163 49 -29 15 -32 21 -27 46 7 31 5 32 -55 29
-20 -1 -43 -10 -54 -22 -11 -12 -26 -18 -39 -14 -11 3 -29 0 -39 -5 -28 -15
-36 -1 -10 17 54 37 14 62 -96 59 -47 -1 -79 3 -90 11 -20 16 -86 19 -77 4 3
-5 -1 -10 -9 -10 -9 0 -16 5 -16 10 0 15 -16 12 -35 -6 -11 -11 -19 -13 -28
-6 -12 11 -96 16 -177 12 -100 -6 -240 2 -260 15 -8 5 -6 14 4 31 17 25 21 64
8 64 -13 0 -124 -38 -149 -52 -30 -15 -29 -26 2 -38 14 -5 25 -14 25 -19 0 -6
-7 -8 -16 -4 -9 3 -20 0 -24 -7 -4 -7 -22 -13 -39 -14 -17 -1 -30 -5 -28 -11
1 -5 5 -9 10 -7 4 1 7 -3 7 -9 0 -6 -8 -8 -17 -5 -10 2 -38 8 -62 11 -40 7
-47 5 -70 -21 -34 -37 -68 -57 -76 -44 -4 6 -12 5 -20 -4 -11 -11 -24 -12 -57
-4 -24 5 -59 7 -79 5 -31 -4 -40 0 -64 26 -20 24 -25 38 -21 59 4 21 2 28 -10
28 -10 0 -14 -6 -11 -14 4 -9 -1 -17 -11 -20 -26 -7 -153 -19 -187 -17 -42 2
-122 -18 -136 -35 -16 -20 -46 -17 -69 6 -21 21 -17 50 6 50 7 0 21 12 31 26
9 15 48 46 85 70 37 24 68 47 68 50 0 13 -35 33 -57 34 -13 0 -23 5 -23 10 0
6 18 10 40 10 41 0 49 7 28 28 -9 9 -7 12 9 12 12 0 25 5 28 10 3 6 1 10 -4
10 -18 0 -91 34 -91 42 0 5 11 8 25 8 14 0 25 -4 25 -9 0 -14 74 -29 99 -19
16 5 43 3 82 -8 68 -19 89 -15 294 52 147 48 186 63 269 106 42 21 66 28 85
23 68 -16 151 -23 360 -30 78 -3 147 -8 153 -11 5 -4 73 -8 151 -10 77 -2 143
-8 146 -13 4 -4 70 -8 149 -7 117 1 146 -2 155 -14 9 -11 28 -14 75 -12 90 4
81 30 -18 50 -30 6 -86 18 -125 26 -149 32 -426 78 -635 106 -399 53 -866 87
-1253 91 l-159 2 -29 -44 c-16 -24 -29 -50 -29 -56 0 -7 -4 -13 -9 -13 -12 0
-20 -70 -8 -77 4 -3 1 -14 -9 -24 -9 -11 -15 -22 -11 -25 8 -8 -27 -41 -52
-49 -11 -3 -29 -1 -40 4 -14 8 -20 8 -23 0 -3 -9 -9 -9 -23 -1 -25 13 -76 26
-93 23 -8 -1 -20 3 -27 9 -11 9 -25 8 -60 -5 -44 -17 -75 -13 -45 5 22 13 -33
24 -78 15 -20 -4 -50 -9 -67 -10 -16 -2 -30 -4 -30 -5 0 0 -24 -3 -52 -6 -50
-4 -53 -3 -68 26 -18 35 -42 39 -54 9 -7 -22 -8 -22 -32 4 -17 19 -30 25 -47
20 -16 -4 -20 -9 -12 -18 7 -8 5 -18 -5 -31 -8 -10 -15 -27 -15 -36 0 -10 -5
-18 -11 -18 -6 0 -8 11 -4 29 5 23 2 29 -15 34 -11 3 -27 -1 -35 -10 -20 -19
-52 -9 -88 28 -15 16 -36 29 -46 29 -15 0 -18 5 -14 21 5 19 3 21 -20 15 -20
-5 -27 -3 -27 9 0 8 1 16 2 18 5 8 -26 48 -35 44 -8 -3 -12 7 -12 27 0 24 -4
31 -18 30 -10 -1 -25 8 -33 21 -14 22 -54 25 -54 4 0 -5 -9 -9 -20 -9 -11 0
-20 7 -20 15 0 8 5 15 11 15 5 0 7 4 4 10 -3 6 1 7 9 4 9 -3 23 -4 30 -1 13 5
13 10 0 37 -9 16 -20 27 -26 24 -6 -4 -8 1 -3 15 5 15 2 21 -10 21 -14 0 -40
45 -37 63 1 4 -5 10 -13 13 -8 4 -15 16 -15 28 0 20 -4 22 -32 17 -27 -4 -29
-6 -10 -9 20 -3 23 -8 21 -28 0 -3 13 -21 30 -40 18 -20 28 -40 24 -50 -4 -11
-9 -12 -16 -5 -6 6 -22 11 -37 10 -15 0 -19 -3 -10 -6 18 -7 30 -23 30 -40 0
-7 -7 -10 -15 -7 -8 4 -15 1 -15 -5 0 -6 5 -11 10 -11 16 0 12 -17 -6 -24 -10
-4 -22 1 -30 11 -13 17 -13 17 -14 -3 0 -11 5 -25 10 -30 14 -14 2 -44 -16
-44 -8 0 -14 -4 -14 -9 0 -8 -52 -23 -58 -16 -2 2 5 12 16 23 11 11 23 34 27
51 5 26 4 31 -12 31 -10 0 -25 9 -33 20 -8 11 -19 20 -25 20 -6 0 -21 11 -33
25 -12 13 -34 27 -49 31 -15 4 -34 12 -42 18 -8 6 -40 12 -72 12 -71 2 -86
-18 -43 -55 15 -12 35 -37 43 -55 9 -17 28 -37 44 -44 32 -15 35 -32 7 -39
-11 -3 -20 -9 -20 -14 0 -5 -9 -9 -21 -9 -11 0 -30 -5 -41 -11 -16 -8 -19 -8
-13 1 5 9 1 10 -14 5 -14 -4 -23 -1 -27 9 -3 9 -12 16 -18 16 -7 0 -29 8 -50
18 -33 16 -35 20 -22 31 23 19 21 55 -1 46 -10 -4 -23 -8 -30 -9 -23 -4 -26
-16 -9 -35 16 -17 16 -19 0 -25 -11 -4 -33 4 -60 24 -23 16 -45 30 -48 30 -18
0 -46 38 -46 62 0 39 -21 79 -39 76 -21 -4 -30 -50 -14 -66 7 -8 13 -30 12
-50 -1 -21 2 -47 6 -59 6 -19 4 -23 -14 -23 -13 0 -21 6 -21 16 0 10 -5 14
-15 10 -9 -3 -18 1 -22 10 -3 8 -12 13 -19 10 -7 -3 -16 -1 -19 4 -4 6 -29 7
-61 4 -43 -6 -58 -3 -73 10 -18 16 -21 16 -61 -4 -35 -18 -41 -25 -36 -44 6
-25 -33 -72 -49 -59 -5 5 -3 0 4 -9 8 -11 22 -16 39 -13 75 12 191 13 195 2 5
-17 57 11 57 31 0 10 7 13 23 8 12 -3 30 -6 40 -6 14 0 17 -5 12 -21 -6 -19
-5 -20 15 -9 16 9 19 14 10 25 -13 16 1 28 24 19 14 -5 14 -9 4 -22 -11 -13
-10 -14 9 -8 15 5 31 2 45 -8 12 -9 18 -17 13 -17 -6 -1 -14 -2 -20 -4 -5 -1
-25 -3 -44 -3 l-33 -2 22 -18 c26 -21 80 -18 80 4 0 19 14 18 31 -2 9 -12 24
-15 50 -11 44 6 52 1 39 -24 -12 -21 -3 -28 37 -34 16 -2 48 -9 73 -15 25 -6
55 -12 68 -13 41 -3 60 -67 28 -90 -7 -4 -2 -9 12 -13 12 -4 22 -11 22 -16 0
-5 5 -6 11 -2 6 3 9 17 6 31 -4 22 -2 24 22 17 14 -4 52 -8 84 -9 67 -1 84
-13 67 -45 -6 -12 -9 -28 -6 -36 3 -8 -2 -33 -10 -54 -17 -43 -53 -62 -78 -41
-10 8 -17 6 -30 -8 -16 -17 -16 -20 0 -35 9 -9 31 -23 50 -31 19 -8 34 -21 34
-29 0 -11 10 -15 35 -14 20 1 38 5 41 10 9 14 51 9 65 -8 10 -13 10 -17 -2
-25 -8 -5 -17 -9 -22 -9 -4 0 -13 -11 -19 -25 -6 -14 -17 -25 -25 -25 -7 0
-16 -7 -19 -15 -9 -23 -72 -56 -81 -42 -9 15 -14 37 -14 60 0 21 -22 22 -55 1
-17 -12 -28 -14 -36 -6 -7 7 -23 4 -54 -10 -59 -26 -80 -29 -110 -18 -22 9
-24 8 -14 -10 6 -12 21 -20 35 -20 30 0 31 -17 6 -47 -16 -19 -29 -23 -73 -23
l-53 1 30 15 c26 12 27 14 5 9 -14 -3 -35 -8 -47 -11 -14 -4 -23 -2 -23 5 0 6
-15 17 -34 25 -28 12 -41 12 -70 2 -20 -7 -33 -16 -29 -19 3 -4 1 -7 -5 -7 -5
0 -12 4 -14 10 -1 5 -14 11 -28 13 -16 3 -25 10 -25 23 0 11 9 20 25 24 20 5
25 12 25 35 1 17 4 36 8 43 5 7 3 12 -3 12 -6 0 -13 -7 -16 -15 -4 -8 -11 -15
-18 -15 -6 0 -27 -13 -46 -30 -19 -16 -43 -29 -53 -30 -30 0 -57 -19 -51 -35
7 -16 -11 -21 -21 -6 -3 5 -19 9 -35 9 -16 -1 -36 4 -44 11 -11 9 -20 10 -35
1 -30 -15 -26 -23 8 -15 27 6 30 4 28 -18 -1 -14 -13 -34 -27 -45 l-24 -20 42
-7 c23 -4 45 -11 48 -17 3 -5 13 0 21 11 17 25 46 27 68 4 16 -15 18 -15 26 0
9 15 20 27 53 55 18 14 30 16 21 2 -3 -5 9 -19 26 -29 28 -17 30 -21 15 -27
-9 -4 -22 -2 -29 5 -15 15 -35 14 -51 -2 -19 -19 -8 -35 19 -29 14 2 36 -3 49
-11 22 -15 24 -15 29 4 3 11 9 19 14 18 13 -3 73 25 73 34 0 4 4 6 10 2 10 -6
-18 -45 -33 -45 -5 0 -16 -7 -25 -16 -15 -15 -15 -17 1 -29 9 -7 17 -17 17
-23 0 -6 9 -14 20 -17 11 -3 20 -14 20 -24 0 -14 -14 -20 -67 -28 -38 -6 -70
-9 -72 -7 -3 3 4 11 15 19 19 14 18 14 -3 15 -12 0 -24 -4 -27 -9 -3 -5 -29
-9 -58 -9 -38 0 -55 -4 -65 -18 -18 -25 -16 -34 7 -34 11 0 20 -5 20 -11 0 -5
5 -7 12 -3 6 4 8 3 5 -4 -4 -5 -16 -8 -27 -5 -13 4 -20 0 -20 -10 0 -15 -47
-33 -58 -22 -3 3 2 5 11 5 25 0 28 16 7 41 -11 13 -19 19 -20 12 0 -6 -13 -18
-30 -27 -25 -12 -30 -12 -30 -1 0 9 -9 5 -25 -10 -32 -32 -59 -32 -74 2 l-12
26 -15 -21 c-8 -12 -20 -22 -25 -22 -17 0 -41 -29 -33 -41 4 -8 0 -9 -15 -4
-16 5 -20 3 -15 -10 6 -14 -1 -16 -52 -13 -46 2 -58 6 -56 18 3 11 -1 11 -16
-3 -10 -9 -30 -17 -45 -17 -14 0 -29 -5 -32 -10 -9 -15 -25 -2 -18 15 3 8 0
15 -6 15 -6 0 -11 -4 -11 -10 0 -16 -30 1 -31 19 0 10 -2 11 -6 4 -2 -7 -16
-13 -29 -13 -14 0 -27 -7 -30 -15 -8 -19 -54 -20 -54 -1 0 8 6 16 13 19 6 2 9
8 5 12 -5 5 -19 3 -32 -3 -20 -9 -29 -7 -51 9 -14 12 -32 18 -40 15 -8 -3 -15
-1 -15 4 0 4 13 11 30 15 16 4 30 11 30 16 0 6 9 5 21 -1 25 -14 109 7 109 27
0 21 40 35 79 29 33 -6 34 -5 18 8 -12 9 -17 24 -15 43 2 22 9 29 30 31 16 2
30 11 33 23 4 10 14 20 23 20 39 4 48 6 65 13 10 5 23 3 33 -5 13 -10 16 -9
21 9 3 12 12 22 20 22 8 0 11 -4 8 -10 -3 -5 1 -10 9 -10 9 0 15 3 14 8 -1 4
6 20 17 35 16 24 24 28 54 25 24 -3 40 1 53 14 23 23 23 40 1 36 -11 -2 -18 3
-18 12 0 10 13 17 38 20 21 3 38 8 37 13 0 4 0 12 0 17 0 6 11 10 25 10 18 0
25 5 25 20 0 25 35 48 80 53 19 2 45 9 57 15 29 16 43 15 43 -3 0 -13 3 -13
20 -3 18 11 18 14 5 24 -17 13 -21 69 -5 79 6 3 10 15 10 25 0 13 5 17 14 14
8 -3 25 4 37 15 13 12 17 21 10 21 -7 0 -9 5 -5 11 4 8 26 10 61 6 46 -5 54
-3 49 9 -3 9 -6 18 -6 20 0 10 -68 2 -94 -11 -38 -20 -49 -19 -41 5 8 25 -11
27 -43 4 -12 -8 -26 -12 -32 -9 -5 3 -23 8 -39 10 -22 2 -30 -1 -34 -17 -4
-15 -11 -18 -29 -13 -35 11 -53 31 -41 47 9 10 -5 13 -73 13 -63 0 -83 -3 -79
-12 5 -15 -31 -18 -40 -3 -7 12 -45 14 -45 2 0 -4 6 -14 13 -21 10 -10 9 -11
-4 -6 -11 4 -19 0 -23 -12 -6 -14 4 -28 41 -60 l48 -42 -25 -11 c-24 -10 -23
-10 7 -6 19 3 33 1 36 -7 2 -7 20 -10 45 -8 25 1 42 -2 42 -8 0 -6 7 -11 15
-11 8 0 15 -4 15 -9 0 -15 -18 -23 -25 -12 -7 12 -55 -7 -55 -21 0 -4 -16 -8
-35 -8 -23 0 -35 5 -35 13 0 16 -31 47 -47 47 -15 0 -27 -34 -14 -38 6 -2 11
-11 11 -19 0 -9 8 -22 18 -29 12 -9 14 -16 6 -24 -22 -22 -142 -6 -137 19 2 6
-4 11 -12 11 -8 0 -29 16 -48 35 -38 39 -58 45 -50 16 3 -12 -4 -28 -18 -42
-18 -18 -25 -20 -40 -10 -23 14 -59 14 -59 0 0 -6 -10 -9 -22 -7 -18 2 -22 8
-20 28 2 14 8 27 13 28 5 2 16 10 23 18 8 8 24 14 35 14 11 0 22 4 25 8 6 10
-134 6 -179 -4 -16 -4 -38 -15 -48 -25 -22 -23 -22 -23 -42 -3 -13 14 -23 15
-50 7 -38 -12 -95 9 -95 34 0 12 -7 14 -31 9 -37 -7 -73 9 -65 30 4 10 -3 18
-22 25 -31 11 -43 12 -39 3 1 -3 -11 -13 -28 -21 l-29 -16 22 -15 c12 -8 22
-23 22 -33 0 -12 7 -19 20 -19 22 0 27 -16 8 -22 -10 -4 -10 -10 -1 -30 6 -14
9 -35 6 -47 -3 -12 -1 -21 6 -21 6 0 11 -7 11 -15 0 -20 23 -19 68 4 47 23 92
34 92 22 0 -5 -7 -11 -15 -15 -8 -3 -15 -10 -15 -16 0 -16 21 -12 37 8 13 16
14 15 10 -10 -5 -36 23 -43 50 -12 16 18 17 24 7 28 -21 8 -17 36 6 36 11 0
20 -7 20 -15 0 -8 5 -15 10 -15 6 0 10 -7 10 -15 0 -9 -9 -15 -21 -15 -18 0
-19 -2 -9 -15 7 -8 18 -15 25 -15 7 0 15 7 19 15 7 19 46 20 46 0 0 -8 -11
-17 -25 -21 -13 -3 -27 -15 -30 -25 -4 -10 -12 -19 -19 -19 -7 0 -29 -11 -48
-24 -24 -16 -40 -21 -49 -15 -8 5 -29 6 -46 3 -21 -4 -33 -2 -33 5 0 6 -4 11
-10 11 -5 0 -10 -9 -10 -20 0 -21 3 -22 85 -24 39 -1 50 -5 53 -18 2 -12 -3
-19 -15 -19 -37 -3 -49 -5 -85 -13 -29 -6 -41 -4 -53 8 -11 10 -25 13 -47 9
-24 -5 -30 -3 -26 8 3 8 18 16 34 19 20 4 25 8 16 14 -7 4 -29 5 -48 2 -25 -5
-36 -3 -40 8 -3 8 -11 13 -19 10 -7 -3 -19 2 -28 10 -9 9 -19 16 -22 16 -4 0
-20 11 -37 25 -33 28 -48 32 -48 11 0 -15 -45 -30 -60 -21 -17 11 -11 35 8 35
24 0 72 41 72 61 0 24 30 59 51 59 16 0 18 3 10 19 -8 14 -6 22 8 35 9 9 23
16 29 16 19 0 14 17 -8 23 -16 4 -18 11 -13 43 5 34 4 37 -9 24 -8 -8 -27 -44
-42 -80 -53 -128 -57 -133 -111 -152 -27 -10 -150 -52 -273 -94 -122 -41 -282
-100 -355 -131 -73 -30 -173 -70 -222 -88 -82 -30 -132 -51 -345 -145 -36 -16
-90 -38 -120 -50 -30 -12 -59 -25 -65 -30 -6 -5 -33 -17 -60 -28 -28 -11 -133
-61 -235 -111 -102 -50 -192 -91 -201 -91 -9 0 -22 -7 -29 -15 -7 -8 -17 -15
-22 -15 -6 0 -38 -17 -72 -37 -66 -41 -132 -73 -149 -73 -26 0 -97 -34 -97
-46 0 -8 -8 -14 -17 -15 -10 0 -36 -11 -58 -24 -22 -12 -81 -43 -132 -68 -50
-25 -117 -61 -147 -81 -31 -20 -60 -36 -65 -36 -5 0 -22 -10 -38 -23 -15 -13
-59 -40 -98 -61 l-69 -38 -51 21 c-27 11 -75 29 -105 40 -30 10 -80 30 -110
44 -55 25 -115 44 -203 67 -26 7 -50 16 -53 21 -2 5 -48 22 -100 39 -97 31
-148 56 -139 70 2 4 17 5 32 2 16 -2 25 -1 21 3 -4 5 -42 9 -84 9 -61 1 -79 5
-89 20 -8 10 -18 15 -24 11 -8 -4 -11 -379 -11 -1246 0 -1130 1 -1242 16
-1265 15 -23 15 -26 0 -42 -14 -16 -16 -83 -16 -655 l0 -637 54 0 c38 0 56 4
59 14 7 18 112 86 131 86 51 0 62 -46 20 -79 l-27 -21 41 0 c22 0 44 5 47 10
3 6 1 10 -4 10 -6 0 -11 5 -11 10 0 14 27 12 33 -2 3 -7 6 -1 6 15 1 29 18 37
28 12 3 -9 -3 -25 -12 -35 -18 -20 -16 -20 114 -19 75 0 131 4 131 10 0 5 7 9
16 9 8 0 12 -4 9 -10 -4 -6 131 -9 370 -9 212 1 375 5 375 10 0 5 5 9 11 9 5
0 7 -4 4 -10 -4 -6 42 -10 130 -10 105 0 141 3 159 15 21 14 24 14 29 1 9 -22
272 -22 294 -1 8 8 11 19 8 25 -3 5 0 10 8 10 7 0 20 -11 27 -25 l13 -25 249
1 c207 0 250 3 255 15 7 18 32 18 39 -1 5 -12 26 -15 102 -15 86 0 94 1 76 15
-21 16 -22 16 24 18 19 1 36 -1 39 -5 2 -5 -1 -8 -6 -8 -6 0 -11 -4 -11 -10 0
-16 1137 -14 1144 3 5 9 7 9 12 0 8 -17 120 -17 128 0 5 9 7 9 12 0 4 -10 802
-13 3940 -13 l3934 0 0 2184 0 2185 -52 29 c-117 67 -330 176 -448 230 -36 16
-118 55 -182 85 -64 31 -144 66 -177 79 -55 21 -66 32 -58 56 1 4 11 6 21 4
23 -3 40 19 23 30 -18 12 -69 10 -62 -2 4 -7 -2 -9 -17 -6 -12 3 -41 8 -63 11
-21 4 -52 13 -67 21 -25 13 -29 13 -48 -6 -24 -24 -49 -28 -30 -5 10 12 10 15
-1 16 -39 5 -55 4 -66 -4 -6 -4 -14 -3 -17 2 -4 6 -13 8 -21 4 -9 -3 -15 1
-15 8 0 10 -15 14 -50 16 -70 2 -108 12 -90 23 24 15 -32 35 -58 21 -15 -8
-23 -8 -28 0 -4 7 -9 7 -13 1 -3 -5 -17 -13 -31 -17 -25 -8 -25 -8 -6 14 19
21 19 21 -2 21 -11 0 -23 -6 -25 -12 -4 -9 -6 -7 -6 3 -1 9 -13 21 -27 27 -14
7 -22 17 -19 22 3 6 -1 10 -9 10 -27 0 -18 17 18 34 44 21 49 21 131 -10 39
-14 111 -39 160 -56 50 -16 106 -37 125 -46 19 -9 37 -16 40 -17 3 -1 12 -5
20 -8 28 -13 163 -57 173 -57 5 0 7 9 4 21 -5 19 -3 20 36 14 23 -4 48 -11 57
-15 8 -5 42 -12 74 -17 33 -4 61 -14 64 -20 2 -7 -3 -13 -12 -13 -19 0 -21
-26 -3 -33 21 -8 39 7 31 26 -5 14 0 17 25 17 21 0 31 -5 31 -15 0 -8 -9 -15
-20 -15 -13 0 -18 -5 -14 -15 4 -9 -3 -16 -22 -21 -22 -6 -31 -3 -42 14 -10
15 -25 22 -46 22 l-31 0 25 -20 c14 -11 30 -20 35 -20 6 0 37 -14 70 -30 33
-17 67 -30 76 -30 9 0 22 -6 28 -14 7 -8 24 -17 38 -21 15 -3 40 -16 56 -27
16 -12 60 -33 97 -47 38 -15 79 -35 92 -44 41 -31 163 -85 169 -75 8 12 74 17
91 7 9 -6 3 -10 -20 -15 -18 -4 -35 -10 -38 -15 -5 -9 93 -69 114 -69 14 0 16
46 2 55 -7 4 -7 12 0 25 6 12 10 207 10 528 0 444 -2 511 -15 516 -8 3 -15 13
-15 21 0 9 -4 14 -8 11 -4 -2 -14 0 -22 6 -12 8 -12 9 2 4 31 -10 62 69 46
116 -8 21 -7 33 1 41 7 7 11 56 11 134 l0 123 -437 -2 -438 -3 -3 -35 c-2 -27
2 -38 19 -49 21 -12 25 -11 42 10 l20 24 -6 -45 c-5 -41 -4 -43 7 -20 8 14 17
43 22 65 6 30 9 34 12 18 2 -13 12 -29 24 -37 16 -11 18 -18 9 -34 -18 -34
-13 -52 13 -52 18 0 25 -7 30 -31 6 -30 6 -30 53 -23 27 3 54 11 61 16 8 8 12
6 12 -5 0 -9 -8 -21 -17 -26 -17 -10 -17 -10 0 -11 9 0 17 4 17 9 0 5 10 9 23
9 12 0 40 1 62 2 21 1 41 -3 43 -9 2 -6 10 -11 17 -11 7 0 15 -6 18 -12 4 -10
7 -10 18 0 19 18 26 15 33 -13 4 -14 14 -25 24 -26 79 -4 103 -10 144 -33 26
-14 56 -26 66 -26 28 0 47 -26 36 -49 -9 -19 -11 -19 -69 -1 -33 9 -95 23
-139 29 -43 7 -93 21 -110 30 -17 10 -39 18 -48 19 -43 4 -48 6 -48 14 0 4
-16 8 -36 8 -19 0 -56 8 -82 19 -70 27 -116 41 -140 41 -11 0 -23 4 -26 9 -3
4 -25 11 -48 15 -36 6 -158 53 -313 121 -40 17 -145 42 -225 54 -36 5 -83 16
-104 25 -28 12 -70 16 -155 16 l-116 0 40 -24z m1308 -415 c4 0 7 -7 7 -15 0
-8 12 -17 26 -20 15 -4 33 -14 41 -21 19 -20 30 -19 49 3 10 12 24 17 39 14
21 -4 22 -7 13 -28 -6 -13 -15 -24 -19 -24 -4 0 -14 -6 -21 -13 -7 -8 -29 -17
-48 -20 -21 -4 -30 -3 -22 2 20 13 -11 22 -49 14 l-31 -6 34 -20 c18 -11 44
-27 58 -36 14 -9 36 -16 49 -16 13 0 26 -6 29 -14 4 -11 -3 -13 -34 -8 -22 4
-58 7 -81 7 -34 0 -43 4 -44 18 0 11 -2 12 -6 4 -4 -10 -9 -10 -23 3 -14 12
-23 13 -45 5 -39 -15 -54 -7 -47 25 4 23 8 25 33 20 31 -7 69 8 50 19 -20 13
-12 42 15 55 l26 11 -24 19 c-23 19 -23 19 -31 -2 -6 -15 -10 -18 -19 -9 -23
23 22 42 75 33z m-1738 -140 c62 -8 106 -22 165 -51 8 -4 15 -13 15 -20 0 -7
6 -15 13 -17 6 -3 12 0 12 6 0 6 5 11 10 11 16 0 11 -30 -6 -37 -9 -3 -24 -1
-34 5 -10 6 -50 14 -89 18 -39 3 -74 11 -77 15 -3 5 -20 9 -38 9 -35 0 -136
27 -149 40 -17 15 36 41 73 36 19 -3 67 -9 105 -15z m-3795 -260 c0 -5 -10
-12 -22 -14 -13 -3 1 -3 30 -1 30 1 65 -2 80 -7 18 -7 27 -6 33 3 4 7 11 9 16
5 4 -5 1 -12 -6 -16 -17 -11 -6 -31 17 -31 9 0 28 -6 42 -13 21 -11 29 -10 52
2 25 15 28 14 53 -13 20 -21 29 -25 39 -17 17 14 49 3 42 -15 -3 -7 3 -16 13
-19 10 -3 30 -19 45 -36 22 -24 30 -28 41 -19 24 20 36 1 14 -21 -11 -11 -24
-17 -29 -14 -6 4 -10 1 -10 -5 0 -6 -8 -10 -17 -9 -30 3 -44 -1 -39 -9 2 -4
-6 -9 -20 -10 -15 -1 -24 3 -24 13 0 26 -24 16 -43 -16 -11 -19 -23 -29 -31
-26 -10 4 -16 -2 -18 -16 -4 -28 -23 -24 -23 6 0 19 -6 22 -42 25 -29 2 -44 8
-44 18 -1 8 -2 20 -3 27 -1 7 8 11 23 9 35 -5 73 17 65 40 -5 17 -4 17 38 -1
46 -19 62 -18 91 7 27 23 21 30 -38 43 -30 7 -55 18 -55 24 0 7 -11 13 -25 13
-22 0 -25 -5 -25 -39 0 -22 -5 -39 -11 -39 -6 0 -8 8 -4 19 9 29 -16 43 -54
30 -17 -6 -31 -15 -31 -20 0 -5 -7 -9 -15 -9 -9 0 -21 -4 -28 -10 -56 -46 -77
-57 -109 -58 -51 -3 -48 5 7 19 49 12 63 25 47 41 -8 8 -8 17 -1 30 8 16 13
17 25 7 12 -10 13 -9 8 4 -3 9 3 24 14 35 27 27 19 33 -33 25 -34 -4 -48 -1
-73 17 -29 21 -30 24 -14 36 20 16 52 18 52 5z m1354 -67 c9 -3 16 -12 16 -20
0 -16 16 -19 25 -4 15 25 42 8 63 -40 12 -28 22 -54 22 -59 0 -5 8 -12 17 -15
13 -5 14 -9 3 -19 -10 -9 -14 -9 -17 1 -4 10 -8 10 -18 2 -10 -8 -20 -8 -37 1
-13 7 -27 12 -32 11 -5 -2 -18 5 -29 15 -11 10 -18 13 -14 7 4 -7 -8 -7 -41 1
-26 7 -47 17 -46 24 2 28 5 32 13 27 5 -4 11 -1 13 5 3 8 8 7 18 -2 8 -8 41
-27 73 -43 31 -15 58 -33 58 -39 1 -7 5 2 8 18 8 33 3 54 -9 35 -9 -15 -30 -5
-30 14 0 18 -35 27 -50 12 -8 -8 -10 -7 -5 5 3 9 -1 23 -9 32 -9 9 -16 20 -16
26 0 13 3 13 24 5z m-784 -169 c0 -8 5 -15 10 -15 6 0 10 7 10 15 0 8 6 15 13
15 7 0 13 -9 13 -21 0 -14 -8 -22 -28 -26 -15 -3 -28 -12 -28 -20 0 -11 7 -13
33 -7 44 10 47 10 88 -10 20 -9 41 -28 48 -42 7 -17 17 -24 26 -20 19 7 45 -3
45 -16 0 -6 -7 -5 -15 2 -20 17 -32 5 -15 -15 17 -20 27 -19 35 5 3 11 14 20
23 20 29 0 81 38 88 65 3 14 10 25 16 25 5 0 6 -5 2 -11 -5 -9 1 -10 20 -5 21
5 26 3 26 -13 0 -11 5 -21 11 -23 17 -6 -5 -37 -46 -68 -18 -14 -41 -37 -50
-52 -19 -33 -47 -36 -75 -8 -11 11 -24 20 -30 20 -5 0 -10 3 -10 8 0 4 -9 13
-20 20 -19 12 -20 10 -15 -42 4 -42 2 -55 -10 -59 -8 -4 -17 -2 -20 3 -4 6
-16 10 -28 10 -13 0 -31 6 -42 14 -22 15 -105 19 -105 5 0 -5 -8 -9 -17 -9
-16 -1 -15 -3 4 -19 l22 -19 -22 -7 c-13 -4 -17 -8 -9 -12 6 -2 9 -9 6 -14 -7
-12 -34 8 -34 26 0 8 6 16 13 19 6 3 -1 3 -18 -1 -16 -3 -34 -8 -40 -12 -5 -3
-23 -4 -39 -2 -18 2 -26 -1 -22 -8 4 -6 0 -11 -8 -11 -17 0 -17 20 -1 33 6 5
0 7 -13 4 -19 -4 -22 -2 -17 14 5 14 2 19 -10 19 -12 0 -15 -5 -11 -16 4 -10
2 -14 -6 -11 -7 2 -12 9 -11 15 4 16 -105 -4 -187 -35 -12 -4 -13 -3 -2 8 35
37 -4 39 -57 2 -43 -30 -51 -43 -26 -43 8 0 15 -3 15 -6 0 -3 -7 -12 -15 -20
-19 -19 -19 -34 -1 -34 8 0 18 9 21 20 3 11 10 20 15 20 5 0 7 6 4 14 -4 10 2
12 20 9 31 -6 34 -29 5 -38 -12 -4 -18 -12 -15 -21 3 -8 1 -14 -4 -14 -6 0
-10 -4 -10 -10 0 -5 14 -7 33 -3 17 3 29 3 26 -1 -3 -4 -26 -10 -50 -15 -28
-5 -43 -12 -41 -20 2 -8 -3 -11 -12 -8 -8 3 -34 0 -58 -8 -24 -7 -36 -14 -28
-15 26 -3 -22 -19 -60 -19 -47 -1 -112 -20 -105 -31 6 -10 -11 -16 -72 -25
-24 -4 -43 -10 -43 -15 0 -4 9 -6 20 -3 11 3 26 0 34 -6 9 -8 16 -8 20 -2 4 5
14 10 24 10 26 0 135 25 148 33 6 4 20 1 30 -7 17 -13 17 -14 2 -15 -12 0 -16
-5 -12 -17 4 -13 3 -14 -3 -5 -6 8 -21 10 -42 6 -33 -7 -31 -18 4 -27 15 -3
13 -5 -8 -6 -26 -1 -27 -2 -13 -17 9 -8 20 -13 25 -9 15 9 83 -23 76 -35 -4
-7 -11 -7 -18 -2 -29 23 -203 0 -292 -38 -11 -5 -50 -22 -88 -38 -37 -16 -64
-32 -60 -36 4 -4 0 -4 -9 -1 -8 3 -35 -3 -59 -13 -24 -11 -69 -28 -99 -37 -30
-9 -68 -22 -84 -28 -43 -18 -304 -149 -281 -142 157 49 264 86 380 131 77 30
168 60 203 67 34 7 60 16 57 19 -4 3 -2 9 4 13 6 3 11 1 11 -4 0 -6 9 -11 20
-11 24 0 70 -21 70 -32 0 -4 -14 -8 -30 -8 -33 0 -131 -30 -197 -61 -24 -10
-47 -19 -52 -19 -5 0 -14 -7 -21 -15 -7 -8 -18 -14 -24 -13 -6 1 -38 -11 -71
-26 -33 -15 -77 -31 -98 -35 -20 -5 -38 -10 -40 -10 -1 -1 -12 -4 -24 -7 -13
-4 -23 -13 -23 -20 0 -17 -11 -17 135 1 65 8 124 15 130 14 23 -2 -104 -28
-165 -34 -36 -3 -78 -9 -94 -12 -25 -5 -28 -3 -22 13 4 12 -8 5 -31 -17 -41
-39 -115 -80 -228 -124 -75 -29 -107 -50 -65 -41 14 2 49 8 79 11 30 3 62 10
71 15 9 5 54 16 101 25 46 10 88 21 93 26 14 13 -1 24 -16 12 -21 -16 -48 -23
-48 -13 0 6 7 10 15 10 26 0 16 18 -12 23 -34 6 158 -2 207 -8 30 -4 31 -4 9
4 -14 4 -66 12 -115 16 -57 5 -82 10 -69 15 22 8 119 4 150 -7 22 -7 31 -9 58
-11 9 -1 17 -9 17 -17 0 -8 6 -15 14 -15 8 0 21 -3 30 -6 9 -3 16 -1 16 5 0 6
-7 11 -16 11 -8 0 -13 4 -9 10 9 14 35 0 35 -19 0 -13 10 -18 45 -20 39 -2 44
0 38 15 -5 14 -3 16 11 11 10 -4 22 -7 27 -7 5 0 9 -5 9 -11 0 -6 -7 -9 -15
-5 -8 3 -18 -1 -22 -8 -5 -8 -32 -16 -63 -19 -30 -3 -80 -8 -110 -12 -51 -6
-54 -5 -35 9 18 14 18 15 3 16 -10 0 -18 6 -18 14 0 20 -64 13 -68 -8 -2 -9
-8 -16 -13 -16 -5 0 -9 -9 -9 -19 0 -25 -21 -32 -76 -24 -25 3 -62 1 -82 -5
-20 -6 -60 -17 -89 -24 -50 -12 -46 -13 100 -14 158 0 309 -21 364 -49 15 -8
34 -15 41 -15 7 0 20 -4 30 -9 9 -5 33 -17 52 -26 l35 -16 -50 5 c-27 2 -59 6
-70 9 -11 3 -54 7 -95 10 -41 3 -65 3 -52 1 36 -8 26 -27 -10 -20 -18 3 -60 8
-93 12 -33 3 -66 7 -72 9 -7 3 -13 1 -13 -4 0 -5 24 -11 53 -15 125 -16 382
-77 399 -94 16 -16 -1 -32 -34 -32 -17 0 -59 4 -92 10 -222 35 -267 43 -321
56 -33 8 -82 21 -109 29 -27 8 -74 15 -105 14 -31 0 -78 5 -106 11 -79 17 -95
19 -101 9 -6 -10 36 -28 72 -31 13 -1 24 -7 24 -13 0 -5 15 -10 33 -11 18 0
42 -4 53 -9 20 -9 34 -13 62 -19 9 -2 16 -9 14 -17 -3 -10 0 -10 12 1 15 11
20 7 17 -13 -1 -5 8 -6 19 -2 12 4 20 2 20 -5 0 -6 5 -8 10 -5 6 4 24 -1 42
-9 17 -9 39 -16 50 -16 10 0 18 -4 18 -9 0 -5 12 -12 26 -15 69 -18 576 -286
540 -286 -5 0 2 -8 14 -18 28 -23 19 -42 -18 -42 -18 0 -23 3 -14 8 8 6 -24
22 -90 47 -121 44 -133 50 -256 105 -51 23 -98 40 -105 37 -6 -3 1 -10 16 -16
15 -6 51 -22 80 -35 29 -14 84 -36 122 -51 136 -50 205 -78 205 -83 0 -2 -16
-1 -36 3 -24 4 -39 2 -44 -5 -5 -8 -12 -7 -23 4 -8 9 -20 16 -25 16 -5 0 -15
6 -21 14 -7 8 -27 18 -44 21 -18 4 -39 13 -47 20 -21 17 -52 26 -107 29 -37 2
-52 9 -74 34 -15 17 -29 28 -32 26 -11 -11 -90 22 -95 39 -2 10 -38 36 -81 57
-42 22 -100 53 -129 70 -44 25 -62 29 -106 27 -34 -2 -60 -10 -71 -20 -9 -9
-28 -17 -42 -17 -20 0 -24 4 -20 20 3 12 0 20 -8 20 -7 0 -19 8 -26 17 -12 15
-12 16 8 11 13 -4 24 -1 27 7 3 9 19 11 52 7 34 -3 45 -2 40 7 -10 16 -72 46
-133 64 -29 9 -65 26 -82 38 -19 14 -38 20 -55 17 -14 -3 -26 -1 -26 3 0 5
-18 9 -39 9 -22 0 -43 5 -46 10 -8 12 -60 6 -98 -11 -24 -11 -30 -11 -37 1 -7
11 -14 12 -35 2 -15 -7 -31 -10 -36 -7 -5 4 -9 2 -9 -2 0 -5 -17 -9 -39 -9
-80 -2 -130 -14 -124 -30 3 -8 -1 -14 -11 -14 -10 0 -13 6 -10 15 4 9 0 15 -9
15 -9 0 -23 3 -33 7 -13 5 -16 3 -11 -10 5 -13 1 -17 -18 -17 -13 0 -26 -4
-29 -9 -9 -14 19 -21 58 -14 28 4 36 2 36 -9 0 -9 -7 -22 -16 -29 -23 -19
-117 -40 -128 -28 -12 11 -29 12 -22 1 2 -4 -12 -9 -32 -10 -20 -2 -39 -6 -42
-10 -3 -4 -15 -8 -28 -9 -19 -3 -23 1 -20 20 2 18 -1 22 -21 19 -17 -1 -22 2
-17 13 7 18 -5 20 -22 3 -9 -9 -12 -7 -12 9 0 23 -56 73 -80 73 -7 0 -22 -7
-32 -17 -17 -15 -19 -15 -36 0 -10 10 -24 17 -30 17 -20 0 -13 16 10 28 22 11
21 11 -4 6 -17 -4 -28 -2 -28 5 0 6 -11 11 -24 11 -36 0 -46 53 -17 84 13 14
19 29 15 39 -4 13 -1 17 15 17 23 0 26 -11 11 -41 -9 -16 -7 -19 9 -19 11 0
23 -5 26 -10 4 -6 16 -8 28 -5 21 6 21 5 4 -9 -18 -14 -18 -15 7 -28 14 -7 26
-17 28 -23 2 -5 5 -9 8 -9 36 10 139 13 145 5 5 -9 -46 -17 -77 -12 -5 0 -8
-4 -8 -10 0 -8 28 -10 95 -7 74 4 95 2 95 -8 0 -7 8 -17 17 -23 10 -5 14 -13
10 -18 -5 -4 -14 0 -21 10 -14 18 -66 24 -66 7 0 -6 -19 -19 -42 -30 -48 -21
-27 -27 35 -9 48 13 60 4 28 -22 -13 -10 -17 -19 -10 -18 21 1 96 37 80 38
-23 1 5 27 54 50 43 20 62 37 52 48 -3 2 -24 7 -46 10 -23 3 -41 9 -41 14 0 4
-14 11 -32 14 -26 6 -29 10 -17 19 18 14 20 56 2 49 -21 -8 -15 25 6 37 11 5
36 10 55 10 20 0 36 4 36 9 0 5 18 28 40 51 23 24 39 44 37 46 -7 7 -96 -27
-108 -42 -6 -8 -19 -14 -29 -14 -26 0 -88 -28 -92 -41 -3 -9 -10 -8 -26 2 -28
18 -28 37 1 49 20 8 20 9 -9 9 -37 1 -58 19 -43 37 9 11 3 13 -25 12 -24 -1
-35 -5 -32 -13 2 -7 -9 -22 -26 -35 -27 -20 -32 -21 -46 -7 -14 14 -13 17 11
28 14 6 30 25 36 40 9 26 14 29 55 29 25 0 48 -4 51 -10 3 -5 28 -10 55 -10
40 0 48 3 44 15 -4 10 -20 15 -50 15 -33 0 -44 4 -44 16 0 11 -6 14 -20 9 -13
-4 -27 1 -42 14 -12 12 -27 21 -34 21 -13 0 -30 37 -25 58 1 7 -5 15 -14 18
-20 8 -21 64 0 64 8 0 15 -4 15 -9 0 -4 25 -8 56 -8 59 0 76 -10 79 -44 1 -18
11 -25 50 -35 32 -8 58 -9 73 -3 35 13 42 11 42 -12 0 -16 4 -19 20 -14 22 7
26 -5 8 -23 -9 -9 -7 -12 10 -12 15 0 20 4 15 16 -4 10 -1 15 8 13 23 -5 59
11 59 27 0 8 6 14 13 14 21 0 40 -17 33 -29 -4 -6 -4 -10 1 -9 4 1 18 -3 31
-10 27 -15 43 -8 35 16 -6 16 -5 16 14 0 11 -10 25 -18 31 -18 7 0 12 -4 12
-10 0 -5 -6 -10 -12 -10 -9 0 -9 -3 1 -9 10 -6 22 -5 35 5 27 18 29 18 57 -8
66 -61 108 -72 133 -36 l16 22 0 -22 c0 -27 11 -28 34 -3 9 10 35 26 56 36 35
16 44 16 65 5 29 -16 33 -30 7 -30 -11 0 -27 -9 -37 -20 -10 -11 -24 -20 -32
-20 -8 0 -26 -9 -41 -20 -15 -11 -39 -21 -54 -22 -26 -2 -41 -18 -18 -18 6 0
10 -4 10 -10 0 -5 -7 -10 -15 -10 -7 0 -18 -7 -23 -17 -13 -23 -60 -26 -64 -5
-4 18 10 52 27 64 12 9 6 10 -60 8 -28 -1 -70 3 -95 9 -30 7 -48 7 -57 0 -6
-6 -25 -10 -40 -9 -46 3 -51 1 -61 -29 -9 -25 -8 -29 4 -24 8 3 13 12 10 19
-3 8 1 14 8 14 8 0 16 -5 18 -10 2 -6 18 -2 39 9 35 19 37 19 56 2 11 -10 34
-22 51 -26 18 -4 32 -13 32 -21 0 -11 -7 -13 -27 -8 l-28 6 24 -17 c23 -17 23
-19 6 -32 -17 -12 -17 -13 -2 -13 10 0 25 9 34 20 17 20 39 28 29 11 -3 -5 15
-12 40 -16 51 -7 104 9 104 31 0 8 10 14 24 14 21 0 25 6 28 32 2 24 9 34 23
36 11 2 27 10 36 18 12 11 20 12 42 1 36 -16 34 -23 -10 -38 -25 -9 -32 -14
-20 -17 9 -2 17 -11 17 -19 0 -9 -3 -14 -6 -10 -8 7 -28 -12 -37 -35 -8 -22
11 -23 59 -6 30 11 48 37 45 65 -1 7 10 11 26 10 21 -2 30 4 41 25 23 48 81
63 67 17 -4 -10 -2 -19 4 -19 29 0 139 55 161 81 3 3 26 15 52 28 25 12 49 28
51 35 3 8 26 24 51 37 25 12 46 26 46 30 0 5 38 20 85 35 47 15 88 30 91 35 3
5 12 9 21 9 17 0 63 45 63 61 0 6 -3 8 -8 5 -4 -2 -16 2 -27 10 -10 8 -15 14
-9 15 62 4 85 8 96 16 7 6 32 14 55 18 48 8 133 58 133 79 0 7 7 19 16 27 8 7
24 30 35 51 11 22 27 38 37 38 10 0 40 19 67 41 28 23 69 50 93 61 23 10 42
23 42 28 0 6 7 10 16 10 18 0 66 35 58 42 -2 3 6 3 20 1 16 -3 50 7 90 26 36
18 71 31 78 30 33 -4 50 2 45 15 -3 8 1 20 9 27 10 8 11 15 3 25 -13 16 -40 7
-33 -11 3 -7 -5 -20 -17 -29 -26 -18 -51 -9 -25 9 9 7 16 17 15 21 -4 23 4 32
34 39 17 4 36 7 41 6 4 -1 14 3 22 10 8 6 21 9 29 5 8 -3 15 -2 15 3 0 5 14
11 30 13 17 3 30 0 30 -6 0 -6 4 -5 9 2 4 8 14 12 22 11 8 -1 22 1 32 6 16 7
47 -9 47 -24 0 -4 -16 -13 -35 -21 -19 -7 -31 -18 -28 -23 4 -6 -3 -8 -16 -4
-24 6 -71 -10 -71 -24 0 -8 15 -14 67 -24 17 -3 34 -13 37 -21 3 -8 13 -14 21
-14 9 0 13 -4 10 -10 -10 -16 61 -12 75 5 17 20 7 29 -22 19 -22 -7 -22 -7 -3
-15 18 -7 18 -8 2 -8 -21 -1 -50 23 -40 33 4 3 14 6 24 6 21 0 19 22 -6 50
-24 26 -6 52 19 27 14 -14 21 -13 68 11 29 15 55 28 57 29 10 7 -10 15 -45 18
-20 2 -43 10 -51 18 -12 12 -8 15 27 26 22 6 40 16 40 22 0 6 -4 7 -10 4 -11
-7 -14 8 -3 18 11 12 23 8 23 -8z m-2260 -241 c10 -26 23 -28 73 -8 9 3 16 -3
20 -15 7 -27 43 -28 57 -2 7 13 16 17 31 14 19 -5 20 -8 7 -17 -11 -8 -13 -18
-7 -33 5 -15 3 -23 -7 -27 -19 -7 -67 3 -75 16 -7 11 -80 -21 -92 -39 -4 -7
-17 -13 -27 -13 -11 0 -20 -4 -20 -9 0 -5 -9 -11 -21 -14 -12 -3 -18 -10 -14
-16 3 -6 -1 -11 -9 -11 -8 0 -18 5 -21 10 -3 6 -15 10 -26 10 -28 0 -23 19 8
31 15 6 30 14 33 19 3 4 28 20 55 34 32 16 43 26 30 26 -12 0 -25 -4 -31 -10
-16 -16 -69 4 -72 27 -2 15 6 24 35 35 54 22 62 21 73 -8z m6858 -153 c45 -16
88 -36 97 -45 9 -9 23 -16 31 -16 8 0 23 -5 33 -12 15 -9 17 -16 10 -30 -7
-13 -4 -20 11 -28 16 -8 19 -17 13 -38 -5 -24 -4 -25 9 -14 14 11 19 8 37 -21
26 -43 27 -60 1 -27 -17 22 -22 23 -39 13 -25 -15 -41 -17 -41 -3 0 5 7 7 15
4 17 -7 21 11 5 21 -5 3 -10 15 -10 26 0 10 -4 19 -10 19 -5 0 -10 -7 -10 -15
0 -8 -4 -15 -10 -15 -5 0 -10 6 -10 13 0 8 -4 7 -10 -3 -16 -25 -12 -39 11
-33 18 5 20 3 14 -16 -5 -17 -2 -21 13 -21 19 0 32 -18 32 -43 0 -8 -3 -8 -11
0 -6 6 -20 8 -31 5 -15 -4 -17 -7 -6 -13 10 -7 8 -9 -6 -9 -13 0 -16 -3 -8
-12 12 -15 4 -78 -10 -78 -6 0 -7 16 -3 40 4 26 3 40 -4 40 -6 0 -10 3 -9 8 1
4 -9 24 -22 44 -25 38 -60 51 -60 23 0 -8 -4 -15 -10 -15 -5 0 -10 -5 -10 -11
0 -5 4 -8 9 -5 5 4 12 0 14 -6 4 -10 8 -10 15 0 8 11 13 12 30 1 27 -17 34
-57 16 -91 -12 -24 -12 -29 4 -44 16 -17 16 -18 -2 -11 -10 4 -25 2 -33 -4 -7
-7 -17 -8 -21 -4 -4 4 -1 10 7 13 11 4 11 6 0 13 -12 8 -12 10 0 18 15 10 23
71 9 71 -4 0 -8 -7 -8 -15 0 -24 -20 -17 -21 8 -1 12 -1 26 0 31 1 5 -4 4 -12
-3 -12 -9 -16 -7 -21 11 -9 37 -7 48 10 41 12 -4 14 0 8 21 -5 20 -2 26 9 26
24 0 32 22 14 35 -9 7 -14 15 -10 18 10 10 23 8 23 -3 0 -6 9 -20 20 -32 20
-22 20 -22 20 -1 0 17 -35 109 -46 122 -2 2 -12 -4 -23 -13 -16 -15 -22 -15
-40 -4 -26 16 -27 28 -1 28 11 0 20 5 20 10 0 6 -9 10 -21 10 -11 0 -17 4 -14
10 3 5 -8 3 -26 -4 -28 -12 -34 -11 -50 5 -25 25 -24 32 2 24 15 -5 19 -4 15
4 -11 18 16 13 102 -18z m-7443 -7 c18 -12 28 -13 44 -5 31 17 49 13 53 -11 3
-21 4 -21 21 -4 10 10 24 15 32 12 19 -7 20 -26 1 -26 -7 0 -16 -9 -19 -20 -5
-20 3 -26 17 -13 3 4 15 7 24 8 14 1 18 -5 17 -27 -1 -15 0 -28 2 -28 2 0 24
5 48 11 37 9 52 8 99 -9 41 -15 58 -17 67 -8 9 8 11 7 6 -6 -4 -13 0 -17 21
-18 96 -3 118 -6 122 -15 3 -5 -6 -11 -20 -13 -48 -6 -57 -12 -35 -25 11 -6
27 -11 35 -12 8 -1 25 -7 37 -13 16 -9 22 -9 25 -1 5 16 48 2 48 -15 0 -9 -9
-12 -27 -8 -28 5 -28 5 -10 -16 23 -25 16 -38 -23 -47 -17 -4 -30 -11 -30 -16
0 -13 -28 -11 -32 3 -3 8 -12 9 -35 0 -26 -8 -34 -8 -44 4 -8 10 -15 12 -23 4
-5 -5 -31 -10 -58 -10 -37 0 -50 -4 -58 -20 -14 -26 -50 -26 -57 0 -3 11 -9
18 -13 15 -4 -3 -13 2 -20 10 -8 9 -30 15 -56 15 -23 0 -46 5 -49 10 -3 6 0
10 8 10 8 0 31 11 51 25 20 14 47 27 60 31 29 7 40 39 18 56 -13 11 -15 10
-10 -10 4 -15 2 -22 -5 -19 -7 2 -13 16 -15 31 -3 25 -5 26 -20 13 -23 -19
-115 -40 -142 -32 -12 4 -27 1 -36 -6 -20 -16 -28 -5 -14 18 22 34 100 75 131
68 18 -4 29 -2 29 4 0 16 -51 25 -71 12 -26 -16 -32 -14 -26 8 3 14 0 17 -14
14 -11 -3 -19 -1 -19 5 0 5 -16 13 -35 16 -20 4 -35 13 -35 21 0 7 -3 20 -6
29 -8 20 10 20 41 0z m3695 -76 c0 -10 5 -17 12 -15 6 1 14 -7 16 -17 6 -27
29 -49 37 -36 4 6 11 8 16 5 5 -4 15 -3 22 2 6 4 28 8 47 8 27 0 36 -4 36 -17
0 -14 -3 -15 -15 -5 -12 10 -14 9 -8 -7 6 -14 4 -17 -8 -12 -10 3 -15 -1 -15
-12 0 -9 -14 -28 -31 -43 -20 -17 -29 -31 -24 -39 6 -9 10 -9 17 1 7 10 8 8 5
-8 -7 -32 7 -29 35 7 16 21 35 31 63 35 29 4 36 3 25 -4 -8 -6 -26 -11 -39
-11 -18 0 -22 -4 -18 -20 3 -11 0 -20 -6 -21 -7 0 2 -5 18 -10 43 -13 78 -3
70 20 -3 11 -1 23 6 26 8 6 7 10 -2 16 -11 7 -8 14 15 34 16 14 32 22 35 19 3
-4 0 -9 -7 -11 -20 -7 -4 -22 18 -16 23 6 26 19 8 26 -7 3 -1 6 14 6 21 1 26
5 21 18 -5 12 -2 15 9 10 10 -3 27 4 43 19 31 28 32 29 32 9 0 -8 -4 -15 -8
-15 -4 0 -10 -11 -13 -25 -4 -17 -13 -25 -29 -25 -16 0 -18 -3 -8 -9 11 -7 9
-15 -10 -41 -18 -23 -25 -28 -27 -16 -4 21 -22 21 -22 0 0 -12 -7 -15 -25 -12
-18 4 -25 1 -25 -10 0 -11 9 -13 48 -7 59 9 310 9 421 -1 92 -7 172 -32 206
-64 17 -16 35 -20 92 -20 55 0 72 -3 77 -16 7 -17 19 -8 119 89 28 26 54 47
59 47 4 0 16 4 26 10 9 5 39 19 66 31 40 17 46 23 33 30 -9 5 -28 7 -42 5 -14
-3 -25 -3 -25 -1 0 2 -3 10 -6 19 -4 10 -1 16 9 16 8 0 18 6 21 13 3 8 9 6 20
-7 15 -19 17 -19 52 -3 19 10 41 14 47 10 16 -9 42 -46 39 -55 -1 -5 3 -8 8
-8 17 0 11 -29 -10 -50 -11 -11 -20 -27 -20 -36 0 -8 -5 -12 -10 -9 -6 4 -7
11 -4 17 4 7 -2 8 -17 3 -30 -9 -28 -7 -31 -36 -3 -28 -9 -27 132 -9 111 14
241 54 267 82 17 19 16 19 -10 9 -22 -9 -27 -8 -27 4 0 9 -10 15 -26 15 -17 0
-23 -4 -18 -12 5 -8 2 -9 -10 -5 -10 4 -22 7 -28 7 -7 0 -7 5 1 13 6 8 8 17 4
20 -12 13 28 7 65 -9 20 -9 50 -18 66 -19 26 -3 45 -18 46 -38 0 -5 -8 -7 -17
-6 -36 3 -63 -1 -63 -10 0 -14 30 -18 67 -10 19 4 30 3 27 -2 -5 -9 34 -13 89
-9 15 1 27 -2 27 -7 -1 -10 -70 -45 -70 -35 0 19 -64 34 -128 29 -86 -7 -333
-42 -442 -63 -47 -9 -100 -19 -118 -21 -57 -9 -42 -18 32 -19 91 -2 177 -30
191 -63 9 -22 14 -23 75 -17 36 3 154 8 263 12 l197 7 0 -26 c0 -15 9 -32 22
-41 12 -9 20 -17 17 -20 -9 -9 -35 -11 -34 -2 0 15 -45 27 -65 16 -10 -5 -26
-7 -34 -4 -9 3 -16 2 -16 -3 0 -5 -12 -10 -27 -11 -62 -2 -82 -14 -65 -35 7
-8 9 -16 6 -19 -3 -3 1 -5 8 -5 7 1 45 -4 85 -12 79 -14 111 -35 74 -49 -20
-7 -16 -12 39 -47 57 -37 84 -75 65 -93 -7 -7 -47 34 -59 60 -5 10 -7 10 -12
1 -8 -18 -27 -16 -20 2 7 20 -27 38 -42 23 -9 -9 -12 -8 -12 5 0 9 -9 21 -20
27 -12 7 -18 16 -13 23 4 8 1 7 -10 -1 -9 -8 -22 -11 -29 -7 -7 4 -2 -3 12
-14 14 -11 20 -21 14 -21 -5 0 -15 5 -21 11 -5 5 -24 11 -41 11 -17 1 -33 7
-36 15 -3 8 -14 13 -23 11 -10 -1 -23 1 -30 5 -10 6 -124 22 -253 34 -66 6
-84 18 -46 33 31 11 205 12 284 1 28 -4 52 -6 52 -4 0 15 -74 27 -171 29 -63
1 -148 5 -188 8 -64 6 -73 5 -68 -9 5 -10 0 -15 -14 -15 -14 0 -19 5 -16 14 7
17 -40 25 -135 21 -52 -2 -68 1 -68 11 0 8 8 14 17 14 9 0 80 5 157 11 96 8
146 16 156 26 13 13 6 14 -55 9 -38 -2 -92 -7 -120 -10 -240 -26 -342 -27
-660 -7 -99 6 -196 9 -215 6 -67 -11 -150 -28 -150 -31 0 -2 9 -13 20 -24 31
-31 24 -40 -34 -40 -30 0 -67 -5 -83 -12 -31 -12 -46 -14 -181 -22 -56 -3 -90
-1 -87 5 4 5 -1 9 -9 9 -9 0 -16 -4 -16 -10 0 -5 -12 -10 -26 -10 -14 0 -23 4
-19 10 4 7 -13 8 -50 4 -44 -5 -59 -4 -66 7 -7 11 -9 11 -9 1 0 -9 -12 -11
-42 -7 -24 3 -83 7 -133 11 -49 3 -117 9 -150 14 -33 4 -67 4 -75 -1 -11 -6
-5 -9 20 -9 84 -1 187 -38 273 -98 30 -20 55 -31 65 -27 9 3 13 3 9 -1 -11
-12 23 -43 41 -37 12 3 13 2 5 -4 -17 -12 60 -88 89 -88 12 0 23 -6 26 -14 3
-8 0 -11 -7 -7 -7 5 -9 1 -4 -9 4 -11 8 -13 12 -6 9 13 40 -18 110 -112 60
-80 68 -113 19 -72 -68 56 -228 215 -216 215 24 0 -45 58 -95 79 -29 13 -81
37 -117 53 -52 25 -81 31 -143 33 -43 2 -81 5 -83 8 -3 3 19 8 48 12 48 7 51
9 28 18 -14 5 -34 14 -46 19 -24 11 -190 6 -219 -7 -19 -8 -19 -8 -2 12 9 11
17 21 17 24 0 2 -18 5 -41 6 -27 1 -39 -3 -36 -10 21 -56 19 -61 -19 -56 -4 0
-10 -4 -13 -9 -3 -6 -42 -13 -86 -16 -159 -13 -185 -24 -42 -19 158 7 225 -2
397 -52 140 -41 236 -83 222 -97 -16 -16 -175 -14 -302 4 -63 9 -142 19 -175
23 -60 6 -169 19 -255 30 -28 3 -10 -4 45 -19 50 -14 94 -25 98 -26 5 0 6 -4
2 -9 -3 -6 15 -13 40 -17 25 -3 48 -10 51 -15 3 -5 15 -9 28 -9 12 0 26 -4 32
-9 5 -6 21 -12 35 -15 15 -2 40 -11 57 -20 17 -9 36 -16 41 -16 6 0 56 -22
112 -50 56 -27 105 -47 110 -44 5 3 9 0 9 -5 0 -6 11 -11 25 -11 14 0 29 -8
35 -20 6 -11 16 -20 23 -20 7 0 6 4 -3 10 -8 5 -11 10 -6 10 25 0 62 -58 39
-61 -112 -12 -197 5 -418 80 -82 28 -156 49 -163 46 -7 -2 -11 -1 -8 3 3 5
-39 26 -92 46 -53 21 -126 49 -162 63 -36 14 -85 27 -110 29 -65 4 -181 22
-187 28 -14 13 12 27 39 21 21 -5 28 -4 24 4 -4 6 -17 11 -30 11 -12 0 -31 7
-42 15 -18 14 -16 15 22 9 54 -8 66 11 17 27 -21 6 -41 17 -45 23 -9 13 -29
17 -133 23 -89 5 -95 -10 -11 -26 26 -5 54 -15 62 -22 11 -12 7 -14 -24 -16
-20 -1 -52 4 -69 13 -18 8 -53 16 -78 17 -25 1 -45 4 -45 7 0 3 -8 6 -17 6
-21 1 -109 23 -138 35 -11 4 -27 10 -35 13 -8 3 21 2 65 -2 119 -11 182 -5
307 27 112 29 229 81 381 171 38 22 73 40 78 40 5 0 9 5 9 10 0 6 7 10 15 10
8 0 31 10 52 22 98 56 143 78 198 96 33 11 80 29 105 40 25 11 72 28 104 37
137 38 163 53 188 102 30 60 54 69 90 32 28 -27 28 -27 85 -13 71 16 137 18
183 3 44 -14 138 -23 100 -10 -27 10 -21 13 25 15 20 1 33 8 39 22 11 26 36
27 36 2z m-2910 -163 c0 -24 10 -32 24 -18 3 4 12 8 19 9 7 1 20 5 30 9 12 5
17 2 17 -8 0 -8 6 -15 13 -14 32 1 48 -4 42 -13 -3 -6 1 -7 9 -4 10 4 19 -1
24 -15 7 -19 9 -20 36 -6 42 22 166 10 166 -16 0 -24 -51 -50 -101 -52 -21 -1
-39 -5 -39 -9 0 -5 5 -8 10 -8 6 0 10 -5 10 -11 0 -7 -14 -8 -40 -4 -33 6 -40
4 -40 -9 0 -9 -8 -16 -19 -16 -35 0 -51 12 -51 36 0 13 -5 24 -10 24 -16 0
-26 -33 -12 -38 7 -2 12 -12 12 -23 0 -23 -33 -25 -72 -5 -23 12 -30 12 -41 2
-12 -12 -28 -16 -75 -17 -27 -1 -43 12 -24 18 28 10 9 20 -25 13 -21 -4 -49
-7 -63 -7 -19 2 -24 -2 -22 -15 2 -10 -2 -18 -8 -18 -5 0 -10 5 -10 11 0 12
-43 1 -48 -12 -6 -14 -32 -10 -49 6 -8 9 -34 21 -58 27 -37 10 -42 15 -43 40
-1 26 2 29 26 26 16 -2 27 -9 27 -18 0 -20 33 -37 75 -37 39 0 60 12 60 34 0
31 37 50 193 100 19 6 22 19 7 28 -17 10 1 35 26 35 19 0 24 -5 24 -25z m573
-59 c32 -3 59 -1 62 4 7 12 85 14 85 3 -1 -16 -94 -72 -105 -63 -6 5 -20 1
-35 -10 -14 -11 -33 -20 -42 -20 -9 0 -20 -4 -23 -10 -3 -5 -22 -10 -41 -10
-19 0 -34 -4 -34 -10 0 -5 -12 -13 -27 -17 l-28 -7 25 -7 c14 -4 18 -7 9 -8
-10 -1 -37 -12 -60 -26 -24 -14 -53 -25 -64 -25 -34 0 -115 -35 -144 -62 -29
-28 -56 -35 -83 -24 -13 6 -15 13 -9 29 9 22 0 37 -29 51 -8 3 -2 4 14 2 46
-6 207 54 281 104 22 15 55 31 74 35 19 4 35 15 38 25 3 10 18 20 34 24 17 3
29 12 29 21 0 9 4 14 8 11 5 -3 34 -8 65 -10z m3393 -258 c60 -24 80 -49 62
-78 -15 -24 -12 -27 32 -32 24 -2 34 1 33 10 -2 6 4 12 12 12 8 0 15 -4 15 -9
0 -5 8 -7 18 -4 11 2 45 -3 76 -12 32 -9 60 -14 63 -11 3 3 19 -4 34 -15 16
-11 34 -19 41 -18 7 1 26 -3 41 -9 16 -7 35 -12 43 -12 8 0 14 -4 14 -9 0 -5
17 -16 37 -24 35 -14 40 -13 62 4 13 11 31 19 39 19 14 0 15 2 2 15 -11 10
-26 13 -53 8 -33 -5 -37 -8 -31 -27 6 -18 3 -17 -19 7 -14 15 -33 27 -42 27
-9 0 -30 7 -47 16 -17 9 -39 13 -50 11 -18 -5 -98 28 -98 40 0 8 64 -8 78 -20
9 -7 16 -7 24 1 22 22 151 6 358 -45 111 -27 172 -58 95 -49 -22 3 -47 1 -55
-5 -11 -8 -9 -9 10 -3 22 6 23 5 11 -10 -7 -9 -22 -16 -32 -16 -11 0 -19 -4
-19 -10 0 -14 39 -32 52 -24 7 5 8 3 3 -5 -4 -7 -17 -11 -29 -8 -88 22 -108
29 -125 44 -11 9 -18 20 -15 25 7 11 -38 10 -56 -2 -12 -7 -11 -13 10 -34 13
-15 28 -26 34 -26 6 0 22 -9 36 -19 19 -15 29 -17 45 -9 18 10 19 10 6 -6 -12
-14 -12 -18 5 -31 10 -8 22 -15 26 -15 13 0 48 -43 48 -58 0 -28 -78 -5 -198
56 -64 33 -135 67 -157 76 l-40 16 25 -20 c14 -11 29 -20 33 -20 5 0 5 -10 2
-22 -6 -16 -4 -20 7 -15 8 3 21 1 29 -3 28 -18 73 -56 98 -82 14 -16 31 -28
37 -28 6 0 18 -7 25 -16 12 -15 11 -16 -11 -10 -14 4 -34 18 -45 31 -30 34
-59 47 -74 32 -10 -9 -14 -8 -22 6 -6 9 -15 17 -22 17 -7 0 -22 11 -35 24 -12
13 -34 27 -48 30 -14 4 -38 15 -53 26 -14 10 -82 40 -151 65 -69 26 -138 53
-155 61 -27 13 -27 14 -5 10 14 -2 40 -7 59 -12 65 -14 23 12 -46 30 -37 9
-94 23 -125 31 -32 8 -75 15 -96 15 -21 0 -55 9 -77 20 -22 11 -46 20 -55 21
-8 1 0 5 19 9 37 9 94 3 124 -12 12 -6 17 -5 17 7 0 8 5 15 10 15 6 0 10 -4
10 -10 0 -5 23 -10 50 -10 28 0 50 -4 50 -10 0 -5 9 -10 20 -10 23 0 27 15 6
23 -7 3 -35 9 -62 13 -27 4 -62 15 -79 24 -30 17 -40 47 -20 63 15 12 104 -1
161 -25z m-933 -142 c5 -8 10 -7 16 3 7 11 10 10 19 -4 7 -13 17 -16 37 -13
32 7 148 -29 139 -43 -3 -5 2 -6 11 -2 9 3 45 -7 78 -22 111 -49 121 -53 174
-70 29 -9 58 -24 64 -33 10 -16 10 -15 5 1 -5 15 -1 15 37 -5 23 -11 37 -23
30 -25 -9 -3 -7 -10 5 -22 31 -33 103 -73 120 -66 15 5 32 -10 32 -29 0 -5
-29 -6 -64 -2 -60 6 -108 23 -306 106 -41 17 -113 46 -160 65 -162 63 -360
165 -323 165 12 0 24 4 27 9 7 11 48 2 59 -13z m4120 -137 c25 -28 37 -64 37
-105 0 -27 5 -37 25 -46 19 -8 25 -19 25 -41 0 -30 0 -30 -20 -12 -20 18 -21
18 -14 0 6 -16 4 -17 -22 -11 -16 4 -39 7 -52 7 -20 -1 -22 3 -16 22 9 30 14
34 23 18 6 -8 11 -9 15 -3 3 6 2 13 -4 17 -6 4 -3 16 10 32 19 24 19 27 4 45
-21 22 -66 25 -58 3 4 -9 19 -15 36 -15 l30 0 -32 -27 c-35 -29 -47 -23 -54
26 0 5 -4 13 -8 17 -14 13 14 34 46 35 l31 0 -22 16 c-25 17 -31 43 -10 43 7
0 21 -9 30 -21z m-5688 -165 c39 -16 72 -32 75 -35 3 -4 25 -15 50 -25 25 -10
79 -37 120 -60 42 -23 90 -45 108 -49 42 -9 43 -30 1 -21 -35 7 -61 -8 -52
-30 6 -16 -22 -20 -32 -4 -3 6 -14 10 -23 10 -23 0 -48 17 -39 26 3 4 13 1 21
-6 9 -6 21 -10 28 -8 7 3 -23 19 -65 37 -134 55 -252 114 -240 118 17 6 -61
81 -92 89 -14 3 -25 10 -25 14 0 8 32 -3 165 -56z m4005 15 c10 -7 4 -9 -21
-7 -21 1 -46 -5 -60 -14 l-24 -17 43 0 c24 -1 42 -6 42 -12 0 -6 -6 -9 -13 -6
-7 3 -20 -1 -30 -8 -15 -11 -14 -14 10 -34 20 -19 27 -20 34 -10 8 13 13 5 10
-13 -2 -14 17 -8 22 6 3 8 -1 20 -9 26 -22 19 -17 33 7 17 11 -8 28 -13 37
-10 13 3 18 -3 20 -22 1 -15 -2 -24 -8 -20 -16 10 -33 -5 -21 -18 6 -8 4 -16
-5 -25 -8 -7 -14 -10 -14 -7 0 3 -5 3 -10 0 -8 -5 -7 -11 1 -21 21 -26 3 -25
-22 2 -20 21 -21 27 -9 35 11 8 7 9 -15 5 -17 -2 -36 -2 -42 2 -16 11 -26 52
-13 52 15 0 -7 23 -39 39 -19 10 -21 15 -10 22 11 7 11 9 1 9 -7 0 -11 4 -8 9
3 4 16 6 28 4 14 -3 31 3 43 16 20 19 42 19 75 0z m-6766 -65 c3 -8 1 -25 -5
-36 -6 -11 -8 -22 -5 -25 3 -3 36 2 73 12 38 10 80 19 96 20 15 1 30 5 34 8 3
4 17 0 31 -9 14 -9 34 -13 48 -10 30 8 30 3 2 -29 -16 -19 -24 -22 -35 -13
-11 8 -12 7 -7 -6 5 -12 0 -19 -15 -23 -11 -3 -21 -9 -21 -13 0 -5 15 -4 33 2
17 5 41 10 52 9 11 0 28 7 38 17 28 25 130 54 139 39 13 -20 9 -37 -7 -31 -8
4 -15 2 -15 -3 0 -6 -19 -15 -42 -22 -23 -7 -50 -24 -61 -37 -10 -14 -29 -24
-43 -24 -14 0 -22 -4 -19 -10 3 -5 -1 -10 -9 -10 -9 0 -16 -4 -16 -10 0 -5
-15 -13 -34 -19 -36 -9 -40 -12 -90 -56 -25 -21 -26 -25 -10 -26 11 0 13 -3 7
-6 -15 -6 -17 -33 -3 -33 6 0 10 5 10 10 0 6 8 10 18 10 14 0 12 -4 -8 -21
-14 -11 -19 -17 -11 -13 11 6 13 1 8 -26 -5 -21 -2 -38 5 -48 11 -13 10 -14
-10 -8 -17 6 -21 4 -16 -8 8 -21 -9 -20 -29 2 -23 25 -37 97 -26 135 5 18 9
49 9 71 l0 38 -65 -4 c-36 -2 -66 0 -68 5 -5 16 -90 27 -106 14 -8 -7 -15 -11
-15 -9 -1 2 -9 0 -18 -3 -10 -4 -18 -17 -18 -31 0 -12 8 -28 18 -34 12 -8 13
-13 5 -16 -7 -3 -13 -12 -13 -20 0 -8 -7 -14 -16 -14 -10 0 -14 6 -10 15 4 12
-3 15 -32 16 -20 1 -44 1 -54 0 -33 -4 -28 18 7 25 19 3 35 10 35 15 0 5 7 9
15 9 8 0 15 7 15 15 0 20 -36 19 -44 -1 -3 -8 -11 -12 -16 -9 -8 5 -7 11 1 21
7 9 8 14 1 14 -6 0 -14 -4 -17 -10 -14 -22 -35 -10 -35 20 0 29 17 40 34 23 4
-4 27 -15 51 -24 l45 -17 0 29 c0 18 -5 27 -12 25 -7 -1 -10 -1 -5 1 4 3 7 10
7 17 0 6 9 12 20 12 11 0 20 -5 20 -11 0 -6 8 -11 19 -11 10 0 17 6 14 12 -2
7 0 15 6 19 6 3 11 14 11 25 0 13 -5 17 -20 13 -11 -3 -20 -1 -20 4 0 5 27 15
60 21 48 10 60 17 60 32 0 17 13 23 56 29 7 0 15 -6 18 -15z m8453 -14 c13 0
23 -6 24 -12 0 -7 1 -30 3 -50 2 -31 0 -38 -15 -38 -18 0 -35 -17 -26 -26 3
-3 14 -6 26 -7 25 -2 27 -30 6 -67 -11 -19 -14 -21 -15 -7 0 9 -4 17 -9 17 -5
0 -12 -8 -14 -17 -4 -14 -5 -12 -6 5 0 12 4 22 10 22 23 0 1 25 -26 30 -35 6
-46 30 -13 30 22 1 22 1 4 15 -17 13 -17 15 -3 15 11 0 14 5 10 16 -4 11 -14
14 -34 10 -31 -6 -50 10 -24 20 8 4 14 11 13 18 -1 6 4 21 12 33 12 19 16 20
34 7 11 -8 31 -14 43 -14z m-1459 -38 c25 -5 34 -19 36 -55 1 -17 8 -23 31
-24 17 -1 23 0 15 4 -31 13 -56 73 -30 73 6 0 10 -6 10 -14 0 -16 27 -29 41
-20 16 9 10 22 -13 27 -17 3 -14 5 10 6 19 0 35 -5 38 -13 3 -7 14 -11 28 -9
13 3 28 -2 35 -11 9 -11 10 -16 2 -16 -6 0 -11 -7 -11 -15 0 -8 -7 -15 -15
-15 -18 0 -17 3 -6 -38 7 -24 7 -32 -3 -32 -8 0 -28 -3 -46 -7 -29 -5 -32 -4
-27 11 5 12 3 16 -5 14 -17 -6 -21 -39 -8 -58 8 -13 13 -13 41 3 17 9 38 17
48 17 9 0 27 7 39 16 12 8 22 12 22 8 0 -5 5 -3 12 4 7 7 23 12 36 12 17 0 22
4 19 14 -6 15 16 29 28 18 4 -4 11 -8 16 -8 5 -1 14 -2 19 -3 6 0 10 -8 10
-16 0 -11 -13 -15 -47 -16 -27 -1 -38 -4 -25 -6 22 -4 23 -5 5 -18 -10 -7 -15
-17 -11 -21 5 -4 16 3 27 14 17 21 41 30 41 16 0 -4 -8 -13 -17 -20 -17 -13
-17 -13 0 -14 9 0 17 -5 17 -10 0 -17 -31 -24 -40 -10 -4 7 -13 9 -19 6 -6 -4
-22 4 -36 18 -27 27 -45 33 -45 16 0 -5 -13 -10 -30 -10 -36 0 -39 -14 -6 -32
13 -7 38 -21 56 -31 31 -18 34 -18 99 2 51 15 74 18 96 11 29 -10 29 -10 -7
-6 -20 3 -39 2 -42 -2 -10 -9 -79 -32 -98 -32 -10 0 -18 -5 -18 -11 0 -6 -9
-8 -20 -4 -11 4 -20 2 -20 -4 0 -6 -4 -11 -10 -11 -5 0 -10 9 -10 21 0 17 -4
20 -23 15 -14 -3 -34 2 -52 15 -17 12 -22 19 -12 15 9 -3 17 -1 17 4 0 6 -6
10 -12 10 -7 0 -23 3 -35 6 -19 5 -23 2 -23 -15 0 -11 6 -21 14 -21 8 0 17
-13 21 -30 4 -20 13 -30 24 -30 21 0 54 -33 44 -43 -4 -4 -22 -4 -41 -1 -25 5
-33 3 -28 -5 4 -6 2 -11 -4 -11 -6 0 -9 8 -6 18 4 10 -3 27 -17 42 -13 14 -22
31 -20 37 5 15 -36 28 -48 16 -6 -6 -7 -28 -3 -51 5 -31 11 -42 24 -42 29 0
38 -23 31 -76 -2 -17 -64 -26 -94 -15 -31 12 -43 3 -19 -15 15 -12 13 -13 -17
-7 -31 6 -34 4 -29 -15 4 -12 2 -22 -3 -22 -5 0 -9 5 -9 10 0 6 -7 10 -15 10
-8 0 -15 -4 -15 -9 0 -5 -9 -7 -20 -4 -15 4 -20 0 -20 -16 0 -26 -4 -26 -40 1
-23 16 -27 25 -19 35 6 7 19 13 28 14 12 0 12 2 -3 8 -11 4 -15 10 -10 14 6 3
23 -1 38 -9 33 -17 66 -18 66 -3 0 6 9 8 21 4 16 -5 20 -3 17 6 -3 9 -15 13
-31 11 -34 -4 -35 11 -2 26 14 6 25 16 25 22 0 5 7 10 15 10 8 0 15 9 15 20 0
15 -9 22 -30 27 -17 3 -33 10 -36 14 -3 5 -17 9 -30 9 -34 0 -26 24 10 28 15
2 30 10 33 18 3 8 16 14 29 14 13 0 24 5 24 10 0 6 9 10 20 10 22 0 26 20 10
51 -8 15 -7 19 4 19 23 0 29 19 16 51 -9 20 -19 29 -36 29 -13 0 -32 8 -43 19
-18 18 -18 18 1 30 10 6 23 9 28 6 6 -4 10 1 10 10 0 10 -5 13 -12 9 -7 -5 -8
-3 -4 5 5 7 15 9 25 5 9 -3 26 -9 39 -12z m-788 -12 c22 -11 44 -29 49 -39 6
-10 24 -24 41 -29 18 -7 34 -22 40 -37 5 -14 14 -24 19 -21 5 3 19 -3 32 -13
13 -10 48 -30 77 -45 45 -23 52 -30 48 -49 -3 -12 -3 -16 0 -9 8 17 21 15 28
-4 5 -13 0 -16 -29 -12 -19 2 -35 0 -35 -4 0 -11 -38 -48 -50 -48 -16 0 -12
30 5 36 21 8 19 21 -5 29 -23 7 -27 35 -5 35 8 0 15 5 15 10 0 6 -13 10 -30
10 -16 0 -30 5 -30 11 0 6 -16 26 -36 44 -31 29 -38 32 -50 21 -20 -20 -56 -9
-49 15 5 16 2 18 -22 13 -24 -5 -30 -2 -40 26 -8 22 -17 31 -30 28 -11 -2 -17
-11 -15 -21 2 -11 -4 -17 -17 -17 -30 0 -22 38 11 58 15 9 28 20 28 24 0 12 7
10 50 -12z m-5004 -87 c4 -10 6 -21 6 -25 -1 -5 11 -8 27 -8 30 0 54 -21 33
-28 -21 -7 -14 -42 8 -42 11 0 20 -4 20 -10 0 -5 14 -10 30 -10 17 0 30 -4 30
-9 0 -13 -30 -22 -52 -15 -21 6 -80 -14 -73 -25 2 -4 -11 -12 -28 -19 l-32
-11 23 18 c29 25 28 28 -13 27 -19 -1 -35 -6 -35 -11 0 -15 -93 -6 -106 10 -8
10 -19 12 -40 5 -16 -4 -23 -9 -15 -9 11 -1 11 -4 1 -16 -7 -8 -9 -15 -4 -16
5 0 -1 -4 -14 -10 -13 -5 -36 -7 -50 -4 -24 5 -24 4 -7 -5 18 -9 18 -10 -5 -6
-14 3 -42 9 -62 14 -21 6 -35 6 -32 1 3 -5 1 -9 -5 -9 -5 0 -12 6 -14 13 -3 6
-6 2 -6 -10 -1 -17 5 -23 22 -24 16 -1 18 -2 5 -6 -10 -2 -18 -8 -18 -11 0 -4
-31 -6 -70 -5 -38 1 -72 -2 -75 -7 -10 -16 -28 -11 -21 5 3 8 2 15 -2 15 -4 0
-8 11 -8 24 -1 18 4 25 22 29 12 2 27 0 32 -5 7 -7 17 -3 29 9 37 35 60 44 73
28 13 -15 35 -10 25 5 -3 5 11 10 32 12 44 4 56 25 16 30 -28 4 -28 4 12 21
39 17 72 18 180 3 37 -5 37 -5 7 3 -45 12 -46 15 -18 47 19 23 38 31 88 40 34
6 66 12 69 13 4 0 10 -7 15 -16z m6226 -8 c2 3 30 -4 61 -15 31 -11 65 -20 75
-20 33 0 112 -40 112 -56 0 -13 9 -14 50 -10 31 3 65 0 90 -9 23 -8 58 -13 79
-11 37 4 38 3 22 -13 -14 -16 -20 -16 -56 -3 -27 9 -73 13 -142 10 -64 -2
-103 1 -103 7 0 6 11 11 25 13 14 2 25 8 25 14 0 6 -17 8 -42 4 -24 -3 -35 -3
-25 0 20 6 23 24 3 24 -8 0 -16 4 -18 8 -1 5 -19 11 -40 15 -33 5 -36 4 -34
-17 2 -13 6 -28 10 -34 5 -8 0 -12 -13 -12 -11 0 -23 5 -26 10 -4 6 -15 8 -26
5 -13 -4 -19 -2 -19 9 0 10 6 13 15 10 27 -11 16 16 -12 29 -37 16 -56 35 -48
47 5 8 11 8 19 1 7 -6 15 -9 18 -6z m-4492 -55 c7 -16 17 -30 22 -30 5 0 6
-10 2 -22 -4 -13 -10 -38 -14 -55 l-8 -33 29 17 c16 10 29 21 29 25 0 4 7 8
15 8 8 0 15 -4 15 -10 0 -5 -6 -10 -14 -10 -8 0 -20 -15 -26 -34 -12 -39 -40
-68 -41 -45 0 8 -4 5 -10 -6 -7 -16 -8 -13 -3 11 4 26 1 32 -16 37 -27 7 -51
67 -43 109 13 73 42 90 63 38z m5280 -40 c7 -16 21 -32 31 -35 10 -4 19 -11
19 -16 0 -5 10 -9 21 -9 18 0 19 -2 9 -15 -10 -12 -10 -15 2 -15 17 0 48 -35
48 -55 0 -22 -33 -18 -48 5 -7 11 -18 20 -26 20 -9 0 -12 7 -9 21 5 17 2 20
-13 17 -14 -3 -18 -11 -16 -31 3 -30 -17 -37 -37 -13 -10 12 -8 17 8 26 27 14
27 34 0 27 -13 -4 -29 2 -42 14 -11 10 -33 19 -48 19 -14 0 -42 3 -60 6 -27 5
-31 3 -19 -6 16 -12 15 -12 -65 10 -16 4 -23 8 -15 9 13 1 13 2 0 12 -12 8 -9
10 13 6 15 -2 30 -1 33 4 2 5 18 6 34 2 17 -3 36 0 44 6 10 9 20 9 33 3 12 -7
27 -6 48 3 41 18 41 19 55 -15z m-8606 -45 c4 -12 11 -13 31 -5 35 13 55 13
55 -2 0 -6 10 -22 21 -34 25 -26 39 -50 69 -112 18 -36 25 -42 43 -36 18 5 20
4 10 -7 -19 -19 -16 -29 7 -29 11 0 20 -4 20 -10 0 -13 -23 -13 -36 0 -6 6
-18 8 -28 4 -13 -5 -14 -9 -5 -21 7 -7 18 -12 26 -9 7 3 13 1 13 -5 0 -5 -7
-12 -15 -15 -10 -4 -13 -13 -10 -25 4 -11 2 -19 -5 -19 -7 0 -23 -9 -37 -20
-21 -16 -22 -20 -8 -20 10 0 24 8 31 18 12 16 13 16 20 -3 4 -11 16 -26 25
-33 17 -12 49 -67 49 -84 0 -4 -9 -8 -20 -8 -11 0 -20 -4 -20 -10 0 -5 18 -10
40 -10 46 0 46 -1 23 -38 -28 -44 -55 -57 -46 -22 4 15 2 19 -9 15 -8 -3 -15
-19 -16 -35 -1 -36 25 -41 52 -11 21 23 73 37 54 14 -10 -12 -7 -13 18 -7 26
6 27 5 16 -8 -10 -13 -10 -17 0 -22 7 -3 3 -3 -9 0 -18 4 -25 0 -33 -20 -5
-14 -15 -26 -22 -26 -6 0 -4 -6 7 -13 11 -9 14 -16 7 -21 -6 -3 -16 0 -24 7
-13 14 -52 37 -62 37 -2 0 -4 -18 -3 -39 1 -32 7 -43 29 -56 27 -16 39 -45 18
-45 -5 0 -10 5 -10 11 0 5 -5 7 -11 3 -13 -7 -3 -56 14 -66 9 -6 9 -8 1 -8 -6
0 -17 6 -24 14 -6 8 -19 12 -27 9 -12 -5 -15 -2 -10 10 5 12 1 17 -13 17 -22
0 -27 16 -7 23 7 3 5 6 -5 6 -10 1 -18 8 -18 17 0 32 -17 3 -30 -51 -12 -49
-12 -58 1 -66 8 -5 9 -9 4 -9 -15 0 -38 -131 -25 -144 7 -7 14 -6 22 2 7 7 22
12 34 12 21 0 22 3 13 32 -12 42 -12 43 6 28 11 -9 18 -10 28 -1 8 6 16 8 20
5 10 -10 46 16 41 30 -3 9 17 20 68 37 40 13 79 22 87 21 7 -2 10 1 6 7 -3 6
1 11 10 11 9 0 14 -4 11 -8 -6 -10 24 -9 40 1 6 3 31 8 55 11 24 3 38 2 32 -1
-7 -2 -13 -9 -13 -15 0 -6 8 -7 18 -3 45 18 129 36 151 32 14 -3 31 -2 40 1
12 4 11 7 -5 13 -15 6 -12 7 11 7 29 -1 63 9 130 38 37 16 42 11 25 -21 -14
-26 -34 -33 -45 -15 -9 15 -25 12 -25 -5 0 -10 -10 -15 -27 -15 -27 0 -27 0
-6 -15 12 -8 28 -12 37 -9 9 3 16 1 16 -5 0 -13 -49 -14 -70 -1 -9 6 -17 5
-21 -1 -4 -7 -13 -7 -27 2 -17 10 -23 10 -36 -3 -9 -9 -24 -14 -36 -11 -11 3
-20 0 -20 -6 0 -18 31 -26 40 -10 7 11 12 10 27 -3 10 -8 24 -13 31 -11 6 3
12 0 12 -6 0 -23 -51 -24 -91 -2 -36 21 -41 21 -92 8 -62 -16 -103 -36 -75
-37 9 0 24 -3 32 -6 12 -5 15 -2 10 10 -5 13 1 16 35 16 23 0 41 -4 41 -9 0
-5 19 -12 43 -16 50 -9 67 -20 67 -47 0 -17 -5 -20 -30 -15 -16 4 -32 2 -35
-3 -3 -6 -1 -10 6 -10 6 0 18 -8 25 -17 13 -17 13 -17 14 0 0 19 8 21 30 7 13
-9 12 -12 -4 -25 -25 -19 -45 -19 -86 -1 -30 12 -31 14 -14 24 10 6 15 11 9
12 -5 0 -17 -4 -25 -10 -9 -5 -19 -5 -27 2 -14 12 -93 -8 -93 -23 0 -11 78
-49 101 -49 11 0 17 -4 14 -10 -3 -5 -15 -10 -26 -10 -10 0 -19 -3 -19 -7 0
-5 -14 -9 -30 -10 -17 -1 -30 2 -30 7 0 6 -8 10 -17 10 -15 0 -16 2 -3 10 12
8 9 10 -12 10 -16 0 -28 -4 -28 -9 0 -5 -13 -12 -30 -16 -16 -4 -30 -10 -30
-15 0 -5 16 -4 36 2 20 5 38 7 42 4 3 -3 -2 -6 -11 -6 -9 0 -17 -7 -17 -15 0
-8 5 -15 10 -15 6 0 10 4 10 9 0 5 10 7 21 4 20 -6 20 -7 5 -18 -9 -7 -35 -13
-57 -13 -23 -1 -43 -3 -46 -6 -9 -9 8 -26 28 -26 10 0 19 -4 19 -9 0 -6 -13
-6 -32 0 -18 5 -50 7 -70 3 -40 -6 -54 10 -17 19 12 3 18 10 14 16 -3 7 2 11
14 11 19 0 39 35 27 47 -3 4 -6 1 -6 -6 0 -7 -5 -9 -10 -6 -6 4 -9 1 -8 -7 4
-19 -67 -15 -87 6 -13 12 -21 14 -30 6 -10 -8 -15 -6 -20 9 -3 12 -11 21 -16
21 -14 0 -11 -28 4 -33 6 -2 8 -8 4 -13 -11 -12 -28 17 -23 39 4 18 -2 21 -21
9 -8 -5 -11 -23 -7 -50 5 -47 -1 -50 -47 -26 -21 10 -34 12 -43 5 -6 -5 -18
-6 -25 -2 -11 7 -9 11 8 20 12 7 25 9 30 7 5 -3 12 1 15 10 3 9 11 12 18 8 7
-4 4 2 -6 14 -23 27 -27 27 -52 5 -24 -22 -56 -37 -111 -52 -24 -7 -43 -16
-43 -20 0 -5 -18 -11 -40 -15 -22 -3 -40 -11 -40 -16 0 -5 -18 -13 -40 -16
-22 -4 -40 -10 -40 -14 0 -5 -13 -11 -30 -15 -16 -4 -30 -10 -30 -15 0 -15
-31 -20 -50 -7 -26 16 -25 27 1 27 15 0 19 5 15 15 -8 21 17 29 44 15 19 -10
21 -9 18 11 -2 12 -13 28 -25 36 -21 14 -23 14 -30 -3 -3 -11 -10 -21 -13 -24
-4 -3 -12 -14 -19 -25 l-13 -20 7 20 c4 11 9 27 12 36 3 9 -17 37 -49 70 -52
53 -53 55 -36 74 20 21 23 35 8 35 -5 0 -10 -4 -10 -10 0 -5 -4 -10 -10 -10
-5 0 -10 9 -10 20 0 12 7 20 17 20 13 0 14 3 5 12 -9 9 -16 7 -32 -7 -11 -10
-17 -22 -14 -26 3 -5 -4 -9 -15 -9 -14 0 -19 5 -15 15 4 8 1 15 -5 15 -22 0
-11 -40 14 -52 32 -14 31 -22 -1 -43 -22 -14 -28 -15 -35 -4 -8 12 -11 12 -18
-1 -6 -8 -12 -12 -15 -9 -3 3 4 16 15 28 29 31 20 34 -27 11 -21 -11 -49 -21
-61 -22 -21 -2 -34 -18 -14 -18 4 0 20 -10 35 -21 26 -21 26 -22 9 -38 -22
-21 -67 -20 -91 2 -10 9 -31 17 -45 17 -33 0 -33 4 -6 31 15 15 24 18 29 10
12 -21 25 10 25 59 0 36 -4 46 -19 48 -10 2 -22 -2 -26 -8 -5 -7 -15 -10 -25
-7 -20 8 -10 27 15 27 12 0 20 8 22 23 l3 22 20 -22 c11 -13 25 -23 32 -23 17
0 17 27 1 33 -7 2 -10 8 -6 12 4 4 14 2 22 -4 11 -9 20 -10 35 -2 11 6 26 8
34 5 8 -3 18 -1 22 5 9 16 25 14 25 -3 0 -23 26 -26 44 -5 11 13 24 18 36 14
12 -4 20 -2 20 4 0 6 -7 11 -15 11 -16 0 -19 9 -9 34 5 13 9 14 20 5 11 -9 15
-7 20 6 6 14 15 16 53 11 42 -6 44 -5 27 8 -18 14 -17 16 10 40 l29 25 -27 1
c-18 0 -29 -6 -33 -20 -3 -11 -13 -20 -20 -20 -12 0 -12 5 1 35 18 45 18 45
-10 32 -13 -7 -22 -15 -20 -19 3 -5 0 -8 -5 -8 -14 0 -14 16 -1 40 7 13 19 18
45 16 19 -2 35 1 35 5 0 5 7 9 15 9 8 0 12 6 9 14 -3 8 4 19 16 26 28 15 38 5
21 -21 -20 -33 -5 -34 23 -3 15 18 20 30 13 32 -7 1 -17 14 -24 28 -11 23 -8
29 25 65 20 21 44 39 53 39 9 0 22 7 29 15 7 8 16 15 20 15 4 0 27 19 51 41
24 23 54 45 67 50 12 5 22 13 22 19 0 15 -83 12 -106 -4 -14 -11 -22 -11 -32
-4 -10 9 -14 6 -19 -10 -3 -12 -9 -22 -13 -22 -4 0 -12 -12 -18 -26 -8 -15
-19 -24 -30 -22 -9 1 -23 -2 -31 -7 -10 -5 -16 -4 -19 3 -5 17 -39 15 -45 -2
-3 -7 1 -23 8 -34 8 -10 12 -22 8 -25 -7 -7 -33 18 -33 31 0 6 -7 12 -15 16
-8 3 -15 1 -15 -4 0 -6 -10 -10 -21 -10 -21 0 -21 -1 -4 -26 22 -34 6 -51 -23
-24 -12 11 -31 21 -43 23 -19 2 -22 -3 -23 -40 -1 -43 -28 -85 -43 -69 -5 5
-2 11 5 13 6 3 12 11 12 20 0 23 -35 11 -38 -15 -2 -12 -8 -22 -13 -22 -5 0
-9 8 -7 18 2 13 -5 18 -36 20 -21 2 -43 -1 -48 -6 -6 -6 7 -8 32 -5 l42 4 -18
-30 c-10 -17 -24 -31 -31 -31 -7 0 -13 -7 -13 -15 0 -8 -7 -15 -15 -15 -9 0
-15 7 -13 16 2 9 -5 21 -15 28 -24 15 -39 -8 -26 -40 7 -19 4 -26 -13 -35
l-22 -12 22 -8 c12 -5 22 -15 22 -22 0 -17 -28 -42 -37 -34 -3 4 -13 1 -21 -5
-16 -14 -95 -20 -86 -7 3 5 12 9 20 9 18 0 18 14 -1 30 -16 13 -20 31 -7 28 4
0 15 2 25 7 24 10 33 -1 17 -20 -10 -12 -9 -16 5 -21 29 -12 34 9 14 54 -25
54 -20 69 25 78 21 3 36 12 36 20 0 8 5 14 11 14 5 0 8 4 5 9 -11 17 -56 -2
-91 -40 -20 -21 -41 -39 -48 -40 -78 -6 -106 -3 -110 11 -3 8 -8 23 -12 33 -6
15 -4 17 19 11 20 -5 26 -2 26 9 0 9 -8 17 -17 20 -17 4 -17 4 1 12 12 5 21 3
26 -6 16 -24 63 1 77 41 9 29 16 35 37 33 15 -1 26 3 26 11 0 14 61 46 88 46
25 1 85 86 77 110 -5 15 0 21 19 26 14 3 29 3 35 0 5 -4 14 1 19 10 5 9 20 18
34 19 13 2 45 12 71 24 25 12 51 21 56 21 6 0 11 11 11 24 0 15 7 26 20 29 11
3 18 11 16 19 -15 47 -16 70 -4 66 51 -19 58 -19 58 0 0 11 -7 22 -15 26 -20
7 -19 32 0 40 15 5 35 -28 35 -58 0 -24 43 -28 61 -6 9 10 29 22 44 26 18 4
30 17 37 35 8 23 16 29 40 29 22 0 29 4 27 18 -3 35 13 47 25 17z m7034 -51
c20 -14 23 -23 21 -80 -2 -45 -6 -64 -15 -64 -10 0 -12 -9 -7 -32 5 -28 4 -31
-13 -24 -10 5 -27 11 -36 13 -10 3 -18 9 -18 14 0 5 -7 9 -15 9 -8 0 -15 6
-16 13 0 6 -2 22 -3 35 -3 29 2 28 14 -4 6 -14 15 -22 21 -19 6 4 8 13 5 20
-3 8 2 15 9 17 10 2 2 17 -26 46 -34 35 -39 45 -29 57 16 20 80 19 108 -1z
m-6159 -239 c25 0 22 -21 -4 -35 -14 -7 -25 -17 -25 -22 0 -4 -8 -8 -17 -8
-15 0 -16 -2 -3 -10 13 -9 13 -10 0 -11 -10 0 -9 -3 5 -9 17 -8 15 -9 -10 -7
-18 1 -29 7 -27 15 3 15 -15 16 -20 1 -3 -9 -10 -9 -26 0 -18 10 -22 9 -22 -4
0 -8 7 -15 15 -15 8 0 15 -4 15 -10 0 -5 -6 -7 -14 -4 -8 3 -17 0 -21 -6 -4
-7 -22 -9 -51 -4 -30 4 -44 3 -44 -5 0 -16 -25 -14 -40 4 -11 13 -8 15 22 15
32 0 58 14 58 32 0 4 -6 8 -14 8 -8 0 -17 4 -20 9 -3 5 12 8 34 7 22 0 40 -5
40 -9 0 -11 41 2 57 19 10 10 10 13 0 17 -7 3 -1 9 13 15 14 5 30 6 35 1 6 -4
17 -4 25 1 13 9 13 10 0 10 -13 0 -13 1 0 10 8 5 17 6 20 2 3 -4 11 -7 19 -7z
m5196 -38 c11 -4 27 -20 37 -36 15 -28 15 -30 0 -44 -40 -34 -118 -27 -171 14
-27 22 -44 48 -21 34 5 -3 24 2 42 12 55 30 74 33 113 20z m-931 -46 c5 -9 24
-30 43 -47 18 -17 33 -37 33 -45 0 -22 -35 -56 -81 -79 -54 -28 -79 -15 -79
41 0 29 -5 41 -17 46 -41 15 -44 58 -5 90 21 17 35 21 62 16 19 -3 39 -13 44
-22z m3599 -60 c-2 -6 5 -11 15 -12 12 0 10 -3 -8 -11 -24 -10 -24 -10 -5 -18
29 -12 35 -12 29 4 -7 17 32 59 46 51 15 -9 12 -25 -5 -25 -18 0 -18 1 -4 -39
9 -24 14 -30 23 -21 8 8 7 13 -4 21 -13 8 -13 11 3 20 9 5 17 17 17 24 0 17 2
17 24 9 9 -3 15 -16 15 -28 -1 -16 -2 -17 -6 -3 -2 9 -9 17 -14 17 -6 0 -7 -4
-4 -10 3 -5 -4 -40 -16 -77 -23 -68 -39 -99 -39 -74 0 7 -9 3 -19 -10 l-19
-24 -10 25 c-5 14 -12 32 -15 40 -4 10 -6 7 -6 -7 -1 -13 -5 -23 -11 -23 -13
0 -13 16 -1 58 11 36 5 62 -13 62 -6 0 -17 9 -24 20 -10 17 -10 20 3 20 9 0
18 7 22 15 6 18 29 14 26 -4z m-836 -13 c-2 -7 -10 -12 -16 -10 -7 1 -10 -2
-6 -8 7 -12 36 -14 34 -2 -6 35 25 46 36 12 3 -11 11 -20 16 -20 5 0 9 -4 9
-10 0 -5 -7 -10 -15 -10 -8 0 -15 5 -15 10 0 6 -4 10 -9 10 -9 0 -23 -31 -26
-55 -7 -64 -36 -87 -101 -79 -44 5 -52 10 -37 25 8 8 17 8 31 0 11 -6 23 -11
25 -11 8 0 13 71 6 76 -5 3 -25 -2 -45 -11 -33 -14 -39 -14 -61 0 -34 23 -28
28 22 21 43 -7 45 -6 42 16 -2 19 3 23 26 23 17 -1 26 4 23 11 -7 17 3 24 37
24 19 0 27 -4 24 -12z m-1189 -77 c-2 -19 29 -80 42 -82 6 -1 16 -2 22 -3 7 0
19 -14 26 -29 8 -15 25 -32 38 -37 13 -5 24 -14 24 -20 0 -6 -5 -8 -11 -4 -8
4 -9 0 -4 -15 9 -28 -20 -29 -37 -1 -7 11 -19 20 -26 20 -7 0 -11 -4 -7 -9 3
-5 -1 -15 -8 -23 -7 -7 -18 -25 -24 -40 -7 -16 -19 -28 -27 -28 -8 0 -23 -3
-33 -7 -17 -6 -17 -5 -1 13 16 19 15 21 -33 57 -49 36 -79 47 -79 27 0 -20
-35 -9 -46 14 -14 30 4 42 32 21 22 -16 45 -9 37 11 -4 12 0 14 19 9 17 -4 30
1 47 19 22 24 23 27 9 43 -9 10 -18 27 -20 38 -2 16 2 20 25 18 15 -1 27 2 27
8 0 5 -4 9 -10 9 -5 0 -10 4 -10 10 0 5 7 7 15 3 9 -3 15 -13 13 -22z m-5801
-72 c16 -16 4 -52 -16 -43 -9 3 -25 8 -36 11 -18 4 -18 3 -4 -9 14 -11 14 -15
2 -26 -7 -8 -26 -15 -42 -17 -15 -2 -49 -15 -76 -29 -58 -31 -71 -32 -85 -6
-15 28 -58 27 -62 -2 l-3 -23 -14 24 c-7 13 -9 21 -3 17 5 -3 12 2 14 12 5 18
64 38 184 62 23 5 57 16 75 24 42 18 52 19 66 5z m7653 -69 c0 -6 11 -16 25
-22 18 -8 24 -17 19 -27 -3 -9 -8 -32 -10 -52 -4 -30 -1 -38 18 -47 l23 -11
-22 0 c-18 -1 -23 -7 -23 -27 0 -14 4 -23 10 -19 6 4 7 11 4 17 -4 6 -3 8 3 5
16 -10 24 -79 11 -94 -15 -19 -25 -16 -33 10 -7 20 -8 18 -14 -13 -5 -28 -11
-36 -31 -38 -19 -2 -28 4 -37 23 -6 14 -7 25 -2 25 5 0 9 11 9 25 0 14 -4 25
-8 25 -15 0 -29 44 -22 70 6 23 8 22 19 -17 13 -49 23 -58 15 -14 -5 23 -2 30
14 35 27 9 21 39 -8 46 -25 6 -49 62 -30 68 6 2 8 8 4 13 -3 5 4 9 15 9 12 0
21 5 21 10 0 6 7 10 15 10 8 0 15 -5 15 -10z m-9546 -43 c9 -7 19 -21 21 -32
2 -11 4 -22 5 -25 0 -3 7 4 15 14 8 11 15 14 15 8 0 -7 13 -12 28 -12 17 0 38
-10 52 -25 23 -25 23 -25 2 -25 -24 0 -38 -15 -22 -25 20 -12 9 -24 -20 -22
-35 2 -36 4 -13 29 15 17 15 19 -3 33 -25 19 -30 19 -52 -5 -11 -11 -29 -19
-41 -18 -15 2 -27 -4 -35 -17 -6 -11 -12 -22 -13 -24 -5 -8 -63 59 -63 73 0
20 19 31 32 18 6 -6 18 -8 27 -6 9 3 5 -1 -8 -9 -21 -12 -22 -15 -6 -21 19 -7
38 10 63 52 16 29 15 32 -9 32 -11 0 -17 5 -14 10 8 13 18 13 39 -3z m5761
-185 c22 -42 47 -75 65 -86 28 -16 70 -80 70 -106 0 -22 29 -41 53 -35 19 5
25 2 30 -14 8 -31 -32 -52 -86 -45 -37 5 -47 12 -68 45 -14 23 -32 39 -42 39
-11 0 -21 8 -24 18 -2 10 -19 22 -36 28 -27 8 -33 15 -39 49 -3 22 -2 44 2 49
5 5 5 17 -1 28 -7 14 -6 18 6 18 8 0 15 -6 15 -12 0 -9 4 -8 10 2 7 11 5 19
-7 28 -16 11 -16 12 0 12 14 0 16 6 11 25 -11 43 3 28 41 -43z m-1866 -118
c17 -14 31 -31 31 -37 0 -6 -10 -1 -23 11 -27 25 -37 28 -37 8 0 -7 -9 -16
-21 -19 l-20 -6 21 -21 c13 -13 35 -22 60 -23 43 -1 40 3 54 -94 4 -26 -36
-67 -74 -77 -24 -7 -24 -6 -6 8 17 14 18 16 3 16 -10 0 -17 8 -17 19 0 22 -16
36 -24 22 -8 -13 -42 -2 -62 20 -23 25 -31 24 -37 -7 -3 -20 0 -28 14 -31 11
-3 19 -12 19 -19 0 -10 -7 -13 -25 -8 -28 7 -32 -3 -11 -31 14 -19 11 -55 -5
-55 -5 0 -6 7 -3 15 4 10 0 15 -13 15 -20 0 -59 38 -81 80 -7 13 -15 55 -18
92 -3 60 -1 70 18 88 16 15 30 19 49 15 17 -4 40 0 58 9 25 13 79 30 113 35 3
1 20 -11 37 -25z m4847 -17 c10 3 12 0 8 -10 -3 -9 -12 -18 -20 -21 -8 -3 -14
-15 -14 -26 0 -12 5 -18 10 -15 18 11 11 -1 -20 -36 -16 -19 -32 -41 -35 -49
-3 -8 -19 -25 -36 -38 -23 -19 -29 -21 -29 -8 0 9 11 21 24 28 25 11 43 38 26
38 -6 0 -10 -4 -10 -8 0 -16 -95 -69 -132 -75 -39 -6 -61 8 -37 24 8 5 11 9 6
9 -24 0 97 88 167 121 16 8 31 22 34 32 2 9 8 17 13 17 5 0 9 8 9 17 0 13 3
14 11 6 6 -6 18 -9 25 -6z m-5922 -13 c9 -8 24 -14 33 -13 27 4 63 -11 63 -25
0 -7 10 -18 23 -24 21 -10 21 -11 2 -11 -12 -1 -26 4 -33 11 -7 7 -12 8 -12 2
0 -16 40 -35 61 -29 14 5 17 3 13 -9 -6 -16 -37 -14 -74 4 -8 4 -20 5 -26 3
-6 -2 -14 6 -18 19 -4 17 -8 20 -15 10 -5 -8 -19 -12 -32 -9 -24 4 -24 5 -3
12 16 5 20 12 16 28 -5 19 -6 19 -27 -8 -13 -15 -29 -25 -36 -23 -8 3 -22 1
-32 -4 -11 -5 -32 -11 -48 -13 -16 -2 -52 -15 -79 -29 -41 -21 -55 -23 -77
-15 -15 5 -33 7 -42 4 -11 -5 -11 -1 3 14 25 27 127 57 204 60 12 1 22 7 22
14 0 7 19 20 43 29 55 21 53 20 71 2z m-3130 -10 c25 -9 19 -24 -9 -24 -26 0
-34 -15 -12 -23 6 -2 -12 -3 -40 -1 -54 3 -67 -8 -41 -34 8 -8 5 -14 -14 -21
-14 -5 -28 -17 -31 -25 -4 -11 -19 -16 -46 -16 -33 0 -44 5 -58 26 -17 26 -16
27 18 55 20 16 46 29 63 29 16 0 35 8 42 17 11 16 17 16 45 6 28 -11 35 -11
42 2 9 16 17 18 41 9z m9815 -3 c11 -7 11 -14 -3 -41 -16 -34 -14 -50 8 -50 8
0 13 -6 13 -12 -3 -25 24 -150 36 -170 9 -16 9 -22 0 -25 -15 -6 -17 -49 -3
-58 6 -3 10 3 10 15 0 13 5 20 13 17 14 -5 10 -69 -5 -78 -10 -6 -8 -11 21
-67 6 -13 9 -27 6 -31 -7 -13 -48 -2 -62 17 -7 8 -19 12 -27 9 -11 -4 -18 2
-22 20 -7 25 -8 25 -20 8 -19 -26 -27 -13 -27 40 0 35 -3 43 -13 35 -8 -8 -14
-8 -19 0 -3 5 -15 10 -25 10 -17 0 -18 4 -10 25 10 25 8 27 -20 29 -8 1 -15 7
-14 14 1 6 2 19 3 28 0 9 7 14 14 11 6 -2 11 -11 11 -20 -1 -9 4 -13 12 -10
10 3 14 -3 14 -18 0 -23 1 -23 25 6 25 31 36 70 13 47 -17 -17 -45 -15 -52 4
-9 22 3 37 19 24 10 -8 14 -4 19 15 4 14 4 30 1 35 -3 5 2 18 12 30 10 11 18
24 18 28 2 23 18 108 22 115 6 9 15 9 32 -2z m-10216 -50 c13 -2 7 -29 -9 -35
-8 -3 -13 -2 -10 3 7 10 -22 19 -46 13 -10 -2 -18 -11 -18 -21 0 -21 61 -44
104 -39 27 3 31 -1 48 -51 22 -63 24 -60 -72 -92 -36 -12 -67 -25 -70 -29 -3
-4 -22 -10 -42 -14 -31 -6 -41 -3 -55 14 -10 11 -23 20 -30 20 -7 0 -13 5 -13
10 0 6 7 10 15 10 11 0 15 11 15 38 0 30 7 45 30 67 32 31 60 78 60 101 0 12
27 14 93 5z m9545 -68 c7 -7 10 -17 7 -23 -8 -13 1 -13 25 0 15 8 26 1 63 -35
43 -42 46 -48 51 -112 5 -69 -6 -105 -31 -110 -16 -4 -17 14 -2 19 5 2 11 10
12 18 2 8 7 21 11 29 7 11 5 13 -7 8 -14 -5 -17 0 -17 26 l-1 32 -14 -25 c-18
-32 -18 -40 0 -40 8 0 15 -4 15 -10 0 -5 -9 -10 -20 -10 -13 0 -20 -7 -20 -19
0 -11 -5 -23 -10 -26 -6 -4 -8 -11 -5 -16 4 -5 -6 -9 -22 -10 -27 0 -27 -1 -5
-9 23 -10 30 -44 12 -55 -6 -4 -8 -15 -5 -26 5 -14 2 -19 -14 -19 -27 0 -34
-15 -20 -42 9 -16 9 -23 0 -26 -6 -2 -11 -12 -11 -22 0 -10 -12 -25 -26 -35
-25 -16 -27 -16 -43 0 -12 13 -13 19 -3 22 6 3 12 8 12 13 0 14 -32 21 -46 9
-11 -9 -14 -7 -14 8 0 10 -7 28 -15 39 -13 18 -14 18 -15 1 0 -13 -6 -17 -22
-15 -18 2 -23 10 -25 37 -3 29 -1 32 12 21 9 -7 18 -10 22 -7 8 9 -38 46 -57
47 -12 1 -12 3 3 14 22 17 22 22 -3 29 -11 3 -20 1 -20 -4 0 -18 -32 -9 -37
11 -3 11 -9 17 -15 14 -5 -3 -17 -3 -26 1 -14 6 -13 9 8 18 24 10 24 11 3 14
-26 5 -47 28 -38 43 9 14 25 12 25 -4 0 -9 8 -12 24 -9 13 3 27 0 30 -6 4 -6
11 -11 17 -11 14 0 11 40 -6 56 -8 9 -15 12 -15 8 0 -3 -7 -1 -15 6 -12 10
-16 9 -21 -4 -3 -9 -10 -16 -15 -16 -11 0 1 33 15 42 16 11 38 10 31 -2 -3 -5
3 -10 14 -10 12 0 21 -4 21 -10 0 -5 9 -10 19 -10 11 0 23 5 26 10 3 6 -1 10
-9 10 -9 0 -16 5 -16 10 0 6 4 10 9 10 5 0 13 9 16 20 3 11 13 20 21 20 23 0
29 29 8 45 -12 9 -14 14 -6 15 20 0 82 50 82 65 0 28 64 20 98 -12z m842 6 c8
-2 20 -15 26 -29 10 -25 7 -70 -5 -70 -4 0 -8 -10 -8 -22 -2 -15 1 -18 6 -10
6 10 14 9 40 -4 32 -16 32 -17 26 -68 -4 -28 -11 -53 -15 -56 -4 -3 -10 -17
-14 -32 -3 -16 -13 -28 -21 -28 -17 0 -29 17 -14 22 15 5 -16 61 -37 64 -9 2
-21 7 -26 12 -9 9 -20 64 -19 100 1 13 -5 22 -14 22 -8 0 -15 5 -15 11 0 7 10
9 25 7 28 -6 40 5 29 24 -4 7 -8 25 -9 41 -1 21 2 27 14 24 9 -3 23 -6 31 -8z
m-9402 -11 c7 -7 12 -22 12 -35 0 -16 6 -23 19 -23 25 0 38 20 14 20 -17 1
-17 2 1 15 23 17 36 5 36 -32 0 -17 -8 -25 -32 -31 -18 -5 -34 -5 -36 0 -7 17
-19 7 -18 -14 1 -16 7 -23 21 -23 14 0 21 -8 23 -27 2 -20 -1 -28 -12 -28 -9
0 -16 -8 -16 -17 0 -13 -3 -14 -11 -6 -14 14 -39 -5 -32 -23 2 -7 0 -15 -6
-19 -7 -3 -11 2 -11 14 0 25 -12 26 -45 5 -24 -16 -31 -11 -26 19 1 4 -10 5
-24 1 -16 -4 -34 0 -50 10 -27 18 -25 36 3 36 13 0 14 -2 4 -9 -9 -5 1 -8 27
-8 23 0 41 4 41 8 0 5 14 9 32 9 25 0 29 -3 20 -12 -13 -13 -16 -28 -4 -28 4
0 20 11 35 24 24 21 27 28 17 45 -10 20 -12 20 -34 5 -16 -10 -26 -11 -30 -5
-4 6 2 16 14 23 31 19 24 31 -14 25 -28 -4 -34 -3 -29 9 3 8 11 14 19 14 8 0
14 7 14 15 0 8 5 15 11 15 6 0 9 -6 6 -14 -4 -9 4 -13 24 -14 36 -1 46 14 25
37 -26 28 -15 46 12 19z m4870 -41 c3 -41 6 -47 25 -47 13 0 38 -14 56 -31 19
-17 42 -31 52 -32 10 -1 16 -4 14 -7 -2 -4 -18 -5 -35 -2 -21 3 -30 0 -30 -9
0 -11 -3 -11 -10 1 -9 13 -12 13 -23 -2 -14 -18 -45 -8 -33 11 11 17 -5 13
-26 -6 -18 -16 -19 -16 -25 6 -5 20 -11 22 -52 20 -26 -2 -52 1 -59 5 -7 4
-12 1 -12 -9 0 -13 -4 -14 -21 -5 -16 9 -26 8 -44 -4 -28 -18 -45 -20 -45 -6
0 6 8 10 18 11 14 0 14 2 -3 9 -14 6 -24 3 -35 -9 -8 -9 -23 -20 -33 -24 -10
-4 -15 -12 -12 -17 4 -6 3 -9 -2 -8 -10 3 -53 -24 -53 -34 0 -5 9 -8 20 -8 21
0 70 -44 70 -62 0 -6 -20 -7 -50 -3 -44 6 -50 5 -50 -11 0 -9 -3 -14 -7 -10
-4 3 -13 -4 -20 -16 l-14 -23 6 23 c4 13 2 22 -4 22 -6 0 -10 3 -9 8 1 4 -2
18 -6 30 -6 19 -13 22 -32 18 -43 -11 -26 13 19 25 23 7 50 21 60 31 10 10 25
18 34 18 12 0 13 3 4 14 -10 12 -8 17 7 25 11 6 22 8 24 5 9 -8 30 24 23 35
-6 11 -64 4 -79 -10 -5 -4 -8 -19 -8 -33 l0 -26 -34 32 c-19 18 -34 39 -34 46
0 18 27 15 38 -4 11 -20 22 -6 27 32 2 23 -1 25 -34 24 -60 -3 -68 0 -36 14
62 27 91 27 120 1 14 -14 35 -25 45 -25 11 0 27 -12 37 -26 16 -25 20 -26 67
-19 28 4 84 6 124 5 39 -1 72 1 72 4 0 18 -16 39 -37 47 -23 8 -23 10 -7 34
26 40 48 28 52 -28z m-5686 -278 c-4 -38 20 -53 69 -45 26 4 46 2 55 -5 12 -9
17 -8 27 5 12 16 14 16 26 2 8 -9 29 -16 47 -16 19 0 34 -4 34 -8 0 -18 -26
-32 -57 -32 -20 0 -41 -8 -53 -20 -11 -11 -27 -20 -35 -20 -8 0 -15 -5 -15
-11 0 -25 -42 -70 -64 -67 -13 2 -19 9 -17 18 2 8 3 24 3 35 -1 11 -2 36 -3
55 -1 45 -15 61 -45 54 -13 -3 -24 -2 -24 4 0 5 9 12 19 15 21 5 25 45 6 60
-6 5 -2 7 10 5 15 -3 19 -10 17 -29z m4188 -135 c0 -8 5 -12 10 -9 6 3 10 2
10 -3 0 -5 14 -12 31 -16 18 -3 49 -22 71 -42 27 -24 43 -32 51 -25 8 6 20 5
36 -3 20 -11 21 -14 6 -20 -10 -3 -15 -12 -11 -21 4 -10 -1 -15 -15 -15 -15 0
-19 -5 -15 -15 3 -9 -1 -18 -9 -22 -13 -5 -13 -7 2 -19 14 -10 16 -17 7 -31
-6 -10 -19 -20 -29 -21 -13 -3 -15 1 -11 16 8 24 -9 38 -28 23 -9 -8 -18 -7
-32 4 -18 14 -17 14 11 16 17 1 23 3 13 6 -10 2 -18 9 -18 15 0 6 -11 21 -25
34 -14 13 -25 30 -25 37 0 19 -29 30 -45 17 -8 -6 -17 -5 -30 3 -16 13 -15 15
13 26 30 13 31 14 17 41 -14 26 -11 40 7 40 4 0 8 -7 8 -16z m-3942 -30 c-3
-3 0 -29 8 -57 8 -29 14 -53 14 -55 0 -2 -9 0 -20 3 -13 4 -31 0 -46 -10 -13
-9 -29 -13 -34 -10 -4 3 -18 -8 -30 -25 l-21 -30 20 0 c32 0 25 -18 -9 -25
-16 -4 -30 -12 -30 -19 0 -8 -13 -12 -36 -12 -29 1 -39 7 -51 30 -23 43 -1 57
35 23 36 -35 46 -34 39 3 -4 20 -2 30 5 30 21 0 58 43 58 67 0 26 64 93 89 93
8 0 12 -3 9 -6z m4653 -27 c-19 -19 -12 -27 15 -17 28 11 48 5 38 -11 -3 -6
-3 -17 0 -25 5 -14 8 -14 22 1 11 11 20 13 27 6 17 -17 -1 -41 -30 -41 -15 0
-45 -3 -66 -6 -34 -6 -35 -8 -20 -20 17 -12 17 -13 1 -14 -9 0 -22 -8 -28 -17
-8 -13 -13 -14 -16 -5 -3 6 -12 12 -19 12 -8 0 -15 10 -17 22 -2 12 -9 23 -15
26 -17 5 -17 -30 -1 -46 7 -7 9 -13 5 -13 -4 -1 -10 -3 -14 -4 -5 -2 -18 -6
-30 -10 -13 -4 -19 -13 -16 -21 3 -8 -1 -14 -11 -14 -9 0 -16 -6 -16 -14 0 -8
-15 -17 -35 -20 -23 -5 -32 -11 -29 -20 7 -18 -27 -30 -38 -14 -5 8 -2 17 8
23 9 6 29 20 46 32 l30 22 -26 -3 c-14 -1 -29 -6 -32 -9 -8 -8 -24 1 -24 14 0
5 7 9 15 9 7 0 18 6 22 13 4 6 16 18 26 26 15 12 17 12 11 -3 -5 -13 -2 -15
17 -7 13 4 25 17 27 29 3 22 47 56 61 47 5 -2 11 2 14 9 3 8 1 17 -6 19 -7 2
-9 8 -5 12 4 4 14 2 23 -5 13 -10 15 -9 15 9 0 11 6 21 14 21 8 0 24 9 37 19
24 20 41 9 20 -12z m-393 -78 c12 0 22 -4 22 -9 0 -6 -9 -10 -20 -10 -26 0
-57 -47 -41 -63 17 -17 13 -27 -10 -27 -11 0 -17 -4 -14 -10 3 -5 0 -10 -7
-11 -16 -1 30 -17 55 -18 9 -1 17 6 17 14 0 8 5 15 10 15 6 0 10 -4 10 -10 0
-5 7 -10 17 -10 9 0 -1 -12 -25 -30 -23 -16 -48 -40 -56 -53 -11 -16 -37 -29
-87 -42 -39 -11 -74 -26 -76 -32 -3 -7 -18 -13 -33 -13 -15 0 -33 -7 -40 -15
-7 -8 -21 -15 -31 -15 -10 0 -23 -9 -29 -20 -13 -25 -32 -27 -23 -2 6 14 4 15
-8 5 -12 -10 -18 -10 -28 0 -9 9 -14 9 -20 -2 -5 -8 -7 -20 -4 -27 9 -24 -43
-47 -98 -42 -39 4 -55 1 -74 -13 -27 -22 -55 -25 -55 -6 0 6 -17 -7 -36 -31
-48 -57 -126 -97 -110 -57 4 11 -2 15 -20 15 -45 0 -24 33 43 65 34 17 72 40
85 52 34 32 84 50 163 58 94 9 215 64 215 97 1 26 29 40 177 91 28 10 31 15
26 39 -5 25 -3 28 21 28 30 0 33 11 10 31 -15 12 -14 14 6 19 35 8 37 30 3 31
-25 0 -26 1 -8 9 11 5 27 6 35 3 8 -3 25 -5 38 -4z m-3588 -28 c0 -18 27 -37
38 -26 3 3 0 5 -6 5 -6 0 -9 8 -6 18 5 15 4 15 -6 2 -10 -13 -11 -13 -7 0 8
30 30 15 32 -23 3 -32 0 -37 -15 -32 -22 7 -38 -14 -20 -25 9 -6 2 -19 -26
-47 -21 -22 -44 -47 -51 -55 -7 -9 -17 -18 -22 -19 -6 -2 -8 -14 -5 -26 6 -21
8 -21 27 -8 36 25 58 19 55 -15 -1 -17 -8 -30 -15 -30 -7 0 -13 -12 -13 -27 0
-26 -1 -26 -14 -8 -8 11 -12 23 -10 27 9 15 -7 8 -28 -12 -23 -21 -48 -27 -48
-10 0 6 -7 10 -15 10 -17 0 -21 35 -5 45 6 3 10 -2 10 -11 0 -16 1 -16 20 1
25 22 26 35 3 35 -11 0 -14 3 -7 8 21 14 43 70 39 101 -2 17 1 33 6 36 5 4 9
1 9 -4 0 -6 7 -11 15 -11 12 0 14 7 9 26 -5 19 -4 25 5 20 6 -4 11 -3 11 2 0
6 9 8 20 5 24 -6 26 5 3 22 -9 7 -14 19 -10 29 9 22 27 20 27 -3z m1975 -128
c42 -4 109 -15 116 -19 4 -2 11 0 14 6 4 6 14 9 23 6 10 -3 41 -8 71 -10 60
-6 73 -13 51 -26 -13 -8 -12 -10 3 -10 9 0 26 6 37 13 17 10 22 9 30 -3 5 -8
14 -16 20 -16 21 -3 22 -4 10 -19 -6 -8 -8 -19 -4 -26 4 -7 2 -10 -7 -7 -8 2
-15 17 -17 32 -3 21 -7 26 -20 20 -15 -6 -35 -10 -64 -13 -5 -1 -8 -8 -8 -16
0 -12 8 -14 40 -9 36 6 40 4 40 -14 0 -18 -6 -21 -43 -20 -24 0 -57 -3 -75 -7
-39 -8 -44 10 -7 27 14 6 25 19 25 29 0 9 6 20 13 22 6 3 2 6 -10 6 -12 1 -23
-3 -25 -8 -1 -5 -18 -12 -37 -16 -29 -6 -33 -5 -28 9 8 21 1 20 -32 -3 -15
-11 -40 -23 -57 -26 -28 -6 -28 -6 -10 9 20 16 17 19 -19 17 -19 -2 -19 -1 -2
13 18 14 18 14 -2 21 -12 3 -21 11 -21 16 0 6 -10 10 -22 9 -46 -4 -53 -1 -32
14 10 8 21 11 24 8 3 -4 14 -8 25 -9z m-2422 -222 c-4 -15 3 -19 35 -24 21 -4
47 -16 58 -28 10 -11 26 -25 35 -30 14 -7 16 -2 13 32 -1 23 0 38 3 35 3 -3
11 2 18 10 10 15 14 15 43 0 18 -9 32 -19 32 -22 0 -2 -9 0 -19 6 -25 13 -71
-3 -71 -25 0 -8 5 -15 11 -15 5 0 7 -5 3 -12 -5 -7 -2 -9 8 -5 10 3 19 -3 27
-19 11 -25 26 -31 36 -14 5 8 11 7 21 -1 8 -6 18 -9 21 -5 4 4 1 11 -7 16 -13
8 -12 10 2 10 21 0 30 -13 22 -34 -7 -17 -34 -22 -34 -6 0 14 -27 13 -32 -1
-3 -9 -10 -8 -25 1 -11 7 -28 10 -37 7 -31 -12 -8 -24 44 -21 44 2 50 0 50
-18 0 -13 -5 -18 -14 -15 -8 3 -19 -8 -29 -29 -13 -25 -23 -34 -42 -34 -14 0
-25 -4 -25 -10 0 -5 -3 -9 -7 -8 -5 1 -27 -11 -51 -27 -41 -27 -45 -28 -68
-14 -20 12 -38 14 -82 8 -99 -14 -132 9 -113 78 12 43 0 73 -29 73 -30 0 -24
16 15 46 l35 26 -23 19 c-18 15 -19 18 -5 19 9 0 18 -5 20 -10 2 -6 20 -2 43
10 21 11 46 20 55 20 8 1 26 7 40 15 14 8 26 14 27 15 0 0 -1 -8 -4 -19z
m2629 -21 c5 -15 115 -51 134 -43 11 4 15 2 11 -4 -8 -13 14 -23 49 -23 13 0
24 -6 25 -12 0 -7 2 -21 4 -30 4 -23 -11 -23 -23 -2 -5 9 -15 14 -21 10 -6 -4
-9 -12 -6 -17 4 -5 2 -9 -4 -9 -6 0 -8 -6 -5 -14 3 -8 1 -17 -4 -20 -13 -8
-36 20 -27 34 3 5 2 10 -4 10 -5 0 -13 -5 -17 -11 -3 -6 -15 -9 -25 -6 -11 3
-19 0 -19 -6 0 -8 -4 -7 -12 1 -7 7 -19 12 -28 12 -8 0 -21 9 -28 20 -7 12
-23 20 -41 20 -15 0 -40 9 -54 20 -32 26 -35 25 -30 -5 5 -22 28 -38 59 -39 6
-1 18 -8 27 -18 9 -9 22 -18 29 -20 6 -2 8 -10 4 -17 -6 -9 -16 -7 -43 9 -20
12 -42 19 -50 16 -19 -8 -82 20 -99 42 -12 16 -13 16 -14 0 0 -9 5 -20 10 -23
18 -11 11 -35 -10 -35 -12 0 -20 6 -19 13 3 22 -1 37 -8 36 -37 -6 -45 17 -10
31 15 6 4 7 -35 3 -37 -4 -58 -2 -58 4 0 19 29 35 52 29 13 -3 17 -3 11 0 -7
3 -13 10 -13 15 0 14 62 10 94 -6 37 -20 54 -19 58 2 2 12 20 21 58 29 74 15
78 15 82 4z m-1596 -15 c9 -8 25 -15 38 -15 25 0 76 -21 76 -32 0 -4 -8 -11
-17 -16 -14 -8 -15 -15 -6 -43 5 -19 15 -33 21 -32 7 2 12 -6 12 -17 0 -15 -7
-20 -26 -20 -21 0 -25 4 -21 19 4 16 1 18 -17 14 -47 -11 -61 -9 -59 12 1 11
0 14 -3 8 -3 -7 -12 -13 -19 -13 -8 0 -15 -10 -17 -22 -2 -15 -10 -23 -23 -23
-11 -1 -19 -7 -17 -14 1 -7 -2 -10 -8 -6 -11 7 -70 -15 -70 -27 0 -3 6 -8 13
-11 6 -2 9 -8 5 -12 -4 -4 -15 -2 -24 6 -14 11 -18 11 -28 -1 -6 -8 -20 -16
-31 -18 -11 -2 -25 -10 -31 -18 -6 -8 -16 -14 -22 -14 -6 0 -14 -9 -17 -20 -4
-11 -11 -18 -16 -15 -12 8 -12 55 1 55 5 0 7 7 4 15 -4 10 0 15 11 15 23 0 48
28 41 46 -3 8 -10 12 -16 9 -14 -9 -12 28 3 47 16 20 73 42 91 35 16 -6 13
-51 -6 -74 -12 -15 -9 -16 22 -10 18 4 37 12 41 18 4 7 11 9 15 6 17 -10 47
21 41 43 -3 12 0 20 8 20 7 0 18 6 24 13 8 10 4 20 -19 42 -33 32 -38 45 -15
45 8 0 15 5 15 10 0 15 29 12 46 -5z m1909 -71 c27 -3 52 -7 54 -10 2 -2 -2
-23 -9 -46 -8 -24 -13 -60 -11 -80 2 -25 -1 -38 -10 -38 -7 0 -21 -7 -31 -16
-16 -15 -18 -15 -24 -1 -8 23 -84 34 -99 14 -15 -21 -78 -25 -101 -7 -10 9
-19 11 -21 5 -12 -34 -21 -38 -78 -30 -56 7 -79 25 -58 46 7 7 0 21 -19 41
-20 21 -26 34 -19 41 7 7 16 6 28 -5 18 -15 123 -31 123 -19 0 4 -6 13 -12 20
-11 10 -7 11 16 5 16 -4 37 -15 47 -25 20 -20 69 -26 69 -9 0 5 7 7 15 4 8 -4
15 -2 15 3 0 10 78 33 112 33 21 0 21 1 3 13 -10 8 -15 19 -11 25 5 8 -2 12
-18 12 -14 0 -26 5 -26 11 0 5 -4 7 -10 4 -5 -3 -10 1 -10 10 0 11 6 15 18 11
9 -3 40 -8 67 -12z m1711 -202 c16 -9 17 -14 6 -31 -7 -12 -8 -21 -3 -21 5 0
12 8 15 17 6 14 9 14 23 -6 12 -18 17 -20 25 -10 7 11 11 11 15 2 2 -7 10 -13
17 -13 14 0 40 -49 31 -59 -4 -3 -14 4 -23 15 -17 22 -82 49 -82 35 0 -4 9
-18 20 -31 12 -13 18 -30 15 -37 -2 -8 0 -11 5 -8 6 3 10 15 10 26 0 25 6 24
36 -6 14 -14 31 -22 39 -19 17 7 18 3 9 -20 -3 -9 -16 -16 -28 -16 -12 0 -30
-6 -41 -13 -16 -12 -21 -10 -45 15 -15 15 -32 28 -39 28 -6 0 -11 5 -11 10 0
6 -7 10 -15 10 -8 0 -15 5 -15 11 0 6 7 9 15 5 20 -7 19 3 -6 43 -16 27 -18
36 -7 42 9 6 9 9 1 9 -6 0 -15 -4 -18 -10 -3 -5 -9 -10 -13 -10 -10 0 -33 40
-28 48 6 11 70 7 92 -6z m-5544 -4 c12 -7 30 -21 41 -31 16 -16 17 -23 7 -47
-17 -40 -38 -55 -95 -69 -27 -7 -56 -17 -63 -23 -18 -15 -40 8 -43 47 -4 36 7
56 25 49 8 -3 17 0 21 6 5 8 11 8 21 -1 11 -9 16 -6 24 16 5 14 10 30 10 34 0
7 21 31 27 31 2 0 13 -6 25 -12z m4083 -8 c-4 -6 -13 -10 -20 -10 -17 0 -39
-37 -26 -44 5 -3 12 1 15 9 4 13 16 14 58 9 49 -6 52 -5 33 9 -19 15 -19 16
-2 23 10 3 23 2 29 -4 7 -7 17 -8 27 -2 9 4 58 11 109 15 81 7 92 6 92 -8 0
-26 -38 -40 -109 -40 -44 0 -72 -5 -83 -15 -10 -8 -26 -12 -38 -9 -15 4 -20 0
-20 -14 0 -11 7 -22 15 -25 20 -8 9 -23 -13 -18 -9 2 -50 -4 -90 -14 -78 -20
-102 -13 -61 19 l24 19 -34 0 c-19 0 -43 -8 -53 -17 -24 -21 -92 -45 -96 -34
-2 5 -25 -2 -51 -15 -36 -17 -59 -21 -85 -17 -44 7 -42 19 10 56 28 20 57 30
97 34 42 4 61 11 68 24 6 12 21 19 39 19 19 0 30 5 30 14 0 18 43 33 48 17 6
-18 32 -13 32 7 0 12 9 18 30 19 18 1 28 -2 25 -7z m-1875 -83 c30 1 88 4 128
6 39 2 72 1 72 -4 0 -5 -7 -9 -15 -9 -8 0 -15 -7 -15 -15 0 -12 4 -13 19 -6
18 10 31 6 31 -11 0 -5 -15 -8 -32 -6 -24 2 -33 8 -32 21 2 22 -17 22 -61 -3
-40 -23 -65 -26 -65 -8 0 9 -3 9 -12 0 -10 -10 -10 -15 2 -22 12 -7 11 -10 -5
-16 -11 -4 -26 -15 -32 -23 -12 -14 -14 -14 -27 2 -14 19 -36 23 -36 7 0 -5
-7 -10 -15 -10 -28 0 -15 19 28 39 l42 20 -32 1 c-31 0 -44 14 -35 38 3 8 11
10 21 5 9 -4 41 -7 71 -6z m391 -32 c30 -1 60 -4 65 -8 13 -8 54 3 54 14 0 12
32 -2 59 -27 29 -27 9 -45 -21 -17 -14 12 -22 14 -25 6 -2 -7 -11 -9 -19 -6
-8 3 -14 -1 -14 -11 0 -9 6 -16 13 -17 40 -4 96 -1 106 6 17 10 62 -22 55 -40
-7 -18 -21 -19 -27 -2 -3 6 -6 1 -6 -12 -1 -18 -5 -22 -21 -18 -32 8 -24 -20
12 -37 17 -9 39 -14 48 -11 10 3 23 -2 31 -12 8 -9 9 -14 2 -10 -6 4 -14 3
-17 -1 -3 -5 -22 -8 -43 -6 -21 2 -51 3 -66 3 -21 1 -28 6 -26 19 3 32 -1 39
-26 50 -15 7 -27 8 -30 2 -10 -16 -45 -11 -45 6 0 10 5 14 16 10 9 -3 12 -2 9
5 -4 6 -13 8 -21 5 -8 -3 -14 1 -14 10 0 11 -5 14 -17 10 -9 -4 -19 -2 -22 3
-4 5 -39 11 -79 14 -42 2 -77 9 -85 17 -10 10 -8 12 10 7 15 -3 20 -1 17 8 -3
7 4 16 15 20 12 3 21 13 21 22 0 11 5 13 18 7 9 -5 42 -9 73 -9z m-953 -281
c5 -8 16 -16 24 -18 9 -1 35 -18 59 -38 34 -29 49 -36 74 -33 27 4 31 1 30
-17 -1 -12 -8 -24 -16 -27 -8 -3 -15 -12 -17 -19 -1 -8 2 -11 9 -6 9 5 10 2 5
-12 -16 -39 -24 -73 -18 -78 3 -3 0 -6 -6 -6 -6 0 -9 -6 -6 -14 3 -8 1 -17 -5
-21 -7 -3 -11 3 -11 16 0 17 -3 19 -13 10 -15 -12 -27 -5 -27 16 0 9 9 13 26
11 15 -2 29 3 31 10 3 8 -6 12 -26 12 -22 0 -31 5 -31 17 0 17 -27 53 -41 53
-4 0 -4 -13 1 -29 4 -16 6 -32 2 -35 -12 -13 -22 -5 -22 18 0 14 -4 28 -10 31
-15 9 -12 25 4 25 10 0 12 7 8 22 -3 14 -1 19 6 14 8 -5 9 0 3 16 -6 16 -15
22 -30 20 -13 -2 -21 2 -21 11 0 8 -7 20 -15 27 -12 10 -13 16 -4 26 15 18 26
18 37 -2z m-2146 -113 c21 -14 38 -29 38 -33 0 -17 -47 -78 -65 -84 -11 -4
-23 -11 -27 -17 -11 -18 -37 11 -44 49 -3 19 -9 34 -13 34 -12 0 -6 71 7 79
20 12 63 1 104 -28z"/>
<path d="M5577 4249 c-18 -11 -12 -39 9 -39 8 0 14 -4 14 -10 0 -15 -17 -12
-46 6 -19 13 -28 14 -37 5 -6 -6 -23 -11 -38 -11 -27 0 -69 -32 -88 -68 -10
-20 -9 -20 26 -15 37 6 218 77 238 93 6 4 29 14 53 21 29 8 39 16 32 23 -7 7
-14 6 -22 -2 -8 -8 -17 -8 -31 -1 -14 8 -17 8 -13 0 6 -10 -30 -8 -70 4 -5 2
-18 -1 -27 -6z"/>
<path d="M6885 4320 c-291 -97 -428 -150 -483 -188 -20 -14 -64 -38 -97 -54
-82 -40 -144 -74 -164 -90 -9 -8 -29 -20 -44 -28 -16 -8 -24 -16 -18 -18 13
-4 189 65 211 83 21 18 149 81 180 90 14 3 34 10 45 15 46 19 306 56 460 64
101 6 133 14 140 35 6 20 85 43 123 36 21 -4 22 -3 8 3 -18 8 -17 10 14 25 18
9 41 17 51 17 19 0 35 17 25 27 -3 3 -16 7 -28 8 -13 1 -29 3 -35 4 -8 1 -6 8
7 21 31 31 15 41 -64 39 -60 -2 -112 -15 -331 -89z"/>
<path d="M7925 4233 c-107 -7 -156 -15 -170 -29 -12 -12 -19 -13 -37 -3 -24
13 -238 6 -313 -10 -95 -20 -206 -51 -279 -78 -51 -18 -81 -24 -83 -17 -4 13
-53 6 -53 -8 0 -5 -8 -7 -18 -4 -21 7 -328 -37 -413 -59 -34 -9 -68 -14 -76
-11 -8 4 -20 3 -26 -1 -7 -4 -26 -8 -43 -9 -55 -2 -187 -51 -178 -66 3 -4 -5
-8 -17 -8 -12 0 -20 -2 -17 -5 3 -3 67 3 143 15 103 15 153 28 201 50 35 17
76 33 91 35 16 2 56 8 91 14 150 26 182 30 268 34 50 2 96 7 102 11 6 3 95 9
198 12 103 3 199 10 213 16 14 6 64 12 111 14 47 2 101 6 120 9 70 12 216 23
258 20 24 -2 52 -11 62 -20 16 -14 34 -15 171 -5 178 12 209 18 209 35 0 24
-154 73 -166 53 -4 -7 -9 -7 -13 0 -6 11 -244 22 -336 15z"/>
<path d="M8140 4108 c-41 -4 -161 -10 -266 -14 l-191 -6 0 -29 c0 -26 4 -29
31 -29 17 0 47 5 66 10 45 12 199 30 316 36 55 3 111 13 140 24 48 18 48 19
14 17 -19 -1 -69 -5 -110 -9z"/>
<path d="M7041 5841 c-36 -9 -67 -23 -69 -31 -3 -8 -10 -18 -16 -22 -6 -5 -3
-8 9 -8 11 1 29 7 39 15 25 19 42 8 22 -14 -15 -16 -14 -19 4 -36 15 -13 19
-14 15 -4 -3 9 6 21 26 33 32 19 32 19 25 0 -14 -34 -11 -39 19 -39 17 0 35
-4 42 -8 6 -4 14 -3 17 2 4 5 2 12 -4 16 -13 8 -3 25 15 25 9 0 12 -6 9 -15
-9 -22 9 -18 24 6 11 18 11 20 -5 17 -13 -2 -17 2 -15 15 3 16 -3 18 -31 16
-20 -2 -44 4 -58 13 -20 14 -21 17 -6 17 9 1 17 6 17 11 0 12 1 12 -79 -9z"/>
<path d="M4765 5528 c-5 -11 -30 -14 -125 -13 -89 1 -123 -2 -131 -12 -8 -9
-7 -14 4 -19 40 -15 18 -64 -29 -64 -26 0 -54 -20 -54 -39 0 -16 15 -13 30 4
18 22 40 18 40 -6 0 -32 52 -22 60 11 6 27 40 41 40 16 0 -8 -4 -18 -10 -21
-12 -8 -13 -25 -1 -25 8 0 51 34 92 72 10 10 25 15 33 12 18 -7 68 25 60 38
-4 6 2 8 15 3 26 -8 27 0 1 32 -15 19 -21 22 -25 11z"/>
<path d="M4815 5379 c-13 -20 -111 -56 -153 -56 -23 0 -47 -5 -54 -11 -7 -5
-33 -16 -58 -23 -60 -17 -90 -37 -90 -60 0 -15 5 -18 24 -13 13 3 27 1 30 -5
4 -6 24 -11 45 -11 48 0 67 -17 44 -42 -14 -16 -14 -18 0 -18 35 0 123 25 130
37 9 15 37 18 37 4 0 -14 103 -10 133 6 15 7 32 11 37 8 6 -3 10 -1 10 4 0 6
-4 11 -10 11 -5 0 -10 6 -10 13 0 6 25 23 55 36 30 14 55 28 55 33 0 4 7 8 15
8 8 0 15 5 15 11 0 7 -9 9 -22 5 -13 -3 -28 -6 -35 -6 -7 0 -24 -12 -37 -27
-23 -25 -28 -26 -56 -16 -28 11 -30 10 -25 -8 5 -15 2 -19 -14 -19 -12 0 -21
-6 -21 -14 0 -15 -48 -28 -56 -15 -9 15 6 29 29 29 12 0 28 9 35 20 7 12 8 20
2 20 -21 0 -8 26 21 43 36 20 34 26 -13 37 -18 3 -32 12 -30 18 3 15 -24 16
-33 1z"/>
<path d="M5 4678 c-3 -7 -4 -37 -2 -67 4 -60 22 -80 89 -100 21 -7 38 -17 38
-23 0 -7 6 -6 15 2 12 10 21 10 38 1 23 -12 115 -41 131 -41 5 0 1 9 -9 20
-11 13 -31 20 -53 20 -22 0 -45 9 -64 25 -16 14 -35 25 -41 26 -47 2 -73 11
-93 30 -13 12 -24 26 -24 31 0 4 32 8 70 8 52 0 72 -4 76 -14 6 -15 38 -30 87
-41 25 -5 27 -4 18 13 -16 29 -33 40 -86 53 -28 6 -68 22 -90 34 -55 30 -94
39 -100 23z"/>
</g>
</svg>
