<?xml version="1.0" standalone="no"?>
<!DOCTYPE svg PUBLIC "-//W3C//DTD SVG 20010904//EN"
 "http://www.w3.org/TR/2001/REC-SVG-20010904/DTD/svg10.dtd">
<svg version="1.0" xmlns="http://www.w3.org/2000/svg"
 width="640.000000pt" height="362.000000pt" viewBox="0 0 640.000000 362.000000"
 preserveAspectRatio="xMidYMid meet">
<metadata>
Created by potrace 1.16, written by Peter Selinger 2001-2019
</metadata>
<g transform="translate(0.000000,362.000000) scale(0.100000,-0.100000)"
fill="#000000" stroke="none">
<path d="M1 3518 c1 -57 7 -112 12 -123 7 -13 6 -20 -2 -23 -6 -2 -11 -14 -11
-26 0 -19 43 -65 109 -116 3 -3 12 -12 19 -21 11 -15 10 -17 -12 -15 -17 1
-27 8 -31 24 -3 13 -9 21 -13 18 -5 -3 -19 8 -32 25 -14 16 -28 29 -32 29 -5
0 -8 -47 -8 -105 0 -104 3 -112 35 -105 6 1 7 -1 3 -5 -8 -8 2 -18 54 -57 20
-16 43 -28 50 -28 7 0 33 17 57 38 l45 39 -22 19 c-21 18 -30 44 -15 44 4 0
17 -12 29 -27 17 -21 25 -25 34 -17 9 9 -3 27 -51 73 -34 34 -66 61 -72 61 -5
0 -6 7 -3 16 3 8 2 12 -4 9 -18 -11 -10 15 10 35 18 18 23 19 35 6 15 -14 11
-45 -8 -57 -5 -3 -2 -9 7 -12 9 -4 17 1 21 14 4 10 10 19 15 19 14 0 20 -44 7
-52 -9 -6 -9 -8 0 -8 6 0 9 -10 7 -22 -2 -13 -2 -17 2 -10 3 6 10 10 15 6 17
-10 21 25 5 41 -8 9 -13 22 -10 30 9 23 24 17 24 -9 0 -14 5 -28 11 -31 6 -4
8 -14 4 -22 -4 -13 -3 -13 9 -4 8 6 17 23 20 37 4 14 11 22 17 18 7 -4 8 -9 0
-17 -6 -6 -7 -16 -1 -28 6 -11 6 -20 1 -23 -11 -7 -11 -95 1 -102 4 -3 8 -9 8
-13 0 -10 -66 -41 -87 -41 -9 0 -13 -3 -10 -7 4 -4 -11 -23 -33 -44 -22 -21
-40 -42 -40 -48 0 -6 -12 -14 -27 -17 -16 -4 -34 -15 -41 -25 -14 -20 -37 -16
-62 11 -8 8 -12 12 -9 7 4 -5 0 -22 -8 -38 -17 -35 -12 -47 10 -24 9 8 19 15
23 15 4 0 -7 -15 -24 -33 l-32 -33 0 -195 c1 -126 5 -198 13 -207 8 -10 8 -15
-1 -21 -6 -3 -10 -16 -9 -28 1 -16 7 -21 22 -19 11 2 14 1 6 -1 -12 -4 -12 -6
0 -15 10 -7 8 -8 -9 -5 l-22 5 0 -586 c1 -483 4 -584 14 -569 7 9 18 17 25 17
6 0 11 5 11 10 0 6 -4 10 -8 10 -9 0 -32 44 -32 60 0 6 6 10 14 10 8 0 31 16
52 35 42 40 42 40 68 20 27 -20 44 -19 24 2 -16 15 -16 17 0 30 15 12 14 13
-11 7 -40 -9 -33 1 19 25 34 16 49 19 59 11 9 -8 15 -8 20 0 3 5 1 10 -4 10
-6 0 -11 6 -11 13 0 17 38 39 52 31 6 -4 8 -3 4 4 -3 6 6 13 23 17 26 5 29 10
26 36 -3 24 1 32 27 45 l30 16 -4 -41 c-2 -22 0 -42 4 -43 15 -5 16 -69 2 -75
-8 -3 -14 -11 -14 -19 0 -7 -8 -18 -18 -23 -17 -9 -19 -6 -20 34 0 39 3 45 21
46 21 0 21 1 2 8 -13 6 -23 4 -28 -5 -4 -7 -14 -11 -22 -8 -8 4 -15 1 -15 -6
0 -23 -62 -65 -94 -63 -29 2 -29 1 -6 -6 25 -7 25 -7 4 -21 -18 -11 -20 -17
-10 -41 8 -24 7 -32 -10 -51 -27 -30 -47 -78 -33 -78 6 0 7 -4 4 -10 -3 -5 -1
-10 5 -10 6 0 9 -17 7 -44 -4 -48 -14 -69 -27 -61 -5 3 -12 0 -16 -6 -4 -8 -9
-7 -16 2 -8 11 -9 11 -5 -1 2 -8 18 -16 35 -18 36 -4 37 -9 18 -72 -12 -42
-12 -46 7 -62 11 -10 25 -18 31 -18 6 0 3 -7 -8 -15 -26 -20 -14 -42 33 -56
23 -7 41 -17 41 -23 0 -7 4 -6 8 2 6 8 19 10 40 6 28 -6 30 -9 20 -22 -11 -13
-10 -14 12 -8 14 4 32 9 42 10 23 3 49 26 42 38 -8 12 45 60 58 52 4 -3 7 0 6
8 -2 7 5 12 14 12 10 -1 16 2 13 6 -6 10 117 60 147 60 29 0 88 22 88 33 0 4
-4 6 -9 2 -5 -3 -13 0 -17 6 -3 6 5 21 20 33 15 11 28 30 30 41 2 14 11 20 29
21 22 1 25 -2 16 -12 -16 -19 -5 -17 33 6 40 24 48 25 48 5 0 -22 18 -18 25 5
3 11 15 20 26 20 10 0 19 5 19 11 0 5 4 8 10 4 5 -3 18 3 30 15 30 30 87 27
101 -4 7 -14 17 -22 24 -20 7 3 32 -4 56 -15 23 -12 50 -21 58 -22 11 0 12 -2
3 -6 -6 -2 -12 -12 -12 -20 0 -12 7 -14 30 -10 17 4 30 3 30 -2 0 -5 9 -7 19
-4 10 3 30 -2 42 -9 25 -15 50 -16 83 -2 14 5 17 4 12 -5 -5 -7 -19 -16 -32
-21 -13 -5 -24 -14 -24 -19 0 -6 7 -8 15 -5 8 4 15 1 15 -6 0 -7 7 -10 15 -6
10 3 18 -1 22 -12 10 -25 24 -31 57 -25 21 4 27 3 22 -6 -4 -6 -12 -9 -17 -5
-6 3 -17 -3 -25 -15 -12 -17 -19 -19 -42 -10 -14 6 -30 16 -34 22 -6 9 -11 8
-18 -3 -7 -12 -3 -17 20 -23 16 -4 32 -12 35 -17 3 -5 12 -7 20 -3 8 3 15 0
15 -6 0 -6 -5 -11 -12 -11 -6 0 -8 -3 -5 -6 4 -4 12 -2 20 4 7 6 23 9 35 5 17
-4 22 -13 22 -39 0 -18 5 -36 10 -39 6 -4 8 -11 5 -16 -10 -15 20 -10 69 12
44 19 73 18 61 -2 -3 -5 1 -6 9 -3 9 3 16 1 16 -4 0 -6 9 -14 21 -17 16 -5 18
-10 8 -21 -6 -8 -18 -14 -25 -14 -8 0 -14 -4 -14 -10 0 -5 -7 -10 -15 -10 -9
0 -26 -10 -38 -21 l-22 -22 23 6 c12 3 22 1 22 -5 0 -5 5 -6 10 -3 6 3 10 -3
10 -14 0 -12 5 -21 10 -21 6 0 10 9 10 21 0 16 4 19 20 14 12 -4 26 0 36 9 8
9 12 16 7 16 -4 0 -1 5 7 10 13 8 12 10 -2 10 -10 0 -18 -6 -19 -12 -1 -7 -4
-2 -8 12 -6 21 -3 26 17 32 29 8 62 -6 62 -26 0 -8 8 -13 18 -12 9 0 16 -5 14
-12 -1 -8 2 -11 8 -7 14 9 52 -4 45 -16 -8 -11 -46 -5 -85 15 -17 8 -30 10
-30 5 0 -5 5 -9 11 -9 6 0 9 -5 7 -12 -5 -13 40 -61 66 -71 9 -4 16 -11 16
-17 0 -7 8 -9 19 -5 11 3 23 0 28 -7 5 -7 25 -29 46 -48 31 -29 39 -32 47 -20
6 10 10 11 10 3 0 -7 12 -19 28 -28 l27 -15 -40 6 c-37 6 -38 5 -21 -8 12 -9
15 -17 9 -21 -6 -4 -22 2 -35 13 -17 13 -34 17 -57 14 -30 -5 -31 -4 -25 21 8
33 -12 50 -34 28 -11 -11 -27 -13 -61 -8 -32 4 -41 3 -31 -4 12 -8 9 -12 -13
-20 -35 -14 -57 -14 -57 -1 0 6 -11 10 -25 10 -15 0 -25 -6 -25 -15 0 -8 -11
-17 -25 -21 -14 -3 -25 -12 -25 -20 0 -8 -7 -14 -15 -14 -8 0 -24 -9 -35 -20
-25 -25 -40 -25 -40 0 0 11 -4 20 -10 20 -5 0 -7 8 -3 18 3 9 3 14 -2 10 -4
-4 -13 0 -20 9 -11 15 -14 15 -36 0 l-23 -17 29 0 c21 0 26 -3 16 -9 -10 -6
-10 -10 -1 -13 8 -2 14 -28 16 -65 3 -58 2 -61 -19 -56 -17 4 -19 2 -8 -5 11
-8 7 -13 -17 -26 -17 -9 -33 -16 -36 -16 -8 0 -2 38 7 46 14 14 6 34 -13 34
-11 0 -20 -7 -20 -15 0 -8 -3 -15 -7 -15 -13 0 -35 17 -34 26 0 5 -14 9 -32 9
-23 0 -31 4 -29 15 2 13 0 12 -10 -1 -7 -9 -20 -14 -28 -11 -8 3 -4 -4 9 -15
21 -17 22 -21 8 -26 -11 -4 -17 -1 -17 9 0 8 -4 13 -9 10 -16 -10 -41 5 -41
25 0 17 -18 25 -45 19 -30 -6 -76 -6 -80 0 -2 3 -32 15 -67 24 -35 10 -70 20
-78 23 -11 3 -9 8 9 17 l24 13 -23 16 c-12 8 -19 20 -15 26 4 7 -4 11 -20 11
-15 0 -24 -4 -20 -10 3 -5 -1 -10 -11 -10 -11 0 -15 6 -11 19 3 14 0 17 -15
13 -16 -4 -18 0 -14 22 6 31 -4 34 -22 6 -10 -16 -16 -18 -38 -10 -14 6 -30 7
-36 4 -7 -4 -8 -2 -4 4 4 7 18 12 32 12 19 0 24 5 24 25 0 14 7 28 15 31 16 6
21 34 7 34 -11 0 -14 20 -16 108 0 39 -4 72 -9 72 -4 0 -6 5 -5 11 6 24 -20
18 -26 -6 -4 -17 -14 -25 -29 -26 -17 -1 -18 -2 -4 -6 21 -6 22 -20 2 -39 -13
-14 -15 -14 -15 1 0 13 -6 16 -24 11 -14 -3 -28 -1 -32 5 -8 14 15 29 34 21
12 -4 14 0 8 21 -3 14 -2 29 4 32 13 8 13 75 0 95 -8 13 -15 13 -57 -3 -26
-10 -54 -19 -62 -21 -7 -1 -17 -10 -22 -18 -5 -9 -36 -24 -70 -34 -38 -12 -68
-28 -81 -43 -10 -14 -29 -26 -41 -27 -36 -2 -56 -15 -50 -30 3 -8 0 -14 -6
-14 -6 0 -11 -7 -11 -15 0 -8 -5 -15 -11 -15 -5 0 -7 5 -3 11 4 7 1 10 -7 7
-8 -3 -14 -9 -14 -14 0 -16 -16 -34 -25 -29 -5 3 -12 0 -16 -6 -5 -8 -3 -9 7
-4 12 7 12 6 0 -9 -14 -16 -15 -16 -26 3 -10 20 -12 20 -35 4 -25 -17 -69 -27
-71 -15 -6 54 -8 53 30 46 33 -7 35 -6 22 10 -9 10 -21 14 -34 10 -12 -4 -17
-2 -13 4 7 11 -49 11 -60 -1 -4 -4 -16 -7 -27 -7 -16 0 -17 2 -7 15 7 9 9 19
5 23 -4 4 -10 1 -12 -6 -3 -6 -9 -10 -14 -6 -5 3 -9 -3 -9 -13 0 -11 -7 -28
-15 -39 -12 -16 -14 -72 -15 -327 l0 -307 1098 0 1099 0 11 24 c8 19 6 30 -9
55 -10 17 -19 34 -19 36 0 11 36 4 54 -10 11 -8 29 -15 41 -15 48 0 54 -59 7
-77 -19 -8 309 -11 1140 -12 l1167 -1 -39 39 c-22 22 -44 41 -49 43 -18 6
-122 111 -116 116 3 3 18 -7 33 -24 16 -16 41 -40 58 -54 16 -14 54 -46 85
-73 l57 -48 436 2 c331 0 434 3 429 12 -10 16 -13 37 -5 37 4 0 20 -11 35 -25
25 -24 33 -26 102 -23 l75 3 -73 57 c-39 32 -101 80 -137 108 -36 28 -76 60
-90 71 -14 12 -97 76 -185 144 -203 157 -221 184 -124 185 40 0 21 13 372
-254 98 -75 184 -136 192 -136 7 0 15 7 17 16 2 13 9 11 32 -12 16 -16 26 -23
21 -15 -5 9 -3 12 6 9 8 -3 13 -12 11 -19 -3 -11 -1 -11 8 -2 16 15 4 33 -20
33 -10 0 -21 9 -25 19 -4 13 -12 18 -22 14 -11 -4 -14 -2 -11 8 2 8 15 15 27
17 21 3 22 5 6 28 -9 13 -11 24 -5 24 6 0 13 -7 16 -15 9 -21 27 -19 20 3 -4
10 4 6 19 -11 14 -16 23 -33 20 -38 -4 -5 -1 -9 5 -9 6 0 8 -5 5 -10 -3 -6 3
-10 14 -10 14 0 19 5 15 15 -9 22 9 18 23 -4 7 -11 34 -34 60 -52 26 -18 55
-38 63 -46 38 -33 105 -85 124 -95 12 -6 24 -15 27 -20 3 -5 41 -8 85 -6 68 3
76 5 54 14 -14 7 -48 32 -75 58 -28 25 -56 46 -62 46 -7 0 -13 5 -13 11 0 6
-8 8 -19 4 -19 -6 -61 35 -83 80 -6 11 -39 44 -74 73 -35 29 -62 58 -59 63 3
5 0 6 -8 3 -8 -3 -18 0 -23 7 -4 8 -3 10 4 5 15 -9 15 4 1 24 -8 11 -12 12
-16 3 -3 -10 -9 -9 -20 3 -13 13 -14 17 -3 24 17 10 46 -4 63 -30 6 -11 17
-20 24 -20 6 0 22 -12 35 -27 22 -26 60 -53 73 -53 11 0 4 29 -7 34 -7 3 -2 3
12 -1 23 -5 24 -5 10 12 -8 11 -10 16 -4 12 7 -4 17 -1 23 7 16 19 -22 51 -60
48 -36 -3 -69 13 -69 34 0 8 5 12 10 9 6 -4 8 -11 4 -16 -3 -5 8 -8 25 -7 16
1 27 6 25 10 -3 5 -9 6 -14 3 -4 -3 -13 1 -19 9 -9 11 -9 15 0 18 9 3 6 11 -9
26 -12 12 -17 22 -11 22 7 0 5 10 -6 26 -9 14 -14 28 -11 32 3 3 6 0 6 -6 0
-7 6 -12 14 -12 8 0 17 -7 20 -16 4 -11 14 -14 29 -11 21 6 21 5 3 -8 -25 -19
-10 -38 25 -33 31 5 59 -15 39 -27 -7 -4 -17 -2 -23 4 -16 16 -27 14 -21 -4 8
-20 43 -19 66 2 17 15 18 15 18 0 0 -11 8 -17 21 -17 12 0 23 -8 26 -20 3 -11
9 -17 13 -15 8 5 89 -35 118 -58 7 -5 19 -24 28 -41 8 -17 33 -44 55 -59 38
-26 40 -29 25 -46 -12 -13 -13 -20 -4 -29 9 -9 9 -12 -1 -12 -7 0 -9 -5 -6
-10 10 -15 35 -12 35 5 0 8 6 15 14 15 10 0 14 19 15 72 1 71 0 74 -29 94 -35
24 -114 92 -210 180 -36 33 -78 69 -93 79 -17 11 -27 26 -27 41 0 33 11 30 66
-19 51 -45 61 -54 131 -109 23 -18 69 -55 103 -81 l60 -48 0 30 c0 17 -4 31
-10 31 -5 0 -10 7 -10 15 0 16 -54 48 -64 37 -4 -3 -11 0 -16 8 -6 9 -5 17 3
22 7 4 1 11 -16 17 -15 6 -27 17 -27 26 0 8 -7 15 -16 15 -14 0 -14 -3 -3 -17
7 -10 1 -6 -14 9 -14 14 -36 29 -47 33 -11 3 -20 11 -20 17 0 7 5 7 14 -1 18
-15 30 11 13 28 -14 14 -30 14 -21 0 4 -7 1 -10 -7 -7 -8 3 -14 10 -14 17 0
18 -27 31 -50 25 -19 -6 -19 -6 -1 8 17 13 15 15 -24 27 -22 7 -44 19 -47 27
-3 8 -11 14 -19 14 -8 0 -14 5 -14 10 0 6 11 8 28 4 26 -6 26 -5 7 9 -11 8
-38 20 -60 28 -22 7 -49 21 -60 31 -19 18 -19 18 22 14 45 -4 51 11 11 29 -19
9 -24 34 -4 27 5 -2 6 4 3 13 -4 8 -4 15 -2 15 3 0 107 -77 231 -170 125 -94
229 -168 232 -166 2 3 -5 17 -17 32 -11 15 -21 23 -21 18 0 -5 -5 -1 -11 9 -5
9 -16 17 -24 17 -7 0 -15 3 -17 8 -4 9 -85 72 -93 72 -3 0 -20 14 -38 31 -17
17 -44 37 -60 45 -25 13 -52 35 -107 86 -10 9 -29 22 -42 29 -24 13 -40 26
-121 107 -65 62 -97 139 -67 157 16 10 85 -13 112 -37 31 -29 148 -108 160
-108 5 0 6 -4 3 -10 -3 -5 -2 -10 4 -10 6 0 19 -10 31 -22 11 -12 38 -31 60
-42 21 -12 59 -39 82 -61 24 -22 57 -47 73 -55 17 -8 40 -25 53 -38 13 -12 27
-22 32 -22 21 0 8 40 -21 64 -33 28 -27 36 9 10 21 -15 22 -14 22 20 0 25 -6
38 -20 46 -11 6 -18 15 -15 20 3 5 -10 16 -30 26 -19 9 -35 20 -35 25 0 5 -8
6 -17 3 -11 -4 -14 -2 -8 3 6 4 15 18 22 29 10 19 9 21 -6 17 -26 -7 -46 21
-26 37 14 11 20 8 45 -21 16 -19 29 -38 30 -42 0 -14 24 -32 43 -33 14 -2 17
7 17 55 0 32 -6 63 -12 70 -10 11 -10 14 0 18 17 6 17 113 0 113 -10 0 -10 2
-1 8 8 5 12 83 12 280 l1 272 -40 26 c-22 15 -40 31 -40 36 0 5 15 -2 33 -16
19 -15 37 -26 40 -26 4 0 7 50 7 110 0 83 -3 110 -13 110 -7 0 -21 14 -31 31
-11 19 -23 28 -32 25 -11 -4 -12 -1 -4 13 8 15 6 20 -10 24 -13 3 -20 14 -20
30 0 14 -7 33 -16 41 -23 23 -4 19 36 -7 19 -13 47 -32 63 -42 l27 -17 0 235
c-1 174 -4 237 -13 241 -9 3 -9 5 1 5 9 1 12 105 12 486 l0 485 -792 -4 c-436
-2 -804 -6 -819 -8 -14 -2 -31 -8 -39 -13 -9 -5 -11 -4 -6 3 10 16 -5 14 -28
-3 -19 -15 -19 -15 5 -15 l24 0 -25 -19 c-13 -11 -31 -20 -40 -20 -8 0 -28 -3
-44 -7 -21 -5 -28 -4 -24 6 2 8 14 14 26 15 22 2 44 15 25 15 -6 0 -9 11 -8
25 l3 25 -138 0 c-85 0 -140 -4 -142 -10 -5 -16 -59 -23 -56 -8 4 17 -1537 24
-1557 8 -7 -5 -24 -11 -38 -12 -14 -1 -25 -7 -24 -13 1 -5 -8 -10 -20 -9 -13
0 -23 -3 -23 -8 0 -4 14 -9 30 -9 17 -1 36 -2 43 -3 6 -1 15 3 19 9 5 7 8 7 8
-1 0 -5 -8 -19 -18 -30 -9 -10 -16 -29 -14 -41 2 -13 -2 -23 -8 -23 -8 0 -10
8 -7 21 5 17 2 20 -14 15 -60 -19 -62 -19 -55 -8 4 8 2 10 -7 6 -8 -3 -18 -1
-21 5 -4 6 -14 7 -23 4 -10 -4 -14 -2 -10 4 4 6 20 13 37 16 16 4 30 12 30 18
0 8 -4 9 -13 0 -18 -14 -53 10 -44 32 8 21 -27 28 -52 10 -18 -12 -21 -12 -21
1 0 8 -5 18 -11 21 -6 4 -9 0 -7 -10 2 -10 -3 -20 -10 -22 -7 -3 -12 -1 -11 4
6 33 4 33 -446 33 l-446 0 15 -28 c8 -15 35 -39 61 -52 25 -13 48 -27 51 -32
10 -15 -33 -8 -54 10 -53 44 -63 52 -68 52 -3 0 -15 11 -26 25 l-19 25 -219 0
c-135 0 -221 -4 -225 -10 -3 -5 2 -10 12 -10 11 0 23 -13 31 -32 7 -18 17 -40
21 -48 20 -38 -17 -55 -41 -19 -11 17 -25 22 -61 23 -37 0 -46 3 -42 16 2 8
-9 30 -26 48 l-29 33 -105 -2 c-58 -1 -105 -5 -105 -10 0 -5 3 -8 8 -7 4 1 17
-3 30 -10 12 -7 26 -10 31 -8 13 9 23 -26 11 -38 -5 -5 -10 -15 -10 -20 0 -6
7 -3 15 7 13 18 14 18 34 -2 23 -23 26 -62 8 -104 l-12 -29 -27 22 c-18 13
-25 26 -21 37 4 10 2 14 -4 10 -6 -4 -27 7 -46 25 -19 18 -38 34 -43 36 -5 2
-8 9 -8 16 1 9 -6 12 -19 8 -14 -3 -18 -1 -13 6 5 8 0 12 -13 12 -12 0 -21 4
-21 9 0 16 -31 41 -51 41 -18 0 -18 -1 -1 -17 21 -21 215 -190 245 -214 11 -9
18 -22 16 -28 -3 -8 -20 2 -45 26 -23 21 -76 70 -119 108 -43 39 -93 83 -109
98 l-31 28 -158 -2 c-87 -1 -153 -5 -147 -9 7 -5 6 -11 -5 -20 -8 -7 -15 -18
-15 -24 0 -6 5 -3 11 7 6 9 14 15 19 12 5 -3 11 -1 15 5 10 16 25 12 25 -7 0
-15 2 -15 19 1 13 12 21 14 26 6 4 -6 -1 -17 -11 -24 -19 -14 -13 -46 8 -46 9
0 8 3 -2 10 -13 8 -12 11 5 24 26 19 36 11 29 -22 -3 -15 -2 -23 3 -17 11 14
33 17 33 5 0 -6 -11 -15 -24 -20 -13 -5 -27 -14 -32 -21 -5 -9 -2 -10 10 -6
13 5 19 1 23 -13 7 -26 13 -25 43 7 l25 26 10 -27 c5 -14 16 -26 25 -25 29 2
61 -13 56 -27 -3 -8 -1 -14 5 -14 6 0 8 -7 5 -16 -3 -8 -2 -12 4 -9 12 8 50
-16 50 -32 0 -7 7 -13 16 -13 8 0 12 -4 9 -10 -3 -5 -3 -10 2 -10 4 0 25 -16
47 -35 21 -19 44 -35 52 -35 8 0 14 -6 14 -14 0 -8 7 -17 16 -20 13 -5 14 -9
4 -21 -12 -15 -10 -17 20 -19 8 -1 14 -7 13 -14 -2 -6 3 -9 11 -6 19 7 42 -24
28 -38 -7 -7 -12 -17 -12 -22 0 -6 7 -2 15 8 12 16 17 17 30 6 8 -7 15 -18 15
-26 0 -7 6 -17 13 -21 20 -13 39 -53 26 -53 -8 0 -6 -7 4 -18 10 -10 14 -23
10 -28 -5 -5 2 0 15 10 32 28 28 1 -5 -30 -15 -14 -35 -23 -45 -21 -9 3 -19 0
-21 -6 -2 -8 -13 -6 -30 6 -21 13 -26 23 -22 40 4 15 -1 31 -15 47 -21 25 -14
47 13 37 10 -4 13 -14 10 -31 -4 -20 -2 -25 9 -21 19 8 35 44 30 68 -4 18 -27
23 -37 8 -9 -15 -52 -8 -72 11 -63 60 -85 78 -94 78 -6 0 -7 5 -4 10 3 6 1 10
-5 10 -15 0 -41 26 -33 34 4 3 -1 6 -10 6 -21 0 -58 31 -51 42 3 4 0 8 -6 8
-20 0 -68 52 -63 67 3 8 2 13 -3 12 -27 -5 -47 5 -87 44 -51 49 -107 97 -107
91 0 -2 -10 7 -23 19 -13 12 -21 28 -18 36 3 9 0 12 -7 7 -8 -5 -10 -1 -5 10
5 13 3 16 -10 11 -11 -4 -24 3 -37 21 l-22 27 24 6 c12 3 -32 6 -100 8 l-124
2 3 -103z m1927 55 c-2 -12 3 -18 14 -17 10 1 15 -2 12 -7 -3 -5 4 -9 16 -9
12 0 18 -5 15 -10 -4 -6 -10 -8 -15 -5 -5 3 -8 -4 -7 -14 1 -19 2 -19 19 -4
17 15 18 15 18 -2 0 -10 3 -15 7 -12 3 4 12 2 18 -3 9 -8 14 -6 18 5 4 8 13
12 21 9 12 -5 13 -10 3 -24 -15 -25 -1 -39 16 -15 13 17 15 17 42 -1 25 -16
26 -19 11 -22 -13 -3 -15 -6 -7 -12 9 -5 8 -11 -4 -24 -11 -10 -12 -16 -4 -16
7 0 9 -3 6 -6 -4 -4 -18 1 -33 10 -24 17 -25 18 -7 32 16 13 14 14 -21 8 -28
-5 -37 -4 -32 5 8 13 4 14 -20 4 -14 -5 -11 -9 17 -19 l34 -12 -34 -1 -34 -1
21 -19 c28 -24 28 -29 -5 -54 -29 -23 -73 -34 -73 -18 0 5 -15 18 -33 29 -31
18 -35 18 -44 3 -10 -15 -12 -15 -28 1 -14 12 -21 14 -30 5 -21 -20 35 -39 57
-20 18 16 38 10 38 -10 0 -18 -31 -32 -70 -32 -23 0 -34 4 -32 13 2 9 -3 10
-16 3 -11 -6 -24 -6 -33 0 -7 5 -18 9 -24 9 -5 -1 -2 -5 8 -11 9 -5 17 -15 17
-20 0 -6 -13 -1 -30 11 -16 12 -34 18 -40 15 -5 -3 -10 1 -10 10 0 9 -4 14 -8
11 -13 -8 -11 28 2 36 8 6 8 8 0 8 -7 0 -15 7 -18 16 -5 13 -1 15 16 11 13 -4
30 -1 38 4 13 9 13 10 -2 6 -9 -3 -19 1 -22 9 -4 10 2 14 19 14 45 0 105 30
111 56 5 19 11 23 26 18 11 -3 18 -2 15 3 -3 5 10 8 29 8 29 -1 33 1 29 16 -4
10 0 25 7 33 17 20 19 20 16 -1z m1432 -36 c0 -5 7 -4 15 3 12 10 15 10 15 -3
0 -12 6 -14 28 -8 24 7 28 4 38 -23 7 -18 17 -30 25 -28 8 2 11 1 7 -3 -3 -4
-9 -7 -12 -6 -3 0 -19 -4 -35 -9 -21 -6 -31 -5 -35 3 -2 7 -5 2 -5 -11 -1 -13
3 -20 9 -17 6 3 10 2 10 -4 0 -6 7 -8 16 -4 14 5 13 3 -2 -15 -19 -23 -30 -29
-19 -13 3 6 -7 8 -22 7 -16 -2 -34 -4 -40 -5 -7 0 -13 -5 -13 -11 0 -5 6 -9
13 -7 6 1 11 -3 10 -9 -1 -7 8 -12 20 -11 12 0 31 -4 41 -8 13 -6 17 -5 13 2
-5 7 0 9 13 6 11 -3 23 -10 26 -15 4 -6 -2 -7 -17 -3 -13 4 -20 4 -16 -1 4 -4
18 -9 30 -10 32 -2 67 -15 67 -24 0 -13 -84 2 -93 16 -4 8 -23 14 -42 14 -18
0 -40 7 -49 15 -20 20 -25 19 -19 -6 3 -11 16 -25 29 -30 13 -4 24 -13 24 -19
0 -13 -13 -13 -26 0 -7 7 -9 1 -8 -18 2 -41 3 -42 24 -42 11 0 20 -3 21 -7 0
-5 2 -16 4 -26 2 -9 -1 -14 -6 -11 -6 3 -16 0 -24 -6 -14 -12 -19 -6 -17 20 0
3 -13 5 -29 5 -20 1 -29 -4 -29 -15 0 -13 -2 -13 -9 0 -6 8 -7 18 -4 23 3 5
-4 3 -15 -4 -12 -7 -18 -17 -16 -21 3 -5 -4 -20 -15 -34 -17 -22 -22 -24 -27
-10 -3 9 -4 23 -1 30 8 20 -18 10 -48 -18 -15 -15 -24 -38 -29 -78 l-7 -57 41
4 41 4 -7 -32 c-8 -41 -12 -47 -30 -47 -8 0 -14 -4 -14 -9 0 -13 -29 -41 -41
-41 -6 0 -7 10 -3 23 7 22 6 22 -14 4 l-21 -19 14 46 c8 25 11 46 8 46 -14 0
-43 -34 -43 -52 0 -10 -5 -18 -11 -18 -5 0 -7 5 -4 10 3 6 1 10 -6 10 -7 0
-10 3 -7 6 4 3 -2 14 -12 24 -14 14 -17 28 -13 53 4 30 1 37 -26 56 -17 12
-31 18 -31 12 0 -5 -11 -8 -25 -5 -14 2 -36 -3 -49 -11 -22 -14 -23 -20 -14
-46 7 -20 7 -39 -1 -60 -6 -17 -8 -36 -5 -43 3 -6 -4 0 -15 14 -12 14 -25 41
-31 62 -9 30 -14 35 -33 31 -19 -5 -18 -2 11 27 31 31 43 70 22 70 -5 0 -10
11 -10 25 0 14 -5 25 -10 25 -6 0 -8 13 -5 32 5 28 4 30 -10 18 -11 -9 -13
-15 -5 -20 7 -5 4 -9 -9 -13 -27 -7 -26 5 2 64 25 54 43 64 34 19 -4 -19 -2
-30 5 -30 6 0 9 3 5 6 -3 4 0 18 7 33 7 14 12 31 10 36 -5 12 152 124 208 148
33 14 38 15 28 2 -11 -13 -8 -15 21 -15 33 1 78 24 67 35 -3 3 -16 1 -29 -4
-17 -6 -28 -5 -36 4 -10 10 -9 15 5 20 9 3 18 1 20 -4 2 -6 8 -11 13 -11 6 0
8 4 5 8 -2 4 4 8 14 8 10 0 16 -4 13 -9 -4 -6 13 -6 43 -1 27 5 68 8 92 9 23
0 42 3 42 6 0 3 7 6 15 6 8 0 15 -5 15 -10z m1788 -25 c71 -16 72 -18 57 -37
l-15 -20 6 20 7 20 -16 -20 c-9 -11 -17 -24 -17 -28 0 -5 -10 -18 -22 -29 -13
-11 -18 -17 -11 -13 9 4 10 -1 2 -25 -6 -16 -15 -27 -21 -24 -6 4 -6 9 2 14 7
4 9 13 5 19 -5 8 -11 9 -19 2 -7 -6 -27 -12 -45 -13 -18 -1 -35 -6 -37 -10 -3
-5 -10 -6 -15 -3 -5 4 -4 -5 2 -19 12 -26 35 -26 25 0 -3 8 1 14 9 14 20 0 19
-13 -5 -40 -11 -13 -20 -18 -20 -11 0 7 -8 11 -17 10 -32 -3 -44 1 -38 11 4 6
16 8 28 4 19 -6 20 -5 5 10 -20 19 -44 21 -52 4 -3 -7 -3 -1 -1 15 2 15 -1 27
-6 27 -5 0 -9 -9 -9 -19 0 -25 -18 -37 -33 -21 -9 9 -9 11 1 8 7 -2 22 18 34
47 25 58 69 105 98 105 11 0 20 5 20 10 0 13 12 12 98 -8z m-3757 -32 c5 0 9
-14 9 -32 0 -30 0 -31 20 -13 22 19 28 7 8 -14 -11 -10 -7 -17 15 -37 32 -27
49 -31 41 -9 -4 8 -1 15 5 15 6 0 11 -5 11 -11 0 -5 5 -7 12 -3 8 5 9 2 5 -9
-4 -10 -2 -17 4 -17 6 0 9 -7 5 -15 -3 -9 1 -15 11 -15 12 0 14 -7 10 -36 -3
-20 -9 -39 -11 -42 -7 -7 -217 153 -284 216 -14 13 -4 16 43 13 11 -1 34 10
50 23 28 23 30 23 33 5 2 -10 8 -19 13 -19z m1172 -16 c-17 -13 -16 -13 7 -5
15 5 24 15 22 25 -3 15 18 22 31 10 9 -9 -16 -44 -30 -44 -7 0 -13 -7 -13 -15
0 -8 6 -12 13 -10 6 2 28 6 47 9 36 5 36 5 35 -32 0 -27 -6 -39 -21 -47 -12
-6 -30 -17 -40 -25 -16 -12 -17 -12 -6 0 6 8 12 18 12 22 0 10 -30 11 -30 1 0
-5 -11 -16 -24 -25 -23 -17 -23 -16 -23 8 0 17 4 23 13 20 7 -3 16 -1 19 3 9
15 -27 22 -43 9 -12 -11 -16 -10 -20 1 -3 8 -7 9 -11 3 -4 -7 -13 -5 -26 5
-20 15 -20 15 3 30 12 9 22 21 22 28 0 7 16 20 35 29 24 12 33 21 29 34 -5 15
-4 14 6 -1 10 -15 8 -21 -7 -33z m2297 27 l25 -8 -45 -43 c-26 -26 -39 -45
-32 -48 7 -2 10 -8 7 -12 -3 -5 -12 -7 -19 -4 -8 3 -16 -5 -20 -20 -5 -19 -13
-26 -30 -26 -17 0 -26 -7 -30 -23 -7 -30 -65 -97 -83 -97 -8 0 -12 -4 -8 -9 6
-10 -33 -36 -41 -28 -2 2 2 19 10 38 9 19 15 27 16 19 0 -12 2 -12 13 -1 10
11 10 14 0 18 -25 9 -12 24 40 49 43 20 37 24 -10 7 -7 -3 -10 3 -9 14 2 13
12 18 37 18 32 0 60 20 110 82 31 38 33 46 10 34 -18 -10 -21 -9 -21 9 0 17
-4 20 -20 15 -11 -3 -20 -4 -20 -1 0 7 59 24 80 24 8 0 26 -3 40 -7z m-2534
-101 c9 0 13 -4 10 -9 -3 -5 1 -11 9 -15 8 -3 15 -10 15 -15 0 -7 -9 -7 -26 0
-31 11 -42 5 -25 -15 9 -11 7 -18 -12 -33 -28 -22 -24 -43 9 -43 29 0 30 -6 7
-34 -10 -12 -11 -15 -3 -8 21 18 28 15 28 -12 0 -15 -7 -27 -17 -29 -9 -3 -1
-3 17 -1 18 1 30 -1 27 -7 -4 -5 -11 -9 -17 -9 -6 0 -17 -8 -24 -17 -13 -17
-13 -17 -14 1 0 19 0 19 -13 1 -10 -12 -16 -14 -21 -7 -4 7 -4 17 -1 22 3 6 3
10 -2 10 -12 0 -63 -56 -63 -69 0 -6 -4 -11 -10 -11 -5 0 -7 -7 -3 -16 5 -14
3 -15 -15 -5 -17 9 -22 9 -22 -1 0 -6 -6 -3 -14 7 -12 17 -12 23 6 44 10 14
33 31 49 38 17 7 28 17 24 23 -8 13 -55 13 -55 -1 0 -6 -9 -8 -20 -4 -16 5
-19 3 -13 -11 5 -14 2 -15 -18 -8 -13 4 -47 8 -76 8 -28 0 -49 4 -46 9 3 4 11
6 19 3 8 -3 14 -1 14 4 0 6 -8 10 -17 11 -13 0 -14 2 -4 6 11 4 8 10 -9 23
l-24 18 36 33 c41 39 72 59 90 59 6 0 21 9 32 19 27 25 126 46 137 30 4 -7 14
-9 25 -4 13 5 15 9 6 12 -6 3 -9 10 -5 16 5 8 8 8 11 -1 2 -7 10 -12 18 -12z
m1774 -271 c0 -4 16 -11 35 -15 33 -6 59 -24 35 -24 -6 0 -9 -4 -5 -10 3 -5
13 -6 22 -3 11 4 14 3 9 -5 -5 -8 -2 -10 8 -6 18 7 22 -11 5 -21 -5 -4 -8 -12
-6 -18 7 -18 -12 -47 -29 -47 -11 0 -14 -6 -10 -16 5 -13 2 -15 -13 -11 -12 3
-22 -1 -25 -9 -3 -8 -13 -14 -23 -14 -13 0 -14 -3 -5 -12 9 -9 15 -9 24 0 7 7
19 12 27 12 11 0 10 -4 -5 -15 -17 -13 -17 -14 -1 -15 9 0 17 -7 17 -15 0 -9
6 -12 18 -9 15 5 15 4 -1 -6 -18 -11 -18 -13 0 -32 17 -19 18 -19 25 8 6 22 3
34 -15 52 -20 21 -20 23 -2 16 11 -4 26 -16 33 -26 7 -10 18 -18 23 -18 6 0 3
7 -6 16 -9 9 -14 18 -11 21 6 6 46 -20 46 -29 0 -5 10 -8 23 -8 17 0 19 2 8 9
-22 14 10 41 46 40 l28 -2 -27 -4 c-24 -4 -26 -7 -18 -28 7 -19 6 -25 -9 -30
-25 -7 -35 -45 -13 -45 13 0 12 -3 -4 -14 -18 -14 -18 -16 -2 -43 17 -28 38
-42 38 -26 0 5 -9 19 -20 31 -23 24 -25 33 -8 30 14 -3 32 -32 40 -64 4 -17
-2 -23 -30 -34 -19 -7 -30 -15 -24 -19 30 -18 -26 -41 -62 -26 -11 5 -31 4
-47 -2 -29 -11 -39 -8 -39 13 0 8 12 11 38 7 32 -4 42 0 74 29 33 29 35 35 23
51 -7 10 -11 30 -9 44 3 14 5 28 6 32 1 3 -2 14 -6 23 -7 15 -10 16 -23 3 -17
-17 -33 -20 -33 -4 0 5 5 7 12 3 7 -4 8 -3 4 4 -4 7 -12 12 -17 12 -13 0 -8
-52 6 -62 5 -4 1 -8 -11 -8 -11 0 -26 6 -34 13 -12 10 -12 9 -2 -4 9 -12 6
-18 -19 -33 -28 -16 -32 -16 -54 -2 -31 21 -41 20 -24 -1 13 -15 12 -15 -8 -4
-26 13 -26 15 -14 57 7 25 6 31 -8 31 -26 0 -67 -34 -98 -82 -15 -25 -32 -45
-36 -45 -4 0 6 20 22 44 17 24 28 46 25 48 -2 3 11 13 31 22 43 21 85 59 85
77 0 8 -3 10 -8 4 -10 -14 -75 -47 -67 -35 3 6 -1 10 -9 10 -19 0 -20 8 -3 43
12 28 23 29 74 10 16 -6 16 -5 4 10 -7 9 -19 17 -25 17 -7 0 -22 13 -34 29
l-22 30 22 15 c21 15 22 16 3 30 -10 7 -20 21 -21 30 -2 14 0 15 13 4 13 -11
18 -9 30 8 13 21 63 31 63 13z m-330 -22 c0 -6 -4 -27 -9 -45 -9 -28 -7 -32
10 -32 10 0 19 6 19 13 1 6 9 2 19 -10 11 -13 22 -23 26 -23 4 0 2 7 -5 15
-10 13 -10 19 5 35 24 26 55 26 55 0 0 -10 9 -24 20 -30 11 -6 18 -15 15 -21
-9 -14 -25 -11 -25 6 0 8 -5 15 -11 15 -6 0 -8 -9 -4 -22 6 -17 4 -20 -10 -15
-9 4 -26 2 -38 -4 -16 -9 -22 -9 -25 0 -2 6 -8 9 -13 5 -15 -9 -10 -24 9 -25
14 0 13 -2 -4 -9 -12 -4 -24 -15 -27 -24 -4 -9 -13 -13 -22 -10 -16 6 -12 18
6 20 19 3 20 4 14 15 -5 7 -13 5 -25 -6 -12 -11 -20 -13 -25 -5 -5 8 -11 7
-23 -2 -14 -12 -14 -10 -3 10 10 18 15 21 26 12 10 -8 15 -8 20 0 4 6 -1 17
-11 24 -12 9 -15 21 -11 37 5 22 5 22 -7 7 -7 -10 -17 -18 -21 -18 -4 0 -20
-9 -35 -20 -30 -21 -80 -24 -80 -4 0 11 60 38 85 39 6 0 19 8 30 17 11 9 31
26 45 37 19 16 20 19 6 14 -13 -4 -17 -3 -12 5 10 16 36 15 36 -1z m2065 -3
c22 -3 34 -9 27 -11 -6 -3 -9 -9 -6 -15 3 -5 14 -2 26 9 20 18 21 18 9 -4 -8
-16 -8 -24 0 -29 7 -4 7 -10 1 -16 -6 -6 -4 -20 5 -40 12 -24 13 -32 3 -41
-10 -9 -11 -9 -6 1 8 13 -3 19 -44 26 -37 7 -37 7 -15 16 17 7 15 9 -12 9 -18
1 -33 -3 -33 -9 0 -9 37 -34 52 -35 3 0 10 -4 15 -8 4 -5 -1 -8 -12 -6 -11 2
-26 0 -32 -4 -9 -5 -13 -2 -13 8 0 13 -6 16 -22 12 -17 -4 -29 2 -46 24 -20
24 -22 36 -17 73 7 46 20 56 60 50 11 -1 38 -6 60 -10z m-2385 -4 c-11 -7 -11
-10 -2 -10 7 0 10 -4 7 -10 -11 -18 22 -10 40 10 19 20 41 28 30 10 -3 -5 0
-10 7 -11 7 0 3 -4 -10 -10 -13 -5 -20 -13 -17 -19 3 -5 0 -10 -7 -10 -7 0
-18 -8 -24 -17 -18 -28 -102 -85 -109 -73 -3 5 3 20 14 32 12 12 18 24 15 27
-3 3 -11 -1 -17 -9 -20 -26 -125 -62 -148 -50 -10 6 -19 14 -19 19 0 12 76 35
89 27 6 -4 9 -2 6 6 -10 27 11 41 43 30 34 -12 47 -6 31 14 -8 10 -1 18 28 33
39 21 70 29 43 11z m-2870 -105 c-7 -9 -10 -18 -6 -22 3 -3 6 0 6 8 1 10 5 9
15 -5 11 -14 11 -22 2 -37 -9 -14 -9 -21 2 -31 9 -9 12 -9 7 -1 -3 6 1 16 11
21 13 8 24 3 47 -22 17 -17 29 -37 28 -43 -2 -7 1 -13 7 -13 5 0 12 6 14 13 3
6 3 -2 1 -18 -5 -26 -2 -31 17 -32 12 -1 26 -8 30 -15 5 -7 9 -9 9 -5 0 4 9 3
20 -3 16 -8 18 -8 14 4 -5 12 0 13 28 5 19 -5 57 -6 84 -3 27 3 59 6 71 7 11
1 19 7 16 12 -3 6 0 5 6 -1 10 -9 27 -8 69 4 31 8 65 16 74 17 23 2 100 64 93
74 -2 5 15 4 38 -1 23 -5 54 -9 70 -8 15 0 27 -5 27 -11 0 -6 6 -9 14 -6 10 4
17 -3 21 -23 4 -16 6 -33 5 -36 -1 -4 4 -10 11 -15 8 -4 10 -11 6 -15 -4 -4
-15 0 -26 10 -16 15 -19 15 -24 2 -4 -10 -1 -13 9 -9 9 3 14 0 12 -8 -2 -9 4
-13 14 -11 12 2 16 -2 12 -13 -3 -8 -2 -15 3 -15 6 0 14 -9 19 -21 l9 -21 20
22 c16 18 16 20 2 14 -10 -3 -17 -1 -17 5 0 7 7 14 16 18 9 3 14 15 12 31 -2
19 2 26 19 28 17 3 24 -2 29 -21 4 -16 13 -25 26 -25 18 0 18 -2 4 -22 -13
-18 -13 -23 -1 -32 8 -6 17 -23 20 -38 6 -24 5 -26 -21 -23 -35 3 -56 -4 -48
-17 3 -5 12 -7 19 -4 8 3 19 -2 25 -10 9 -10 9 -14 1 -14 -6 0 -11 -4 -11 -10
0 -5 7 -7 16 -3 12 4 15 2 10 -8 -3 -8 -9 -22 -12 -31 -4 -10 -16 -18 -30 -18
-12 0 -26 -5 -29 -10 -10 -17 -25 -1 -25 27 0 23 -3 25 -29 20 -17 -4 -36 0
-47 8 -19 14 -19 14 0 15 18 0 19 1 1 20 -10 11 -20 18 -23 16 -2 -3 -17 11
-34 30 -16 19 -35 31 -41 27 -6 -3 -7 -1 -3 5 4 7 14 12 23 12 12 0 13 3 4 14
-9 11 -9 15 1 19 7 3 1 6 -14 6 -20 1 -26 -3 -22 -13 4 -11 0 -13 -15 -9 -21
5 -29 -11 -11 -22 18 -11 11 -23 -10 -18 -12 3 -18 8 -15 11 2 3 0 11 -6 19
-9 10 -8 13 4 13 9 0 25 9 36 21 11 13 24 18 32 14 8 -6 10 -4 5 4 -5 7 -14
10 -21 7 -8 -3 -16 0 -18 7 -3 7 -10 0 -16 -15 -6 -16 -14 -28 -19 -28 -5 0
-21 -11 -34 -24 l-26 -23 49 -11 c27 -6 56 -9 65 -5 14 5 16 2 12 -15 -4 -12
-2 -24 2 -27 5 -3 9 -13 9 -23 0 -9 5 -42 10 -72 5 -30 5 -59 0 -64 -4 -5 -4
-17 2 -28 8 -14 6 -18 -9 -18 -16 0 -19 -7 -17 -40 2 -42 3 -42 -55 -31 -3 1
2 6 10 11 13 8 12 10 -3 10 -10 0 -25 -7 -33 -15 -14 -13 -14 -15 1 -15 12 0
15 -5 11 -16 -5 -13 -2 -15 16 -10 13 4 37 9 53 12 24 5 27 3 15 -6 -13 -10
-13 -11 2 -6 9 2 34 -1 55 -9 21 -7 65 -19 98 -26 62 -13 126 -36 135 -48 3
-4 20 -17 38 -30 29 -20 33 -29 31 -60 -3 -57 -1 -61 30 -61 16 0 32 -6 34
-12 3 -7 6 -4 6 6 1 20 1 20 16 0 13 -18 14 -17 6 11 -5 17 -12 37 -16 46 -4
11 1 22 14 31 12 8 18 18 13 22 -4 5 0 7 8 5 22 -4 65 12 52 20 -17 10 -2 53
15 47 8 -3 22 -6 30 -6 13 0 13 -3 3 -15 -10 -13 -9 -15 9 -15 11 0 21 -5 21
-11 0 -6 15 -10 33 -9 67 4 103 0 88 -9 -12 -7 -12 -13 -3 -24 7 -7 9 -16 6
-19 -2 -3 2 -8 10 -11 9 -4 18 -1 22 5 5 7 2 8 -6 3 -10 -6 -12 -4 -7 8 3 10
2 17 -4 17 -6 0 -8 9 -4 19 4 14 0 21 -14 26 -12 4 -18 12 -14 21 7 19 37 18
54 -3 12 -14 12 -16 -1 -9 -8 4 -4 -2 10 -13 14 -11 19 -21 13 -21 -7 0 -13
-4 -13 -8 0 -5 14 -6 31 -4 18 3 29 1 26 -5 -3 -5 8 -15 24 -22 16 -7 27 -17
23 -22 -3 -5 1 -9 9 -9 8 0 18 -7 21 -16 4 -12 2 -15 -9 -10 -10 4 -15 -1 -15
-14 0 -12 5 -17 13 -14 18 7 41 -39 32 -65 -6 -21 -24 -24 -37 -7 -4 6 -13 4
-22 -4 -9 -7 -19 -10 -23 -7 -5 6 18 18 60 31 9 3 17 10 17 16 0 6 -4 8 -10 5
-5 -3 -10 -2 -10 2 0 12 -48 15 -55 3 -4 -6 -11 -5 -19 3 -9 8 -10 14 -4 18
18 11 -26 49 -60 53 -17 2 -30 0 -29 -3 1 -4 -8 -17 -21 -31 -14 -15 -18 -26
-12 -28 7 -3 18 5 26 17 20 27 54 28 54 1 0 -23 -17 -27 -22 -5 -2 10 -7 12
-18 5 -13 -9 -13 -12 3 -21 14 -8 15 -14 6 -31 -9 -16 -8 -19 2 -13 8 5 10 4
5 -4 -4 -7 -16 -9 -28 -5 -13 4 -24 0 -34 -13 -9 -11 -16 -14 -21 -8 -5 6 -19
10 -33 9 -14 -1 -29 1 -34 3 -17 11 20 23 69 23 46 1 49 2 31 15 -26 19 -61
19 -80 0 -8 -9 -18 -16 -21 -15 -21 1 -25 -1 -20 -10 3 -5 1 -10 -6 -10 -26 0
25 -40 59 -46 21 -4 49 -21 71 -43 23 -23 47 -38 65 -39 16 -1 36 -8 44 -15
13 -10 14 -9 7 2 -5 10 -4 12 3 7 14 -9 0 -41 -22 -49 -16 -7 -56 2 -73 15
-17 13 -62 17 -69 6 -3 -5 -12 -7 -19 -4 -8 3 -15 0 -18 -7 -5 -17 -68 12 -66
32 3 35 -1 43 -20 38 -15 -3 -19 0 -18 14 1 11 5 19 10 19 4 0 6 4 2 9 -6 10
-60 -4 -82 -21 -7 -5 -17 -7 -23 -3 -6 4 -42 -16 -80 -43 -55 -41 -71 -48 -80
-37 -13 16 -16 64 -5 89 8 19 8 19 -23 0 -18 -10 -32 -22 -32 -26 0 -15 -27
-8 -52 15 -46 41 -82 67 -87 62 -2 -3 1 -11 7 -17 20 -20 14 -56 -9 -63 -31
-10 -62 11 -89 60 -22 41 -25 43 -42 29 -9 -9 -18 -28 -20 -42 -4 -36 -21 -37
-36 -2 -8 16 -20 30 -28 30 -20 0 -27 41 -22 123 3 40 3 60 1 45 -2 -16 -8
-28 -14 -28 -5 0 -9 -9 -9 -20 0 -11 -4 -20 -9 -20 -9 0 -6 57 6 120 4 19 7
40 7 45 1 11 29 47 66 83 14 14 21 23 15 20 -5 -2 -25 -10 -42 -17 -18 -7 -30
-17 -27 -22 3 -5 -2 -12 -10 -15 -22 -9 -35 -58 -41 -159 -4 -69 -9 -93 -22
-102 -13 -10 -20 -10 -32 1 -9 8 -20 14 -26 13 -5 -1 -12 13 -16 31 -5 25 -4
32 6 28 16 -6 14 12 -5 41 -7 11 -19 19 -26 16 -8 -3 -25 4 -40 16 l-26 21 28
11 c16 6 43 13 59 15 59 10 77 15 72 20 -7 8 46 59 58 56 6 -2 5 2 -1 8 -9 9
-17 9 -34 0 -18 -10 -21 -9 -15 1 6 9 4 11 -7 6 -12 -4 -14 -1 -11 14 3 11 0
20 -8 21 -8 0 -19 2 -25 2 -17 2 -44 27 -39 36 2 4 -7 5 -20 2 -14 -2 -28 -8
-31 -13 -8 -13 -56 22 -50 36 7 19 -98 42 -109 24 -8 -12 -45 -12 -45 1 0 5 7
6 17 3 10 -4 14 -2 10 4 -3 5 -1 10 6 11 7 1 30 3 52 5 22 2 50 9 62 15 26 14
36 15 28 3 -10 -17 67 1 87 21 10 10 15 18 11 18 -4 0 1 6 12 13 10 8 16 18
13 23 -9 14 17 33 32 24 17 -10 40 12 40 38 0 20 -39 77 -47 68 -3 -2 0 -14 7
-25 15 -28 -4 -27 -24 1 -10 14 -12 24 -5 28 6 4 4 11 -5 19 -16 14 -40 6 -31
-10 4 -5 4 -9 0 -9 -3 0 -10 12 -15 26 -6 14 -14 23 -19 19 -6 -3 -13 1 -18 8
-10 17 -43 30 -43 17 0 -6 -10 -10 -21 -10 -18 0 -19 2 -9 15 10 12 10 15 -4
15 -20 0 -21 -23 -1 -40 8 -7 12 -16 9 -21 -3 -5 4 -23 16 -39 26 -37 20 -60
-15 -60 -23 0 -25 -2 -14 -22 10 -18 9 -20 -5 -15 -9 4 -16 2 -16 -2 0 -15 32
-22 46 -10 7 6 25 9 41 7 26 -4 25 -5 -15 -18 -30 -9 -44 -20 -48 -37 -4 -12
-12 -23 -20 -23 -8 0 -14 -5 -14 -11 0 -8 -4 -8 -14 0 -9 7 -17 8 -20 2 -3 -5
-15 -7 -26 -4 -24 6 -16 23 11 23 10 0 19 5 19 12 0 9 3 9 12 0 7 -7 17 -12
23 -12 5 0 3 5 -6 10 -23 13 -17 62 10 91 31 33 43 57 32 64 -5 3 -12 1 -16
-5 -3 -5 -12 -10 -18 -10 -8 0 -9 3 -1 8 6 4 4 13 -8 25 -10 9 -18 13 -18 9 0
-13 -34 -11 -42 2 -5 7 -8 7 -8 -2 0 -7 -5 -10 -10 -7 -6 4 -8 16 -5 28 2 12
-4 4 -15 -18 -11 -22 -20 -35 -20 -29 0 10 -33 27 -50 26 -14 -1 -54 38 -47
45 5 4 14 0 21 -9 8 -11 17 -14 26 -8 8 5 18 6 22 4 4 -3 8 -1 8 4 0 5 -9 12
-20 15 -17 4 -19 9 -10 31 6 17 6 27 -2 32 -7 4 -8 3 -4 -4 4 -7 5 -12 2 -12
-3 0 -12 15 -20 33 -8 17 -15 25 -15 17 -1 -8 -10 -26 -21 -40 -16 -20 -20
-22 -20 -7 0 9 5 17 10 17 6 0 10 5 10 11 0 6 -9 8 -22 4 -19 -5 -18 -3 5 10
33 19 34 26 6 43 -16 10 -20 21 -17 43 3 18 0 29 -8 29 -17 0 -27 32 -12 42
21 13 31 9 18 -7z m2214 -70 c-4 -8 1 -17 10 -21 30 -11 19 -57 -21 -89 -63
-51 -87 -65 -105 -59 -12 3 -16 1 -13 -8 3 -7 -6 -18 -20 -25 -19 -8 -25 -8
-25 0 0 8 -3 8 -8 2 -4 -5 -12 -10 -19 -10 -6 0 -25 -12 -42 -27 -17 -16 -35
-28 -40 -28 -5 0 -13 -10 -17 -22 -8 -28 -50 -68 -69 -68 -8 0 -17 -4 -20 -10
-3 -5 -11 -10 -16 -10 -6 0 -7 5 -4 10 3 6 -5 10 -19 10 -13 0 -27 6 -29 13
-4 9 -6 9 -6 0 -1 -6 4 -15 9 -18 17 -11 11 -31 -10 -32 -11 -1 -18 2 -15 6 5
10 -28 21 -63 21 -13 0 -21 -4 -17 -9 3 -6 -3 -15 -13 -20 -17 -9 -18 -7 -14
16 3 14 13 28 23 30 10 3 17 8 15 12 -2 3 2 15 9 25 11 15 19 17 42 9 15 -5
39 -6 53 -3 25 7 25 7 -5 12 l-30 4 40 18 c41 19 108 84 99 97 -2 4 0 10 6 14
6 4 8 10 5 15 -3 4 5 6 17 3 23 -4 23 -4 3 12 -19 15 -21 14 -42 -10 -12 -14
-27 -25 -34 -25 -16 0 53 67 71 68 31 1 81 18 167 58 17 8 38 14 47 14 9 0 16
4 16 9 0 6 19 14 43 19 23 6 43 10 44 11 1 1 0 -6 -3 -14z m704 -69 c33 2 43
-9 17 -20 -8 -3 -15 -15 -15 -26 0 -14 -4 -19 -12 -14 -7 4 -8 3 -4 -5 9 -14
26 -5 26 15 0 8 8 14 18 14 10 0 23 5 29 11 13 13 33 4 33 -16 0 -10 -66 -59
-77 -57 -2 0 -16 -3 -33 -8 -33 -10 -34 -8 -21 37 7 25 6 31 -5 26 -16 -6 -28
-39 -19 -53 3 -5 -1 -10 -11 -10 -12 0 -15 6 -11 23 6 22 6 22 -9 2 -8 -11
-21 -19 -29 -17 -7 1 -16 -2 -20 -8 -11 -18 -35 -10 -36 13 0 19 -1 20 -8 4
-6 -18 -7 -18 -22 0 -17 21 -18 59 -1 56 7 -2 9 4 5 13 -5 14 3 16 70 13 41
-3 75 -2 75 1 -1 17 4 21 15 13 6 -5 27 -8 45 -7z m1830 -75 c-3 -22 0 -26 21
-23 22 4 23 2 8 -12 -8 -9 -20 -16 -26 -16 -18 0 -12 -18 7 -23 13 -4 11 -5
-5 -6 -26 -1 -32 -21 -7 -21 12 0 15 -7 12 -25 -3 -14 -2 -25 2 -25 3 0 17 11
30 25 l23 25 -22 0 c-22 0 -22 0 -4 25 10 13 26 27 36 30 9 4 15 11 11 16 -3
6 2 19 12 30 18 20 52 18 66 -5 6 -8 8 -8 8 0 0 13 47 7 56 -7 3 -5 -2 -6 -11
-3 -10 4 -15 2 -13 -6 2 -7 -3 -15 -10 -17 -8 -3 -10 1 -5 13 5 13 3 16 -9 12
-9 -4 -20 -2 -24 2 -12 12 -94 -57 -94 -77 0 -12 3 -13 13 -5 10 8 16 6 25 -9
7 -11 17 -17 22 -14 6 4 8 11 5 16 -4 5 -1 9 5 9 6 0 8 5 5 10 -3 6 -3 10 2
10 4 0 25 4 45 9 21 5 36 6 34 2 -3 -4 4 -12 14 -18 15 -10 17 -9 13 6 -4 15
0 18 21 14 28 -6 35 -30 11 -39 -13 -5 -13 -9 -3 -22 11 -14 10 -15 -7 -8 -15
5 -17 4 -8 -5 14 -14 33 -3 33 20 0 10 7 24 15 31 18 15 20 -1 3 -18 -7 -7 -8
-12 -2 -13 5 0 20 -2 34 -4 30 -3 47 5 30 15 -8 5 -7 9 4 13 11 5 16 0 16 -14
0 -12 5 -19 13 -16 6 2 12 15 11 29 0 17 4 24 13 21 19 -8 16 -41 -8 -74 -11
-16 -17 -29 -13 -29 5 0 3 -5 -3 -11 -9 -9 -23 -8 -57 2 -49 14 -61 29 -24 29
12 0 19 2 16 5 -3 3 -24 3 -46 -1 l-41 -6 22 -19 c22 -17 22 -18 3 -36 -12
-12 -16 -13 -11 -3 6 12 5 13 -5 3 -10 -10 -17 -10 -28 -1 -10 9 -15 9 -22 -1
-5 -9 -10 -10 -14 -3 -4 6 6 18 21 27 26 15 27 15 3 8 -14 -4 -35 -7 -47 -8
-13 0 -23 -6 -23 -12 0 -7 -5 -13 -11 -13 -5 0 -7 5 -4 10 9 15 -7 12 -29 -5
-11 -8 -28 -15 -38 -15 -21 0 -42 35 -34 57 5 12 3 13 -6 6 -7 -5 -23 -10 -35
-11 -17 0 -20 3 -16 16 5 14 4 15 -8 6 -8 -6 -31 -14 -51 -18 -37 -7 -38 -6
-38 24 0 17 9 52 19 78 28 69 34 86 33 92 0 3 15 4 34 2 31 -4 35 -7 32 -31z
m-544 -176 c4 -12 0 -14 -19 -9 -15 4 -25 2 -25 -5 0 -6 7 -11 16 -11 11 0 15
-6 11 -20 -4 -15 0 -20 16 -20 18 0 19 -2 7 -10 -10 -6 -11 -10 -2 -10 6 0 12
-7 12 -15 0 -8 -7 -15 -15 -15 -8 0 -19 -9 -25 -21 -7 -11 -17 -18 -25 -15 -7
2 -15 -4 -18 -15 -6 -23 6 -25 23 -4 7 9 19 14 25 11 7 -2 37 6 69 19 55 22
126 31 226 27 63 -3 103 -39 98 -91 -3 -31 0 -36 17 -33 67 12 112 4 155 -27
33 -24 46 -28 56 -20 8 6 14 7 14 2 0 -5 -24 -21 -52 -36 l-53 -26 52 3 53 3
-30 -19 c-17 -10 -30 -24 -30 -32 0 -8 -6 -17 -12 -19 -12 -5 -4 -6 49 -11 7
-1 13 -6 14 -11 0 -6 5 -18 10 -27 7 -13 4 -18 -12 -23 -14 -5 -25 -2 -30 6
-6 11 -11 11 -21 1 -9 -9 -9 -12 0 -12 20 0 14 -17 -8 -23 -28 -7 -25 -24 5
-29 13 -3 22 -2 20 2 -8 12 23 33 40 26 22 -8 19 -46 -3 -46 -10 0 -26 -10
-37 -22 -10 -12 -20 -18 -22 -12 -2 5 -19 8 -38 6 -19 -2 -33 -8 -30 -12 3 -5
-2 -13 -11 -18 -14 -8 -14 -10 -1 -24 14 -14 13 -16 -9 -26 -20 -10 -24 -18
-22 -52 1 -41 -19 -75 -45 -75 -16 0 -17 -3 -27 -52 -6 -37 -5 -43 11 -48 20
-7 25 -20 10 -29 -4 -3 -20 11 -35 32 -14 20 -26 33 -26 29 0 -5 -5 -5 -11 -1
-8 4 -8 9 -1 13 6 3 -9 7 -34 7 -39 1 -43 0 -27 -11 10 -7 29 -15 41 -17 13
-1 23 -7 23 -13 0 -5 8 -18 16 -28 9 -9 21 -27 28 -40 7 -14 20 -22 35 -21 22
1 74 -38 65 -48 -3 -2 13 -12 35 -22 29 -13 44 -14 59 -7 14 8 22 7 31 -4 7
-8 20 -15 30 -15 10 0 21 -7 24 -16 3 -8 10 -12 16 -9 5 3 10 1 10 -4 0 -20
28 -11 49 15 13 16 25 23 33 18 8 -5 8 -1 -2 11 -13 16 -13 18 0 13 20 -7 50
9 50 26 0 16 -48 28 -53 13 -4 -12 -67 19 -67 33 0 6 5 10 11 10 5 0 8 4 5 9
-3 5 1 12 10 15 24 9 62 7 69 -4 3 -5 1 -10 -5 -10 -7 0 -6 -5 2 -14 14 -15
32 -11 23 5 -9 14 13 11 40 -7 15 -10 22 -22 18 -32 -3 -12 -2 -13 4 -4 5 7
20 14 32 17 13 2 29 9 36 15 6 5 31 9 53 8 34 -1 45 4 63 26 29 37 64 53 134
60 67 7 79 3 94 -37 9 -24 8 -27 -12 -28 l-22 -1 22 -6 22 -7 -22 -25 c-17
-20 -31 -25 -59 -24 -20 1 -41 5 -47 8 -5 4 -13 2 -16 -4 -4 -6 -3 -10 2 -9
17 4 63 -14 57 -22 -3 -5 -9 -7 -14 -4 -5 3 -10 -5 -12 -17 -2 -16 -11 -24
-28 -26 -14 -2 -29 -8 -35 -14 -7 -8 -5 -8 5 -3 13 8 13 6 2 -7 -11 -14 -16
-15 -40 -2 -15 7 -28 18 -28 24 -1 5 -2 15 -3 20 0 6 -13 10 -28 9 -16 0 -22
-3 -15 -6 19 -7 14 -36 -10 -64 -29 -32 -75 -125 -83 -166 -8 -40 -31 -49 -47
-20 -7 12 -14 27 -14 32 -1 6 -2 14 -3 18 0 5 -7 5 -13 0 -7 -4 -15 -8 -18 -9
-3 -1 -20 -5 -37 -9 -18 -4 -33 -13 -33 -19 0 -6 -4 -5 -9 3 -6 10 -13 11 -29
2 -40 -21 -114 -8 -98 18 4 5 -2 16 -14 23 -11 7 -20 21 -20 31 0 10 -4 16 -9
12 -5 -3 -3 8 6 25 8 17 13 37 10 44 -6 15 -57 28 -57 15 0 -5 -5 -9 -11 -9
-14 0 -40 26 -32 33 3 3 -2 13 -11 22 -9 9 -14 20 -12 24 3 4 -4 7 -14 7 -10
0 -16 -6 -13 -12 3 -8 -8 -12 -31 -11 -36 1 -47 11 -23 20 6 3 -16 5 -50 5
-44 0 -63 -4 -67 -14 -3 -8 -12 -14 -21 -14 -8 0 -15 -4 -15 -10 0 -5 -4 -10
-8 -10 -5 0 -9 7 -9 15 0 8 9 15 21 15 17 0 18 2 6 9 -8 6 -18 7 -22 5 -19
-12 -6 12 19 33 14 13 23 26 19 31 -4 4 -14 -2 -22 -12 -8 -11 -14 -15 -14 -8
0 6 -7 9 -16 5 -9 -3 -19 -1 -23 4 -3 6 -31 15 -61 19 -53 9 -55 10 -64 47 -9
36 -3 83 20 141 6 16 4 18 -19 14 -15 -3 -24 -1 -21 3 3 5 -5 9 -18 9 -13 0
-37 13 -54 28 -22 20 -37 26 -50 21 -10 -4 -14 -8 -9 -8 12 -2 -16 -21 -30
-21 -5 0 -3 5 5 10 8 5 12 10 8 10 -4 0 6 13 22 28 16 16 27 32 23 35 -3 4 6
7 20 7 15 0 27 5 27 10 0 6 -4 10 -10 10 -5 0 -10 8 -10 18 0 15 2 15 11 2 8
-11 9 -8 5 17 -4 22 -1 33 10 37 8 3 12 10 9 16 -3 5 -2 10 4 10 5 0 12 8 16
19 3 10 15 23 28 29 12 6 16 11 8 11 -8 1 -30 -11 -49 -26 -19 -14 -55 -30
-80 -35 -25 -4 -54 -15 -64 -24 -9 -9 -28 -17 -40 -18 -13 0 -23 -6 -23 -13 0
-6 -4 -15 -9 -20 -5 -5 -6 -3 -2 5 13 22 -19 13 -34 -10 l-14 -23 -6 30 c-3
17 0 42 8 58 8 16 12 37 9 48 -3 10 -2 19 2 19 8 0 45 80 42 93 0 4 3 7 7 7 4
0 9 11 10 24 2 26 39 96 56 108 6 4 15 3 20 -2 10 -10 -2 -33 -14 -25 -5 3
-11 1 -15 -5 -3 -5 -1 -10 4 -10 16 0 13 -38 -4 -47 -8 -5 -26 -30 -40 -57
-20 -37 -23 -51 -14 -62 6 -8 18 -14 25 -14 10 0 11 6 4 25 -7 19 -6 25 5 25
19 0 28 -17 13 -23 -8 -3 -6 -6 5 -6 9 -1 17 4 17 9 0 6 7 10 15 10 8 0 38 29
67 65 28 36 55 65 59 65 3 0 9 14 13 30 4 21 11 30 26 30 11 0 20 5 20 10 0 6
-9 10 -20 10 -19 0 -46 -35 -42 -56 1 -6 -6 -17 -15 -25 -15 -11 -16 -11 -5 1
22 25 13 34 -12 11 l-23 -22 4 25 c3 14 13 27 22 29 9 2 0 4 -19 4 -19 0 -38
-5 -42 -11 -6 -8 -8 -8 -8 1 0 6 5 15 10 18 6 3 10 20 10 36 0 17 -4 28 -9 25
-10 -7 -24 22 -16 34 3 5 -3 14 -14 20 -18 9 -20 43 -3 37 4 -1 9 2 11 8 2 5
-12 17 -30 27 -22 12 -27 18 -16 18 10 0 28 -5 39 -11 14 -7 23 -8 30 -1 6 6
17 8 24 5 8 -3 14 0 14 7 0 6 -4 8 -10 5 -5 -3 -10 -1 -10 5 0 8 41 33 66 40
1 0 4 -7 8 -15z m-1585 -82 c-3 -18 14 -52 22 -47 5 3 9 -5 9 -16 0 -15 -5
-20 -14 -17 -10 4 -13 1 -10 -8 4 -10 12 -11 30 -5 29 11 31 0 4 -25 -15 -14
-20 -15 -20 -4 0 11 -2 11 -9 1 -9 -15 -57 -42 -73 -42 -6 0 -5 6 2 15 18 21
4 19 -17 -4 -20 -20 -63 -34 -63 -21 0 5 -9 12 -20 15 -11 4 -18 11 -14 16 4
6 11 6 20 -2 9 -7 14 -8 14 -1 0 15 -23 21 -43 10 -10 -5 -21 -8 -23 -5 -4 4
82 57 92 57 2 0 4 -7 4 -15 0 -8 5 -15 11 -15 6 0 9 7 5 15 -8 21 7 19 34 -5
13 -11 27 -20 32 -20 14 0 9 19 -9 29 -16 9 -15 11 7 12 17 1 20 3 8 6 -10 2
-18 9 -18 14 0 6 6 7 13 3 6 -4 9 -4 5 0 -3 4 -8 6 -10 4 -2 -1 -11 4 -19 12
-15 14 -9 21 49 49 1 0 2 -2 1 -6z m-1349 -43 c0 -5 9 -9 19 -7 11 1 19 -2 18
-8 -1 -5 -6 -9 -10 -7 -5 1 -6 -2 -2 -8 3 -5 15 -10 26 -10 11 0 23 -9 27 -20
7 -20 7 -20 20 0 9 16 9 18 -2 14 -7 -3 -19 3 -27 12 -13 16 -11 17 20 11 18
-4 40 -7 47 -7 7 0 11 -6 8 -13 -5 -15 22 -17 43 -4 6 4 15 2 18 -4 12 -18 8
-19 -92 -31 -7 -1 -13 -7 -13 -14 0 -7 -5 -16 -12 -20 -7 -5 -8 -3 -3 6 10 16
-36 3 -47 -14 -6 -8 -11 -7 -17 3 -5 8 -14 10 -21 6 -8 -5 -11 -4 -6 3 3 6 2
13 -4 17 -5 3 -10 1 -10 -4 0 -6 -7 -11 -15 -11 -17 0 -20 16 -4 26 6 3 8 18
5 33 -5 19 -4 22 3 11 9 -13 13 -13 28 4 17 18 17 18 1 13 -10 -4 -18 -2 -18
4 0 6 -4 7 -10 4 -5 -3 -10 1 -10 9 0 9 9 16 20 16 11 0 20 -4 20 -10z m2750
-5 c0 -8 9 -15 20 -15 22 0 27 -15 8 -24 -7 -4 -3 -4 10 -2 12 2 22 0 22 -5 0
-5 -4 -9 -9 -9 -5 0 -11 -9 -14 -20 -3 -11 -10 -20 -15 -20 -6 0 -9 9 -7 20 2
11 0 20 -4 20 -5 0 -13 15 -19 33 -8 27 -10 28 -11 9 -1 -13 -8 -30 -16 -39
-14 -14 -14 -17 -1 -32 8 -9 15 -19 16 -23 0 -4 3 -15 7 -23 9 -24 -7 -32 -22
-12 -18 24 -27 23 -38 -5 -9 -22 -9 -22 -18 -3 -6 15 -8 11 -7 -17 2 -45 -1
-49 -31 -41 -18 5 -22 11 -18 31 l5 26 -19 -25 c-16 -20 -20 -22 -29 -9 -7 11
-5 16 5 18 7 2 17 16 20 33 8 34 35 40 35 7 0 -21 2 -20 19 8 11 18 24 35 30
38 6 4 11 14 11 22 0 10 -9 6 -26 -13 l-25 -28 17 30 c10 17 19 32 21 34 1 2
9 -2 17 -8 12 -10 16 -8 21 11 13 42 45 66 45 33z m-965 -105 c-3 -5 1 -10 9
-10 9 0 16 5 16 10 0 6 7 10 16 10 10 0 14 -6 11 -14 -3 -7 0 -13 6 -13 33 1
47 -4 47 -18 0 -8 9 -19 20 -25 11 -6 20 -17 20 -25 0 -7 4 -17 10 -20 5 -3 7
0 4 8 -7 21 21 28 43 12 10 -8 28 -15 41 -15 13 0 22 -6 22 -16 0 -10 7 -14
18 -12 9 2 16 10 15 16 -2 7 2 12 8 12 16 0 39 26 31 35 -4 4 0 6 8 3 8 -3 15
-15 14 -27 0 -14 4 -20 13 -17 7 3 13 -1 13 -9 0 -10 -10 -15 -29 -15 -17 0
-32 -4 -36 -10 -3 -5 7 -9 22 -8 15 0 38 -3 51 -7 17 -6 22 -4 20 6 -2 10 6
13 27 11 17 -1 38 -2 48 -3 20 0 23 -19 3 -19 -8 0 -16 -6 -19 -12 -3 -9 -11
-7 -28 7 l-24 20 19 -22 c11 -13 25 -23 33 -23 7 0 13 -6 14 -12 0 -10 2 -10
6 0 2 6 9 12 15 12 6 0 8 -6 5 -13 -2 -7 6 -18 19 -24 17 -8 24 -8 24 0 0 7 4
7 12 -1 7 -7 27 -12 46 -12 26 0 33 -4 29 -14 -4 -9 -1 -13 7 -10 13 5 31 -24
39 -63 3 -12 1 -23 -5 -25 -5 -2 -10 -13 -11 -26 0 -12 -4 -22 -8 -22 -4 0
-10 -9 -14 -19 -3 -12 -18 -21 -38 -24 -18 -3 -41 -7 -52 -9 -11 -2 -20 2 -20
7 0 6 -4 16 -9 24 -7 11 -3 13 20 7 29 -7 29 -7 7 9 -26 18 -43 16 -60 -7 -10
-13 -26 -16 -75 -13 -38 2 -69 -1 -77 -8 -12 -9 -13 -9 -7 1 5 8 1 12 -11 12
-15 0 -16 2 -3 10 10 6 11 10 3 10 -7 0 -13 12 -13 26 0 14 -5 34 -10 44 -7
13 -7 21 1 26 8 4 7 9 -2 16 -10 6 -7 7 9 3 13 -4 22 -2 22 4 0 6 5 11 11 11
6 0 8 -7 5 -16 -3 -8 -2 -13 3 -10 5 3 11 14 14 25 4 17 2 18 -20 10 -33 -12
-37 -11 -23 6 7 8 9 15 4 15 -5 0 -2 5 6 10 8 5 10 10 4 10 -6 0 -20 -11 -32
-25 -19 -22 -25 -24 -42 -13 -17 11 -22 10 -29 -1 -7 -11 -11 -10 -20 5 -8 15
-10 15 -11 4 0 -12 -11 -15 -47 -14 -66 2 -67 2 -53 19 16 19 6 32 -31 40 -38
9 -26 26 19 27 26 1 29 3 16 15 -8 8 -14 19 -14 24 0 6 -4 7 -10 4 -5 -3 -10
-1 -10 4 0 6 -7 11 -16 11 -12 0 -15 -7 -11 -25 2 -14 2 -23 -1 -20 -3 3 -14
-2 -24 -12 -16 -14 -18 -15 -18 0 0 9 5 19 11 22 6 4 8 14 4 23 -3 8 0 19 7
24 10 7 9 9 -2 5 -8 -2 -15 -11 -15 -20 0 -23 -15 -34 -16 -11 -1 10 -1 23 0
27 1 5 -4 5 -10 1 -8 -5 -10 -1 -7 14 4 14 0 22 -12 25 -14 3 -16 0 -12 -17 3
-11 11 -25 19 -29 18 -11 17 -47 -2 -47 -9 0 -18 -7 -21 -15 -5 -11 -11 -12
-25 -4 -16 8 -17 13 -8 31 10 18 9 20 -6 15 -9 -4 -19 -7 -21 -7 -3 0 -3 -4 1
-9 3 -5 1 -12 -5 -16 -5 -3 -10 -1 -10 4 0 6 -8 11 -17 11 -10 1 -3 8 17 17
19 9 41 15 49 14 8 -2 10 2 5 11 -20 30 -1 86 21 68 7 -6 11 -2 12 11 1 10 -2
19 -8 19 -5 0 -9 5 -9 10 0 6 14 10 31 10 17 0 28 -4 24 -10z m-669 -45 c8 -8
14 -20 13 -27 -3 -28 2 -40 15 -35 7 3 13 0 13 -6 -1 -37 4 -49 18 -43 8 3 15
1 15 -4 0 -6 -5 -10 -10 -10 -6 0 -20 -9 -32 -20 -12 -11 -33 -20 -48 -20 -14
0 -36 -7 -48 -16 -12 -8 -22 -10 -22 -5 0 13 -43 11 -56 -4 -11 -11 -14 -19
-14 -35 0 -5 -7 -10 -16 -10 -10 0 -14 5 -10 15 3 8 9 22 12 30 5 12 2 13 -17
6 -17 -6 -27 -4 -35 7 -8 11 -16 12 -30 5 -23 -12 -44 -6 -44 13 0 10 13 14
44 14 27 0 51 6 60 16 9 8 20 12 26 9 6 -3 13 1 16 10 4 10 13 13 25 10 17 -6
19 -3 14 24 -3 16 -1 33 5 36 5 3 10 -1 10 -9 0 -8 10 -20 23 -26 20 -10 20
-10 5 3 -10 8 -19 24 -20 36 -2 18 5 26 32 36 19 7 36 13 38 14 2 0 10 -6 18
-14z m418 -174 c1 -38 -2 -67 -6 -65 -10 6 -184 -176 -180 -188 1 -4 -2 -8 -7
-8 -5 0 -7 -9 -4 -20 3 -13 -1 -22 -11 -26 -13 -5 -14 -9 -5 -20 9 -11 9 -14
0 -14 -8 0 -9 -5 -1 -19 7 -14 7 -22 0 -26 -6 -4 -8 -11 -5 -16 7 -11 3 -11
-19 -3 -15 6 -15 7 0 19 14 10 15 15 5 31 -8 12 -11 13 -8 3 3 -9 -1 -16 -9
-16 -17 0 -18 8 -2 42 6 14 17 25 24 25 7 0 16 4 19 10 4 6 -5 8 -22 4 -27 -5
-28 -4 -28 39 0 25 3 43 7 41 4 -2 9 0 13 6 3 5 -2 10 -12 11 -11 0 -13 3 -5
6 6 2 10 9 6 14 -3 5 4 24 15 43 12 18 21 40 21 48 0 27 93 110 150 133 30 13
57 22 59 19 2 -2 4 -35 5 -73z m-3182 -93 c28 -8 57 -31 100 -77 57 -63 62
-66 108 -67 30 0 54 -7 65 -17 9 -10 28 -17 43 -17 47 0 56 -12 38 -54 -15
-36 -42 -48 -52 -22 -7 18 -32 28 -31 13 1 -33 -4 -47 -18 -47 -9 0 -15 9 -15
25 0 15 -6 25 -14 25 -8 0 -27 18 -43 40 -18 27 -35 39 -47 38 -23 -3 -34 -28
-13 -28 8 0 17 -12 20 -27 l5 -28 -19 25 c-11 14 -27 33 -34 43 -13 15 -13 17
3 18 14 1 14 2 -3 8 -11 4 -38 15 -60 25 -60 28 -105 37 -98 20 3 -8 9 -11 14
-8 5 3 9 -4 9 -15 0 -11 5 -23 12 -27 8 -5 9 -2 5 10 -11 28 21 31 46 5 12
-13 21 -27 19 -32 -1 -5 2 -6 8 -2 5 3 10 1 10 -4 0 -6 6 -11 14 -11 7 0 21
-15 30 -34 21 -45 20 -56 -4 -27 -11 12 -18 26 -16 30 2 3 -6 11 -19 17 -19 9
-22 9 -18 -3 5 -14 -26 -12 -82 3 -31 9 -85 48 -85 61 0 6 -11 13 -25 15 -14
2 -25 8 -24 13 1 6 10 9 19 7 10 -2 20 4 23 12 5 12 -2 14 -31 10 -25 -2 -30
-1 -17 4 85 33 126 58 121 75 -5 20 3 21 56 5z m5510 -234 c-5 -16 -15 -28
-21 -26 -6 1 -11 -2 -11 -7 0 -17 -76 -37 -127 -32 -8 1 -7 17 5 59 21 76 39
104 63 97 12 -4 19 -1 19 7 0 7 19 -6 41 -29 38 -37 41 -43 31 -69z m-1119
-68 c16 1 26 -3 24 -10 -2 -6 -11 -10 -20 -10 -9 1 -15 -2 -12 -6 3 -4 -2 -10
-10 -14 -19 -7 -19 -26 0 -26 8 0 15 -6 15 -14 0 -9 -8 -12 -25 -8 -14 2 -25
11 -25 19 0 11 -6 10 -26 -6 -15 -12 -44 -26 -64 -31 -21 -6 -49 -19 -62 -30
l-23 -21 39 16 c23 9 54 13 75 10 24 -4 30 -2 17 3 -26 11 -5 24 32 20 26 -3
60 -35 54 -52 -1 -4 1 -13 6 -20 6 -6 13 -26 17 -45 6 -29 5 -33 -9 -28 -20 8
-33 -13 -15 -24 10 -6 8 -9 -10 -9 -13 0 -38 -9 -55 -19 -17 -11 -35 -20 -41
-20 -17 -2 -48 -13 -59 -22 -6 -5 -24 -20 -40 -34 -16 -14 -35 -25 -42 -25 -7
0 -16 -9 -19 -20 -7 -21 -25 -28 -25 -10 0 6 -5 10 -11 10 -6 0 -9 -6 -6 -13
4 -10 -3 -13 -24 -12 -16 1 -29 -2 -29 -6 0 -5 -7 -6 -16 -2 -11 4 -12 8 -4
13 8 5 3 9 -11 13 -32 8 -36 0 -11 -21 19 -17 19 -19 4 -28 -9 -5 -36 -8 -60
-6 -38 3 -41 5 -27 18 10 11 26 14 48 10 l32 -5 -32 11 c-37 12 -42 29 -14 55
24 23 37 63 20 63 -7 0 1 15 19 33 18 18 32 39 32 46 0 14 -4 10 109 125 47
47 90 86 97 86 7 0 19 6 26 13 22 21 92 45 113 39 11 -4 33 -6 48 -6z m-4212
-36 c1 -5 3 -14 4 -20 1 -5 4 -12 5 -15 1 -3 4 -9 5 -15 1 -5 4 -12 5 -15 1
-3 3 -11 4 -17 1 -7 10 -13 21 -13 11 -1 26 -4 33 -9 7 -4 20 -2 29 6 14 11
16 11 8 -2 -19 -30 -14 -40 13 -33 l27 6 -25 -21 c-22 -19 -23 -21 -6 -22 13
0 16 -5 12 -17 -6 -15 -4 -15 14 2 14 13 20 14 20 5 0 -9 5 -8 13 4 8 11 20
17 27 14 17 -5 -45 -68 -71 -69 -10 -1 -25 -2 -31 -3 -7 -1 -13 6 -14 14 -3
43 -4 46 -14 28 -13 -21 -1 -78 16 -78 8 0 14 5 14 10 0 6 5 10 10 10 6 0 10
-7 8 -16 -2 -10 3 -19 11 -22 8 -3 11 0 7 7 -12 19 22 24 40 6 19 -18 29 -13
21 10 -4 8 -16 15 -28 15 -18 0 -19 2 -9 15 12 14 15 14 31 -2 29 -29 50 -45
53 -42 2 2 9 14 15 27 12 22 11 23 -11 12 -21 -11 -22 -11 -7 4 8 9 26 18 39
21 18 3 21 2 12 -7 -19 -19 -14 -30 9 -18 11 7 27 9 35 6 8 -3 14 -1 14 5 0 6
4 8 10 4 5 -3 0 -15 -11 -26 -11 -11 -24 -17 -29 -14 -6 4 -10 0 -10 -7 0 -8
14 -19 31 -25 18 -7 28 -17 24 -23 -3 -6 -11 -8 -16 -5 -5 4 -9 1 -9 -4 0 -6
5 -11 11 -11 7 0 18 -8 25 -17 12 -17 14 -17 28 2 8 11 16 14 16 8 0 -18 32
-53 47 -53 19 0 16 17 -4 29 -10 6 -13 11 -7 11 7 0 14 9 17 19 5 22 -28 65
-43 56 -6 -3 -7 1 -4 9 5 12 0 16 -17 16 -17 0 -20 3 -10 9 10 7 8 12 -10 25
-22 15 -22 16 -4 16 11 0 29 -7 39 -15 11 -8 31 -15 45 -15 14 0 32 -4 40 -9
12 -8 12 -12 -3 -26 -13 -13 -14 -20 -5 -31 6 -8 16 -11 21 -8 15 10 60 -6 55
-19 -6 -18 11 -47 28 -47 8 0 15 7 15 16 0 8 5 12 10 9 6 -3 8 -16 6 -28 -4
-25 25 -67 46 -67 11 0 10 2 -1 9 -8 5 -10 14 -6 21 6 9 4 11 -5 5 -10 -6 -12
-2 -7 16 7 27 -35 79 -64 79 -9 0 -22 6 -28 14 -18 21 5 31 32 13 12 -7 35
-17 50 -21 18 -4 27 -12 24 -20 -3 -8 1 -23 9 -35 9 -12 14 -31 12 -43 -2 -11
3 -22 10 -24 7 -1 8 0 2 3 -6 3 -4 11 5 20 11 11 13 19 5 27 -5 7 -6 17 -2 21
4 5 -1 5 -10 2 -22 -8 -23 3 -3 29 9 12 14 14 15 6 0 -7 5 -10 10 -7 6 4 8 10
5 15 -3 5 -1 11 5 15 12 8 70 -22 70 -36 0 -8 -5 -7 -15 1 -9 7 -18 10 -21 7
-3 -3 12 -18 35 -32 l40 -27 -27 -25 c-26 -23 -26 -24 -4 -18 21 6 23 5 13
-13 -6 -11 -8 -28 -5 -37 5 -13 2 -15 -22 -9 -45 11 -56 23 -38 41 21 21 8 30
-14 10 -10 -10 -26 -17 -34 -17 -11 0 -14 -6 -11 -20 6 -23 -6 -26 -32 -6 -20
14 -49 11 -39 -5 3 -5 0 -9 -5 -9 -6 0 -11 7 -11 16 0 14 -2 15 -17 3 -15 -13
-16 -11 -11 14 3 15 2 27 -2 27 -12 0 -21 -31 -15 -51 5 -16 1 -19 -27 -19
-47 0 -60 12 -52 43 7 29 3 31 -61 27 -17 0 -41 3 -55 9 -14 5 -20 10 -14 10
7 1 15 8 18 17 5 14 -1 16 -54 12 -33 -2 -55 -1 -48 4 7 4 27 8 43 9 29 2 29
2 -5 8 -19 4 -38 2 -42 -3 -3 -5 -38 -6 -78 -3 -75 6 -104 24 -94 58 3 13 -1
15 -20 12 -21 -4 -24 -2 -19 16 4 15 -1 22 -21 27 -21 5 -25 11 -22 30 3 13 7
28 10 33 3 5 -5 16 -19 25 -30 20 -33 40 -5 31 11 -4 20 -2 20 4 0 6 -10 11
-22 12 -13 0 -18 3 -11 5 22 9 -14 63 -42 64 -5 0 -4 -4 4 -9 8 -5 9 -11 3
-15 -16 -10 -22 22 -7 38 8 7 11 16 8 20 -4 3 -1 6 5 6 6 0 9 7 6 15 -4 8 -1
15 5 15 6 0 12 -4 12 -10z m2088 -117 c19 -22 51 -37 51 -22 0 5 -7 12 -15 15
-8 4 -15 12 -15 20 0 27 70 15 154 -24 45 -22 106 -45 136 -52 56 -13 144 -57
151 -75 2 -5 8 -9 12 -7 4 1 25 -13 45 -33 20 -19 49 -40 64 -46 15 -6 25 -15
22 -20 -3 -5 1 -9 8 -9 8 0 21 -9 31 -21 12 -13 13 -19 5 -18 -25 3 -38 -1
-35 -12 1 -6 -4 -14 -12 -17 -9 -3 -11 0 -6 8 8 12 -10 12 -70 -3 -11 -3 -29
-6 -40 -6 -16 -1 -17 -3 -6 -10 11 -7 9 -14 -14 -35 -15 -14 -34 -26 -41 -26
-8 0 -14 -4 -14 -9 0 -5 -3 -16 -6 -24 -3 -10 5 -18 27 -26 52 -18 68 -13 97
29 29 42 42 50 42 24 0 -8 5 -12 11 -9 6 4 1 19 -15 40 -21 27 -23 34 -11 39
8 3 14 2 14 -2 -5 -35 31 -44 67 -17 22 17 80 20 90 4 3 -6 22 -18 41 -26 33
-13 35 -17 30 -52 -5 -42 -9 -40 73 -26 31 6 42 2 87 -33 28 -22 53 -52 57
-65 7 -28 36 -45 36 -21 0 8 4 13 9 10 5 -3 5 -21 1 -40 -7 -30 -5 -34 11 -31
12 2 19 -2 19 -11 0 -8 5 -14 11 -14 6 0 8 8 4 18 -5 18 3 20 58 13 14 -2 7
-41 -8 -42 -57 -5 -75 -7 -114 -13 -24 -4 -49 -10 -55 -14 -6 -3 -19 -5 -28
-4 -22 4 -24 -26 -3 -34 8 -4 13 -9 11 -13 -3 -4 -1 -13 4 -21 13 -21 -33 -51
-79 -53 -24 -1 -35 -4 -28 -9 8 -5 7 -8 -5 -8 -9 0 -20 -9 -23 -20 -3 -11 -10
-20 -15 -20 -4 0 -11 -7 -14 -16 -4 -10 -2 -13 7 -8 8 5 7 2 -2 -9 -9 -11 -21
-15 -38 -11 -14 4 -30 1 -41 -8 -24 -21 -50 -29 -57 -18 -4 6 -2 10 4 10 5 0
20 17 32 38 13 20 41 56 63 80 21 23 34 42 29 42 -5 0 -14 -5 -21 -12 -7 -7
-12 -9 -12 -5 0 4 -12 1 -27 -7 -18 -9 -56 -13 -106 -12 -42 0 -77 -1 -77 -4
0 -3 -13 -11 -30 -17 -25 -9 -30 -9 -30 3 0 12 -5 11 -27 -3 -16 -10 -30 -20
-33 -24 -3 -3 -17 -9 -32 -13 -16 -3 -27 -10 -27 -14 6 -37 -11 -41 -42 -9
-12 12 -19 16 -14 9 5 -10 1 -13 -16 -10 -14 2 -23 9 -21 17 3 12 0 12 -12 1
-10 -8 -28 -10 -47 -6 -27 5 -30 3 -24 -12 5 -14 4 -15 -6 -4 -10 9 -10 15 -1
24 19 19 14 33 -6 15 -24 -22 -34 -21 -30 1 2 9 -5 25 -15 34 -12 10 -16 22
-11 30 6 9 3 9 -10 -1 -13 -11 -20 -11 -28 -3 -9 9 -9 12 0 12 7 0 17 11 22
24 5 13 22 30 37 38 34 16 48 72 16 62 -16 -5 -16 -4 2 12 18 15 18 16 2 10
-10 -3 -25 -6 -33 -6 -8 0 -14 -8 -15 -17 0 -14 -2 -13 -9 4 -8 20 2 75 28
143 12 33 10 65 -5 82 -8 9 -13 26 -10 37 3 11 1 21 -3 23 -4 2 -10 13 -14 25
-6 18 -4 22 8 17 24 -9 19 7 -11 38 -15 15 -37 28 -51 28 -15 0 -26 7 -29 20
-4 15 -9 17 -23 10 -22 -12 -30 -4 -30 29 0 18 -3 22 -9 13 -6 -10 -16 -9 -46
9 l-37 22 13 -21 c8 -12 17 -22 21 -22 5 0 8 -5 8 -11 0 -6 -7 -8 -16 -5 -8 3
-12 2 -9 -4 12 -19 -31 -10 -48 10 -23 27 -32 25 -50 -11 -8 -18 -17 -26 -21
-20 -4 7 -15 7 -30 1 -13 -5 -27 -6 -31 -2 -5 4 -5 -3 -2 -15 3 -13 1 -26 -4
-29 -5 -3 -7 -10 -4 -15 4 -5 -14 -9 -39 -9 -25 0 -48 5 -52 12 -5 8 -2 9 10
5 21 -8 56 9 56 27 0 8 7 19 15 26 8 7 15 21 15 32 0 18 -2 19 -17 7 -14 -12
-15 -12 -9 0 7 10 -2 12 -42 10 -27 -2 -48 -1 -45 4 2 4 -3 7 -11 7 -9 0 -16
6 -16 13 0 8 -4 7 -10 -3 -8 -13 -10 -12 -11 5 -1 11 -3 32 -5 48 -2 18 2 27
12 27 8 0 14 5 14 11 0 5 -4 7 -10 4 -5 -3 -10 2 -10 12 0 12 -3 14 -8 6 -5
-7 -13 -9 -21 -4 -10 7 -9 10 8 16 12 4 28 2 36 -5 8 -6 19 -9 25 -5 5 3 10 2
10 -4 0 -5 -6 -12 -12 -15 -7 -3 -4 -4 7 -3 24 2 45 26 38 43 -9 24 43 47 92
40 34 -6 46 -4 50 6 4 11 29 14 102 12 82 -1 99 -4 112 -21z m-463 -111 c-2
-14 -9 -28 -16 -30 -7 -3 -10 0 -6 6 3 5 -1 12 -9 16 -9 3 -15 0 -15 -8 0 -20
-65 -7 -81 17 -3 5 -9 2 -12 -7 -4 -9 -3 -15 1 -15 17 3 32 -2 31 -8 -5 -31 5
-46 39 -60 24 -9 38 -21 39 -34 2 -22 -8 -24 -25 -7 -9 9 -12 8 -12 -5 0 -11
-8 -17 -21 -17 -12 0 -19 5 -16 13 2 6 -4 22 -14 35 -10 13 -16 33 -13 48 4
23 3 24 -16 14 -18 -10 -19 -14 -8 -28 10 -12 10 -14 1 -8 -7 4 -13 3 -13 -2
0 -6 -7 -13 -16 -16 -12 -5 -14 -1 -8 17 3 12 13 29 20 38 16 18 9 30 -13 22
-13 -5 -13 -3 -3 16 7 13 17 20 26 17 8 -3 14 -1 14 4 0 6 7 10 15 10 8 0 15
-5 15 -11 0 -8 4 -8 13 -1 15 12 54 19 84 14 16 -3 21 -10 19 -30z m2811 -102
c4 0 1 5 -7 11 -12 8 -12 10 4 7 11 -2 19 -6 18 -10 0 -4 28 -37 64 -74 58
-59 63 -67 48 -78 -9 -7 -28 -10 -43 -8 l-26 6 25 6 c33 8 15 18 -33 18 -37 0
-82 26 -72 42 3 5 -1 11 -7 14 -7 3 -4 4 6 3 10 -1 21 3 23 10 3 9 -10 11 -47
8 -36 -2 -55 1 -66 13 -11 10 -18 12 -23 4 -11 -19 -59 -33 -65 -19 -2 7 -5 4
-5 -6 -1 -10 -6 -17 -12 -15 -21 7 -13 23 16 33 17 5 34 15 38 22 4 7 16 13
25 14 9 0 33 6 52 13 29 10 39 10 57 -1 12 -7 26 -13 30 -13z m-2747 -60 c0
-20 2 -25 12 -38 8 -9 7 -11 -6 -6 -12 4 -16 0 -16 -16 0 -12 -13 -33 -30 -47
-16 -13 -30 -33 -30 -44 0 -10 -4 -19 -9 -19 -4 0 -18 -22 -29 -50 -21 -50
-20 -58 7 -41 21 14 44 -18 28 -38 -10 -12 -9 -14 5 -9 25 10 29 -1 11 -31
-11 -17 -12 -22 -3 -13 14 12 50 17 50 7 0 -3 -7 -16 -15 -29 -14 -21 -14 -25
0 -40 9 -9 14 -20 10 -25 -3 -5 -1 -12 4 -16 5 -3 14 3 20 12 5 10 13 14 17
10 5 -5 3 -11 -3 -15 -6 -4 -14 -22 -18 -39 -4 -19 -18 -41 -35 -53 -34 -24
-40 -25 -40 -5 0 8 12 18 26 21 18 5 22 10 14 18 -7 7 -16 7 -30 -2 -27 -16
-43 -15 -36 3 4 12 0 14 -22 10 -22 -5 -23 -4 -7 4 12 5 27 17 35 27 14 16 13
16 -6 6 -12 -6 -24 -8 -28 -5 -3 3 -6 0 -6 -7 0 -9 -6 -7 -19 6 -10 10 -17 22
-15 25 2 3 -3 6 -11 6 -20 0 -19 -7 2 -23 22 -15 12 -28 -15 -20 -31 10 -37
38 -12 58 29 23 100 44 108 32 10 -14 40 -13 46 1 2 7 -5 15 -16 18 -14 4 -19
11 -15 21 7 19 -4 20 -56 5 -21 -5 -35 -13 -33 -17 3 -5 -4 -9 -15 -9 -11 -1
-17 2 -14 8 4 5 2 9 -3 9 -5 0 -9 11 -9 25 0 14 3 25 8 25 13 0 11 24 -5 45
-8 12 -25 18 -47 17 l-34 -1 30 17 c17 9 34 15 38 14 5 -1 6 2 2 8 -4 7 -13 6
-27 -1 -17 -9 -24 -7 -42 12 -12 13 -22 33 -22 44 -1 11 -4 29 -8 40 -6 16 -6
17 3 5 9 -13 11 -13 11 1 0 9 11 25 25 35 25 18 36 42 13 28 -7 -4 -8 -3 -4 4
9 15 46 16 46 2 0 -5 4 -10 9 -10 5 0 22 -5 38 -11 42 -16 112 -18 106 -2 -5
12 10 17 44 16 9 -1 11 7 7 23 -4 15 -2 24 5 24 6 0 11 -4 11 -10z m268 -76
c18 -15 32 -35 32 -48 0 -12 10 -30 23 -41 l22 -20 -22 -3 c-13 -2 -23 -7 -23
-12 0 -16 -75 2 -89 21 -14 19 -37 27 -26 9 8 -12 -15 -13 -34 -1 -10 7 -8 12
10 25 13 9 18 16 11 16 -7 0 -2 18 15 48 17 31 31 46 38 41 5 -5 25 -20 43
-35z m2256 10 c9 -3 16 -12 16 -20 0 -21 46 -28 108 -15 38 8 58 8 60 1 2 -5
16 -10 30 -11 15 0 36 -5 47 -10 14 -6 -4 -8 -57 -6 -43 2 -78 0 -78 -5 0 -4
-9 -8 -20 -8 -11 0 -20 -4 -20 -10 0 -5 -15 -10 -32 -10 -23 0 -29 -3 -19 -9
8 -5 21 -6 30 -3 13 5 13 3 -2 -12 -17 -17 -19 -17 -62 4 -25 12 -45 26 -45
31 0 5 -11 14 -24 19 -20 7 -24 15 -22 37 2 15 4 29 5 31 2 5 70 2 85 -4z
m-882 -404 c6 0 7 7 4 16 -6 15 -4 15 16 2 13 -9 24 -25 26 -36 3 -19 -1 -21
-47 -20 -40 1 -52 5 -57 20 -8 26 -22 22 -17 -6 6 -28 -21 -42 -46 -24 -9 7
-13 9 -9 4 10 -12 -10 -46 -27 -46 -8 0 -17 11 -21 25 -3 14 -9 23 -13 21 -4
-3 -7 5 -7 16 0 26 60 57 103 53 18 -1 31 1 28 5 -13 21 22 15 38 -6 10 -13
23 -24 29 -24z m1178 -125 c0 -8 -4 -16 -10 -20 -11 -7 24 -45 43 -45 6 0 1
-10 -13 -21 -14 -11 -19 -18 -13 -14 9 4 11 1 7 -9 -5 -12 -10 -13 -26 -5 -17
9 -18 13 -7 20 8 5 10 9 4 9 -5 -1 -19 -7 -29 -15 -18 -14 -18 -15 8 -24 14
-6 26 -15 26 -21 0 -6 -4 -9 -10 -5 -5 3 -19 -4 -30 -15 -18 -18 -24 -19 -37
-8 -9 7 -21 13 -27 14 -6 0 -17 2 -24 2 -7 1 -12 8 -11 15 3 27 -2 38 -17 35
-10 -2 -19 2 -21 8 -6 17 27 26 43 13 11 -9 14 -9 14 0 0 7 5 9 12 5 7 -5 9
-2 5 9 -7 20 21 31 40 16 7 -7 16 -9 19 -6 3 3 -6 13 -20 22 -28 19 -26 35 5
35 11 0 17 4 14 10 -3 6 1 7 9 4 9 -3 16 -1 16 5 0 6 7 8 15 5 8 -4 15 -12 15
-19z m-741 -61 c19 -4 28 -11 24 -18 -4 -6 1 -5 10 2 16 14 62 9 97 -9 8 -4
23 -10 32 -13 11 -3 15 -11 12 -21 -3 -8 -1 -15 5 -15 6 0 11 -5 11 -11 0 -6
-6 -9 -14 -6 -16 7 -30 -19 -15 -28 15 -10 0 -25 -26 -25 -17 0 -23 -4 -19
-15 4 -9 -2 -16 -18 -19 -41 -8 -66 -3 -60 12 4 12 2 12 -17 1 -12 -8 -19 -19
-17 -24 2 -6 -4 -11 -13 -12 -57 -6 -68 -9 -64 -20 3 -7 -2 -13 -11 -13 -9 0
-21 11 -26 25 -5 14 -15 25 -22 25 -9 0 -8 -3 2 -10 11 -7 11 -10 2 -10 -7 0
-24 -11 -38 -25 -14 -14 -22 -25 -18 -25 3 0 1 -7 -6 -15 -7 -9 -10 -18 -6
-22 3 -3 6 -1 6 6 0 18 61 11 85 -10 11 -9 30 -20 42 -23 23 -7 37 -32 27 -48
-3 -5 -13 -6 -23 -3 -28 12 -85 26 -124 30 -46 5 -57 11 -57 31 0 8 -4 14 -10
14 -5 0 -10 5 -10 11 0 6 7 9 15 5 8 -3 15 -1 15 4 0 6 -9 10 -20 10 -12 0
-20 -7 -20 -16 0 -14 -2 -15 -17 -3 -15 13 -15 12 -4 -8 8 -16 8 -23 1 -23 -6
0 -8 -6 -4 -12 5 -9 2 -9 -9 1 -9 7 -17 10 -17 5 0 -5 -5 -2 -11 6 -8 12 -9
11 -4 -6 5 -19 2 -22 -34 -22 -47 -1 -65 25 -32 47 12 7 21 19 21 26 0 7 12
24 27 39 14 14 23 29 20 33 -4 3 -7 1 -7 -6 0 -8 -7 -11 -15 -7 -8 3 -15 1
-15 -4 0 -5 -9 -8 -20 -7 -25 2 -28 42 -4 51 20 8 11 54 -14 72 -14 10 -15 14
-2 29 14 16 13 17 -10 10 -38 -12 -55 -54 -29 -71 19 -11 -12 -23 -43 -17 -17
3 -28 1 -28 -6 0 -6 -7 -11 -15 -11 -8 0 -15 -4 -15 -10 0 -5 -9 -10 -19 -10
-11 0 -22 -4 -25 -9 -8 -12 -86 -10 -86 2 0 15 51 67 65 67 6 0 26 13 44 29
19 17 49 31 74 35 23 4 44 8 47 8 3 1 19 7 37 15 45 18 53 17 53 -11 0 -19 28
-59 31 -45 8 40 7 54 -2 65 -14 17 11 23 121 27 47 2 106 4 131 5 26 1 60 -1
78 -4z m-2392 -278 c-4 -10 0 -12 14 -9 11 3 22 9 25 14 9 15 34 10 34 -6 0
-8 -5 -15 -11 -15 -5 0 -8 -4 -5 -9 3 -4 -13 -6 -35 -4 -29 4 -39 2 -35 -6 4
-6 3 -11 -2 -11 -5 0 -9 -6 -9 -12 0 -9 21 -13 69 -13 47 0 71 -4 77 -14 5 -8
17 -11 28 -7 21 7 68 -37 58 -53 -3 -5 2 -11 10 -14 9 -4 12 -1 8 9 -10 26 21
5 40 -27 30 -53 18 -79 -18 -39 -10 11 -22 17 -28 13 -6 -3 -33 -8 -61 -10
-28 -1 -63 -8 -78 -14 -15 -6 -32 -8 -37 -4 -6 3 -11 1 -11 -5 0 -6 -5 -8 -10
-5 -12 7 -80 -16 -80 -27 0 -4 -7 -8 -15 -8 -8 0 -15 -4 -15 -8 0 -4 -17 -14
-37 -21 -21 -8 -43 -16 -49 -18 -21 -8 -23 24 -5 81 9 31 19 54 22 52 8 -8 4
38 -4 51 -14 22 68 88 97 77 16 -6 21 7 18 48 -1 10 7 18 21 21 12 2 24 5 26
6 2 0 1 -5 -2 -13z"/>
<path d="M3278 1049 c-7 -5 -10 -9 -5 -9 4 0 -1 -8 -10 -18 -10 -11 -20 -18
-23 -16 -4 1 -6 -23 -6 -54 0 -40 4 -60 15 -69 11 -8 18 -8 23 0 8 13 47 17
49 5 1 -4 2 -13 3 -20 0 -6 7 -13 15 -16 8 -3 11 0 7 7 -4 6 -3 11 3 11 5 0 8
9 6 20 -2 11 0 20 6 20 5 0 7 10 4 23 -4 15 -1 28 9 36 9 8 16 23 15 35 0 20
-1 21 -9 1 -9 -22 -13 -13 -10 23 1 12 -2 23 -7 23 -40 6 -74 5 -85 -2z"/>
<path d="M1299 772 c-5 -16 -15 -29 -22 -29 -7 0 -31 -5 -53 -11 -23 -5 -48
-6 -55 -2 -7 5 -19 6 -27 2 -9 -3 -13 -1 -9 4 3 6 -4 10 -16 11 -12 0 -16 -1
-10 -4 10 -3 9 -8 -2 -19 -28 -29 6 -61 48 -45 12 5 67 4 124 -1 85 -8 105 -7
123 5 12 8 29 13 40 10 10 -3 21 0 24 6 4 6 19 11 34 11 15 0 38 3 51 7 22 6
22 6 -10 21 -37 16 -99 22 -99 10 0 -14 -28 -8 -34 7 -8 21 -38 18 -65 -6
l-23 -22 7 23 c5 17 4 21 -6 15 -8 -3 -3 3 10 14 23 21 23 21 2 21 -15 0 -25
-9 -32 -28z"/>
<path d="M6045 292 c-10 -10 -5 -51 9 -64 8 -7 44 -38 81 -68 37 -30 80 -67
96 -83 16 -15 31 -27 35 -27 3 0 19 -11 36 -25 18 -15 42 -25 61 -25 l32 0
-29 15 c-15 8 -32 13 -36 10 -5 -3 -12 0 -16 6 -4 8 -3 9 4 5 22 -13 12 5 -15
31 -16 14 -20 20 -11 14 15 -11 16 -9 9 16 -4 17 -15 29 -27 30 -18 3 -18 2 1
-6 17 -8 17 -10 3 -10 -10 -1 -23 5 -30 13 -9 9 -20 11 -36 5 -24 -9 -25 -8
-36 44 -8 35 -35 62 -83 83 -36 15 -37 16 -15 25 12 4 22 10 22 12 0 7 -48 5
-55 -1z"/>
</g>
</svg>
