<?xml version="1.0" standalone="no"?>
<!DOCTYPE svg PUBLIC "-//W3C//DTD SVG 20010904//EN"
 "http://www.w3.org/TR/2001/REC-SVG-20010904/DTD/svg10.dtd">
<svg version="1.0" xmlns="http://www.w3.org/2000/svg"
 width="300.000000pt" height="300.000000pt" viewBox="0 0 300.000000 300.000000"
 preserveAspectRatio="xMidYMid meet">

<g transform="translate(0.000000,300.000000) scale(0.100000,-0.100000)"
fill="#000000" stroke="none">
<path d="M156 2978 c10 -31 5 -197 -7 -219 -12 -23 -12 -52 1 -44 6 3 7 -1 4
-9 -3 -9 -12 -16 -19 -16 -15 0 -40 -56 -37 -85 2 -15 0 -17 -7 -6 -7 11 -13
7 -25 -17 -8 -16 -27 -39 -41 -51 -21 -15 -26 -27 -23 -53 l3 -32 55 54 c34
34 64 76 79 110 13 30 30 71 38 90 23 54 35 143 20 152 -9 6 -9 8 1 8 6 0 12
11 12 25 0 14 -4 25 -10 25 -5 0 -10 16 -10 35 0 25 -6 37 -21 46 -19 10 -20
9 -13 -13z m-16 -313 c0 -8 -4 -15 -10 -15 -5 0 -7 7 -4 15 4 8 8 15 10 15 2
0 4 -7 4 -15z"/>
<path d="M222 2891 c0 -96 -4 -117 -31 -187 -17 -43 -31 -82 -31 -86 0 -8 -62
-110 -75 -123 -5 -6 -27 -21 -47 -35 l-38 -25 0 -94 c0 -73 3 -91 13 -84 6 5
31 24 54 42 25 19 43 27 43 20 0 -17 25 7 25 24 0 7 8 11 17 9 9 -1 19 2 23 8
3 5 1 10 -6 10 -18 0 4 22 43 43 l33 18 -30 -25 c-16 -14 -25 -26 -19 -26 6 0
33 25 59 55 25 30 53 55 60 55 7 0 15 4 17 9 7 18 283 231 300 231 5 0 -23
-28 -63 -62 -40 -35 -103 -91 -141 -126 -39 -34 -98 -83 -131 -109 -34 -26
-85 -66 -113 -90 -28 -24 -54 -43 -58 -43 -3 0 -20 -12 -38 -27 -17 -16 -45
-40 -61 -54 -17 -14 -28 -31 -26 -38 3 -8 29 7 70 41 36 29 80 64 98 78 18 14
38 30 44 36 33 29 231 186 292 230 93 67 109 75 59 28 -76 -73 -184 -168 -202
-178 -9 -5 -40 -29 -69 -52 -28 -24 -54 -44 -57 -44 -3 0 -14 -8 -24 -17 -11
-10 -62 -54 -115 -97 -54 -44 -97 -86 -97 -94 0 -15 -2 -17 150 104 130 103
144 114 235 188 44 36 122 100 173 142 51 42 95 75 96 73 3 -3 -223 -200 -288
-251 -74 -59 -229 -184 -271 -220 -28 -24 -61 -50 -74 -59 -13 -8 -22 -21 -20
-28 5 -13 167 111 408 312 176 147 301 247 310 247 3 -1 -5 -10 -19 -21 -44
-37 -123 -104 -134 -114 -47 -43 -227 -192 -351 -289 -82 -65 -165 -130 -183
-144 -17 -14 -32 -34 -32 -45 0 -17 5 -15 38 12 34 29 244 200 387 316 34 28
90 75 126 105 99 86 112 91 26 11 -42 -40 -75 -76 -72 -81 3 -4 -1 -7 -8 -6
-7 0 -35 -17 -62 -39 -49 -40 -105 -91 -75 -67 26 19 35 14 15 -8 -9 -10 -25
-18 -35 -17 -19 2 -173 -120 -166 -132 6 -9 -126 -131 -141 -131 -4 0 15 20
42 45 28 24 46 44 40 44 -5 0 -35 -22 -65 -50 -30 -27 -46 -47 -35 -43 19 5
19 5 2 -9 -9 -8 -17 -27 -17 -43 0 -25 6 -32 43 -46 71 -30 171 -133 192 -197
11 -36 -2 -23 -34 33 -33 57 -100 124 -149 150 -44 23 -52 20 -52 -14 0 -28 2
-30 27 -24 23 6 25 4 21 -13 -4 -15 2 -23 26 -32 36 -14 99 -88 92 -108 -3 -7
-1 -13 4 -13 6 0 10 -8 10 -19 0 -11 9 -21 21 -24 17 -5 20 -11 17 -31 -3 -14
-1 -26 3 -26 5 0 9 -9 9 -19 0 -11 5 -23 10 -26 8 -5 7 -11 -1 -21 -9 -11 -9
-18 -1 -26 9 -9 8 -16 -3 -28 -13 -14 -13 -19 -1 -35 13 -18 15 -16 21 27 7
44 3 112 -9 188 -5 29 -3 27 13 -15 27 -69 25 -130 -4 -224 -36 -114 -117
-209 -219 -257 -36 -18 -36 -18 -36 -80 0 -59 1 -62 23 -57 l22 5 -22 -16
c-47 -35 -20 -49 29 -15 16 12 31 19 34 16 8 -8 -26 -37 -43 -37 -9 0 -13 -3
-10 -7 4 -3 -2 -12 -13 -20 -11 -8 -20 -18 -20 -23 0 -12 44 5 80 30 16 11 32
20 37 20 12 -1 -37 -38 -80 -61 -20 -10 -37 -24 -37 -29 0 -13 51 13 113 57
62 44 72 38 12 -7 -46 -34 -56 -46 -31 -37 23 9 12 -23 -15 -44 -28 -22 -46
-25 -30 -6 6 8 7 18 3 22 -4 5 0 6 9 3 9 -4 22 -2 30 4 11 8 10 9 -4 4 -11 -3
-16 -2 -12 4 10 16 -2 12 -39 -12 -26 -17 -33 -29 -32 -50 0 -15 3 -28 7 -28
18 0 178 123 173 132 -4 7 -2 8 5 4 6 -4 19 -2 27 5 8 6 17 9 21 6 3 -3 -11
-16 -32 -28 -28 -17 -36 -27 -33 -44 3 -13 0 -22 -8 -22 -7 0 -10 7 -6 15 7
20 -51 -14 -76 -43 -15 -17 -15 -18 -1 -7 18 14 40 13 52 -3 4 -6 11 -3 18 8
5 9 17 17 24 17 24 0 17 -14 -15 -33 -18 -11 -30 -14 -30 -7 0 6 -5 8 -11 5
-6 -4 -8 -10 -5 -13 4 -3 -4 -16 -16 -29 -12 -13 -17 -23 -11 -23 6 0 16 7 23
15 7 8 18 15 24 15 6 0 -9 -19 -34 -41 -25 -22 -39 -38 -33 -34 7 3 13 2 13
-3 0 -6 -7 -12 -15 -16 -21 -8 -19 -27 3 -20 11 3 8 -2 -7 -13 -14 -10 -34
-26 -45 -36 -21 -18 -21 -18 4 -6 l25 12 -19 -22 c-11 -12 -21 -31 -23 -42 -3
-17 12 -10 79 37 46 32 109 78 141 102 31 25 59 43 62 40 3 -2 -60 -53 -140
-113 -80 -59 -145 -112 -145 -116 0 -8 70 41 267 188 68 51 127 93 132 93 5 0
11 6 14 13 2 6 8 9 12 5 11 -11 -16 -40 -31 -34 -7 3 -14 1 -16 -4 -5 -12
-153 -129 -253 -198 -50 -34 -98 -68 -108 -76 -15 -12 -17 -35 -17 -225 l0
-211 203 0 202 0 101 77 c56 43 152 118 213 168 112 89 171 132 171 122 0 -6
-318 -255 -409 -322 -30 -21 -49 -41 -43 -43 11 -3 173 110 252 177 79 66 215
170 219 166 2 -2 -9 -15 -25 -28 -41 -34 -354 -279 -384 -300 -22 -15 -22 -17
-5 -17 11 0 83 50 160 110 267 209 285 223 290 218 3 -3 -20 -25 -52 -49 -32
-24 -60 -46 -63 -49 -11 -13 -198 -159 -244 -191 -42 -29 -46 -34 -27 -37 25
-4 29 -2 173 110 218 170 268 208 275 208 16 0 -49 -55 -211 -181 -98 -75
-168 -135 -160 -137 15 -4 68 33 204 143 111 90 210 161 210 152 0 -2 -37 -33
-82 -69 -46 -36 -129 -101 -185 -145 l-102 -81 250 -1 251 -2 24 26 c13 14 24
23 24 20 0 -3 10 5 23 18 12 13 54 44 92 69 39 25 78 54 88 66 11 11 25 18 33
15 8 -3 14 1 14 9 0 24 37 40 63 27 37 -19 67 -51 68 -73 0 -12 3 -15 6 -8 8
20 23 14 23 -10 0 -13 -11 -53 -24 -90 l-23 -68 26 0 c23 0 29 8 51 67 17 47
33 71 50 80 28 14 44 7 17 -8 -9 -6 -15 -14 -12 -18 2 -5 -7 -26 -21 -47 -50
-73 -48 -74 86 -74 115 0 119 1 123 23 l4 22 2 -22 c2 -44 27 -22 50 42 23 64
88 176 110 190 6 3 -6 -21 -28 -55 -22 -34 -49 -85 -60 -114 -11 -28 -22 -59
-26 -68 -7 -17 22 -18 514 -18 l521 0 0 488 c0 298 -4 481 -10 472 -8 -12 -10
-12 -16 3 -8 22 3 50 16 42 6 -4 10 16 10 54 0 49 -3 61 -16 61 -8 0 -12 5 -9
10 4 6 11 8 16 5 5 -4 9 57 9 153 0 151 -1 160 -20 165 -13 3 -20 0 -20 -9 0
-8 -4 -14 -10 -14 -5 0 -10 9 -10 20 0 12 -7 32 -16 45 -21 32 -10 32 32 0 40
-31 46 -31 42 -3 -2 16 -15 25 -50 35 -27 7 -48 18 -48 24 0 6 7 8 16 5 12 -5
14 -1 9 15 -5 15 -4 19 4 15 6 -4 11 -13 11 -21 0 -14 21 -25 47 -25 13 0 15
66 11 565 -3 490 -5 567 -18 575 -13 8 -13 12 0 32 16 26 29 295 13 285 -5 -3
-35 -66 -68 -141 -32 -74 -63 -134 -69 -133 -7 1 -10 -16 -9 -43 2 -38 0 -41
-7 -20 -8 19 -9 14 -5 -25 2 -27 7 -93 10 -145 4 -52 8 -105 10 -117 2 -12 0
-35 -4 -50 -6 -22 -10 -9 -19 63 -7 50 -12 114 -12 144 0 29 -2 51 -5 48 -8
-8 -47 -170 -46 -188 3 -40 -1 -75 -9 -85 -5 -7 -6 -16 -2 -20 4 -5 1 -5 -5
-1 -9 5 -13 -1 -14 -21 -1 -15 -5 -3 -10 27 -9 60 -6 77 47 246 36 118 42 164
22 164 -8 0 -9 3 -3 8 6 4 11 14 13 22 2 8 14 24 28 35 13 11 44 66 69 123 50
115 50 112 33 112 -7 0 -23 -19 -36 -41 -13 -22 -26 -38 -29 -36 -3 3 2 16 11
29 34 48 41 47 -370 48 -240 0 -383 -3 -380 -9 4 -5 2 -12 -4 -16 -6 -3 -13 1
-16 9 -5 13 -22 16 -81 16 -56 0 -74 -3 -70 -12 2 -7 1 -22 -3 -33 -6 -17 -8
-15 -14 13 l-8 33 -487 -2 c-370 -1 -491 -4 -504 -14 -9 -6 -13 -16 -9 -20 4
-5 1 -5 -6 -1 -8 5 -23 -2 -39 -18 -14 -14 -30 -23 -36 -19 -5 3 -7 2 -4 -4 4
-5 -5 -16 -18 -23 -27 -14 -33 -30 -12 -30 8 0 7 -3 -3 -10 -9 -5 -19 -5 -27
1 -14 12 -36 2 -27 -12 3 -6 0 -9 -7 -7 -20 4 -139 -83 -474 -347 -55 -43
-107 -83 -115 -89 -18 -13 79 101 110 129 31 28 44 56 99 217 26 79 58 167 69
196 l22 52 -124 0 -123 0 -1 -109z m1965 7 c1 -10 -2 -18 -7 -18 -5 0 -7 -7
-4 -15 4 -8 1 -15 -6 -15 -8 0 -11 10 -7 29 4 17 0 36 -8 47 -23 31 -17 41 8
14 13 -13 24 -33 24 -42z m-342 43 c3 -5 1 -12 -5 -16 -5 -3 -10 1 -10 9 0 18
6 21 15 7z m30 -47 l30 -14 -30 6 c-16 3 -34 6 -39 7 -18 3 -18 -34 0 -54 27
-30 10 -33 -19 -3 -17 17 -27 38 -27 56 0 26 2 28 28 22 15 -4 41 -13 57 -20z
m95 11 c0 -8 -4 -15 -10 -15 -5 0 -7 7 -4 15 4 8 8 15 10 15 2 0 4 -7 4 -15z
m-740 1 c0 -3 -4 -8 -10 -11 -5 -3 -10 -1 -10 4 0 6 5 11 10 11 6 0 10 -2 10
-4z m376 -21 c-16 -14 -36 -25 -44 -25 -18 0 -12 7 25 31 41 26 52 23 19 -6z
m1262 18 c-2 -5 -18 -37 -36 -73 -18 -36 -32 -59 -32 -53 0 20 54 133 63 133
5 0 7 -3 5 -7z m-1318 -13 c0 -5 -5 -10 -11 -10 -5 0 -7 5 -4 10 3 6 8 10 11
10 2 0 4 -4 4 -10z m539 -2 c0 -7 -4 -34 -8 -60 -4 -27 -5 -48 -1 -48 18 0 30
29 30 74 0 54 14 55 15 1 1 -19 4 -38 8 -41 11 -12 8 -24 -6 -24 -9 0 -12 -12
-9 -37 3 -35 2 -37 -12 -19 -9 10 -13 23 -9 29 3 6 2 7 -4 4 -6 -4 -8 -26 -6
-51 3 -24 0 -53 -6 -65 -13 -23 -36 -28 -47 -10 -4 7 0 9 14 5 19 -6 20 -4 16
41 -3 26 -12 55 -20 64 -10 11 -12 19 -5 23 6 4 8 13 4 21 -3 8 0 15 6 15 20
0 12 20 -11 29 l-23 8 23 7 c13 4 22 15 22 27 0 10 7 19 15 19 8 0 15 -6 14
-12z m-96 -13 c-3 -9 -8 -14 -10 -11 -3 3 -2 9 2 15 9 16 15 13 8 -4z m-808
-5 c-3 -5 -11 -10 -16 -10 -6 0 -7 5 -4 10 3 6 11 10 16 10 6 0 7 -4 4 -10z
m-185 -30 c0 -5 -5 -10 -11 -10 -5 0 -7 5 -4 10 3 6 8 10 11 10 2 0 4 -4 4
-10z m524 -11 c-12 -13 -20 -16 -22 -9 -3 7 2 16 9 21 25 16 32 9 13 -12z
m-644 7 c0 -2 -7 -6 -15 -10 -8 -3 -15 -1 -15 4 0 6 7 10 15 10 8 0 15 -2 15
-4z m250 -11 c-7 -9 -15 -13 -19 -10 -3 3 1 10 9 15 21 14 24 12 10 -5z m890
-15 c0 -5 -4 -10 -9 -10 -6 0 -13 5 -16 10 -3 6 1 10 9 10 9 0 16 -4 16 -10z
m821 -13 c-10 -9 -11 -8 -5 6 3 10 9 15 12 12 3 -3 0 -11 -7 -18z m-2111 4 c0
-15 -68 -63 -82 -59 -6 2 8 18 33 36 51 36 49 35 49 23z m95 -1 c-3 -5 -12
-10 -18 -10 -7 0 -6 4 3 10 19 12 23 12 15 0z m238 -28 c-23 -20 -67 -57 -98
-82 -53 -42 -93 -75 -137 -114 -10 -9 -20 -16 -23 -16 -3 0 -38 -28 -78 -63
-40 -34 -83 -70 -96 -80 -14 -9 -23 -19 -20 -21 2 -3 60 40 129 94 68 55 126
97 128 95 3 -2 -11 -17 -29 -32 -18 -15 -45 -39 -59 -51 l-25 -24 35 23 c63
41 142 112 131 118 -6 4 -1 12 12 20 20 13 21 13 8 -2 -20 -25 -5 -21 37 10
20 15 39 28 41 30 2 2 1 6 -2 10 -4 3 -16 -2 -27 -12 -11 -10 -20 -14 -19 -9
0 12 109 97 109 86 0 -6 -7 -13 -16 -16 -9 -4 -14 -9 -11 -12 3 -3 34 15 69
41 l63 48 -51 -49 c-28 -27 -64 -59 -80 -72 -25 -19 -26 -22 -7 -17 20 6 21 4
13 -26 -11 -36 -4 -53 11 -27 6 11 16 15 26 11 10 -4 14 -2 9 5 -3 6 -2 13 4
17 6 4 10 -4 10 -19 0 -19 -7 -27 -33 -35 -18 -6 -40 -20 -50 -31 -23 -27 -3
-26 22 1 11 12 24 18 30 14 7 -4 -2 -23 -25 -51 -22 -27 -34 -50 -30 -59 3 -9
2 -14 -3 -10 -5 3 -11 -1 -14 -7 -3 -8 -9 -3 -15 12 -6 14 -11 19 -11 13 -1
-7 -13 -13 -28 -14 -16 0 -22 -3 -15 -6 10 -4 8 -9 -8 -20 -14 -10 -19 -21
-15 -34 4 -13 2 -19 -8 -19 -8 0 -20 -7 -27 -15 -10 -12 -7 -15 12 -20 18 -5
24 -14 26 -36 2 -19 -2 -28 -10 -27 -7 2 -17 -7 -23 -19 -5 -13 -13 -23 -16
-23 -4 0 -5 10 -2 23 5 18 3 20 -7 10 -11 -10 -20 -8 -46 8 -23 14 -41 18 -61
13 l-28 -6 30 26 c46 39 49 41 70 54 12 7 14 12 6 12 -7 0 -31 -14 -52 -31
-21 -17 -43 -28 -48 -25 -5 3 -11 0 -14 -8 -4 -9 -14 -12 -27 -9 -15 4 -18 9
-11 16 6 6 11 18 11 26 0 8 8 24 18 35 16 20 16 20 0 7 -10 -7 -18 -10 -18 -5
-1 5 -14 -7 -30 -26 -24 -27 -32 -32 -42 -22 -11 11 -8 17 12 33 21 17 22 19
3 10 -12 -6 -25 -16 -28 -21 -10 -16 -25 -12 -19 5 4 8 2 15 -4 15 -5 0 -12
-7 -16 -15 -3 -8 -10 -15 -16 -15 -6 0 -21 -11 -33 -24 -12 -13 -53 -49 -92
-79 -38 -31 -79 -64 -90 -74 -11 -10 -46 -38 -77 -63 -31 -25 -57 -51 -58 -57
0 -7 -6 -13 -14 -13 -7 0 -33 -19 -57 -41 -53 -50 -129 -103 -129 -91 0 5 26
31 58 58 169 142 241 207 237 214 -3 4 3 14 13 21 15 13 16 12 3 -3 -19 -25
-1 -22 30 5 14 12 76 64 138 116 62 51 109 96 106 99 -3 3 -21 -10 -40 -28
-19 -18 -37 -31 -40 -28 -5 4 126 118 165 143 18 11 -4 -10 -51 -49 -17 -15
-29 -30 -25 -33 3 -3 29 14 58 38 29 25 71 58 92 74 60 46 146 113 246 193 98
77 132 96 63 34z m927 17 c0 -5 -4 -9 -10 -9 -5 0 -10 7 -10 16 0 8 5 12 10 9
6 -3 10 -10 10 -16z m-239 -36 c-9 -16 -10 -16 -11 -1 0 9 3 25 7 35 7 16 8
17 11 1 2 -10 -1 -25 -7 -35z m-551 33 c0 -3 -4 -8 -10 -11 -5 -3 -10 -1 -10
4 0 6 5 11 10 11 6 0 10 -2 10 -4z m-340 -16 c0 -5 -5 -10 -11 -10 -5 0 -7 5
-4 10 3 6 8 10 11 10 2 0 4 -4 4 -10z m1081 -16 l24 -27 -27 7 c-29 7 -101
-21 -92 -36 3 -4 -2 -5 -11 -2 -12 5 -13 10 -4 20 6 7 8 18 4 24 -3 5 -3 10 2
10 4 0 19 3 32 7 17 4 22 3 17 -5 -4 -7 -2 -12 5 -12 6 0 9 8 6 20 -7 28 15
25 44 -6z m209 5 c-7 -11 -14 -18 -17 -15 -8 8 5 36 17 36 7 0 7 -6 0 -21z
m-823 -11 c-3 -8 -6 -5 -6 6 -1 11 2 17 5 13 3 -3 4 -12 1 -19z m-33 4 c6 -9
-63 -37 -71 -29 -5 5 45 36 59 37 4 0 9 -4 12 -8z m370 -7 c-4 -8 -11 -15 -16
-15 -6 0 -5 6 2 15 7 8 14 15 16 15 2 0 1 -7 -2 -15z m-499 -6 c10 -15 -1 -23
-20 -15 -9 3 -13 10 -10 16 8 13 22 13 30 -1z m327 -21 c-16 -17 -25 -19 -33
-11 -16 16 -3 32 21 26 12 -3 20 0 20 8 0 7 3 9 7 5 4 -3 -3 -16 -15 -28z
m509 10 c-4 -12 -14 -24 -22 -27 -12 -4 -12 -2 -1 12 8 9 11 21 7 27 -3 5 1
10 9 10 12 0 13 -5 7 -22z m-1071 8 c0 -2 -8 -10 -17 -17 -16 -13 -17 -12 -4
4 13 16 21 21 21 13z m627 -18 c-3 -8 -6 -5 -6 6 -1 11 2 17 5 13 3 -3 4 -12
1 -19z m227 -16 c-21 -5 -26 2 -18 22 6 15 7 15 20 -1 11 -15 10 -19 -2 -21z
m-244 8 c0 -11 -2 -20 -4 -20 -2 0 -6 9 -9 20 -3 11 -1 20 4 20 5 0 9 -9 9
-20z m60 10 c0 -5 -4 -10 -10 -10 -5 0 -10 5 -10 10 0 6 5 10 10 10 6 0 10 -4
10 -10z m560 -6 c0 -8 -4 -12 -10 -9 -5 3 -10 10 -10 16 0 5 5 9 10 9 6 0 10
-7 10 -16z m-1032 -3 c11 -6 8 -14 -14 -35 -16 -14 -33 -26 -38 -26 -5 0 3 11
18 25 31 28 34 40 7 25 -29 -15 -39 -12 -17 5 23 17 26 18 44 6z m552 -1 c0
-5 -5 -10 -11 -10 -5 0 -7 5 -4 10 3 6 8 10 11 10 2 0 4 -4 4 -10z m45 0 c-3
-5 -16 -15 -28 -21 -19 -9 -19 -8 3 10 28 23 34 26 25 11z m1165 -15 c0 -14
-4 -25 -10 -25 -11 0 -14 33 -3 43 11 11 13 8 13 -18z m-778 -7 c-7 -7 -12 -8
-12 -2 0 14 12 26 19 19 2 -3 -1 -11 -7 -17z m-1352 8 c0 -2 -7 -7 -16 -10 -8
-3 -12 -2 -9 4 6 10 25 14 25 6z m606 -21 c10 -14 25 -25 33 -25 29 0 -5 -21
-75 -45 -74 -26 -94 -30 -94 -17 0 5 24 16 54 25 57 18 72 37 56 68 -15 28 4
23 26 -6z m224 9 c0 -8 -5 -12 -10 -9 -6 4 -8 11 -5 16 9 14 15 11 15 -7z
m703 1 c4 -8 2 -17 -3 -20 -6 -4 -10 3 -10 14 0 25 6 27 13 6z m-1123 1 c0 -3
-4 -8 -10 -11 -5 -3 -10 -1 -10 4 0 6 5 11 10 11 6 0 10 -2 10 -4z m295 -6
c-3 -5 -14 -10 -23 -9 -14 0 -13 2 3 9 27 11 27 11 20 0z m575 1 c0 -5 -9 -7
-20 -4 -11 3 -20 7 -20 9 0 2 9 4 20 4 11 0 20 -4 20 -9z m-290 -11 c18 -11 6
-25 -32 -34 -17 -4 -28 -2 -31 7 -3 9 -7 9 -20 -2 -11 -9 -14 -18 -8 -30 18
-35 30 -151 26 -256 -2 -60 -5 -117 -5 -125 0 -13 -1 -13 -10 0 -17 26 -12
-10 5 -44 8 -15 15 -37 15 -47 0 -35 18 -28 23 10 6 51 57 162 69 155 6 -4 14
0 19 7 6 9 9 10 9 2 0 -6 -4 -15 -10 -18 -10 -6 -42 -73 -71 -149 -13 -34 -17
-62 -13 -88 5 -30 3 -38 -8 -38 -8 0 -19 14 -24 32 -8 27 -11 30 -24 17 -51
-49 -137 -105 -147 -95 -7 7 53 83 95 119 35 31 39 48 19 69 -8 7 -17 26 -21
42 -5 22 -10 26 -19 17 -20 -20 -30 -11 -11 11 17 19 17 21 1 15 -14 -5 -16
-2 -11 18 4 16 0 35 -11 51 l-17 26 -12 -23 c-10 -21 -9 -25 6 -31 23 -9 23
-37 1 -54 -10 -7 -18 -21 -18 -31 0 -10 -7 -18 -15 -18 -8 0 -14 -9 -14 -18 1
-10 -1 -16 -4 -13 -9 10 -31 -15 -26 -29 3 -7 0 -24 -6 -37 -11 -22 -10 -22 4
-4 15 18 21 15 17 -8 -1 -4 4 -15 10 -23 7 -8 8 -13 3 -11 -5 1 -20 -4 -33
-11 -21 -12 -26 -11 -38 5 -7 10 -13 22 -13 27 0 5 -12 20 -27 33 -22 19 -24
25 -14 38 7 8 22 16 33 18 12 2 23 9 26 15 2 9 -5 11 -26 7 -16 -3 -39 -1 -51
5 -22 12 -29 41 -10 41 8 0 8 4 -1 14 -6 8 -10 31 -9 50 4 38 -7 58 -17 32 -3
-9 -12 -16 -20 -16 -8 0 -14 -7 -14 -15 0 -8 4 -15 8 -15 5 0 14 -12 21 -27
11 -28 11 -28 -7 -8 -20 23 -67 52 -57 36 8 -13 -5 -14 -25 -1 -23 14 19 65
53 65 39 -1 22 9 -36 20 -29 6 -50 15 -47 20 3 6 8 9 11 8 4 -1 23 -3 43 -5
20 -1 36 -6 36 -10 0 -14 73 3 102 23 14 11 33 19 42 19 11 0 16 9 16 27 0 26
0 26 -17 6 -14 -15 -23 -18 -41 -12 -12 5 -33 4 -47 -1 -14 -5 -32 -7 -40 -4
-9 4 -15 0 -15 -9 0 -10 -12 -15 -45 -15 -25 -1 -45 3 -45 8 0 6 11 10 25 10
22 0 24 2 13 24 -15 35 -4 59 24 50 13 -4 26 -12 30 -18 5 -7 8 -4 8 7 0 10 8
17 20 17 11 0 20 -4 20 -10 0 -5 -5 -10 -12 -10 -9 0 -9 -3 0 -12 10 -10 17
-10 33 0 12 8 19 10 16 5 -3 -5 -2 -15 4 -23 5 -8 9 -10 9 -5 0 6 16 19 35 29
32 18 33 20 20 40 -8 11 -15 24 -15 28 0 10 30 10 31 1 1 -5 3 -24 5 -43 5
-45 11 -60 23 -60 6 0 8 6 5 14 -3 8 -1 17 5 21 6 3 11 2 11 -3 0 -5 9 -12 21
-15 l20 -5 -20 34 c-25 42 -27 62 -5 43 31 -26 79 -106 116 -194 36 -88 37
-89 39 -50 5 104 4 121 -5 134 -8 10 -8 15 2 18 19 7 14 23 -10 33 -18 7 -19
9 -5 9 9 1 17 9 17 19 0 20 -20 54 -20 35 0 -7 -5 -13 -11 -13 -6 0 -9 8 -7
18 3 11 -8 25 -31 39 -20 13 -30 23 -22 23 7 0 22 11 32 24 16 21 77 41 116
39 7 0 10 3 7 8 -7 12 7 11 26 -1z m-1110 -9 c0 -5 -7 -12 -16 -15 -14 -5 -15
-4 -4 9 14 17 20 19 20 6z m190 -12 c-14 -11 -33 -24 -44 -30 -32 -19 -7 11
28 32 40 25 48 24 16 -2z m1364 5 c3 -9 2 -12 -5 -9 -6 4 -9 -3 -8 -17 1 -12
1 -32 0 -43 -1 -17 -3 -18 -11 -5 -14 22 -12 77 3 83 6 3 13 6 13 6 1 1 5 -6
8 -15z m155 -63 c2 -53 -9 -30 -14 30 -3 38 -2 47 4 29 5 -14 9 -40 10 -59z
m-481 51 c2 -7 -6 -12 -18 -12 -12 0 -19 4 -16 9 4 5 0 12 -6 15 -7 2 -2 3 11
2 14 -2 27 -8 29 -14z m499 -19 c-3 -10 -5 -4 -5 12 0 17 2 24 5 18 2 -7 2
-21 0 -30z m375 -63 c-19 -56 -37 -99 -39 -96 -8 8 59 196 70 196 2 0 -12 -45
-31 -100z m-1992 80 c0 -5 -5 -10 -11 -10 -5 0 -7 5 -4 10 3 6 8 10 11 10 2 0
4 -4 4 -10z m1234 -19 c3 -5 -1 -14 -9 -21 -12 -10 -15 -9 -15 4 0 9 -4 16
-10 16 -5 0 -10 7 -10 15 0 12 4 14 19 5 11 -5 22 -14 25 -19z m302 -4 c-3
-12 -5 -25 -5 -29 -1 -5 -7 -8 -15 -8 -10 0 -11 7 -2 34 11 37 28 39 22 3z
m-741 -37 c24 -47 36 -94 14 -57 -5 9 -20 17 -32 17 -16 0 -19 3 -8 9 7 5 10
14 6 20 -5 9 -10 9 -21 0 -11 -9 -14 -8 -14 5 0 9 7 16 16 16 11 0 15 6 11 20
-9 33 1 23 28 -30z m1312 28 c-3 -8 -6 -5 -6 6 -1 11 2 17 5 13 3 -3 4 -12 1
-19z m-1074 -35 c-9 -106 -67 -303 -88 -303 -11 0 8 147 25 204 11 33 17 62
15 64 -2 3 4 17 15 32 11 16 20 33 20 39 0 6 4 11 9 11 5 0 7 -21 4 -47z m152
37 c3 -5 -3 -10 -15 -10 -12 0 -18 5 -15 10 3 6 10 10 15 10 5 0 12 -4 15 -10z
m-1185 -15 c-21 -25 -93 -80 -89 -68 4 10 88 81 98 82 2 1 -2 -6 -9 -14z m622
-15 c-31 -29 -60 -41 -47 -20 3 6 12 10 18 10 7 0 20 9 30 20 9 11 20 20 24
20 5 0 -7 -14 -25 -30z m361 -1 c5 -4 0 -10 -13 -14 -32 -10 -50 11 -24 29 14
11 20 11 23 3 2 -7 8 -15 14 -18z m-542 4 c-5 -10 -10 -22 -11 -28 -1 -5 -8
-9 -16 -7 -8 2 -14 -2 -14 -8 0 -5 10 -10 23 -10 19 -1 20 -2 5 -11 -14 -8
-37 -8 -77 0 -8 2 32 41 41 41 5 0 18 9 30 20 27 25 32 25 19 3z m289 -2 c0
-16 -18 -22 -26 -10 -4 8 -9 7 -15 -2 -4 -7 -11 -10 -16 -6 -4 5 -1 12 7 17
19 13 50 13 50 1z m115 -31 c3 -5 1 -10 -4 -10 -6 0 -11 5 -11 10 0 6 2 10 4
10 3 0 8 -4 11 -10z m-201 -16 c9 -24 7 -28 -9 -14 -17 14 -20 30 -6 30 5 0
12 -7 15 -16z m811 6 c3 -5 1 -10 -4 -10 -6 0 -11 5 -11 10 0 6 2 10 4 10 3 0
8 -4 11 -10z m-1077 -47 c-5 -32 -22 -42 -36 -22 -7 10 -19 16 -27 13 -8 -4
-15 -1 -15 4 0 6 17 13 38 15 20 2 38 4 40 5 2 1 2 -6 0 -15z m766 -4 c-4 -8
1 -9 16 -4 19 6 21 4 15 -14 -4 -12 -2 -21 4 -21 6 0 11 -4 11 -10 0 -18 -29
-11 -42 10 -7 11 -19 20 -27 20 -11 0 -11 3 -1 15 14 17 35 21 24 4z m139 -14
c10 -14 14 -25 10 -25 -14 1 -43 27 -43 39 0 18 14 12 33 -14z m247 15 c0 -5
-4 -10 -10 -10 -5 0 -10 5 -10 10 0 6 5 10 10 10 6 0 10 -4 10 -10z m40 1 c0
-6 -4 -13 -10 -16 -5 -3 -10 -15 -10 -26 0 -10 -4 -19 -10 -19 -13 0 -13 13 2
45 11 25 28 34 28 16z m-350 -20 c0 -5 3 -16 6 -25 3 -9 1 -16 -6 -16 -6 0 -9
4 -6 9 3 5 -1 11 -9 15 -19 7 -19 26 0 26 8 0 15 -4 15 -9z m-70 -51 c0 -11 5
-20 10 -20 6 0 10 -8 10 -17 0 -15 -4 -13 -20 7 -21 27 -26 50 -10 50 6 0 10
-9 10 -20z m156 4 c-3 -9 -6 -19 -6 -23 0 -4 -9 -7 -20 -8 -20 -2 -20 6 3 35
14 17 30 15 23 -4z m-891 -4 c3 -5 2 -10 -4 -10 -5 0 -13 5 -16 10 -3 6 -2 10
4 10 5 0 13 -4 16 -10z m1160 0 c3 -5 1 -10 -4 -10 -6 0 -11 5 -11 10 0 6 2
10 4 10 3 0 8 -4 11 -10z m115 -17 c0 -20 -3 -24 -9 -14 -6 9 -11 10 -15 2 -9
-13 3 -53 17 -63 7 -4 6 -12 -2 -22 -7 -9 -17 -13 -22 -10 -14 8 -11 122 4
127 23 10 27 7 27 -20z m-1373 11 c-3 -3 -12 -4 -19 -1 -8 3 -5 6 6 6 11 1 17
-2 13 -5z m293 -2 c0 -25 -61 -45 -74 -23 -9 14 6 22 20 10 9 -7 16 -6 26 5
14 17 28 21 28 8z m-260 -43 c0 -5 -7 -9 -15 -9 -10 0 -14 -9 -13 -25 1 -14 6
-25 11 -25 4 0 5 -5 1 -12 -4 -6 0 -16 8 -22 8 -6 18 -21 22 -32 6 -18 3 -21
-20 -21 -15 0 -33 -8 -39 -17 -7 -9 -16 -16 -20 -16 -5 0 0 9 10 20 10 11 24
20 32 20 7 0 13 7 13 15 0 8 -4 15 -10 15 -5 0 -10 9 -10 20 0 11 -5 20 -11
20 -5 0 -8 4 -5 9 4 5 2 11 -3 13 -5 1 -12 18 -16 35 -5 27 -4 32 8 27 8 -3
18 0 22 6 7 12 35 -5 35 -21z m1170 -11 c0 -5 -7 -8 -15 -8 -15 0 -20 21 -8
33 7 7 23 -11 23 -25z m-1691 -14 c-7 -9 -47 -44 -89 -77 -41 -34 -104 -86
-140 -117 -76 -66 -142 -114 -121 -87 8 10 57 53 110 95 53 42 127 105 165
140 65 58 106 83 75 46z m-129 -34 c-25 -22 -49 -40 -55 -40 -5 0 10 18 35 40
25 21 50 39 55 39 6 0 -10 -17 -35 -39z m145 15 c-29 -24 -29 -25 -7 -25 21 0
23 -3 16 -32 -3 -18 -15 -39 -25 -46 -11 -7 -19 -20 -19 -28 0 -8 -4 -14 -10
-14 -5 0 -10 -10 -10 -22 -1 -28 -22 -58 -42 -58 -8 0 -23 9 -33 20 -10 12
-25 18 -32 16 -17 -7 -17 16 0 34 8 9 4 9 -13 -2 -14 -9 -24 -23 -22 -31 3
-19 -24 -41 -43 -33 -9 3 -28 -6 -46 -24 -17 -16 -36 -31 -42 -33 -6 -2 -7 -9
-3 -15 9 -15 46 -16 46 -2 0 13 11 13 30 0 12 -8 13 -11 1 -19 -25 -16 6 -21
38 -5 24 12 31 22 31 44 0 26 2 27 25 17 14 -7 25 -15 25 -18 0 -3 -23 -20
-50 -38 -40 -26 -49 -37 -45 -52 4 -13 2 -19 -8 -19 -9 0 -17 -5 -19 -11 -4
-11 -78 -31 -78 -21 0 3 12 19 28 35 l27 30 -32 -23 c-18 -13 -33 -27 -33 -32
0 -4 -9 -8 -20 -8 -11 0 -20 -4 -20 -10 0 -15 -17 -12 -23 4 -4 10 -1 13 9 9
7 -3 14 0 14 6 0 6 -5 11 -11 11 -6 0 -9 6 -6 13 3 7 -5 13 -20 13 -16 1 -23
-2 -19 -11 3 -8 -3 -19 -12 -27 -15 -12 -16 -11 -3 5 21 27 3 20 -43 -15 -65
-51 -22 -6 56 59 39 32 117 97 175 145 57 49 112 92 122 97 9 5 47 39 84 75
37 36 73 66 80 66 6 -1 -1 -12 -18 -25z m536 11 c-6 -7 -9 -21 -5 -30 4 -11 1
-16 -10 -16 -19 0 -21 31 -4 48 17 17 33 15 19 -2z m69 0 c0 -3 -4 -8 -10 -11
-5 -3 -10 -1 -10 4 0 6 5 11 10 11 6 0 10 -2 10 -4z m1102 -38 c-7 -7 -12 -8
-12 -2 0 6 3 14 7 17 3 4 9 5 12 2 2 -3 -1 -11 -7 -17z m519 -10 c39 -46 79
-138 60 -138 -11 0 -52 65 -76 123 -17 42 -12 47 16 15z m-2091 -17 c0 -10 7
-25 16 -32 12 -9 15 -24 11 -51 -3 -21 -1 -53 5 -71 6 -19 6 -55 1 -91 -7 -54
-10 -59 -35 -62 -31 -3 -58 18 -58 44 0 15 -2 15 -10 2 -9 -13 -11 -13 -20 0
-7 11 -5 16 5 18 8 2 15 10 15 18 0 8 5 23 12 34 14 22 4 38 -14 23 -9 -8 -18
-5 -31 7 -14 14 -15 19 -4 23 8 3 17 19 20 36 6 28 9 30 32 21 20 -8 27 -6 35
10 12 23 13 50 1 50 -15 0 -22 33 -9 41 16 10 28 2 28 -20z m1249 8 c-16 -10
-23 -4 -14 10 3 6 11 8 17 5 6 -4 5 -9 -3 -15z m81 11 c0 -5 -5 -10 -11 -10
-5 0 -7 5 -4 10 3 6 8 10 11 10 2 0 4 -4 4 -10z m397 -31 c-3 -12 0 -22 9 -26
27 -10 11 -83 -18 -83 -15 0 -8 29 10 39 16 10 16 10 0 11 -14 0 -18 9 -18 40
0 23 5 40 11 40 7 0 9 -9 6 -21z m-1416 -3 c5 3 9 1 9 -4 0 -11 -64 -62 -77
-62 -4 0 6 12 24 25 18 14 31 31 29 38 -1 7 -1 9 1 4 3 -4 9 -5 14 -1z m-406
-6 c3 -5 2 -10 -4 -10 -5 0 -13 5 -16 10 -3 6 -2 10 4 10 5 0 13 -4 16 -10z
m565 -9 c15 -29 12 -33 -10 -14 -21 19 -26 33 -10 33 5 0 14 -9 20 -19z m740
16 c0 -2 -12 -14 -26 -28 -25 -22 -26 -23 -15 -2 9 18 19 26 39 32 1 1 2 0 2
-2z m398 -19 c11 -13 24 -35 27 -50 7 -28 -13 -128 -26 -128 -7 0 -2 105 5
127 3 6 -2 17 -10 24 -20 16 -37 49 -26 49 5 0 18 -10 30 -22z m447 -128 c28
-160 31 -200 14 -183 -6 6 -17 53 -24 104 -15 104 -25 233 -19 226 3 -3 16
-69 29 -147z m-1075 95 c-6 -15 -13 -26 -16 -23 -2 3 0 18 6 33 6 15 13 26 16
23 2 -3 0 -18 -6 -33z m-529 4 c-8 -27 -1 -62 15 -73 9 -7 12 -18 8 -29 -7
-19 -26 -23 -22 -4 4 23 -13 56 -33 62 -10 4 -19 11 -19 16 0 5 -7 9 -16 9
-24 0 1 28 29 33 31 6 43 2 38 -14z m79 12 c0 -6 -4 -13 -10 -16 -5 -3 -10 1
-10 9 0 9 5 16 10 16 6 0 10 -4 10 -9z m1724 -87 c-5 -49 -10 -80 -12 -70 -5
23 8 169 15 163 2 -3 1 -45 -3 -93z m-165 -18 c12 -57 21 -122 19 -143 -2 -27
-8 -6 -21 77 -10 63 -21 127 -24 143 -3 15 -3 27 -1 27 3 0 15 -47 27 -104z
m-2019 74 c0 -5 -5 -10 -11 -10 -5 0 -7 5 -4 10 3 6 8 10 11 10 2 0 4 -4 4
-10z m788 -13 c-9 -6 -20 -21 -26 -32 -11 -20 -11 -19 -12 2 0 12 10 29 22 37
25 18 39 12 16 -7z m266 -22 c-20 -25 -39 -43 -42 -40 -5 5 67 85 76 85 2 0
-13 -20 -34 -45z m-1569 26 c-3 -5 -24 -24 -48 -41 l-42 -32 44 41 c42 40 58
51 46 32z m650 -19 c17 -15 39 -31 49 -35 15 -6 17 -10 8 -19 -18 -18 -14 -32
5 -17 13 11 17 11 20 2 3 -7 9 -13 14 -13 6 0 27 -16 47 -35 20 -19 56 -51 80
-72 41 -36 43 -40 33 -68 l-11 -30 19 23 c21 24 32 28 29 10 -2 -7 11 -15 27
-18 20 -4 30 -11 29 -23 -1 -13 4 -15 22 -11 15 4 24 2 24 -5 0 -6 7 -11 15
-11 8 0 15 -4 15 -9 0 -4 11 -20 25 -35 14 -15 25 -34 25 -42 0 -8 5 -12 10
-9 15 9 49 -4 59 -24 9 -17 4 -34 -38 -120 -14 -31 -44 -56 -40 -34 4 21 -2
44 -10 39 -5 -3 -9 -22 -9 -42 0 -20 -5 -41 -11 -47 -8 -8 -11 -7 -11 5 0 9
-5 20 -11 24 -9 5 -10 -1 -5 -19 5 -20 2 -29 -13 -37 -30 -16 -40 -13 -73 23
-41 44 -58 87 -51 129 4 30 0 41 -25 69 -22 25 -34 31 -42 23 -6 -6 -8 -19 -4
-28 5 -13 9 -14 14 -6 4 7 13 9 19 6 14 -9 14 -63 0 -68 -12 -4 26 -75 51 -95
9 -7 10 -12 4 -13 -7 0 -25 15 -42 34 -16 19 -38 36 -48 38 -10 2 -21 14 -24
28 -4 14 -12 24 -19 22 -7 -1 -9 6 -5 22 6 25 4 26 -58 42 -22 5 -22 5 -4 -10
11 -9 16 -19 13 -23 -9 -8 -117 66 -117 80 0 6 -3 7 -7 4 -3 -4 -30 18 -59 48
-28 30 -57 55 -63 55 -12 0 33 67 54 82 12 9 49 -58 40 -72 -3 -6 1 -7 10 -4
10 4 12 10 7 18 -17 21 -21 58 -10 85 10 26 11 25 23 -20 15 -55 27 -78 40
-76 6 1 15 -11 20 -28 l10 -30 23 21 c13 13 20 28 16 37 -3 8 2 26 10 39 9 14
13 28 9 31 -11 12 -41 8 -46 -5 -3 -7 -6 3 -6 23 -1 23 -7 39 -16 43 -8 3 -15
0 -15 -7 0 -6 -7 -1 -16 11 -9 13 -13 26 -9 30 3 3 11 0 16 -8 8 -12 10 -11 8
5 -1 11 1 28 6 38 4 11 3 23 -3 29 -11 11 -19 1 -26 -34 -2 -7 -6 -21 -10 -30
-8 -18 9 -58 24 -58 6 0 10 -4 10 -8 0 -4 -9 -8 -19 -8 -11 0 -17 5 -14 10 3
5 -1 14 -9 20 -28 21 -48 60 -38 76 8 13 12 12 25 -5 14 -17 16 -17 11 -2 -3
9 -1 28 3 40 8 19 5 27 -15 42 -13 9 -21 21 -18 26 8 14 17 11 49 -19z m358
16 c13 -11 14 -16 3 -30 -12 -17 -14 -17 -31 1 -27 31 -5 53 28 29z m-73 -8
c0 -5 -7 -7 -15 -4 -8 4 -15 8 -15 10 0 2 7 4 15 4 8 0 15 -4 15 -10z m595 1
c3 -6 -5 -15 -17 -22 -20 -11 -21 -10 -11 3 7 8 10 18 6 21 -3 4 -1 7 5 7 6 0
13 -4 17 -9z m-760 -21 c-10 -11 -23 -20 -28 -20 -6 0 -2 9 8 20 10 11 23 20
28 20 6 0 2 -9 -8 -20z m-195 -16 c0 -8 -4 -14 -10 -14 -5 0 -10 9 -10 21 0
11 5 17 10 14 6 -3 10 -13 10 -21z m270 16 c0 -5 -4 -10 -10 -10 -5 0 -10 5
-10 10 0 6 5 10 10 10 6 0 10 -4 10 -10z m120 0 c0 -5 -4 -10 -10 -10 -5 0
-10 5 -10 10 0 6 5 10 10 10 6 0 10 -4 10 -10z m-347 -20 c3 -11 1 -23 -4 -26
-5 -3 -9 6 -9 20 0 31 6 34 13 6z m409 -2 c-7 -7 -12 -8 -12 -2 0 6 3 14 7 17
3 4 9 5 12 2 2 -3 -1 -11 -7 -17z m298 6 c0 -8 -4 -12 -10 -9 -5 3 -10 10 -10
16 0 5 5 9 10 9 6 0 10 -7 10 -16z m1144 -104 c4 -63 14 -166 22 -228 9 -63
13 -116 10 -119 -8 -8 -13 11 -25 102 -6 44 -16 105 -21 137 -6 31 -8 71 -6
90 3 18 5 57 5 87 1 87 8 55 15 -69z m-1234 90 c-8 -5 -17 -7 -19 -4 -3 3 1 9
9 14 8 5 17 7 19 4 3 -3 -1 -9 -9 -14z m-440 -5 c-7 -9 -15 -13 -17 -11 -7 7
7 26 19 26 6 0 6 -6 -2 -15z m213 -14 c18 -20 25 -35 20 -47 -6 -16 -7 -15
-14 3 -4 11 -16 23 -27 25 -15 4 -19 2 -15 -8 3 -8 9 -14 14 -14 5 0 9 -7 9
-15 0 -8 5 -15 10 -15 6 0 10 -8 10 -17 -1 -13 -10 -7 -34 21 -30 35 -33 43
-24 68 12 35 17 35 51 -1z m-846 -3 c-3 -8 -6 -5 -6 6 -1 11 2 17 5 13 3 -3 4
-12 1 -19z m1343 18 c0 -3 -4 -8 -10 -11 -5 -3 -10 -1 -10 4 0 6 5 11 10 11 6
0 10 -2 10 -4z m-1169 -19 c-1 -12 -15 -9 -19 4 -3 6 1 10 8 8 6 -3 11 -8 11
-12z m-231 -11 c0 -3 -4 -8 -10 -11 -5 -3 -10 -1 -10 4 0 6 5 11 10 11 6 0 10
-2 10 -4z m138 -14 c6 -18 -15 -14 -22 4 -4 10 -1 14 6 12 6 -2 14 -10 16 -16z
m58 -19 c-5 -12 -10 -13 -18 -5 -8 8 -8 15 3 28 15 18 25 4 15 -23z m1235 -10
c-12 -20 -14 -14 -5 12 4 9 9 14 11 11 3 -2 0 -13 -6 -23z m-1431 3 c0 -2 -7
-7 -16 -10 -8 -3 -12 -2 -9 4 6 10 25 14 25 6z m450 -40 l-22 -21 18 35 c10
21 19 30 22 21 2 -7 -6 -23 -18 -35z m667 22 c-3 -8 -6 -5 -6 6 -1 11 2 17 5
13 3 -3 4 -12 1 -19z m-1369 -53 c-34 -30 -66 -55 -71 -55 -9 0 115 108 126
109 5 1 -20 -24 -55 -54z m338 7 c-22 -5 -30 3 -21 18 5 8 11 7 22 -2 15 -12
14 -13 -1 -16z m1162 16 c-3 -7 -13 -15 -24 -17 -10 -2 -22 -8 -26 -14 -4 -6
-10 -8 -14 -4 -9 9 27 37 38 31 5 -3 8 0 8 5 0 6 5 11 11 11 6 0 9 -6 7 -12z
m-328 -12 c0 -3 -4 -8 -10 -11 -5 -3 -10 -1 -10 4 0 6 5 11 10 11 6 0 10 -2
10 -4z m100 -22 c0 -8 -4 -12 -10 -9 -5 3 -10 10 -10 16 0 5 5 9 10 9 6 0 10
-7 10 -16z m370 6 c0 -5 -5 -10 -11 -10 -5 0 -7 5 -4 10 3 6 8 10 11 10 2 0 4
-4 4 -10z m-1154 -20 c8 0 28 -14 45 -31 24 -24 28 -34 18 -45 -15 -19 -50
-19 -43 0 9 23 -14 28 -26 6 -6 -11 -15 -20 -21 -20 -6 0 -29 -13 -52 -28 -60
-41 -71 -47 -64 -35 4 6 -3 11 -17 11 -18 0 -23 -5 -19 -17 4 -14 3 -14 -6 -1
-12 18 15 54 36 46 7 -3 12 0 10 6 -1 7 7 14 18 16 11 2 33 15 49 29 16 13 35
22 42 19 8 -3 14 1 14 9 0 18 -12 19 -29 3 -11 -10 -14 -10 -18 0 -8 20 -22
14 -18 -8 4 -21 -9 -27 -20 -10 -3 6 -1 10 6 10 7 0 9 3 6 7 -4 3 0 15 9 25
12 13 21 15 29 8 9 -8 15 -5 20 7 5 12 9 14 12 6 3 -7 11 -13 19 -13z m646 -2
c-7 -7 -12 -8 -12 -2 0 14 12 26 19 19 2 -3 -1 -11 -7 -17z m1038 12 c0 -5 -5
-10 -11 -10 -5 0 -7 5 -4 10 3 6 8 10 11 10 2 0 4 -4 4 -10z m-1790 -15 c0 -8
-6 -15 -12 -15 -9 0 -10 -2 -2 -8 20 -12 -3 -51 -40 -66 -19 -8 -43 -23 -53
-33 -10 -10 -28 -24 -38 -32 -11 -8 1 7 27 33 26 26 42 46 35 45 -26 -3 -35 2
-33 19 2 24 31 43 53 35 10 -3 15 -2 11 2 -5 5 2 14 15 21 30 17 37 16 37 -1z
m800 0 c-7 -9 -15 -13 -17 -11 -7 7 7 26 19 26 6 0 6 -6 -2 -15z m60 8 c0 -11
-12 -26 -35 -43 -20 -15 -20 -14 -1 8 11 12 16 22 12 22 -4 0 -4 5 -1 10 7 12
25 13 25 3z m-417 -34 c-9 -9 -12 -7 -10 9 1 14 5 18 11 12 7 -7 6 -14 -1 -21z
m687 7 c0 -2 -7 -9 -15 -16 -12 -10 -15 -10 -15 4 0 9 7 16 15 16 8 0 15 -2
15 -4z m-1480 -15 c0 -5 -7 -12 -16 -15 -14 -5 -15 -4 -4 9 14 17 20 19 20 6z
m834 -23 c-9 -31 -14 -35 -24 -18 -5 9 -5 19 2 27 17 21 30 15 22 -9z m1823
-89 c30 -87 36 -116 35 -181 -1 -42 -6 -87 -11 -100 -9 -21 -10 -21 -12 12 -4
55 1 94 12 101 7 4 4 20 -10 45 l-20 39 -2 -60 c-2 -33 -3 -78 -4 -100 0 -22
-2 -74 -3 -115 -2 -61 -5 -71 -14 -56 -14 25 -5 281 12 317 9 20 8 41 -9 108
-36 143 -26 139 26 -10z m-2479 89 c-16 -5 -28 -14 -28 -19 0 -14 -24 -11 -46
7 -18 15 -18 15 9 11 15 -2 29 -1 31 2 3 4 17 7 33 8 l28 2 -27 -11z m432 -35
c0 -8 -38 17 -51 33 -9 11 -2 9 19 -6 17 -13 32 -25 32 -27z m618 26 c3 -12 2
-12 -6 0 -9 13 -13 13 -29 0 -17 -13 -17 -13 -4 4 16 20 33 18 39 -4z m-1008
-9 c0 -5 -4 -10 -10 -10 -5 0 -10 5 -10 10 0 6 5 10 10 10 6 0 10 -4 10 -10z
m1062 -28 c-7 -2 -10 -8 -6 -13 9 -15 -3 -10 -17 8 -10 11 -10 14 -1 9 8 -5
12 0 12 16 1 22 1 22 12 4 8 -15 8 -21 0 -24z m188 28 c0 -5 -4 -10 -10 -10
-5 0 -10 5 -10 10 0 6 5 10 10 10 6 0 10 -4 10 -10z m-42 -20 c-7 -11 -16 -20
-20 -20 -11 0 -10 9 5 25 18 21 29 18 15 -5z m-1199 -5 c-14 -14 -61 -14 -49
0 4 5 20 10 34 10 17 0 22 -3 15 -10z m1261 0 c-7 -8 -22 -15 -34 -15 -20 1
-20 2 4 15 33 19 46 19 30 0z m-1071 -12 c-30 -38 -99 -93 -117 -93 -8 0 16
25 53 55 69 57 88 68 64 38z m-4 -58 c-28 -25 -53 -45 -57 -45 -17 0 -7 20 17
37 14 10 37 28 52 40 49 40 38 13 -12 -32z m1045 36 c0 -12 -20 -25 -27 -18
-7 7 6 27 18 27 5 0 9 -4 9 -9z m-986 -30 c-16 -16 -41 -31 -55 -35 -22 -6
-22 -5 -5 6 10 7 31 23 45 35 38 33 51 28 15 -6z m136 25 c0 -2 -7 -7 -16 -10
-8 -3 -12 -2 -9 4 6 10 25 14 25 6z m707 -29 c2 -17 1 -19 -7 -7 -11 17 -14
47 -3 36 4 -3 8 -17 10 -29z m43 29 c0 -3 -4 -8 -10 -11 -5 -3 -10 -1 -10 4 0
6 5 11 10 11 6 0 10 -2 10 -4z m310 -15 c0 -6 -4 -13 -10 -16 -5 -3 -10 1 -10
9 0 9 5 16 10 16 6 0 10 -4 10 -9z m-1370 -20 c0 -5 -7 -12 -16 -15 -14 -5
-15 -4 -4 9 14 17 20 19 20 6z m264 -6 c-4 -8 -10 -15 -15 -15 -4 0 -6 7 -3
15 4 8 10 15 15 15 4 0 6 -7 3 -15z m963 -6 c1 -11 -5 -23 -13 -26 -8 -3 -14
-15 -15 -27 l0 -21 -11 21 c-8 17 -6 28 7 48 21 31 30 33 32 5z m-997 -14 c0
-8 -7 -15 -16 -15 -13 0 -14 -3 -4 -15 7 -8 10 -24 7 -35 -3 -11 -1 -20 4 -20
5 0 9 5 9 10 0 6 7 10 15 10 8 0 15 5 15 10 0 6 5 10 10 10 6 0 10 -7 10 -15
0 -8 4 -15 9 -15 5 0 13 -10 16 -21 6 -17 9 -19 16 -8 5 8 9 10 9 5 0 -5 6 -3
14 3 12 10 23 6 55 -17 22 -16 37 -33 33 -37 -4 -5 -1 -5 6 -1 18 10 38 -4 21
-15 -10 -6 -6 -8 11 -7 19 2 24 -1 22 -14 -2 -10 2 -18 8 -18 5 0 10 6 10 13
0 7 3 8 8 2 4 -5 16 -10 27 -10 13 0 21 -8 23 -23 2 -13 14 -28 28 -34 13 -6
24 -15 24 -20 0 -12 34 -10 49 5 11 10 12 8 7 -9 -4 -13 -1 -26 9 -34 13 -11
14 -10 9 6 -5 15 -4 16 6 7 9 -8 10 -23 1 -63 -6 -28 -11 -57 -11 -64 0 -23
26 -25 39 -4 7 11 8 17 2 14 -10 -6 -7 32 4 71 2 6 0 13 -5 15 -4 2 -6 16 -3
32 l6 28 13 -38 c8 -22 11 -48 8 -59 -4 -16 -3 -17 5 -5 10 13 12 13 21 0 8
-11 9 -7 4 15 -4 17 -14 38 -22 48 -14 15 -13 17 0 17 9 0 19 -11 22 -25 4
-17 11 -22 22 -18 8 3 21 -2 29 -13 8 -11 15 -15 15 -10 0 5 6 3 14 -3 8 -7
12 -22 10 -34 l-5 -22 10 23 c12 25 15 26 40 10 11 -7 16 -19 13 -30 -5 -20
14 -25 21 -5 2 6 7 9 10 6 7 -5 -8 -58 -24 -91 -9 -19 -2 -23 16 -10 6 4 17
20 25 35 12 25 15 26 21 10 10 -25 10 -35 1 -29 -5 3 -9 -9 -10 -26 0 -17 -6
-36 -11 -41 -6 -6 -11 -17 -11 -25 0 -9 7 -6 20 9 17 21 19 21 13 4 -12 -36
-58 -95 -95 -124 -22 -16 -48 0 -48 30 0 11 -5 16 -14 13 -7 -3 -16 2 -19 11
-6 13 -9 13 -27 -5 -20 -20 -46 -28 -35 -11 3 5 0 13 -7 17 -8 5 -6 10 8 15
17 7 17 8 1 8 -10 1 -22 11 -27 24 -9 19 -10 18 -7 -11 2 -18 0 -35 -5 -38 -4
-3 -8 -1 -8 5 0 5 -10 11 -22 13 -15 2 -23 10 -23 22 0 25 -23 33 -31 11 -6
-15 -8 -15 -25 1 -10 9 -23 13 -29 9 -6 -3 -10 -3 -9 2 3 20 -2 33 -13 31 -7
-2 -12 5 -10 15 2 10 -3 17 -13 17 -14 0 -15 8 -9 48 3 26 8 49 9 50 2 2 11
-9 20 -25 l16 -28 -6 45 c-4 25 -9 52 -11 61 -3 11 3 19 17 22 29 8 61 -29 54
-61 -3 -13 -1 -30 4 -36 6 -7 12 -29 13 -49 2 -21 8 -37 15 -37 18 0 26 19 15
33 -6 7 -13 32 -15 57 -7 62 -16 88 -49 139 -31 50 -32 50 -19 3 9 -30 8 -31
-10 -22 -10 6 -19 20 -19 30 0 11 -7 20 -15 20 -8 0 -15 5 -15 11 0 5 -4 7
-10 4 -5 -3 -10 -17 -10 -31 0 -13 -3 -24 -6 -24 -12 0 -33 34 -34 53 0 15 -2
16 -13 5 -7 -7 -16 -21 -20 -30 -7 -19 -27 -25 -27 -8 0 14 -28 12 -33 -2 -2
-7 -4 1 -4 17 0 18 9 39 23 54 27 27 28 30 13 51 -8 12 -9 10 -4 -8 6 -20 4
-22 -20 -19 -15 2 -31 10 -36 18 -6 10 -9 11 -9 1 0 -7 -5 -10 -11 -7 -6 4 -8
13 -6 19 3 7 1 19 -4 27 -9 15 -10 13 -13 -30 -1 -8 -7 -16 -13 -18 -8 -3 -11
7 -9 33 2 26 -3 42 -18 55 -21 20 -41 26 -31 10 3 -5 0 -13 -6 -17 -8 -4 -9
-3 -5 4 5 8 -2 12 -18 12 -31 0 -33 -15 -11 -86 8 -27 15 -77 15 -111 0 -52
-3 -63 -16 -63 -9 0 -27 -10 -40 -22 -34 -34 -84 -71 -90 -66 -2 3 18 22 44
43 43 35 48 43 50 82 1 41 0 43 -22 37 -17 -4 -28 0 -38 15 -13 19 -17 20 -28
6 -17 -21 -30 -19 -30 5 0 11 -4 20 -10 20 -5 0 -10 5 -10 11 0 5 5 7 10 4 6
-4 17 -4 25 -1 12 4 12 10 -2 36 -8 17 -23 34 -32 38 -31 11 -41 51 -21 82 9
13 13 11 29 -10 11 -14 23 -21 28 -17 4 5 0 13 -9 18 -20 11 -13 40 8 32 8 -3
14 0 14 7 0 6 5 8 11 4 6 -3 14 -2 18 5 4 6 20 12 37 13 16 1 35 8 42 15 18
18 42 16 42 -2z m-293 -25 c-14 -11 -31 -20 -39 -20 -7 0 1 9 17 20 39 26 55
26 22 0z m1518 10 c3 -5 1 -10 -4 -10 -6 0 -11 5 -11 10 0 6 2 10 4 10 3 0 8
-4 11 -10z m-345 -4 c0 -15 -14 -35 -21 -30 -15 9 -10 34 6 34 8 0 15 -2 15
-4z m1147 -28 c-3 -7 -5 -2 -5 12 0 14 2 19 5 13 2 -7 2 -19 0 -25z m-1817 2
c0 -5 -7 -10 -15 -10 -8 0 -15 -7 -15 -15 0 -8 -4 -15 -10 -15 -15 0 -12 11 7
32 18 20 33 24 33 8z m-120 -20 c0 -5 -2 -10 -4 -10 -3 0 -8 5 -11 10 -3 6 -1
10 4 10 6 0 11 -4 11 -10z m144 -15 c-10 -8 -23 -14 -29 -14 -5 0 -1 6 9 14
11 8 24 15 30 15 5 0 1 -7 -10 -15z m36 -14 c0 -5 -7 -11 -15 -15 -15 -5 -20
5 -8 17 9 10 23 9 23 -2z m-528 -43 c-7 -7 -12 -8 -12 -2 0 14 12 26 19 19 2
-3 -1 -11 -7 -17z m558 18 c0 -3 -4 -8 -10 -11 -5 -3 -10 -1 -10 4 0 6 5 11
10 11 6 0 10 -2 10 -4z m-200 -86 c0 -5 -4 -10 -10 -10 -5 0 -10 5 -10 10 0 6
5 10 10 10 6 0 10 -4 10 -10z m290 -24 c0 -3 -4 -8 -10 -11 -5 -3 -10 -1 -10
4 0 6 5 11 10 11 6 0 10 -2 10 -4z m635 -6 c-3 -5 -11 -10 -16 -10 -6 0 -7 5
-4 10 3 6 11 10 16 10 6 0 7 -4 4 -10z m-932 -31 c4 -16 3 -18 -9 -8 -16 13
-19 29 -5 29 5 0 11 -9 14 -21z m1277 11 c-8 -5 -19 -10 -25 -10 -5 0 -3 5 5
10 8 5 20 10 25 10 6 0 3 -5 -5 -10z m-362 -38 c-18 -17 -35 -28 -37 -26 -5 5
62 64 67 59 2 -2 -11 -17 -30 -33z m392 -2 c0 -5 -5 -10 -11 -10 -5 0 -7 5 -4
10 3 6 8 10 11 10 2 0 4 -4 4 -10z m58 -20 c-7 -11 -19 -20 -26 -20 -7 0 -15
-7 -19 -15 -5 -15 -85 -75 -99 -75 -12 0 28 41 86 86 60 48 77 55 58 24z
m-1290 -10 c-10 -16 -10 -22 -1 -28 8 -5 9 -13 3 -22 -12 -19 -12 -30 -1 -30
5 0 11 8 13 17 3 15 4 15 21 -1 16 -17 17 -16 17 8 0 14 5 26 10 26 6 0 10
-11 10 -25 0 -15 6 -25 15 -25 8 0 17 11 21 25 3 14 10 25 15 25 11 0 12 -37
0 -44 -4 -3 -6 -28 -3 -56 l5 -50 -31 4 c-16 2 -50 13 -74 25 -24 11 -50 21
-56 21 -7 0 -12 8 -11 18 1 25 17 69 18 52 1 -11 4 -10 13 4 8 15 8 21 0 24
-12 4 -4 33 12 44 17 12 17 10 4 -12z m82 11 c0 -5 -7 -14 -15 -21 -12 -10
-15 -10 -15 2 0 8 3 18 7 21 9 10 23 9 23 -2z m1930 -17 c0 -8 9 -35 21 -60
11 -25 19 -58 17 -72 -3 -23 -6 -19 -25 29 -28 72 -40 135 -24 125 6 -4 11
-14 11 -22z m-2145 -3 c-3 -6 -11 -8 -17 -5 -6 4 -5 9 3 15 16 10 23 4 14 -10z
m300 9 c3 -5 2 -10 -4 -10 -5 0 -13 5 -16 10 -3 6 -2 10 4 10 5 0 13 -4 16
-10z m564 -3 c-2 -1 -25 -20 -51 -41 -27 -20 -48 -34 -48 -29 1 10 94 82 99
77 2 -2 2 -5 0 -7z m471 4 c0 -10 -30 -24 -37 -17 -3 3 -2 9 2 15 8 13 35 15
35 2z m-1300 -35 c0 -49 -15 -53 -16 -5 -1 21 2 39 7 39 5 0 9 -15 9 -34z
m880 19 c-7 -9 -15 -13 -17 -11 -7 7 7 26 19 26 6 0 6 -6 -2 -15z m-1090 1 c0
-3 -4 -8 -10 -11 -5 -3 -10 -1 -10 4 0 6 5 11 10 11 6 0 10 -2 10 -4z m1360
-113 c-18 -54 -57 -165 -86 -247 -29 -82 -51 -154 -47 -159 3 -6 1 -7 -5 -3
-12 7 -47 -77 -38 -92 8 -14 -4 -42 -18 -42 -6 0 -38 -57 -70 -125 -33 -69
-61 -123 -63 -121 -2 2 6 25 17 51 11 26 19 49 17 51 -1 2 -30 -18 -62 -43
-94 -72 -90 -69 -82 -57 4 6 39 38 79 70 85 68 100 84 94 101 -3 7 -2 13 2 13
5 0 16 17 25 38 71 163 127 302 127 314 0 6 -8 4 -17 -3 -16 -13 -17 -12 -4 3
7 10 17 16 21 13 5 -3 13 7 18 23 81 222 83 227 55 196 -20 -21 -148 -114
-158 -114 -3 0 -4 4 0 10 7 11 144 123 174 142 21 13 46 67 35 77 -3 3 -13 -3
-22 -15 -46 -56 -279 -229 -251 -186 19 29 274 220 283 212 4 -5 -6 -53 -24
-107z m-1320 93 c0 -2 -17 -16 -37 -31 l-38 -28 29 31 c26 28 46 40 46 28z
m1020 0 c0 -2 -8 -10 -17 -17 -16 -13 -17 -12 -4 4 13 16 21 21 21 13z m631
-36 c-18 -17 -36 -30 -40 -30 -9 1 58 60 67 60 4 0 -8 -14 -27 -30z m596 -42
c-3 -35 -11 -74 -17 -88 -9 -22 -10 -20 -5 15 2 22 5 61 5 88 0 28 4 47 11 47
8 0 10 -19 6 -62z m-2347 48 c0 -3 -4 -8 -10 -11 -5 -3 -10 -1 -10 4 0 6 5 11
10 11 6 0 10 -2 10 -4z m170 0 c0 -2 -8 -10 -17 -17 -16 -13 -17 -12 -4 4 13
16 21 21 21 13z m890 -22 c-8 -8 -23 -20 -34 -25 -13 -6 -10 0 9 15 34 29 43
33 25 10z m840 12 c0 -2 -7 -7 -16 -10 -8 -3 -12 -2 -9 4 6 10 25 14 25 6z
m-1710 -16 c0 -5 -5 -10 -11 -10 -5 0 -7 5 -4 10 3 6 8 10 11 10 2 0 4 -4 4
-10z m1420 2 c0 -4 -26 -27 -57 -50 l-58 -43 54 50 c57 53 61 56 61 43z m155
-22 c-10 -11 -22 -20 -28 -20 -5 0 1 9 14 20 31 25 37 25 14 0z m-645 7 c0 -2
-10 -12 -22 -23 l-23 -19 19 23 c18 21 26 27 26 19z m1150 -17 c-8 -6 -22 -10
-30 -9 -9 0 -5 6 10 14 27 14 44 10 20 -5z m-2165 0 c-3 -5 -16 -15 -28 -21
-22 -12 -22 -12 -3 10 19 21 43 30 31 11z m1670 -47 c-22 -19 -53 -44 -68 -55
-49 -35 -13 10 47 59 61 49 79 46 21 -4z m-545 33 c0 -2 -8 -10 -17 -17 -16
-13 -17 -12 -4 4 13 16 21 21 21 13z m360 -14 c0 -5 -21 -23 -47 -41 l-48 -32
45 40 c49 44 50 45 50 33z m-1610 -26 c0 -2 -7 -7 -16 -10 -8 -3 -12 -2 -9 4
6 10 25 14 25 6z m40 -11 c0 -2 -10 -10 -22 -16 -21 -11 -22 -11 -9 4 13 16
31 23 31 12z m40 -5 c0 -5 -5 -10 -11 -10 -5 0 -7 5 -4 10 3 6 8 10 11 10 2 0
4 -4 4 -10z m1517 -7 c-3 -5 -33 -73 -67 -153 -34 -80 -68 -158 -75 -175 -8
-16 -42 -95 -75 -175 -64 -150 -86 -195 -74 -150 6 23 110 277 154 375 49 110
60 138 56 142 -2 3 7 21 20 40 29 43 25 52 -13 29 -15 -10 -5 3 22 28 50 45
60 53 52 39z m-1619 -19 c12 -8 20 -20 16 -25 -3 -5 0 -16 6 -24 10 -12 10
-15 0 -15 -6 0 -10 -6 -7 -12 2 -7 9 -12 14 -11 5 1 9 -7 9 -18 0 -18 -2 -19
-12 -4 -14 19 -30 3 -18 -17 5 -8 0 -7 -11 2 -17 14 -18 14 -1 -17 9 -18 12
-33 7 -33 -17 0 -41 31 -41 52 0 14 -5 18 -15 15 -15 -6 -11 8 18 70 13 29 3
40 -20 22 -15 -11 -15 -10 1 9 23 26 25 27 54 6z m1400 -8 c-10 -7 -14 -17
-10 -21 4 -5 2 -5 -5 -1 -6 3 -27 -6 -45 -22 -33 -29 -78 -57 -78 -48 0 10
144 116 149 110 3 -3 -2 -11 -11 -18z m1072 -12 c0 -8 -4 -12 -10 -9 -5 3 -10
10 -10 16 0 5 5 9 10 9 6 0 10 -7 10 -16z m-2363 -19 c6 -14 9 -25 7 -25 -11
0 -42 35 -38 42 9 14 19 9 31 -17z m388 -5 c-3 -5 -12 -10 -18 -10 -7 0 -6 4
3 10 19 12 23 12 15 0z m875 -9 c0 -6 -4 -13 -10 -16 -5 -3 -10 1 -10 9 0 9 5
16 10 16 6 0 10 -4 10 -9z m-1440 -25 c0 -2 -7 -7 -16 -10 -8 -3 -12 -2 -9 4
6 10 25 14 25 6z m1791 -68 c-34 -63 -110 -230 -261 -578 -44 -104 -59 -131
-60 -110 0 10 -4 9 -14 -5 -7 -11 -14 -24 -14 -29 0 -14 -31 -28 -43 -20 -15
9 -5 80 15 119 9 17 16 24 16 18 0 -7 9 -13 21 -13 13 0 18 4 13 12 -5 7 -3 8
5 4 7 -5 10 -14 8 -20 -3 -7 -2 -18 2 -25 5 -7 13 5 20 31 7 24 17 48 22 54 5
6 27 54 49 107 108 261 238 527 257 527 2 0 -14 -33 -36 -72z m734 42 c-20
-38 -45 -145 -45 -192 0 -21 -5 -38 -11 -38 -21 0 24 212 53 248 18 21 19 13
3 -18z m-1095 -5 c-8 -9 -27 -23 -44 -32 -28 -14 -28 -12 9 20 40 35 60 42 35
12z m-1470 -35 c-42 -35 -129 -98 -115 -82 6 6 39 33 74 61 68 54 100 70 41
21z m505 20 c3 -5 1 -10 -4 -10 -6 0 -11 5 -11 10 0 6 2 10 4 10 3 0 8 -4 11
-10z m-139 -36 c-4 -9 -9 -15 -11 -12 -3 3 -3 13 1 22 4 9 9 15 11 12 3 -3 3
-13 -1 -22z m-296 0 c0 -8 -5 -12 -10 -9 -6 4 -8 11 -5 16 9 14 15 11 15 -7z
m493 -14 c6 -24 -47 -69 -56 -47 -7 18 15 45 33 39 12 -4 13 -3 3 10 -7 8 -10
18 -7 21 10 10 21 0 27 -23z m107 9 c10 -18 9 -20 -7 -17 -10 2 -19 11 -21 21
-5 24 15 21 28 -4z m300 11 c0 -5 -4 -10 -10 -10 -5 0 -10 5 -10 10 0 6 5 10
10 10 6 0 10 -4 10 -10z m-1055 -20 c-10 -11 -23 -20 -29 -20 -6 0 0 9 14 20
32 25 38 25 15 0z m255 -6 c0 -8 -4 -12 -10 -9 -5 3 -10 10 -10 16 0 5 5 9 10
9 6 0 10 -7 10 -16z m-170 -19 c0 -2 -6 -5 -13 -8 -8 -3 -14 1 -14 8 0 7 6 11
14 8 7 -3 13 -6 13 -8z m620 5 c0 -5 -4 -10 -10 -10 -5 0 -10 5 -10 10 0 6 5
10 10 10 6 0 10 -4 10 -10z m-510 -55 c0 -4 -7 -5 -15 -1 -18 7 -20 -5 -3 -22
7 -7 9 -12 4 -12 -19 0 -33 28 -28 58 l4 32 19 -24 c11 -13 19 -27 19 -31z
m50 24 c0 -5 -6 -9 -14 -9 -8 0 -17 -6 -19 -12 -3 -7 -6 -1 -6 14 -1 21 3 25
19 21 11 -3 20 -9 20 -14z m257 5 c3 -8 1 -20 -6 -27 -8 -8 -11 -5 -11 12 0
34 -17 16 -25 -26 -4 -21 -14 -46 -22 -56 -9 -9 -13 -20 -10 -24 4 -3 2 -12
-4 -20 -9 -10 -15 -11 -25 -2 -11 9 -12 15 -2 26 9 11 9 16 -2 23 -11 7 -10
11 3 25 10 9 17 12 17 6 0 -6 5 -11 11 -11 6 0 8 9 4 20 -4 11 -2 20 4 20 6 0
13 11 17 25 7 28 41 35 51 9z m49 -30 c-4 -14 -9 -24 -12 -21 -3 2 -2 17 2 31
3 15 9 25 11 22 3 -3 2 -17 -1 -32z m-131 16 c-3 -5 -11 -10 -16 -10 -6 0 -7
5 -4 10 3 6 11 10 16 10 6 0 7 -4 4 -10z m1085 6 c0 -2 -8 -10 -17 -17 -16
-13 -17 -12 -4 4 13 16 21 21 21 13z m-1610 -21 c-7 -8 -18 -15 -24 -15 -6 0
-2 7 8 15 25 19 32 19 16 0z m60 11 c0 -2 -8 -10 -17 -17 -16 -13 -17 -12 -4
4 13 16 21 21 21 13z m105 -6 c-3 -5 -12 -10 -18 -10 -7 0 -6 4 3 10 19 12 23
12 15 0z m217 -2 c-16 -16 -15 -31 1 -22 6 4 8 3 4 -1 -4 -5 -14 -10 -22 -11
-11 -2 -12 3 -3 22 6 13 16 24 22 24 6 0 5 -5 -2 -12z m96 -8 c-7 -10 -14 -18
-15 -16 -6 6 9 36 18 36 5 0 4 -9 -3 -20z m153 -63 c-10 -9 -11 -8 -5 6 3 10
9 15 12 12 3 -3 0 -11 -7 -18z m-156 -16 c-3 -11 1 -25 10 -34 9 -10 11 -18 5
-22 -5 -3 -10 -1 -10 5 0 6 -4 8 -10 5 -17 -11 -32 5 -19 21 6 8 8 14 4 14 -4
0 -2 7 5 15 17 20 23 19 15 -4z m-35 -19 c0 -13 -23 -32 -39 -32 -11 0 -10 4
5 19 20 21 34 26 34 13z m-330 -21 c-11 -21 -29 -36 -35 -29 -3 2 2 14 11 26
19 28 39 30 24 3z m-227 -23 c-4 -7 -8 -17 -8 -22 0 -5 -5 -11 -12 -13 -6 -2
-11 2 -9 9 3 20 16 38 27 38 6 0 7 -6 2 -12z m406 -18 c-8 -5 -43 -29 -77 -55
-68 -49 -85 -57 -56 -23 19 21 19 21 -1 15 -13 -5 -7 4 15 23 19 16 40 30 45
30 6 0 -3 -11 -20 -25 -37 -30 -24 -33 16 -4 16 11 27 24 24 29 -3 5 0 12 6
16 8 4 9 3 5 -4 -10 -16 6 -15 30 2 10 8 21 12 24 9 3 -2 -2 -8 -11 -13z
m2431 0 c0 -5 -2 -10 -4 -10 -3 0 -8 5 -11 10 -3 6 -1 10 4 10 6 0 11 -4 11
-10z m-2400 -4 c0 -2 -8 -10 -17 -17 -16 -13 -17 -12 -4 4 13 16 21 21 21 13z
m-261 -53 c-2 -31 -3 -33 -6 -10 -2 15 -9 27 -14 27 -5 0 -7 -11 -3 -23 4 -20
0 -26 -25 -37 -17 -7 -29 -16 -26 -19 2 -4 -1 -8 -8 -8 -7 0 -21 -4 -32 -8
-12 -4 -4 8 21 32 22 21 39 43 37 48 -3 9 29 30 50 34 4 0 6 -16 6 -36z m46 9
c-3 -3 -11 0 -18 7 -9 10 -8 11 6 5 10 -3 15 -9 12 -12z m255 4 c0 -2 -24 -18
-54 -34 -55 -31 -96 -60 -275 -192 -119 -88 -160 -114 -167 -108 -2 3 33 31
78 63 46 32 123 88 173 125 81 60 144 103 200 137 20 12 45 17 45 9z m324 -21
c-6 -16 -44 -41 -44 -29 0 5 40 43 47 44 1 0 0 -7 -3 -15z m2130 -10 c-4 -8
-10 -12 -15 -9 -11 6 -2 24 11 24 5 0 7 -7 4 -15z m-2449 -11 c-11 -8 -76 -52
-145 -97 -101 -67 -235 -162 -307 -219 -7 -5 -13 -5 -17 0 -6 10 98 93 194
155 30 20 80 54 111 75 31 21 80 53 110 70 56 33 89 42 54 16z m-265 -19 c0
-2 -10 -9 -22 -15 -22 -11 -22 -10 -4 4 21 17 26 19 26 11z m300 -2 c-1 -5
-18 -20 -39 -35 -28 -19 -38 -22 -37 -12 4 23 77 68 76 47z m-367 -27 c-4 -6
-8 -15 -8 -20 0 -11 -164 -130 -171 -124 -3 3 33 31 80 63 68 47 84 61 81 80
-1 16 2 22 11 18 8 -3 11 -10 7 -17z m611 10 c-3 -8 -13 -17 -22 -21 -13 -5
-13 -2 3 15 21 24 26 25 19 6z m-184 -10 c0 -3 -4 -8 -10 -11 -5 -3 -10 -1
-10 4 0 6 5 11 10 11 6 0 10 -2 10 -4z m-65 -16 c-3 -5 -16 -15 -28 -21 -22
-12 -22 -12 -3 10 19 21 43 30 31 11z m-95 -20 c-10 -18 -47 -40 -68 -40 -9 0
61 59 71 60 4 0 3 -9 -3 -20z m150 0 c0 -5 -5 -10 -11 -10 -6 0 -81 -49 -168
-109 -86 -59 -163 -108 -172 -108 -8 0 -36 -14 -62 -31 -26 -19 -57 -32 -74
-31 -16 0 -22 3 -13 6 8 4 33 21 55 38 59 48 274 184 360 229 52 27 85 33 85
16z m970 7 c0 -2 -10 -12 -22 -23 l-23 -19 19 23 c18 21 26 27 26 19z m-1450
-12 c0 -9 -80 -58 -86 -52 -3 3 5 11 17 18 13 7 30 18 37 26 13 13 32 18 32 8z
m500 -40 c0 -2 -5 -7 -12 -11 -7 -5 -8 -3 -3 6 5 8 3 11 -6 8 -8 -3 -13 -10
-12 -16 1 -5 -5 -16 -15 -24 -15 -12 -16 -11 -3 5 8 10 9 17 3 17 -12 0 -27
-19 -27 -34 0 -5 -9 -10 -20 -11 -23 -1 -209 -134 -201 -143 3 -2 13 1 23 9 9
8 14 9 11 4 -4 -6 -28 -26 -55 -45 -26 -19 -42 -26 -34 -17 7 9 9 17 3 17 -15
0 -33 -26 -24 -35 4 -5 1 -5 -6 -1 -14 9 -45 -12 -37 -24 3 -5 0 -12 -6 -16
-8 -4 -9 -3 -5 4 9 15 1 15 -24 2 -13 -7 -21 -6 -30 5 -7 9 -11 17 -9 18 2 2
20 14 39 28 19 14 42 29 50 34 13 8 13 7 0 -10 -15 -19 -14 -19 11 -3 44 28
323 229 338 243 10 10 20 11 33 4 10 -5 18 -12 18 -14z m25 15 c3 -5 2 -10 -4
-10 -5 0 -13 5 -16 10 -3 6 -2 10 4 10 5 0 13 -4 16 -10z m875 -4 c0 -2 -8
-10 -17 -17 -16 -13 -17 -12 -4 4 13 16 21 21 21 13z m-1150 -11 c0 -2 -10 -9
-22 -15 -22 -11 -22 -10 -4 4 21 17 26 19 26 11z m275 -15 c3 -5 1 -10 -4 -10
-6 0 -11 5 -11 10 0 6 2 10 4 10 3 0 8 -4 11 -10z m35 0 c0 -5 -2 -10 -4 -10
-3 0 -8 5 -11 10 -3 6 -1 10 4 10 6 0 11 -4 11 -10z m-60 -15 c0 -4 -46 -39
-208 -158 -30 -21 -51 -41 -48 -44 3 -3 28 11 56 32 27 20 50 35 50 32 0 -7
-255 -197 -264 -197 -5 0 29 28 73 61 45 34 79 64 77 67 -3 3 -40 -21 -82 -52
-41 -32 -77 -56 -79 -54 -5 5 411 318 422 318 2 0 3 -2 3 -5z m0 -30 c-7 -9
-27 -25 -44 -37 -23 -15 -21 -11 9 16 43 38 55 45 35 21z m930 11 c0 -2 -8
-10 -17 -17 -16 -13 -17 -12 -4 4 13 16 21 21 21 13z m-1077 -156 c-103 -77
-200 -151 -214 -165 -14 -14 -29 -25 -32 -25 -24 0 13 32 166 145 94 70 188
140 207 156 19 15 41 28 48 28 8 1 -71 -62 -175 -139z m217 116 c0 -4 -169
-135 -214 -166 -11 -8 -47 -36 -79 -62 -32 -27 -62 -48 -67 -48 -5 0 -23 -14
-41 -31 -19 -18 -35 -27 -40 -22 -6 6 22 32 68 66 43 31 139 104 213 161 117
90 160 118 160 102z m1190 -10 c0 -3 -4 -8 -10 -11 -5 -3 -10 -1 -10 4 0 6 5
11 10 11 6 0 10 -2 10 -4z m-1340 -20 c0 -3 -15 -14 -32 -26 l-33 -22 30 26
c31 27 35 29 35 22z m180 -3 c0 -5 -24 -25 -53 -46 -28 -21 -71 -52 -93 -70
-110 -85 -275 -208 -289 -213 -34 -13 -9 9 118 105 72 56 168 130 212 165 74
60 105 77 105 59z m994 -52 c-9 -23 -26 -47 -38 -53 -20 -10 -20 -10 -6 8 8
10 24 36 34 57 25 49 31 41 10 -12z m-170 -10 c-9 -23 -18 -40 -21 -38 -2 3 4
23 13 46 9 23 18 40 21 38 2 -3 -4 -23 -13 -46z m-1364 23 c-8 -8 -23 -20 -34
-25 -13 -7 -9 -1 9 15 34 29 43 33 25 10z m553 -26 c-17 -19 -139 -108 -148
-108 -11 0 -94 -62 -92 -70 1 -4 -2 -9 -8 -10 -5 -2 -25 -15 -44 -31 -19 -16
-37 -26 -40 -23 -3 3 2 10 12 15 9 6 15 14 12 20 -4 5 1 9 9 9 8 0 19 6 23 14
4 7 31 29 58 47 28 18 61 45 75 59 41 40 76 67 98 74 11 4 26 13 32 21 7 8 17
12 22 9 5 -3 1 -15 -9 -26z m377 22 c0 -5 -7 -10 -16 -10 -8 0 -12 5 -9 10 3
6 10 10 16 10 5 0 9 -4 9 -10z m-332 -49 c-18 -15 -61 -48 -94 -72 -34 -24
-109 -79 -165 -122 -125 -94 -76 -47 81 78 62 50 127 102 144 117 17 15 39 28
49 28 13 0 10 -7 -15 -29z m1072 -20 c0 -5 -9 -19 -20 -32 l-20 -24 16 33 c15
32 24 40 24 23z m284 -31 c-21 -22 -43 -40 -48 -40 -6 0 8 18 29 40 21 22 43
40 48 40 5 0 -8 -18 -29 -40z m-1068 -48 c-8 -13 -166 -134 -166 -128 0 5 161
136 168 136 2 0 1 -4 -2 -8z m-840 -124 l64 -77 -98 51 c-53 27 -101 54 -106
59 -18 17 -14 40 9 51 16 7 21 16 18 27 -9 25 41 -24 113 -111z m854 97 c-7
-8 -17 -15 -23 -15 -6 0 -2 7 9 15 25 19 30 19 14 0z m30 -18 c-22 -20 -163
-132 -177 -141 -7 -4 -13 -5 -13 -2 0 6 192 156 200 156 2 0 -2 -6 -10 -13z
m-110 -41 c0 -2 -33 -30 -72 -62 -40 -32 -79 -64 -86 -71 -8 -7 -23 -18 -35
-23 -23 -11 -3 7 116 103 70 56 77 61 77 53z m-645 -66 c-21 -16 -42 -30 -48
-30 -13 0 -10 3 33 34 49 35 60 32 15 -4z m525 6 c0 -8 -132 -108 -136 -103
-3 2 26 27 63 55 70 53 73 55 73 48z"/>
<path d="M1030 2710 c-8 -5 -12 -12 -9 -15 4 -3 12 1 19 10 14 17 11 19 -10 5z"/>
<path d="M991 2640 c-21 -18 -30 -33 -25 -41 5 -9 2 -11 -9 -6 -9 3 -24 -1
-33 -11 -10 -9 -40 -34 -68 -55 -28 -21 -51 -41 -51 -45 0 -4 -3 -6 -7 -5 -4
2 -5 -4 -1 -13 7 -20 27 -13 31 12 3 20 78 81 94 76 5 -1 7 2 4 7 -3 5 1 14 9
21 12 10 15 9 15 -4 0 -19 -1 -19 37 -5 23 8 30 16 29 34 -1 22 -2 22 -18 8
-10 -9 -18 -12 -18 -6 0 16 38 46 49 39 5 -4 12 -2 15 3 14 22 -22 16 -53 -9z"/>
<path d="M871 2481 c-8 -6 -9 -11 -3 -15 6 -3 14 -1 17 5 9 14 2 20 -14 10z"/>
<path d="M724 2458 l-19 -23 23 19 c21 18 27 26 19 26 -2 0 -12 -10 -23 -22z"/>
<path d="M881 2450 c-7 -4 -12 -13 -10 -19 3 -8 10 -8 23 2 21 15 9 31 -13 17z"/>
<path d="M747 2386 c-4 -10 -1 -13 9 -9 7 3 14 9 14 14 0 14 -17 10 -23 -5z"/>
<path d="M1610 2610 c0 -6 7 -10 15 -10 8 0 15 2 15 4 0 2 -7 6 -15 10 -8 3
-15 1 -15 -4z"/>
<path d="M1501 2419 c0 -13 3 -18 6 -10 5 11 7 11 14 0 5 -8 9 -9 9 -3 0 6 -7
17 -15 24 -13 10 -15 9 -14 -11z"/>
<path d="M1550 2404 c0 -35 107 -291 117 -281 5 6 -87 248 -103 272 -8 11 -14
15 -14 9z"/>
<path d="M1440 2380 c-13 -8 -12 -10 3 -10 9 0 17 5 17 10 0 12 -1 12 -20 0z"/>
<path d="M1471 2354 c0 -11 3 -14 6 -6 3 7 2 16 -1 19 -3 4 -6 -2 -5 -13z"/>
<path d="M1437 2343 c-7 -12 -20 -67 -19 -75 1 -4 -3 -20 -8 -35 l-10 -28 21
24 c13 16 18 33 15 47 -4 13 -1 26 6 31 15 9 20 43 7 43 -4 0 -10 -3 -12 -7z"/>
<path d="M1495 2330 c-3 -5 1 -10 10 -10 9 0 13 5 10 10 -3 6 -8 10 -10 10 -2
0 -7 -4 -10 -10z"/>
<path d="M1474 2296 c-10 -8 -16 -17 -13 -20 3 -3 14 3 24 14 21 23 17 26 -11
6z"/>
<path d="M1505 2250 c-3 -5 1 -10 9 -10 9 0 16 5 16 10 0 6 -4 10 -9 10 -6 0
-13 -4 -16 -10z"/>
<path d="M1355 2231 c-3 -5 0 -13 6 -17 7 -4 9 -3 5 4 -3 5 0 13 6 15 9 4 10
6 1 6 -6 1 -14 -3 -18 -8z"/>
<path d="M1613 2070 c-57 -52 -30 -48 32 4 19 16 24 25 15 25 -8 0 -30 -13
-47 -29z"/>
<path d="M1741 2484 c-24 -95 -22 -123 3 -47 17 52 31 133 24 133 -3 0 -15
-39 -27 -86z"/>
<path d="M360 2119 c0 -5 5 -7 10 -4 6 3 10 8 10 11 0 2 -4 4 -10 4 -5 0 -10
-5 -10 -11z"/>
<path d="M205 1994 l-40 -36 48 33 c26 18 47 34 47 36 0 10 -20 -2 -55 -33z"/>
<path d="M229 1983 c-13 -17 -13 -17 6 -3 11 8 22 16 24 17 2 2 0 3 -6 3 -6 0
-17 -8 -24 -17z"/>
<path d="M320 1980 c0 -5 5 -10 10 -10 6 0 10 5 10 10 0 6 -4 10 -10 10 -5 0
-10 -4 -10 -10z"/>
<path d="M990 2029 c0 -5 5 -7 10 -4 6 3 10 8 10 11 0 2 -4 4 -10 4 -5 0 -10
-5 -10 -11z"/>
<path d="M1050 1970 c0 -6 7 -10 15 -10 8 0 15 2 15 4 0 2 -7 6 -15 10 -8 3
-15 1 -15 -4z"/>
<path d="M1063 1842 l22 -24 -24 4 c-14 2 -25 -2 -27 -10 -1 -7 0 -8 3 -2 7
14 33 -7 33 -26 0 -17 -17 -18 -23 -1 -3 6 -6 7 -6 1 -1 -5 5 -19 13 -29 16
-22 49 -14 40 10 -4 9 -1 15 9 15 8 0 18 8 21 17 5 12 9 14 18 5 7 -7 18 -12
26 -12 29 0 -9 29 -41 32 -40 4 -42 21 -2 23 21 0 37 -8 56 -30 22 -24 30 -28
40 -17 11 10 10 12 -3 12 -9 0 -26 12 -37 26 -18 23 -29 27 -81 28 l-60 2 23
-24z"/>
<path d="M1227 1864 c-4 -4 -7 -14 -7 -23 0 -11 3 -12 11 -4 6 6 10 16 7 23
-2 6 -7 8 -11 4z"/>
<path d="M1140 1670 c-8 -5 -12 -11 -9 -14 3 -3 14 1 25 9 21 16 8 20 -16 5z"/>
<path d="M1283 1635 c-3 -9 -3 -18 0 -21 9 -9 27 6 27 22 0 19 -19 18 -27 -1z"/>
<path d="M1330 1635 c0 -8 7 -15 15 -15 8 0 15 -5 15 -11 0 -5 5 -7 10 -4 6 3
10 11 10 16 0 6 -4 8 -9 5 -5 -3 -11 1 -15 9 -7 19 -26 19 -26 0z"/>
<path d="M1252 1582 c1 -18 7 -31 13 -29 12 5 8 37 -6 52 -6 6 -9 -2 -7 -23z"/>
<path d="M1307 1526 c-4 -10 -5 -21 -2 -24 9 -9 17 6 13 25 -3 17 -4 17 -11
-1z"/>
<path d="M545 1866 c-16 -13 -34 -22 -40 -20 -6 3 -11 -5 -12 -16 -2 -27 5
-25 51 15 45 40 45 56 1 21z"/>
<path d="M428 1893 c7 -3 16 -2 19 1 4 3 -2 6 -13 5 -11 0 -14 -3 -6 -6z"/>
<path d="M597 1633 c-13 -12 -7 -33 8 -33 8 0 15 9 15 20 0 20 -11 26 -23 13z"/>
<path d="M835 1631 c-3 -6 -11 -9 -16 -6 -5 4 -9 2 -9 -4 0 -18 17 -21 30 -6
7 9 10 18 7 21 -3 3 -8 0 -12 -5z"/>
<path d="M520 1600 c0 -5 5 -10 10 -10 6 0 10 5 10 10 0 6 -4 10 -10 10 -5 0
-10 -4 -10 -10z"/>
<path d="M912 1520 c-13 -11 -22 -24 -20 -29 1 -5 16 4 32 20 33 32 24 39 -12
9z"/>
<path d="M1116 1436 c3 -9 11 -16 16 -16 13 0 5 23 -10 28 -7 2 -10 -2 -6 -12z"/>
<path d="M1288 1326 c-13 -10 -15 -20 -9 -42 7 -27 8 -28 13 -6 4 12 2 22 -4
22 -6 0 -5 6 2 15 7 8 17 12 23 8 6 -3 7 -1 3 5 -9 14 -7 14 -28 -2z"/>
<path d="M1240 1286 c0 -20 11 -46 19 -46 4 0 6 14 3 30 -4 30 -22 43 -22 16z"/>
<path d="M1203 1267 c4 -10 7 -23 7 -28 0 -5 5 -9 10 -9 15 0 12 20 -7 38 -16
16 -16 16 -10 -1z"/>
<path d="M1324 1225 c2 -16 8 -31 15 -33 16 -5 14 20 -3 44 -14 18 -15 17 -12
-11z"/>
<path d="M1270 1200 c0 -5 5 -10 11 -10 5 0 7 5 4 10 -3 6 -8 10 -11 10 -2 0
-4 -4 -4 -10z"/>
<path d="M1080 1169 c9 -16 14 -18 26 -8 17 14 12 22 -17 26 -17 3 -18 0 -9
-18z"/>
<path d="M892 1315 c0 -16 2 -22 5 -12 2 9 2 23 0 30 -3 6 -5 -1 -5 -18z"/>
<path d="M1726 773 c-6 -14 -5 -15 5 -6 7 7 10 15 7 18 -3 3 -9 -2 -12 -12z"/>
<path d="M1840 406 c0 -8 7 -16 15 -20 17 -6 18 -4 9 18 -8 20 -24 21 -24 2z"/>
<path d="M1815 369 c-4 -6 -5 -12 -2 -15 2 -3 7 2 10 11 7 17 1 20 -8 4z"/>
<path d="M300 355 c-7 -8 -8 -15 -2 -15 5 0 15 7 22 15 7 8 8 15 2 15 -5 0
-15 -7 -22 -15z"/>
<path d="M134 2086 c-10 -8 -15 -18 -11 -22 4 -4 17 2 30 14 24 25 12 30 -19
8z"/>
<path d="M192 1374 c-24 -17 -30 -36 -8 -28 8 3 16 -3 19 -15 3 -12 1 -21 -4
-21 -5 0 -9 4 -9 8 0 4 -9 8 -20 8 -19 0 -21 -6 -24 -46 -1 -8 -15 -19 -31
-24 -39 -13 -38 -13 -30 -26 5 -8 11 -8 21 1 8 7 14 7 14 1 0 -19 -26 -30 -63
-26 -30 2 -38 0 -34 -11 3 -7 -1 -16 -9 -19 -15 -6 -20 -66 -6 -66 14 0 102
61 102 71 0 5 7 9 15 9 8 0 17 11 21 25 3 14 11 25 16 25 23 0 84 111 74 136
-7 18 -16 18 -44 -2z"/>
<path d="M10 725 c-11 -13 -10 -14 4 -9 9 3 16 10 16 15 0 13 -6 11 -20 -6z"/>
<path d="M59 705 c-1 -3 -2 -10 -3 -17 0 -6 -7 -13 -15 -16 -8 -3 -11 0 -7 7
5 7 1 9 -9 4 -12 -4 -13 -8 -5 -13 8 -5 7 -9 -4 -13 -9 -4 -16 -11 -16 -17 0
-6 18 1 39 16 25 16 38 31 34 40 -5 14 -12 18 -14 9z"/>
<path d="M5 610 c-3 -5 -2 -10 4 -10 5 0 13 5 16 10 3 6 2 10 -4 10 -5 0 -13
-4 -16 -10z"/>
</g>
</svg>
