<?xml version="1.0" standalone="no"?>
<!DOCTYPE svg PUBLIC "-//W3C//DTD SVG 20010904//EN"
 "http://www.w3.org/TR/2001/REC-SVG-20010904/DTD/svg10.dtd">
<svg version="1.0" xmlns="http://www.w3.org/2000/svg"
 width="1280.000000pt" height="853.000000pt" viewBox="0 0 1280.000000 853.000000"
 preserveAspectRatio="xMidYMid meet">

<g transform="translate(0.000000,853.000000) scale(0.100000,-0.100000)"
fill="#000000" stroke="none">
<path d="M0 4265 l0 -4265 6400 0 6400 0 0 4265 0 4265 -6400 0 -6400 0 0
-4265z m12030 4201 c0 -3 -4 -8 -10 -11 -5 -3 -10 -1 -10 4 0 6 5 11 10 11 6
0 10 -2 10 -4z m-261 -460 c-15 -12 -59 -99 -59 -117 0 -13 -48 -111 -58 -119
-4 -3 -16 -22 -27 -42 -11 -21 -23 -38 -27 -38 -5 0 -8 -7 -8 -16 0 -9 -8 -28
-19 -42 -10 -15 -30 -50 -45 -79 -25 -49 -42 -70 -52 -61 -4 5 10 38 39 96 7
12 15 22 19 22 5 0 8 9 8 20 0 11 9 25 20 32 11 7 20 18 20 25 0 6 8 19 17 28
9 10 18 27 19 39 2 18 27 66 121 234 14 25 29 40 35 36 8 -5 7 -10 -3 -18z
m-315 -551 c-4 -8 -8 -15 -10 -15 -2 0 -4 7 -4 15 0 8 4 15 10 15 5 0 7 -7 4
-15z m53 -297 c-3 -8 -6 -5 -6 6 -1 11 2 17 5 13 3 -3 4 -12 1 -19z m-400 6
c-3 -3 -12 -4 -19 -1 -8 3 -5 6 6 6 11 1 17 -2 13 -5z m108 -28 c78 -36 146
-122 144 -181 -1 -27 -2 -26 -15 15 -18 58 -83 123 -159 160 -33 16 -51 30
-40 30 11 0 43 -11 70 -24z m142 -248 c-3 -7 -5 -2 -5 12 0 14 2 19 5 13 2 -7
2 -19 0 -25z m-4017 -137 c0 -10 -9 -29 -19 -42 -18 -22 -20 -23 -27 -6 -8 22
14 67 33 67 7 0 13 -9 13 -19z m4151 -44 c-8 -8 -11 -4 -11 14 0 33 14 47 18
19 2 -12 -1 -27 -7 -33z m-3704 -612 c-4 -9 -18 -15 -34 -14 -26 0 -26 1 -7 9
12 5 25 14 29 20 10 16 19 4 12 -15z m-3017 -620 c0 -11 -50 -100 -69 -125
-15 -19 -29 -25 -59 -25 -30 0 -38 4 -35 15 8 28 88 123 106 126 11 1 21 5 25
8 7 7 32 8 32 1z m3580 -190 c25 -13 50 -42 50 -58 0 -3 -27 -5 -61 -4 -56 0
-61 2 -76 30 -12 25 -13 31 -1 38 20 13 56 11 88 -6z m-3630 -43 c0 -10 -18
-37 -40 -60 -21 -23 -36 -42 -32 -42 4 0 0 -4 -7 -9 -12 -8 -9 -11 13 -17 31
-7 137 15 225 47 59 22 81 19 81 -9 0 -23 -74 -72 -160 -106 -36 -13 -94 -37
-129 -51 -46 -19 -73 -25 -96 -21 -33 7 -33 6 -23 -22 12 -31 6 -67 -15 -96
-11 -15 -17 -17 -35 -7 -12 7 -22 21 -22 34 0 12 -7 35 -15 51 -12 22 -13 31
-4 37 8 5 6 10 -7 18 -61 35 -61 36 -9 93 57 64 69 72 94 59 24 -13 91 12 91
34 0 8 5 15 10 15 6 0 10 8 10 19 0 21 16 37 45 44 11 2 21 5 23 6 1 0 2 -7 2
-17z m-615 -118 c33 -22 33 -54 1 -54 -23 0 -56 23 -56 39 0 7 21 31 27 31 2
0 15 -7 28 -16z m6101 -56 c-9 -12 -16 -19 -16 -15 0 11 24 47 28 42 2 -2 -3
-14 -12 -27z m-5796 -3 c0 -16 -27 -32 -37 -22 -3 4 -3 13 0 22 8 20 37 20 37
0z m-125 -5 c-3 -5 -1 -10 4 -10 19 0 12 -38 -9 -53 -13 -9 -33 -12 -57 -8
-34 6 -38 10 -38 36 0 23 6 31 25 36 39 11 82 10 75 -1z m-294 -11 c11 -5 24
-20 28 -32 7 -18 18 -23 57 -25 56 -4 90 -22 107 -59 10 -22 8 -28 -11 -43
-12 -10 -40 -21 -62 -25 -27 -5 -41 -13 -45 -27 -9 -28 -1 -32 36 -19 48 17
73 13 96 -13 12 -13 28 -28 37 -33 8 -5 17 -17 19 -28 4 -29 19 -51 45 -64 12
-6 22 -21 22 -31 0 -11 4 -20 9 -20 13 0 26 22 23 40 -3 24 14 44 33 36 13 -5
16 -14 11 -36 -5 -25 -2 -30 14 -30 11 0 20 -4 20 -10 0 -6 28 -10 64 -10 56
0 65 3 82 25 37 49 83 17 100 -71 3 -18 -2 -23 -29 -28 -35 -7 -105 -61 -94
-72 4 -4 44 -2 90 4 135 18 186 7 172 -37 -8 -25 -27 -27 -59 -6 -21 14 -24
14 -36 0 -10 -13 -9 -15 8 -15 12 0 24 -5 27 -11 10 -15 -15 -102 -33 -116 -9
-7 -12 -21 -9 -34 3 -11 3 -27 0 -35 -6 -17 -45 -18 -61 -2 -9 9 -12 4 -12
-24 0 -19 7 -41 15 -48 12 -10 10 -17 -18 -51 -39 -48 -67 -48 -80 -2 -5 17
-15 34 -22 37 -17 6 -55 -4 -55 -15 0 -5 -5 -9 -11 -9 -6 0 -9 6 -6 14 3 8 -2
16 -15 19 -14 4 -22 0 -25 -13 -3 -11 -20 -24 -38 -30 -19 -6 -35 -16 -37 -21
-2 -7 -13 -6 -32 1 -16 6 -37 8 -45 4 -9 -4 -27 -8 -41 -8 -19 -1 -26 -7 -28
-26 -8 -51 -55 -70 -72 -27 -6 16 -9 18 -9 5 -1 -19 -30 -38 -59 -38 -11 0
-22 -9 -25 -21 -3 -11 -19 -25 -36 -32 -17 -6 -31 -14 -31 -17 1 -17 20 -28
56 -31 32 -2 50 4 90 31 27 18 58 33 69 32 11 -1 34 5 51 13 23 11 39 12 65 5
48 -14 53 -13 64 13 8 18 17 21 49 19 49 -4 89 12 101 41 6 12 19 22 30 22 17
0 20 -6 18 -44 -2 -42 -1 -43 17 -26 10 9 27 16 37 15 30 -3 62 11 68 30 8 26
47 58 52 43 3 -10 12 -8 36 4 l32 17 -45 9 c-63 12 -90 24 -90 41 0 25 31 40
86 41 48 0 55 -2 51 -17 -3 -9 0 -19 5 -20 6 -2 11 -16 11 -31 0 -26 7 -31 45
-30 6 1 12 -3 12 -8 0 -16 18 -9 22 9 3 10 -3 29 -14 42 l-19 24 33 10 c38 13
45 42 13 60 -32 18 -36 30 -16 47 15 13 16 18 6 33 -13 17 -9 56 5 56 4 0 12
11 18 25 10 22 9 25 -8 25 -22 0 -50 25 -50 46 0 15 14 31 75 82 29 24 47 32
70 30 46 -5 44 -35 -6 -92 -23 -26 -39 -50 -35 -53 3 -3 24 -1 45 6 32 9 41
17 46 41 8 34 37 54 68 46 12 -3 29 1 38 10 10 9 28 14 41 12 31 -4 36 -43 9
-79 -25 -33 -27 -57 -6 -65 22 -9 27 -38 11 -76 -18 -42 -38 -60 -59 -52 -17
6 -29 34 -25 55 6 26 -21 14 -47 -20 -45 -62 -35 -70 95 -74 56 -1 75 -5 75
-16 0 -39 -179 -51 -233 -15 -22 14 -25 14 -38 -3 -20 -26 -18 -31 21 -47 41
-18 52 -38 37 -72 -18 -37 2 -28 32 15 34 48 45 53 107 45 33 -4 49 -3 49 4 0
24 38 33 81 20 46 -14 54 -26 45 -63 -5 -21 -12 -25 -45 -25 -22 0 -46 6 -53
13 -10 10 -23 11 -58 2 -44 -11 -45 -12 -48 -53 -3 -37 0 -43 23 -52 14 -5 23
-15 20 -20 -4 -6 -11 -8 -16 -4 -10 6 -49 -23 -49 -37 0 -4 9 -5 20 -2 11 3
34 0 50 -7 35 -14 80 -6 80 15 0 8 -9 24 -20 35 -12 12 -20 33 -20 55 0 33 1
34 30 28 18 -3 54 2 86 12 46 14 60 15 79 5 25 -14 45 -7 45 16 0 17 34 18 78
3 27 -9 39 -7 76 10 24 12 52 19 62 15 10 -3 25 -8 33 -10 11 -4 10 -8 -5 -19
-18 -14 -18 -14 4 -15 14 0 26 -9 31 -24 11 -27 63 -39 128 -30 26 3 54 0 77
-10 32 -13 37 -20 34 -43 -3 -27 -5 -28 -63 -30 -33 -1 -80 -5 -103 -8 -38 -4
-45 -2 -49 15 -3 11 -14 20 -25 20 -10 0 -16 -4 -13 -10 7 -11 -42 -37 -51
-27 -11 11 5 39 26 44 26 7 25 22 -3 54 -31 36 -54 42 -76 20 -11 -11 -28 -18
-38 -15 -22 5 -67 -31 -58 -46 5 -8 11 -8 20 0 8 7 22 10 32 8 10 -2 23 3 30
12 9 11 16 12 29 4 25 -15 27 -29 9 -48 -9 -9 -13 -16 -9 -16 11 0 -14 -25
-26 -26 -6 -1 -15 -2 -21 -3 -8 -1 -8 -6 1 -16 14 -17 46 -20 54 -6 12 19 129
-1 158 -26 9 -8 22 -12 27 -8 6 3 11 0 11 -7 0 -7 -9 -19 -20 -26 -11 -7 -20
-18 -20 -26 0 -22 -37 -49 -57 -42 -10 4 -42 9 -71 11 -49 4 -56 1 -84 -27
-21 -22 -28 -37 -24 -53 4 -15 -1 -28 -14 -40 -18 -17 -21 -17 -46 -1 -19 13
-24 24 -20 39 2 12 -1 30 -9 40 -11 15 -17 17 -34 7 -12 -6 -26 -8 -32 -4 -6
3 -39 -24 -73 -60 -58 -63 -64 -66 -89 -57 -29 11 -33 21 -16 38 16 16 3 46
-23 58 -15 7 -24 20 -26 40 -2 17 -11 38 -20 49 -10 10 -16 27 -14 37 2 12 -3
19 -12 19 -18 0 -22 -25 -6 -35 16 -10 12 -21 -9 -22 -11 -1 -36 -18 -56 -37
-60 -58 -91 -45 -102 42 -5 46 -8 51 -32 54 -20 2 -26 8 -26 28 0 19 5 24 20
22 11 -2 40 -2 65 -2 101 3 100 2 75 50 -18 35 -18 35 -50 14 -13 -9 -28 -13
-34 -10 -5 3 -11 1 -13 -4 -2 -6 -10 -12 -18 -14 -8 -1 -32 -13 -52 -25 -29
-18 -38 -29 -38 -50 0 -33 -24 -57 -65 -66 -16 -4 -37 -9 -45 -12 -8 -3 -25
-5 -37 -4 -11 1 -24 -3 -28 -8 -3 -6 -20 -11 -36 -11 -41 0 -50 27 -17 55 20
17 22 23 11 34 -18 16 -53 4 -53 -18 0 -27 -6 -29 -65 -19 -55 8 -90 0 -107
-26 -15 -21 -9 -38 11 -33 26 7 55 -15 71 -54 12 -28 12 -33 -5 -45 -10 -8
-27 -14 -37 -14 -16 0 -17 -6 -13 -42 3 -24 2 -37 -1 -30 -8 17 -43 15 -51 -3
-3 -9 2 -35 11 -58 20 -54 20 -91 0 -122 -11 -18 -14 -35 -9 -65 8 -48 -8 -59
-56 -40 -44 19 -63 51 -48 83 12 27 7 57 -11 57 -6 0 -16 -11 -22 -25 -15 -34
-24 -32 -48 15 -14 27 -20 59 -20 101 0 54 4 65 30 96 17 18 30 40 30 47 0 8
13 19 29 24 40 14 57 47 40 78 -7 13 -20 26 -31 30 -24 7 -23 31 2 46 24 15
27 60 5 78 -15 13 -111 5 -130 -10 -18 -15 -97 -39 -110 -34 -6 3 -20 -6 -29
-20 -21 -33 -48 -33 -93 1 -55 42 -99 54 -137 38 -52 -22 -128 -31 -176 -22
-61 12 -73 23 -65 64 4 22 1 40 -10 55 -24 36 -18 59 30 105 33 31 54 43 76
43 17 0 40 5 51 11 16 8 31 8 59 -1 30 -10 45 -11 65 -1 40 18 26 39 -53 80
-41 22 -91 58 -116 84 -24 26 -48 47 -53 47 -5 0 -27 -21 -49 -47 -70 -81 -84
-93 -109 -93 -26 0 -105 -49 -148 -93 -31 -31 -50 -34 -74 -10 -11 11 -35 18
-62 19 -25 1 -48 8 -53 15 -6 11 -14 11 -42 1 -18 -7 -49 -12 -69 -12 -32 0
-36 -3 -42 -32 -12 -53 -14 -128 -5 -128 5 0 9 -12 9 -26 0 -14 5 -35 11 -46
8 -15 8 -27 -2 -44 -15 -29 -23 -30 -35 -4 l-9 21 -23 -21 c-24 -23 -28 -50
-12 -81 16 -28 100 -28 107 1 6 23 8 24 34 10 25 -14 24 -27 -2 -35 -17 -6
-19 -12 -14 -33 9 -38 24 -52 51 -52 18 0 24 -5 23 -22 -1 -30 18 -145 25
-157 3 -5 3 -16 0 -25 -7 -17 -59 -22 -69 -7 -3 5 -27 17 -54 26 -33 11 -52
24 -62 43 -7 15 -28 45 -46 66 -18 22 -33 45 -33 52 0 6 -17 27 -37 44 -20 18
-47 55 -60 82 -27 58 -79 125 -104 133 -37 12 -106 112 -139 204 -31 88 -60
124 -60 78 -1 -12 -3 -39 -6 -60 -5 -30 1 -51 30 -106 l35 -69 -29 -37 c-34
-43 -37 -63 -14 -107 15 -29 15 -32 -5 -57 -12 -14 -29 -43 -38 -64 -21 -49
-51 -47 -76 6 -20 42 -30 45 -54 17 -13 -15 -30 -20 -70 -20 l-53 0 2 -41 c4
-62 -17 -71 -78 -31 -26 18 -51 32 -56 32 -4 0 -8 6 -8 13 0 6 -7 26 -16 42
-27 50 -44 120 -43 171 1 27 -3 93 -9 148 -8 80 -8 106 4 138 8 22 14 61 14
87 1 39 7 53 38 87 20 23 57 54 82 69 24 15 52 37 61 49 14 17 28 21 81 21
l63 0 5 45 c7 57 25 88 56 100 18 7 24 17 24 39 0 40 26 64 64 58 36 -5 103
23 129 54 15 17 26 20 55 16 40 -7 49 -14 54 -41 2 -14 -5 -21 -25 -27 -16 -4
-35 -13 -43 -20 -16 -13 -19 -34 -4 -24 6 4 10 -5 10 -19 0 -21 5 -26 26 -26
15 0 34 -10 44 -22 l17 -22 16 31 c25 48 66 57 104 21 13 -12 23 -27 23 -35 0
-31 70 -19 169 29 68 33 80 42 67 50 -42 24 -146 26 -178 4 -25 -18 -74 -21
-83 -7 -3 6 -17 6 -35 1 -17 -5 -30 -7 -30 -4 0 3 -9 0 -20 -6 -17 -9 -20 -7
-26 17 -7 25 -8 60 -3 94 3 24 88 44 121 29 27 -13 49 -5 138 46 40 22 49 24
81 15 43 -13 92 -49 83 -62 -3 -5 6 -4 21 3 21 10 31 9 55 -5 23 -14 31 -15
42 -5 25 25 64 37 136 43 89 8 102 0 102 -61 0 -32 4 -44 15 -44 8 0 15 4 15
8 0 11 45 32 68 32 9 0 25 14 34 30 11 19 35 38 63 50 37 16 45 24 45 46 0 14
8 39 18 56 14 25 22 29 50 26 28 -4 36 0 48 23 15 30 51 59 72 59 7 0 22 -5
33 -11z m417 -92 c40 -38 40 -63 2 -115 -16 -23 -28 -47 -25 -54 13 -35 -57
-59 -78 -27 -8 13 -5 23 11 44 29 37 28 51 -8 92 -35 39 -37 56 -11 82 25 25
67 17 109 -22z m5732 13 c-6 -11 -13 -20 -16 -20 -2 0 0 9 6 20 6 11 13 20 16
20 2 0 0 -9 -6 -20z m-630 -10 c-6 -11 -13 -20 -16 -20 -2 0 0 9 6 20 6 11 13
20 16 20 2 0 0 -9 -6 -20z m584 -60 c-15 -22 -29 -40 -31 -40 -5 0 3 15 29 53
30 43 31 32 2 -13z m-611 15 c-3 -9 -8 -14 -10 -11 -3 3 -2 9 2 15 9 16 15 13
8 -4z m-4419 -68 c14 -10 17 -21 11 -45 -8 -38 -31 -53 -62 -41 -28 10 -32 59
-7 83 19 19 35 20 58 3z m4367 -10 c-10 -9 -11 -8 -5 6 3 10 9 15 12 12 3 -3
0 -11 -7 -18z m606 -24 c-13 -21 -56 -86 -95 -145 -171 -256 -545 -869 -547
-897 -2 -24 -25 -62 -34 -57 -4 3 -23 -8 -42 -23 -19 -15 -91 -66 -161 -114
l-127 -85 40 -7 c26 -4 45 -3 52 4 12 12 0 15 -35 12 -10 -1 -18 0 -18 2 0 7
92 61 107 63 15 3 30 -15 34 -40 3 -12 17 7 43 58 37 71 56 93 56 64 0 -7 -27
-65 -60 -127 -44 -84 -57 -118 -49 -125 8 -8 13 -7 16 2 3 6 14 12 24 12 11 0
18 -4 15 -8 -2 -4 8 -8 22 -7 22 0 28 -5 30 -27 3 -24 0 -28 -20 -28 -13 0
-30 6 -37 13 -11 10 -14 10 -18 0 -7 -19 -23 -16 -23 5 0 23 -54 46 -88 37
-15 -3 -47 -10 -72 -13 l-45 -7 27 -26 c24 -23 26 -27 12 -41 -23 -22 -9 -68
21 -68 26 0 42 -17 42 -42 0 -17 -14 -23 -49 -20 -9 1 -20 -8 -23 -19 -8 -24
-31 -20 -27 5 2 9 -4 16 -14 16 -13 0 -15 6 -10 32 5 25 4 30 -6 20 -7 -7 -17
-12 -24 -12 -12 0 -4 39 17 82 11 23 -30 48 -81 48 -32 0 -40 -4 -40 -19 0
-21 -36 -71 -52 -71 -6 0 -8 13 -4 33 6 31 4 34 -31 47 -21 8 -44 15 -51 16
-46 8 -119 30 -128 39 -5 5 -13 18 -17 28 -3 9 -13 17 -20 17 -8 0 -20 7 -27
15 -10 12 -7 19 17 39 27 23 28 23 35 5 11 -28 59 -25 88 6 13 14 30 25 37 25
22 0 27 -29 8 -50 -21 -23 -15 -35 14 -25 11 3 21 16 23 28 2 11 12 24 24 27
33 8 124 82 124 100 0 9 11 22 25 28 14 6 25 18 25 27 0 24 24 17 37 -12 11
-24 9 -31 -24 -76 -34 -47 -35 -49 -12 -42 28 9 138 64 189 96 l35 21 -35 -31
c-19 -17 -75 -52 -123 -77 -94 -49 -109 -69 -30 -39 104 39 330 185 344 223 6
14 19 32 29 39 24 17 26 33 5 33 -8 0 -15 -4 -15 -9 0 -5 -7 -11 -15 -15 -12
-4 -13 -2 -6 13 9 16 6 20 -21 25 -20 4 -42 0 -62 -10 -49 -25 -174 -64 -205
-64 -15 0 -48 -6 -72 -13 -57 -16 -125 -14 -121 4 5 23 10 25 186 83 92 31
180 63 195 71 l26 15 -30 -6 c-16 -3 -61 -14 -98 -25 -62 -18 -219 -37 -189
-23 6 3 12 14 12 25 0 25 26 35 45 19 13 -11 29 -11 85 0 39 7 70 16 70 19 0
3 -32 7 -70 7 -101 2 -110 8 -74 45 23 25 35 30 59 26 37 -6 85 2 85 14 0 5
-17 9 -37 9 -53 0 -68 12 -54 39 7 11 16 21 21 21 6 0 10 7 10 15 0 22 31 18
37 -5 7 -25 31 -26 49 -2 13 16 14 16 20 -5 8 -30 19 -32 170 -40 111 -5 137
-4 157 10 13 8 50 57 81 109 90 146 114 183 216 338 156 236 240 360 245 360
3 0 -5 -17 -18 -37z m-694 -115 c-33 -51 -73 -115 -89 -143 -15 -27 -42 -70
-59 -95 -29 -42 -147 -229 -296 -466 -78 -125 -104 -146 -170 -138 -30 4 -55
2 -70 -7 -13 -7 -31 -13 -39 -14 -64 -6 -118 -19 -132 -32 -9 -8 -21 -12 -26
-9 -5 3 -40 -4 -78 -15 -114 -33 -152 -38 -171 -23 -17 12 -17 13 1 27 10 8
16 18 13 24 -4 5 6 16 21 24 15 7 28 14 30 15 2 1 -6 12 -17 23 -31 31 -27 51
9 51 17 0 30 5 30 10 0 7 13 8 36 4 35 -6 36 -6 24 16 -18 33 -5 36 38 8 44
-29 142 -43 149 -21 3 7 -1 15 -9 17 -132 40 -169 54 -201 80 -30 24 -40 27
-47 17 -9 -15 -4 -37 14 -61 19 -25 -44 27 -66 55 -26 33 -19 42 11 14 12 -12
25 -19 28 -16 9 10 -32 59 -125 150 -88 85 -108 121 -41 72 19 -13 52 -36 74
-51 38 -25 105 -90 100 -96 -2 -2 23 -3 55 -4 53 0 59 2 57 19 -3 32 17 30 36
-3 19 -31 81 -65 103 -56 7 3 10 14 7 25 -7 28 25 41 42 18 8 -11 26 -17 50
-17 37 0 73 -20 130 -72 19 -18 92 -45 99 -37 2 2 7 14 10 26 6 19 2 23 -36
33 -60 14 -92 33 -96 54 -4 17 1 18 47 12 28 -3 73 -9 99 -12 l49 -6 53 83
c29 46 97 149 149 228 53 79 101 151 106 159 6 9 31 48 56 87 25 38 56 87 69
108 12 21 25 36 27 33 3 -3 -21 -47 -54 -98z m-3870 66 c24 -23 33 -26 101
-25 69 1 76 -1 107 -30 42 -39 28 -54 -54 -55 -96 -1 -95 -1 -99 -36 -2 -28
-8 -34 -30 -36 -33 -4 -38 20 -12 56 8 12 12 27 9 32 -8 13 -42 13 -50 0 -9
-14 -25 -2 -25 18 0 9 -7 30 -15 46 -14 26 -14 30 2 42 26 19 37 17 66 -12z
m107 1 c0 -7 -30 -13 -34 -7 -3 4 4 9 15 9 10 1 19 0 19 -2z m248 -92 c4 -30
-31 -49 -52 -27 -30 29 -15 55 29 51 12 -1 21 -11 23 -24z m-3104 -9 c3 -8 2
-12 -4 -9 -6 3 -10 10 -10 16 0 14 7 11 14 -7z m2202 -25 c12 -20 -31 -52 -60
-45 -32 8 -35 39 -4 60 22 15 49 9 64 -15z m999 1 c11 -17 -15 -50 -39 -50
-28 0 -42 26 -25 46 13 16 55 19 64 4z m-619 -25 c4 -8 3 -27 0 -41 -5 -20
-12 -25 -34 -22 -28 3 -40 32 -28 64 7 19 55 18 62 -1z m478 -91 c21 -8 21
-58 0 -75 -33 -27 -72 33 -44 67 14 16 21 17 44 8z m242 -36 c11 -11 15 -25
10 -42 -7 -30 -21 -32 -86 -12 -85 25 -77 71 13 71 30 0 52 -6 63 -17z m604
-48 c-12 -23 -30 -35 -30 -21 0 6 -7 11 -15 11 -21 0 -19 27 2 39 27 15 56 -5
43 -29z m-896 -13 c9 -15 7 -21 -8 -33 -26 -18 -55 -18 -62 1 -4 8 -11 15 -16
15 -6 0 -8 -7 -4 -15 3 -9 -4 -21 -19 -31 -23 -15 -27 -15 -57 3 -18 11 -35
28 -37 38 -6 32 25 44 111 42 66 -2 83 -5 92 -20z m776 3 c0 -5 -4 -10 -9 -10
-6 0 -13 5 -16 10 -3 6 1 10 9 10 9 0 16 -4 16 -10z m66 -45 c27 -2 54 -4 59
-4 13 -2 -56 -60 -72 -61 -8 0 -10 -11 -6 -34 3 -19 1 -36 -6 -40 -6 -4 -11
-14 -11 -22 0 -12 8 -13 34 -9 50 10 76 -8 76 -52 0 -39 31 -83 58 -83 8 0 20
-8 27 -17 11 -15 15 -15 29 -4 9 7 16 27 16 43 0 35 24 47 49 24 10 -9 25 -16
34 -16 28 0 117 -54 117 -71 0 -8 -7 -24 -15 -35 -13 -16 -16 -17 -26 -4 -8
11 -12 12 -16 3 -6 -16 -47 -17 -75 -2 -14 8 -23 8 -31 0 -6 -6 -26 -11 -44
-11 -29 0 -33 3 -33 25 0 29 -16 32 -43 8 -25 -23 -125 -23 -160 0 -19 12 -23
22 -19 47 4 29 3 31 -15 21 -11 -5 -24 -7 -28 -3 -4 4 -3 -3 4 -15 6 -12 8
-29 5 -38 -6 -14 -20 -15 -113 -9 -58 4 -119 7 -136 8 -23 1 -31 6 -33 24 -2
12 -7 22 -12 22 -15 0 -20 -31 -8 -50 10 -15 10 -22 1 -31 -16 -16 -43 -4 -43
20 0 10 -7 21 -15 25 -8 3 -15 14 -15 24 0 10 -9 27 -20 37 -17 15 -24 16 -46
6 -22 -10 -30 -9 -45 5 -14 13 -31 15 -76 12 -44 -4 -66 -1 -93 13 -19 11 -43
19 -52 19 -30 0 -20 19 19 35 28 12 34 18 25 27 -17 17 -14 49 7 77 18 23 18
23 110 11 50 -6 98 -9 105 -7 8 3 17 19 21 36 9 41 23 39 65 -9 19 -22 44 -41
55 -42 52 -4 115 3 127 15 25 25 83 55 118 61 19 4 46 15 60 26 16 12 27 15
31 8 4 -6 29 -12 55 -13z m1438 -70 c15 -14 25 -29 21 -33 -4 -4 -10 -1 -12 6
-3 6 -9 12 -14 12 -15 0 -89 57 -82 63 7 8 51 -16 87 -48z m2439 4 c14 -6 30
-22 36 -35 13 -29 16 -140 6 -261 -7 -87 -9 -93 -30 -93 -48 0 -110 30 -134
65 -16 24 -34 36 -58 41 -19 4 -31 9 -26 13 5 3 15 26 23 51 17 55 27 69 36
46 11 -29 32 0 55 76 11 38 29 78 40 89 22 22 21 22 52 8z m-2685 -91 c14 -33
4 -36 -26 -8 -22 21 -28 41 -15 54 9 8 26 -11 41 -46z m-2261 -16 c18 -12 18
-35 -1 -70 -16 -32 -18 -33 -40 -19 -12 8 -33 17 -47 19 -16 2 -24 9 -24 22 0
20 10 27 60 44 39 13 38 13 52 4z m117 -28 c16 -6 23 -63 9 -65 -61 -11 -88
-6 -97 18 -14 35 42 65 88 47z m-2281 -108 c13 -33 -65 -93 -104 -81 -29 9
-20 40 11 39 14 -1 33 -5 44 -9 16 -7 17 -6 7 13 -6 11 -8 28 -5 36 8 20 40
21 47 2z m4845 -12 c12 -8 22 -22 22 -30 0 -8 4 -14 10 -14 5 0 14 -9 20 -20
10 -19 9 -20 -15 -14 -32 8 -124 66 -125 78 0 4 7 6 15 2 8 -3 15 -1 15 4 0
15 33 12 58 -6z m-328 -20 c0 -14 -12 -19 -23 -8 -9 9 4 35 14 28 5 -3 9 -12
9 -20z m-1765 -9 c0 -22 -45 -48 -67 -40 -12 5 -9 12 11 35 29 33 56 35 56 5z
m3710 5 c3 -5 -13 -19 -37 -31 -58 -29 -71 -44 -62 -71 4 -13 12 -26 17 -30 6
-4 11 -19 12 -35 0 -24 4 -28 25 -25 14 1 27 7 28 12 2 6 8 8 13 5 4 -3 11 6
15 20 6 26 18 32 29 15 3 -5 17 -10 30 -10 24 0 42 -16 31 -27 -6 -6 -30 -9
-78 -12 -23 -1 -28 -6 -28 -26 0 -23 -4 -25 -44 -25 -24 0 -62 -7 -85 -15 -23
-8 -55 -12 -71 -8 -21 4 -30 2 -30 -7 0 -7 -9 -1 -20 13 -20 25 -20 28 -4 59
20 38 49 65 87 80 15 5 32 20 39 31 11 21 11 21 -16 4 -30 -20 -34 -8 -9 31
35 57 44 62 99 62 29 0 55 -4 59 -10z m-2143 -24 c10 -15 -26 -20 -49 -8 -11
7 -24 7 -35 1 -17 -9 -17 -12 -3 -25 8 -9 15 -20 15 -25 0 -8 -56 -13 -107 -9
-14 1 -26 -7 -34 -22 -6 -13 -18 -27 -25 -31 -8 -4 -14 -15 -14 -24 0 -12 -7
-14 -29 -10 -19 4 -33 1 -41 -8 -14 -17 -75 -20 -85 -6 -14 23 113 126 132
107 3 -2 19 12 37 32 25 26 44 37 77 42 57 8 152 0 161 -14z m285 -11 c1 -16
-3 -33 -10 -37 -20 -12 15 -38 59 -44 32 -4 35 -3 17 5 -13 6 -23 17 -23 26 0
17 25 21 35 5 3 -5 19 -10 35 -10 67 0 113 -47 68 -71 -26 -14 -189 -12 -241
3 -54 15 -69 28 -33 28 l28 0 -21 18 c-22 18 -19 30 14 48 11 6 21 23 23 38 3
21 8 27 25 24 16 -2 22 -11 24 -33z m188 5 c48 -21 56 -42 17 -48 -24 -4 -82
35 -82 55 0 18 10 16 65 -7z m1859 -5 c3 -9 -1 -18 -10 -22 -19 -7 -28 2 -21
22 8 19 23 19 31 0z m-2258 -41 c-5 -13 -10 -14 -18 -6 -6 6 -8 18 -4 28 5 13
10 14 18 6 6 -6 8 -18 4 -28z m-1055 -17 c47 -24 52 -29 39 -37 -11 -7 -73 9
-86 22 -7 8 4 28 15 28 5 0 19 -6 32 -13z m-289 -22 c6 -14 17 -25 25 -25 7 0
13 -6 13 -12 1 -8 7 -5 15 6 16 21 65 16 65 -7 0 -19 -49 -67 -68 -67 -13 0
-17 -9 -17 -34 0 -19 4 -38 8 -42 4 -4 7 -16 7 -26 0 -17 -16 -23 -48 -19 -6
1 -27 -10 -46 -24 -18 -14 -43 -25 -55 -25 -14 0 -25 -7 -28 -20 -6 -23 -23
-27 -23 -6 0 8 -5 16 -11 18 -14 5 6 48 21 48 6 0 10 6 10 13 0 11 23 24 73
41 10 3 16 10 12 15 -3 6 3 15 12 21 17 11 17 11 1 6 -14 -4 -18 0 -18 17 0
13 5 28 12 35 9 9 9 12 0 12 -13 0 -17 81 -5 93 14 14 34 6 45 -18z m1332 -17
c22 -6 49 -17 59 -24 18 -12 18 -13 -5 -26 -14 -8 -58 -13 -113 -14 -106 -2
-126 -4 -142 -16 -6 -5 -23 -6 -37 -2 -16 4 -26 2 -26 -5 0 -17 -30 -13 -37 5
-7 20 15 36 40 28 10 -3 23 -2 30 3 7 5 29 11 51 12 21 1 54 13 74 26 42 29
49 29 106 13z m-1121 -64 c-6 -16 -39 -19 -48 -4 -3 5 -1 19 5 31 11 19 13 20
30 4 10 -9 16 -23 13 -31z m3667 12 c-13 -13 -35 7 -25 24 5 8 11 8 21 -1 10
-8 12 -15 4 -23z m-2362 -7 c19 -8 21 -12 12 -30 -8 -14 -17 -18 -28 -14 -9 3
-29 9 -44 12 -30 6 -36 21 -16 41 12 12 25 10 76 -9z m-1345 -54 c-4 -16 -3
-17 5 -6 14 20 62 20 95 1 24 -15 26 -19 12 -30 -8 -7 -28 -10 -45 -8 -24 4
-29 1 -25 -11 2 -9 0 -22 -4 -30 -8 -13 -12 -13 -26 -1 -10 9 -36 13 -71 11
-48 -2 -54 0 -54 18 0 11 9 25 20 31 11 6 20 18 20 27 0 9 7 24 16 34 15 17
18 17 39 1 14 -10 20 -24 18 -37z m3595 17 c4 -40 -6 -40 -42 -3 l-28 29 23 5
c38 7 44 3 47 -31z m-2115 13 c15 -4 47 -2 71 4 59 14 79 6 71 -28 -3 -14 -12
-31 -20 -36 -8 -7 -11 -21 -8 -37 6 -31 -18 -41 -57 -22 -38 18 -90 6 -100
-22 -7 -17 -17 -24 -35 -24 -31 0 -33 22 -5 48 l20 19 -20 18 c-18 17 -28 73
-15 87 7 7 64 3 98 -7z m648 4 c-16 -6 -28 -6 -35 1 -7 7 1 10 25 9 32 0 33
-1 10 -10z m-1416 -19 c7 0 15 -10 19 -22 4 -16 8 -19 14 -11 4 7 19 10 32 8
14 -3 35 0 48 7 34 18 46 -1 38 -56 -8 -54 -45 -88 -71 -66 -8 7 -15 21 -15
31 0 17 -17 25 -43 20 -5 -1 -6 3 -2 9 3 5 -1 10 -9 10 -9 0 -40 11 -71 25
-60 28 -74 51 -25 42 16 -4 32 -2 36 4 3 6 13 8 21 5 8 -3 20 -6 28 -6z m1365
0 c0 -5 -5 -10 -11 -10 -5 0 -7 5 -4 10 3 6 8 10 11 10 2 0 4 -4 4 -10z
m-1508 -32 c-10 -10 -44 0 -37 12 3 5 14 6 26 3 12 -3 17 -9 11 -15z m1426 0
c18 -18 14 -36 -9 -43 -27 -9 -40 4 -33 33 7 24 24 28 42 10z m-1729 -10 c11
-10 14 -10 18 0 5 14 49 17 57 3 3 -5 -1 -15 -10 -22 -12 -10 -25 -10 -62 -1
-26 7 -56 10 -67 8 -11 -2 -29 2 -40 10 -17 13 -13 14 36 14 30 0 61 -6 68
-12z m238 -4 c8 -20 -8 -36 -26 -25 -15 10 -8 41 9 41 6 0 13 -7 17 -16z
m1633 -9 c0 -8 -7 -11 -20 -8 -16 4 -18 8 -9 19 13 16 29 10 29 -11z m50 15
c0 -5 -4 -10 -10 -10 -5 0 -10 5 -10 10 0 6 5 10 10 10 6 0 10 -4 10 -10z
m-2656 -22 c-13 -20 -13 -57 -2 -64 7 -5 8 -2 3 6 -5 8 -3 11 6 8 8 -3 13 -12
11 -20 -1 -9 5 -21 13 -28 15 -13 21 -50 8 -50 -5 0 -9 -13 -10 -30 -2 -24 2
-31 22 -36 37 -9 55 2 55 33 0 23 5 28 25 29 14 1 25 -2 25 -7 0 -5 -5 -9 -11
-9 -5 0 -7 -5 -3 -11 5 -8 10 -6 16 5 5 9 17 16 26 16 19 1 62 33 62 48 0 14
36 25 109 35 14 2 27 9 29 15 2 6 10 8 18 5 9 -3 12 -13 9 -23 -6 -19 18 -30
66 -30 15 0 32 -6 38 -14 9 -11 2 -14 -41 -19 -29 -2 -56 -1 -59 4 -8 14 -88
3 -108 -15 -10 -9 -22 -16 -27 -16 -17 0 -96 -41 -117 -61 -11 -10 -23 -16
-28 -14 -4 3 -16 -6 -27 -20 -11 -14 -29 -25 -41 -25 -12 0 -21 -6 -21 -15 0
-8 -3 -14 -7 -14 -22 4 -35 -3 -43 -23 -9 -23 -9 -23 -9 -2 -1 12 -8 25 -17
28 -13 5 -15 0 -11 -30 3 -19 2 -33 -1 -30 -3 3 -14 -2 -24 -11 -18 -16 -18
-16 -12 3 4 10 4 16 0 12 -4 -3 -8 -13 -10 -21 -4 -27 -28 -47 -57 -47 -15 0
-30 -4 -33 -9 -4 -5 -24 -12 -46 -16 -22 -4 -38 -11 -34 -16 3 -5 -3 -9 -14
-9 -10 0 -24 -10 -31 -22 -14 -27 -21 -98 -9 -98 4 0 8 -7 8 -16 0 -8 4 -13 9
-10 5 3 14 -1 21 -9 10 -13 9 -15 -11 -16 l-24 -2 23 -4 c13 -3 26 -11 29 -19
3 -8 9 -12 14 -9 10 7 24 -20 32 -62 9 -46 -9 -50 -34 -9 -22 37 -42 46 -56
23 -4 -8 -16 -17 -27 -20 -17 -7 -17 -9 -2 -32 18 -27 21 -55 6 -55 -5 0 -10
9 -10 20 0 11 -4 20 -10 20 -16 0 -24 -51 -11 -72 9 -14 8 -18 -3 -18 -10 0
-14 -10 -13 -35 2 -38 17 -49 17 -12 0 14 9 26 25 34 14 6 25 7 25 2 0 -5 7
-9 15 -9 8 0 15 -4 15 -10 0 -5 -7 -10 -15 -10 -19 0 -19 -7 0 -26 11 -12 12
-20 3 -40 -8 -18 -14 -21 -20 -12 -4 7 -8 8 -8 2 0 -5 9 -20 21 -32 l20 -23
-28 7 c-15 4 -30 11 -33 15 -10 14 -70 23 -70 11 0 -6 7 -9 15 -6 14 6 19 -5
16 -33 -1 -7 5 -13 12 -13 8 0 17 -7 21 -15 4 -10 -1 -15 -17 -16 -15 -1 -17
-3 -6 -6 12 -3 17 -17 18 -53 0 -28 -3 -50 -8 -50 -5 0 -9 15 -9 34 0 18 -5
43 -11 54 -6 11 -8 28 -5 37 5 11 0 18 -15 22 -11 3 -21 10 -21 15 0 5 -5 6
-11 3 -6 -5 -4 -11 7 -19 13 -10 14 -15 5 -20 -9 -6 -9 -12 3 -25 18 -20 6
-47 -18 -38 -18 7 -22 27 -5 27 5 0 7 5 4 10 -4 6 -2 17 5 25 9 10 7 15 -7 19
-18 6 -58 96 -67 151 -2 17 -5 30 -6 30 -3 0 -10 41 -12 67 0 15 -5 25 -10 22
-5 -3 -7 -22 -4 -43 15 -99 16 -115 6 -127 -9 -9 -7 -11 8 -7 15 3 21 -2 24
-21 3 -14 0 -27 -6 -30 -6 -2 -4 -5 5 -5 9 -1 20 -8 23 -17 3 -8 2 -12 -4 -9
-10 6 -14 -7 -11 -34 2 -7 -2 -10 -8 -6 -7 4 -11 -3 -11 -17 0 -13 -5 -30 -11
-38 -9 -13 -10 -12 -5 3 3 11 0 20 -9 23 -8 4 -12 10 -9 16 9 14 -5 75 -19 81
-7 3 -13 -5 -14 -21 -1 -18 1 -21 8 -11 5 8 9 9 9 3 0 -6 -9 -19 -20 -29 -25
-23 -26 -39 -2 -33 17 5 18 3 6 -31 -7 -20 -13 -44 -14 -53 0 -25 -20 -23 -20
2 0 25 -11 25 -43 0 -31 -25 -34 -25 -33 1 1 29 -28 48 -51 33 -10 -6 -18 -20
-19 -31 -1 -11 -4 -25 -8 -32 -4 -6 -4 -11 1 -11 4 0 9 -11 9 -24 1 -18 -2
-23 -13 -19 -8 3 -13 0 -11 -8 2 -8 -4 -13 -12 -11 -10 1 -7 -5 7 -17 22 -18
22 -19 4 -40 -17 -20 -18 -25 -5 -49 20 -40 18 -55 -7 -47 -20 7 -21 4 -15
-21 11 -50 11 -57 -1 -61 -16 -6 -18 102 -3 141 7 20 5 35 -7 61 -17 36 -46
47 -57 20 -3 -8 -10 -15 -15 -15 -5 0 -3 13 5 29 10 20 21 29 33 26 15 -3 20
7 29 57 6 33 19 70 29 80 17 20 17 21 -17 50 -33 28 -34 30 -16 41 11 7 30 22
42 35 25 26 59 29 72 6 6 -11 12 -13 16 -6 3 6 3 13 -2 16 -4 2 -5 47 -1 98 6
78 12 101 33 133 14 21 26 48 26 61 0 14 9 32 20 41 11 10 20 25 20 34 0 9 14
34 31 55 17 22 45 66 61 99 19 37 57 86 100 128 70 68 70 68 88 47 11 -13 20
-16 22 -9 2 7 12 9 26 5 25 -8 30 -26 7 -26 -8 0 -15 -7 -15 -15 0 -11 -7 -14
-24 -9 -20 5 -24 1 -29 -25 -5 -25 -11 -30 -29 -28 -18 2 -24 -4 -26 -25 -2
-16 -9 -28 -18 -28 -8 0 -14 -5 -14 -11 0 -5 -4 -8 -9 -4 -5 3 -12 1 -16 -5
-3 -5 0 -10 8 -10 8 0 17 -7 21 -15 3 -8 1 -15 -4 -15 -6 0 -10 -7 -10 -15 0
-8 8 -15 17 -15 12 0 1 -15 -32 -44 -28 -24 -47 -47 -44 -50 3 -4 49 39 102
94 53 55 100 100 104 100 13 0 73 63 73 77 0 7 7 13 15 13 9 0 20 11 25 25 5
14 16 25 24 25 7 0 13 7 12 16 0 9 8 21 19 28 17 9 55 45 55 51 0 1 -13 2 -29
2 -16 0 -37 7 -46 16 -21 21 -20 21 -44 -5 -17 -17 -23 -19 -35 -9 -30 25 -58
-10 -30 -37 8 -7 14 -8 14 -2 0 5 9 10 20 10 11 0 20 4 20 9 0 5 9 11 20 14
15 4 20 0 20 -16 0 -12 -5 -29 -10 -37 -8 -13 -11 -13 -19 -1 -11 17 -31 6
-31 -19 0 -10 -7 -20 -14 -23 -10 -4 -13 -1 -10 7 3 7 -1 13 -8 14 -70 9 -70
8 -48 72 22 63 25 65 66 62 22 -1 44 1 49 5 24 18 65 83 65 102 0 14 6 21 18
21 10 0 33 13 52 30 39 32 45 36 34 18z m1461 -39 c8 -37 -18 -63 -47 -48 -23
12 -23 33 -1 70 20 33 38 25 48 -22z m273 38 c13 -15 10 -162 -4 -162 -17 0
-84 37 -84 46 0 5 5 9 10 9 6 0 10 11 10 24 0 25 22 51 34 39 4 -4 4 0 0 10
-13 35 12 61 34 34z m822 9 c0 -3 -4 -8 -10 -11 -5 -3 -10 -1 -10 4 0 6 5 11
10 11 6 0 10 -2 10 -4z m-1990 -32 c6 -6 8 -18 4 -27 -8 -21 -34 -23 -34 -3 0
8 -3 21 -6 29 -6 17 19 18 36 1z m168 -34 c2 -20 -4 -32 -18 -40 -16 -8 -20
-8 -20 4 0 8 4 16 10 18 6 2 4 13 -4 29 -12 24 -12 25 8 22 16 -3 22 -13 24
-33z m2422 25 c-7 -8 -17 -15 -23 -15 -6 0 -2 7 9 15 25 19 30 19 14 0z m-781
-6 c-8 -5 -25 -9 -39 -9 -30 0 -44 -9 -53 -32 -3 -10 -15 -18 -26 -18 -11 0
-23 -4 -26 -10 -7 -12 -66 -2 -84 15 -7 7 -10 18 -7 24 11 17 35 13 48 -9 18
-28 36 -25 44 8 9 36 12 37 89 38 41 1 62 -2 54 -7z m1126 -27 c17 -20 24 -33
18 -28 -8 4 -13 2 -13 -4 0 -18 -18 -2 -34 32 -27 52 -14 53 29 0z m-2642 21
c-7 -2 -19 -2 -25 0 -7 3 -2 5 12 5 14 0 19 -2 13 -5z m735 -16 c2 -10 -3 -17
-11 -17 -8 0 -17 -9 -20 -20 -7 -26 -23 -26 -30 1 -3 13 2 28 14 40 23 23 42
21 47 -4z m2262 19 c0 -3 -4 -8 -10 -11 -5 -3 -10 -1 -10 4 0 6 5 11 10 11 6
0 10 -2 10 -4z m-3040 -32 c0 -8 -4 -12 -10 -9 -5 3 -10 10 -10 16 0 5 5 9 10
9 6 0 10 -7 10 -16z m2865 -4 c10 -11 15 -23 12 -27 -8 -7 -47 25 -47 39 0 14
16 9 35 -12z m870 10 c-3 -5 -10 -10 -16 -10 -5 0 -9 5 -9 10 0 6 7 10 16 10
8 0 12 -4 9 -10z m-3785 -31 c0 -5 -7 -9 -15 -9 -9 0 -12 6 -9 15 6 15 24 11
24 -6z m736 -7 c-9 -9 -37 8 -31 18 5 8 11 7 21 -1 8 -6 12 -14 10 -17z m1858
6 c3 -13 6 -43 6 -67 0 -35 -3 -41 -13 -32 -8 6 -17 8 -20 4 -11 -11 -37 19
-37 43 0 13 6 27 13 31 8 4 16 16 20 26 9 24 23 21 31 -5z m-654 -18 c0 -25
-18 -36 -26 -16 -8 21 3 49 16 41 5 -3 10 -15 10 -25z m-4974 -4 c3 -13 4 -37
2 -52 -2 -23 -7 -28 -23 -26 -11 2 -23 8 -26 14 -13 21 12 87 33 88 4 0 10
-11 14 -24z m983 -46 c17 -39 31 -82 31 -95 0 -14 7 -42 16 -63 9 -20 22 -61
30 -90 16 -61 8 -89 -28 -94 -16 -2 -23 -10 -23 -26 0 -13 -10 -31 -21 -40
-11 -9 -28 -30 -38 -46 -15 -24 -22 -27 -49 -22 -46 9 -53 20 -38 61 8 23 9
40 2 53 -5 9 -11 45 -14 77 -5 68 -32 132 -59 141 -10 3 -26 17 -35 30 -15 24
-15 26 6 40 26 19 27 31 1 39 -26 8 -26 37 1 53 30 19 73 -9 66 -44 -3 -17 1
-28 14 -35 16 -8 19 -6 19 9 0 23 26 88 43 108 25 28 44 15 76 -56z m2421 30
c0 -16 -4 -30 -10 -30 -5 0 -10 5 -10 10 0 6 -13 10 -30 10 -20 0 -30 5 -30
15 0 8 9 15 21 15 11 0 17 -4 14 -10 -3 -5 1 -10 9 -10 9 0 15 3 15 8 -3 14 1
22 11 22 6 0 10 -13 10 -30z m3395 10 c-5 -14 -2 -20 9 -20 9 0 16 -7 16 -15
0 -10 -10 -15 -29 -15 -23 0 -30 6 -35 25 -8 32 -1 45 25 45 16 0 19 -5 14
-20z m46 7 c-1 -12 -15 -9 -19 4 -3 6 1 10 8 8 6 -3 11 -8 11 -12z m-3850 -39
c-20 -7 -25 -18 -22 -45 2 -15 -27 -17 -48 -4 -7 5 -10 14 -7 20 4 6 12 9 17
6 5 -4 9 1 9 9 0 8 -5 18 -10 21 -8 5 -7 11 0 20 10 12 17 11 46 -3 32 -15 33
-17 15 -24z m269 6 c0 -8 -4 -14 -10 -14 -5 0 -10 9 -10 21 0 11 5 17 10 14 6
-3 10 -13 10 -21z m2972 12 c26 -19 47 -77 37 -101 -12 -30 -11 -41 3 -27 26
26 28 10 2 -23 -31 -41 -44 -44 -44 -11 0 14 -5 28 -11 32 -17 10 -49 86 -49
117 0 22 4 27 23 27 12 0 30 -7 39 -14z m-2926 -23 c-3 -8 -6 -17 -6 -19 0 -3
-5 -2 -10 1 -6 4 -8 11 -5 16 4 5 1 9 -5 9 -6 0 -9 4 -5 10 9 14 37 -1 31 -17z
m-976 1 c0 -8 -5 -12 -10 -9 -6 4 -8 11 -5 16 9 14 15 11 15 -7z m750 6 c0 -5
-2 -10 -4 -10 -3 0 -8 5 -11 10 -3 6 -1 10 4 10 6 0 11 -4 11 -10z m-3702 -23
c2 -12 -3 -17 -17 -17 -12 0 -21 6 -21 13 0 31 32 34 38 4z m3755 11 c3 -10 7
-10 20 1 18 14 22 5 11 -23 -3 -9 -12 -16 -19 -16 -14 0 -29 -29 -20 -38 3 -3
5 0 5 6 0 7 11 12 25 12 31 0 33 -17 3 -22 -13 -2 -21 -7 -18 -13 3 -5 8 -9
13 -7 4 1 7 -3 7 -10 0 -9 3 -9 11 -1 12 12 52 -6 72 -32 5 -5 6 2 3 18 -7 31
-7 31 29 17 20 -8 25 -15 20 -29 -3 -11 -1 -22 5 -26 12 -7 4 -25 -11 -25 -6
0 -8 4 -5 9 3 5 -1 11 -9 15 -8 3 -15 1 -15 -5 0 -6 -7 -3 -16 5 -8 9 -26 16
-38 16 -13 0 -29 7 -36 15 -7 8 -22 15 -35 15 -25 0 -85 28 -85 39 0 4 -13 6
-30 3 -18 -3 -30 0 -30 7 0 6 4 11 9 11 5 0 11 9 14 20 6 23 27 27 27 5 0 -17
16 -21 22 -5 2 5 14 11 28 13 17 3 24 10 22 21 -3 19 14 22 21 4z m97 -9 c0
-11 -5 -19 -12 -17 -17 6 -19 38 -2 38 8 0 14 -9 14 -21z m2775 10 c12 -19 -5
-23 -22 -6 -16 16 -16 17 -1 17 9 0 20 -5 23 -11z m-3130 -9 c5 -8 11 -7 21 1
15 12 17 9 8 -14 -6 -18 -54 -10 -54 9 0 16 16 19 25 4z m135 0 c0 -5 -4 -10
-10 -10 -5 0 -10 5 -10 10 0 6 5 10 10 10 6 0 10 -4 10 -10z m-410 -4 c0 -11
-19 -15 -25 -6 -3 5 1 10 9 10 9 0 16 -2 16 -4z m1788 -32 c31 -35 28 -67 -13
-111 -19 -21 -35 -44 -35 -52 0 -28 -12 -2 -16 36 -3 21 -7 53 -9 72 -3 19 0
41 7 48 8 10 5 13 -13 13 -23 1 -23 1 -5 15 25 19 54 11 84 -21z m1692 10 c0
-16 -26 -19 -35 -4 -3 6 -4 14 0 20 8 13 35 1 35 -16z m-7671 2 c7 -9 8 -17 2
-20 -15 -10 -40 5 -34 20 7 18 17 18 32 0z m2271 -11 c10 -12 9 -16 -4 -21 -9
-3 -23 -3 -32 0 -13 5 -14 9 -4 21 7 8 16 15 20 15 4 0 13 -7 20 -15z m3790 4
c0 -8 4 -8 14 0 8 7 17 8 20 3 7 -13 -4 -22 -26 -22 -10 0 -18 -4 -18 -10 0
-5 6 -7 13 -5 17 7 41 -11 32 -24 -5 -9 -10 -9 -22 0 -11 10 -19 10 -33 1 -14
-9 -19 -8 -24 4 -9 23 -7 31 10 48 18 19 34 21 34 5z m2160 1 c0 -5 -4 -10
-10 -10 -5 0 -10 5 -10 10 0 6 5 10 10 10 6 0 10 -4 10 -10z m356 -27 c9 -35
-5 -41 -26 -13 -20 27 -19 37 5 37 8 0 18 -11 21 -24z m-4466 5 c0 -11 -28
-10 -35 1 -3 6 4 9 15 8 11 -1 20 -5 20 -9z m1640 -9 c0 -6 -4 -7 -10 -4 -5 3
-10 11 -10 16 0 6 5 7 10 4 6 -3 10 -11 10 -16z m104 -1 c-9 -31 -24 -49 -35
-42 -5 3 -9 0 -9 -5 0 -6 -4 -11 -10 -11 -5 0 -7 6 -5 13 21 60 26 67 45 67
17 0 20 -4 14 -22z m2236 6 c0 -8 -5 -12 -10 -9 -6 4 -8 11 -5 16 9 14 15 11
15 -7z m50 -4 c0 -5 -4 -10 -10 -10 -5 0 -10 5 -10 10 0 6 5 10 10 10 6 0 10
-4 10 -10z m-2616 -15 c3 -8 12 -12 21 -9 8 3 15 1 15 -5 0 -6 -12 -10 -27 -9
-16 1 -38 -4 -51 -11 -27 -14 -62 -6 -62 15 0 29 93 47 104 19z m201 6 c3 -5
1 -12 -5 -16 -5 -3 -10 1 -10 9 0 18 6 21 15 7z m1503 -3 c-6 -18 -28 -21 -28
-4 0 9 7 16 16 16 9 0 14 -5 12 -12z m992 3 c0 -5 -7 -14 -15 -21 -12 -10 -15
-10 -15 2 0 8 3 18 7 21 9 10 23 9 23 -2z m-3725 -21 c16 0 36 -4 44 -9 19
-12 -52 -26 -76 -16 -10 5 -24 7 -31 6 -11 -2 -11 2 -2 19 9 16 15 19 23 11 6
-6 25 -11 42 -11z m310 10 c3 -5 1 -10 -4 -10 -6 0 -11 5 -11 10 0 6 2 10 4
10 3 0 8 -4 11 -10z m559 -3 c15 -11 16 -18 9 -32 -13 -23 -41 -28 -70 -13
-26 13 -29 28 -11 46 16 16 50 15 72 -1z m-444 -6 c0 -5 14 -24 31 -41 17 -17
29 -34 25 -37 -3 -4 -6 0 -6 8 0 12 -2 11 -10 -1 -9 -13 -12 -13 -21 3 -5 9
-15 17 -20 17 -6 0 -7 -6 -3 -12 6 -10 5 -10 -7 -1 -16 13 -14 73 2 73 5 0 9
-4 9 -9z m1314 -7 c17 -6 22 -49 8 -58 -5 -3 -24 -8 -42 -11 -18 -3 -45 -15
-61 -25 -32 -23 -41 -24 -57 -8 -10 10 -5 16 20 28 26 12 33 21 31 42 -1 18 4
28 15 31 27 7 69 8 86 1z m904 -16 c-3 -23 -48 -41 -48 -20 0 6 -3 17 -6 26
-5 13 1 16 26 16 27 0 31 -3 28 -22z m971 -4 c-9 -11 -15 -12 -26 -2 -13 10
-12 13 4 19 25 9 36 0 22 -17z m558 -6 c-8 -5 -7 -8 4 -8 24 0 72 -66 64 -89
-3 -11 -1 -22 5 -26 9 -5 50 -82 50 -93 0 -2 -11 -2 -25 0 -19 4 -25 1 -25
-13 0 -28 -16 -23 -30 10 -6 16 -34 53 -61 82 -27 30 -49 60 -49 67 0 15 34
16 60 2 13 -7 21 -7 25 0 3 5 0 10 -7 10 -7 0 -26 10 -41 23 -26 21 -27 23
-12 44 13 19 19 21 35 11 14 -9 16 -14 7 -20z m-6382 10 c14 -6 25 -14 25 -17
0 -15 -32 -51 -46 -51 -19 0 -30 28 -16 42 6 6 8 17 5 24 -6 17 -1 17 32 2z
m3785 6 c0 -16 -23 -44 -35 -44 -18 0 -20 21 -3 38 12 12 38 17 38 6z m2210
-4 c0 -5 -4 -10 -10 -10 -5 0 -10 5 -10 10 0 6 5 10 10 10 6 0 10 -4 10 -10z
m-3683 -6 c-3 -3 -12 -4 -19 -1 -8 3 -5 6 6 6 11 1 17 -2 13 -5z m3920 -16
c-3 -8 -6 -5 -6 6 -1 11 2 17 5 13 3 -3 4 -12 1 -19z m-7012 -32 c-9 -14 -14
-30 -10 -36 3 -5 0 -10 -8 -10 -19 0 -10 61 11 78 23 18 27 -1 7 -32z m6725
14 c0 -5 -10 -10 -22 -10 -19 0 -20 2 -8 10 19 13 30 13 30 0z m366 -6 c-3 -9
-6 -20 -6 -25 0 -12 -37 -12 -45 1 -3 6 1 10 9 10 9 0 16 7 16 15 0 8 7 15 16
15 11 0 14 -5 10 -16z m-4561 -4 c3 -6 -5 -10 -19 -10 -14 0 -28 -5 -31 -10
-4 -6 -11 -8 -16 -5 -17 11 -9 24 19 28 15 2 30 5 34 6 4 0 10 -3 13 -9z
m1005 2 c0 -14 -46 -53 -53 -45 -13 12 -7 22 16 25 12 2 21 9 20 16 -2 6 2 12
7 12 6 0 10 -4 10 -8z m300 -2 c0 -5 -5 -10 -11 -10 -5 0 -7 5 -4 10 3 6 8 10
11 10 2 0 4 -4 4 -10z m269 -11 c-18 -11 -39 -11 -39 0 0 11 31 20 44 13 4 -2
2 -8 -5 -13z m83 -1 c-6 -6 -16 -7 -22 -3 -9 6 -9 9 1 16 17 10 34 0 21 -13z
m2574 -15 c-5 -12 -10 -13 -18 -5 -8 8 -8 15 3 28 15 18 25 4 15 -23z m659 11
c0 -10 -8 -20 -17 -22 -18 -3 -26 27 -11 42 12 11 28 0 28 -20z m-4079 1 c33
-17 54 -19 54 -6 0 15 61 -9 67 -26 8 -21 -17 -33 -39 -20 -14 9 -20 9 -26 0
-6 -9 -24 -7 -75 8 -52 16 -67 25 -67 40 0 24 44 26 86 4z m3332 -8 c2 -10 -3
-17 -12 -17 -18 0 -29 16 -21 31 9 14 29 6 33 -14z m-3038 -2 c0 -10 -8 -14
-22 -12 -32 5 -35 27 -4 27 16 0 26 -6 26 -15z m2888 -30 c56 -32 67 -50 27
-43 -27 6 -33 -9 -12 -31 10 -11 6 -13 -23 -8 -22 3 -43 0 -55 -9 -10 -8 -15
-14 -10 -14 4 0 6 -3 3 -6 -3 -3 -14 -1 -25 5 -10 6 -30 15 -45 21 -35 12 -36
42 -3 60 14 7 25 18 25 23 0 6 7 18 16 28 18 20 24 18 102 -26z m72 35 c0 -5
-4 -10 -10 -10 -5 0 -10 5 -10 10 0 6 5 10 10 10 6 0 10 -4 10 -10z m-4067 -7
c-7 -2 -21 -2 -30 0 -10 3 -4 5 12 5 17 0 24 -2 18 -5z m4207 -13 c14 -27 47
-25 71 3 l18 22 1 -27 c0 -29 14 -43 30 -33 8 5 7 11 -1 21 -9 12 -5 14 26 14
29 0 36 -3 31 -15 -7 -19 4 -19 31 0 12 8 28 13 35 10 16 -6 19 -76 4 -73 -6
0 -24 -5 -41 -12 -16 -7 -33 -13 -37 -12 -14 3 -20 -41 -7 -49 24 -15 47 -10
54 11 8 24 17 25 75 3 59 -22 125 -67 152 -103 12 -16 25 -27 30 -24 8 5 12
-9 9 -33 -2 -16 15 -17 24 -3 4 7 16 2 30 -12 17 -16 21 -26 13 -33 -7 -7 -12
-6 -15 3 -7 19 -33 14 -31 -5 1 -10 0 -27 -1 -38 -2 -17 -4 -16 -15 8 l-12 28
-19 -43 c-11 -24 -26 -53 -35 -65 -16 -21 -17 -21 -33 -3 -10 12 -25 18 -44
15 -15 -2 -32 -4 -37 -4 -4 -1 -6 -12 -4 -26 7 -32 -8 -42 -32 -20 -15 14 -21
14 -39 3 -12 -7 -21 -18 -21 -25 0 -22 -26 -14 -38 12 -6 14 -16 25 -21 25 -6
0 -15 9 -21 21 -10 17 -7 25 19 51 32 32 43 61 16 38 -12 -10 -15 -10 -16 1 0
8 -6 3 -12 -11 -12 -24 -37 -39 -37 -22 0 5 -9 18 -20 30 -21 23 -52 20 -43
-4 3 -8 -4 -17 -20 -23 -23 -9 -24 -12 -14 -51 8 -27 8 -43 2 -48 -6 -4 -16
-19 -22 -34 -7 -16 -17 -28 -23 -28 -13 0 -40 54 -45 90 -2 16 -6 34 -10 40
-9 15 41 61 59 54 11 -4 16 0 16 15 0 14 -6 21 -20 21 -13 0 -18 5 -14 15 4 9
0 15 -10 15 -9 0 -16 4 -16 8 0 4 -9 8 -19 9 -14 1 -18 -3 -14 -13 3 -8 0 -14
-6 -14 -6 0 -11 7 -11 16 0 9 -14 29 -31 45 -21 19 -26 29 -16 29 9 0 19 5 23
11 4 8 0 9 -15 4 -24 -7 -28 7 -6 25 11 9 18 10 28 1 8 -6 16 -10 18 -8 2 1 1
-2 -3 -8 -11 -13 -10 -45 2 -45 5 0 7 7 4 15 -5 11 1 15 19 15 14 0 28 -7 31
-16 4 -12 2 -15 -9 -10 -8 3 -15 1 -15 -4 0 -17 37 -11 44 6 6 15 -17 43 -36
44 -5 0 -8 5 -8 11 0 6 9 9 19 6 10 -2 25 -1 32 3 7 5 18 2 26 -6 17 -16 29
-18 38 -4 3 6 1 10 -5 10 -6 0 -4 7 5 16 14 14 21 15 43 4 26 -11 26 -12 7
-26 -18 -13 -18 -14 7 -14 24 0 58 22 58 38 0 12 -44 52 -57 52 -8 0 -11 -4
-8 -10 3 -5 2 -10 -3 -10 -6 0 -12 7 -16 15 -8 21 -90 55 -140 58 -27 2 -41 8
-41 17 0 16 59 32 83 22 10 -3 13 -1 8 6 -4 7 -4 17 -1 22 10 17 34 11 45 -10z
m-3190 0 c0 -5 -4 -10 -10 -10 -5 0 -10 5 -10 10 0 6 5 10 10 10 6 0 10 -4 10
-10z m135 0 c3 -5 2 -10 -4 -10 -5 0 -13 5 -16 10 -3 6 -2 10 4 10 5 0 13 -4
16 -10z m-3765 -18 c0 -28 -20 -43 -42 -31 -14 8 -16 14 -8 29 14 25 50 27 50
2z m4874 -36 c-33 -11 -40 -2 -25 31 l13 27 18 -24 c19 -25 19 -25 -6 -34z
m1526 40 c0 -3 -4 -8 -10 -11 -5 -3 -10 -1 -10 4 0 6 5 11 10 11 6 0 10 -2 10
-4z m-7709 -46 c39 0 79 -17 79 -34 0 -12 -45 -107 -70 -146 -16 -26 -50 -108
-50 -123 0 -12 -83 -107 -94 -107 -2 0 -6 17 -10 38 -9 55 -18 65 -49 53 -32
-12 -54 7 -38 36 5 10 15 32 21 49 9 25 20 34 54 44 35 9 45 18 55 46 7 19 22
46 35 62 25 30 39 62 28 62 -24 -1 -52 -14 -52 -26 0 -8 -4 -14 -9 -14 -6 0
-6 12 0 32 5 18 9 34 9 35 0 1 8 9 17 19 16 16 18 15 31 -5 9 -13 25 -21 43
-21z m3929 23 c2 -2 -2 -8 -10 -14 -10 -6 -4 -7 20 -3 33 5 34 5 16 -10 -20
-16 -57 -13 -64 5 -2 5 -13 9 -25 9 -22 1 -22 1 -3 15 17 13 50 12 66 -2z
m2980 -17 c-13 -13 -35 7 -25 24 5 8 11 8 21 -1 10 -8 12 -15 4 -23z m-5286 7
c9 -24 -9 -39 -29 -23 -12 10 -13 16 -4 26 15 19 25 18 33 -3z m2343 11 c-3
-3 -12 -4 -19 -1 -8 3 -5 6 6 6 11 1 17 -2 13 -5z m1019 -3 c-4 -5 3 -7 14 -4
19 5 19 3 10 -22 -9 -25 -9 -26 5 -15 13 11 14 10 9 -4 -4 -10 -14 -14 -28
-12 -65 14 -76 17 -76 26 0 5 11 12 25 16 14 3 25 10 25 15 0 5 5 9 11 9 5 0
8 -4 5 -9z m1381 -29 c3 -7 0 -19 -7 -25 -10 -10 -12 -7 -7 11 5 21 2 22 -46
22 -46 1 -50 2 -34 14 14 11 26 11 54 3 19 -6 38 -17 40 -25z m483 24 c0 -20
-24 -36 -39 -26 -8 4 -11 15 -8 24 8 20 47 21 47 2z m310 4 c0 -5 -7 -10 -15
-10 -8 0 -15 5 -15 10 0 6 7 10 15 10 8 0 15 -4 15 -10z m-3105 -42 c-8 -5
-27 -5 -42 -2 -24 7 -25 8 -8 14 11 4 26 2 34 -4 11 -9 13 -6 7 14 -7 24 -6
24 9 5 13 -17 13 -20 0 -27z m2960 33 c3 -5 1 -12 -5 -16 -5 -3 -10 1 -10 9 0
18 6 21 15 7z m565 -1 c0 -5 -4 -10 -9 -10 -6 0 -13 5 -16 10 -3 6 1 10 9 10
9 0 16 -4 16 -10z m-2395 -8 c-3 -3 7 -11 22 -17 l28 -12 -32 -7 c-22 -5 -43
-3 -64 8 -17 9 -35 13 -40 10 -10 -6 -12 9 -3 18 3 4 25 6 50 6 24 -1 42 -4
39 -6z m312 -17 c-7 -7 -16 -10 -21 -5 -12 12 2 30 19 24 11 -5 12 -9 2 -19z
m-827 5 c0 -5 7 -10 15 -10 8 0 15 -4 15 -10 0 -16 -15 -12 -35 10 -10 11 -13
20 -7 20 7 0 12 -4 12 -10z m710 -6 c13 -5 12 -8 -4 -19 -13 -10 -24 -11 -37
-4 -10 5 -24 8 -31 7 -6 -2 -13 4 -15 13 -3 13 3 16 34 12 21 -2 45 -6 53 -9z
m-1670 -25 c0 -11 -7 -19 -16 -19 -11 0 -14 5 -10 16 3 9 6 20 6 25 0 6 5 7
10 4 6 -3 10 -15 10 -26z m3173 16 c0 -6 -7 -11 -16 -13 -12 -3 -15 1 -11 13
7 17 25 17 27 0z m171 -2 c4 -9 1 -20 -6 -25 -26 -16 -35 -7 -22 26 8 21 20
20 28 -1z m452 6 c3 -6 0 -15 -7 -20 -22 -14 -29 -11 -29 11 0 21 24 27 36 9z
m507 -19 c-9 -11 -19 -18 -21 -16 -6 7 22 45 30 40 4 -3 0 -13 -9 -24z m-3855
-12 c5 -21 4 -45 -4 -68 -8 -24 -9 -39 -2 -47 12 -14 7 -16 -16 -7 -9 3 -14
10 -11 15 3 4 -10 11 -30 15 -19 3 -35 10 -35 14 0 4 -10 10 -22 13 -22 6 -22
6 -3 25 11 11 23 17 28 15 4 -2 20 9 34 26 35 39 50 39 61 -1z m2972 11 c0 -6
-4 -7 -10 -4 -5 3 -10 11 -10 16 0 6 5 7 10 4 6 -3 10 -11 10 -16z m-3111 -3
c9 -10 8 -15 -4 -20 -21 -7 -45 3 -45 20 0 18 34 18 49 0z m882 -9 c-10 -9
-11 -8 -5 6 3 10 9 15 12 12 3 -3 0 -11 -7 -18z m235 11 c4 -6 -1 -8 -15 -3
-15 5 -21 2 -21 -9 0 -9 -4 -16 -10 -16 -5 0 -10 2 -10 4 0 2 -2 11 -5 19 -4
10 2 14 24 15 17 0 34 -4 37 -10z m2151 -9 c-8 -5 -18 -23 -22 -39 -4 -17 -11
-28 -15 -25 -10 6 4 51 22 72 6 7 15 10 20 7 7 -4 4 -10 -5 -15z m286 14 c-7
-2 -19 -2 -25 0 -7 3 -2 5 12 5 14 0 19 -2 13 -5z m495 -19 c8 -16 8 -23 2
-19 -6 4 -18 1 -26 -6 -11 -9 -18 -9 -26 -1 -9 9 -7 17 8 31 25 26 29 26 42
-5z m812 11 c0 -8 0 -18 1 -22 0 -4 -4 -9 -10 -11 -6 -2 -11 8 -11 22 0 14 5
26 10 26 6 0 10 -7 10 -15z m-910 -5 c0 -5 -5 -10 -11 -10 -5 0 -7 5 -4 10 3
6 8 10 11 10 2 0 4 -4 4 -10z m-4143 -46 c86 -50 123 -81 123 -100 0 -25 54
-44 94 -33 43 12 71 0 80 -35 6 -24 28 -37 74 -42 28 -3 54 -23 46 -35 -9 -16
-54 -10 -54 7 0 12 -11 15 -57 14 -82 -3 -152 18 -138 40 2 4 -17 22 -43 41
-53 38 -77 59 -66 59 4 0 -3 11 -15 24 -15 16 -29 22 -43 18 -17 -4 -19 -1
-14 15 6 17 1 22 -29 27 -19 4 -39 15 -45 26 -16 30 1 25 87 -26z m3887 21
c-10 -7 -15 -19 -11 -28 3 -9 2 -19 -3 -22 -6 -4 -10 2 -10 12 0 15 -2 16 -10
3 -5 -8 -13 -11 -17 -6 -4 4 0 14 11 21 10 8 16 20 13 28 -4 10 1 13 19 9 22
-4 23 -6 8 -17z m441 15 c3 -5 1 -10 -4 -10 -6 0 -11 5 -11 10 0 6 2 10 4 10
3 0 8 -4 11 -10z m-7163 -14 c18 -8 48 -20 65 -26 46 -17 67 -58 99 -185 34
-140 40 -147 76 -104 15 18 31 30 34 26 4 -4 8 -28 8 -54 1 -53 23 -66 41 -25
6 15 17 22 30 20 16 -2 19 -9 17 -38 -2 -19 -6 -38 -9 -42 -8 -14 -51 -8 -57
7 -9 24 -52 -20 -73 -74 -9 -25 -23 -57 -30 -71 -7 -14 -13 -35 -13 -46 0 -12
-7 -27 -16 -35 -38 -31 -86 -169 -58 -169 7 0 18 -9 24 -19 5 -11 17 -26 25
-35 14 -13 12 -17 -21 -32 -34 -16 -37 -16 -46 -1 -19 34 -20 33 -90 -128 -22
-49 -41 -97 -42 -105 -2 -8 -10 -16 -19 -18 -19 -4 -13 23 33 153 38 108 43
174 16 230 -24 51 -39 62 -98 69 -45 6 -48 8 -54 43 -4 22 -2 49 5 67 7 17 16
45 20 61 11 41 25 66 59 103 54 57 61 137 36 380 -3 34 -4 62 -1 62 4 0 21 -6
39 -14z m5198 -6 c-8 -5 -17 -7 -19 -4 -3 3 1 9 9 14 8 5 17 7 19 4 3 -3 -1
-9 -9 -14z m1025 10 c3 -5 -1 -10 -9 -10 -9 0 -16 5 -16 10 0 6 4 10 9 10 6 0
13 -4 16 -10z m455 0 c7 -4 -6 -12 -32 -18 -34 -9 -52 -8 -83 3 l-40 13 35 4
c59 7 107 6 120 -2z m1120 -10 c0 -11 -4 -20 -9 -20 -14 0 -23 18 -16 30 10
17 25 11 25 -10z m-5311 -4 c11 -14 6 -15 -27 -7 -4 1 8 21 12 21 2 0 9 -6 15
-14z m4448 -8 c2 -18 0 -20 -7 -8 -5 8 -10 11 -10 7 0 -5 -5 -5 -11 -1 -8 4
-7 9 2 15 21 13 25 11 26 -13z m-2754 -2 c3 -7 -7 -25 -21 -39 -25 -22 -29
-23 -57 -11 -16 7 -24 13 -17 14 6 0 12 9 12 19 0 11 6 22 13 24 25 11 65 7
70 -7z m2667 -6 c0 -14 -6 -20 -22 -19 -13 0 -17 3 -10 6 6 2 12 11 12 19 0 8
5 14 10 14 6 0 10 -9 10 -20z m400 0 c0 -5 -4 -10 -10 -10 -5 0 -10 5 -10 10
0 6 5 10 10 10 6 0 10 -4 10 -10z m-6292 -28 c4 -26 -22 -31 -32 -6 -10 26 -7
36 12 32 9 -2 18 -13 20 -26z m4154 2 c-2 -10 -10 -24 -18 -30 -12 -10 -10
-13 13 -19 20 -5 31 -2 40 11 12 17 13 17 13 0 0 -16 1 -16 16 -1 23 23 44 3
26 -25 -10 -16 -9 -18 2 -14 18 7 36 -23 36 -57 0 -6 9 -8 21 -4 14 5 19 3 15
-4 -8 -13 10 -50 37 -73 20 -18 20 -18 -8 -40 -16 -12 -34 -23 -39 -24 -6 -1
-24 -5 -41 -9 -27 -6 -28 -5 -12 8 16 14 16 15 -10 20 -19 4 -35 -1 -48 -12
-14 -13 -31 -17 -57 -14 -38 5 -59 30 -33 40 12 4 13 9 4 19 -14 17 -5 30 32
49 40 21 36 34 -11 41 -22 4 -43 11 -46 15 -3 5 -10 6 -16 3 -6 -4 -5 -10 3
-16 9 -6 0 -7 -26 -3 -22 3 -46 14 -52 23 -12 14 -13 13 -13 -8 0 -29 -5 -24
-14 13 -4 19 -3 26 6 25 7 -2 12 4 13 12 0 11 10 14 39 12 29 -3 36 -1 31 9
-6 9 -3 11 7 6 11 -4 20 3 28 24 8 17 20 29 29 28 29 -3 36 1 21 12 -13 9 -13
10 0 6 8 -2 14 -13 12 -23z m2808 6 c0 -5 -4 -10 -10 -10 -5 0 -10 5 -10 10 0
6 5 10 10 10 6 0 10 -4 10 -10z m-4899 -23 c-10 -9 -11 -8 -5 6 3 10 9 15 12
12 3 -3 0 -11 -7 -18z m1179 13 c0 -5 -2 -10 -4 -10 -3 0 -8 5 -11 10 -3 6 -1
10 4 10 6 0 11 -4 11 -10z m104 -46 c-5 -19 -3 -22 15 -17 12 3 28 -1 37 -8
13 -11 17 -11 24 1 12 20 43 58 35 43 -5 -12 6 -17 27 -14 19 2 -6 -26 -32
-37 -17 -8 -30 -21 -30 -32 0 -9 -6 -23 -14 -29 -8 -7 -12 -21 -9 -31 3 -11
-2 -31 -11 -45 -9 -14 -15 -29 -12 -34 3 -4 -10 -6 -29 -4 -20 2 -35 -1 -35
-7 0 -5 -7 -10 -16 -10 -8 0 -13 4 -9 9 3 6 -2 14 -11 19 -22 12 -14 54 13 68
13 6 20 14 15 19 -4 5 -2 5 5 2 6 -4 22 -3 34 1 22 9 22 10 -13 21 -19 6 -40
11 -44 10 -5 -1 -23 2 -39 5 -37 9 -44 46 -9 46 23 0 39 24 27 42 -3 6 -2 9 3
6 16 -10 56 11 48 24 -4 7 2 4 14 -6 15 -13 20 -26 16 -42z m1310 50 c24 -9
19 -31 -9 -36 -19 -4 -25 -1 -25 12 0 14 8 30 16 30 1 0 9 -3 18 -6z m1271 -4
c4 -6 -7 -10 -27 -10 -25 0 -29 3 -18 10 19 13 37 13 45 0z m-1973 -34 l22
-16 -29 0 c-28 -1 -29 -2 -12 -14 18 -14 18 -15 0 -35 -9 -12 -24 -21 -33 -20
-10 0 -9 3 5 9 13 6 15 9 5 9 -13 1 -13 2 0 11 12 7 12 12 3 21 -10 10 -18 10
-37 0 -31 -17 -45 -8 -39 23 7 37 70 43 115 12z m-5289 -7 c5 -19 7 -20 36 -5
36 19 61 20 85 3 19 -14 13 -47 -9 -47 -24 0 -28 -20 -9 -42 18 -19 18 -20 -1
-34 -25 -18 -39 -13 -43 14 -2 15 -16 28 -40 37 -33 15 -37 14 -56 -4 -25 -26
-25 -77 0 -96 13 -11 32 -13 65 -9 44 5 47 4 53 -21 9 -34 1 -45 -31 -45 -22
0 -24 -3 -19 -24 4 -16 -2 -35 -19 -60 -14 -20 -25 -48 -25 -61 0 -13 -6 -30
-14 -38 -8 -8 -14 -22 -13 -32 1 -10 -8 -21 -20 -26 -17 -6 -23 -5 -23 5 0 7
-7 19 -15 26 -8 7 -12 17 -8 22 3 6 0 9 -7 6 -14 -4 -25 -20 -34 -50 -7 -22
-36 -24 -36 -3 0 22 -15 18 -47 -11 -22 -21 -25 -27 -13 -34 8 -6 21 -10 28
-10 6 0 12 -8 12 -19 0 -13 -9 -21 -32 -25 -21 -4 -42 -18 -58 -38 -41 -53
-81 -115 -84 -130 -6 -29 -19 -48 -33 -48 -7 0 -13 -6 -12 -12 3 -27 -2 -38
-16 -38 -8 0 -19 -9 -25 -21 -7 -11 -14 -18 -17 -16 -2 3 14 34 36 70 23 35
41 73 42 83 0 10 9 33 19 49 24 37 42 77 85 180 18 44 49 112 68 150 51 104
77 162 77 176 0 7 16 36 35 65 19 29 35 61 35 72 0 25 37 57 71 61 4 1 9 -8
12 -20z m6394 15 c-3 -3 -12 -4 -19 -1 -8 3 -5 6 6 6 11 1 17 -2 13 -5z m580
-12 c9 -24 23 -31 47 -23 21 8 87 -15 109 -39 10 -10 7 -11 -13 -4 -14 4 -49
8 -79 9 -34 0 -56 5 -58 12 -4 10 -10 10 -25 2 -19 -10 -20 -9 -15 10 4 16 0
21 -14 22 -10 1 -23 3 -29 4 -5 1 -13 3 -16 4 -3 0 -3 5 0 10 3 5 24 9 46 9
30 1 43 -4 47 -16z m1313 8 c0 -5 -4 -10 -10 -10 -5 0 -10 5 -10 10 0 6 5 10
10 10 6 0 10 -4 10 -10z m91 -22 c16 -18 29 -37 29 -43 0 -6 12 -28 28 -50 30
-44 57 -89 116 -192 21 -37 52 -87 68 -111 l30 -43 -25 -57 c-14 -31 -29 -74
-32 -95 -4 -20 -11 -40 -16 -42 -16 -11 -49 41 -109 173 -35 76 -73 160 -86
187 -22 49 -27 71 -42 185 -7 56 -5 120 4 120 3 0 18 -15 35 -32z m-2665 10
c4 -6 3 -8 -4 -4 -5 3 -13 0 -15 -6 -3 -8 -6 -6 -6 5 -1 19 14 23 25 5z m1548
-13 c-4 -17 -2 -25 7 -25 11 0 11 -2 0 -12 -11 -10 -14 -10 -18 0 -3 6 -11 12
-19 12 -21 0 -17 18 6 25 11 4 18 11 15 16 -4 5 -1 9 5 9 6 0 8 -10 4 -25z
m-4357 -26 c1 -19 -1 -27 -4 -19 -3 8 -12 18 -19 23 -15 9 -7 40 10 34 6 -2
11 -19 13 -38z m93 26 c1 12 30 -25 30 -37 0 -16 -20 -7 -21 10 0 10 -3 12 -6
5 -9 -23 -23 -14 -23 15 0 21 2 24 10 12 5 -8 10 -10 10 -5z m999 4 c26 -9 31
-15 25 -33 -9 -30 -35 -55 -41 -39 -3 9 -17 11 -44 7 -24 -4 -39 -3 -39 4 0 6
-2 17 -5 25 -4 9 7 19 32 29 21 9 38 16 39 17 1 1 15 -4 33 -10z m2051 -9 c0
-5 -7 -7 -15 -4 -8 4 -12 10 -9 15 6 11 24 2 24 -11z m-2843 -6 c2 -6 -3 -11
-12 -11 -8 0 -15 7 -15 15 0 15 22 12 27 -4z m1737 -17 c11 -43 7 -57 -18 -57
-32 0 -39 13 -32 55 5 26 10 32 25 28 11 -3 22 -15 25 -26z m3342 -15 c-12
-11 -18 7 -10 30 l8 23 4 -23 c2 -13 1 -26 -2 -30z m-5046 28 c0 -5 -2 -10 -4
-10 -3 0 -8 5 -11 10 -3 6 -1 10 4 10 6 0 11 -4 11 -10z m1248 0 c37 0 42 -18
13 -44 -18 -17 -21 -17 -46 0 -23 15 -28 15 -36 3 -6 -10 -9 -4 -9 20 0 30 2
33 23 27 12 -3 37 -6 55 -6z m1149 4 c-3 -3 -12 -4 -19 -1 -8 3 -5 6 6 6 11 1
17 -2 13 -5z m705 -36 c-8 -8 -9 -4 -5 13 4 13 8 18 11 10 2 -7 -1 -18 -6 -23z
m-3401 -2 c-6 -7 -8 -16 -4 -19 3 -4 1 -7 -6 -7 -8 0 -11 6 -7 16 3 9 6 20 6
25 0 6 5 7 10 4 8 -5 8 -11 1 -19z m284 4 c-3 -5 -13 -6 -21 -3 -12 4 -13 8
-3 14 15 9 32 2 24 -11z m2446 0 c12 0 17 -5 14 -10 -8 -13 -47 -9 -57 5 -4 5
-2 13 5 17 7 4 14 3 15 -2 2 -6 13 -10 23 -10z m929 16 c0 -11 -19 -15 -25 -6
-3 5 1 10 9 10 9 0 16 -2 16 -4z m720 -6 c0 -5 -7 -10 -16 -10 -8 0 -12 5 -9
10 3 6 10 10 16 10 5 0 9 -4 9 -10z m30 0 c0 -5 -5 -10 -11 -10 -5 0 -7 5 -4
10 3 6 8 10 11 10 2 0 4 -4 4 -10z m-711 -7 c-1 -5 -1 -15 1 -23 1 -11 4 -9
10 5 8 19 9 19 9 1 1 -11 -16 -36 -37 -55 -44 -42 -97 -111 -84 -111 4 0 21
14 37 30 16 17 34 29 41 26 6 -2 22 6 36 19 21 20 27 21 43 9 12 -9 14 -14 6
-14 -11 0 -11 -3 -1 -15 7 -8 16 -13 20 -10 16 10 19 -12 5 -31 -20 -27 -18
-33 8 -27 18 4 19 3 7 -6 -8 -6 -23 -8 -34 -5 -13 4 -16 3 -11 -6 5 -9 4 -11
-4 -6 -6 4 -24 -2 -40 -13 -16 -12 -33 -21 -38 -21 -5 0 -19 -12 -32 -26 -12
-14 -38 -32 -57 -40 -19 -8 -34 -19 -34 -24 0 -16 30 -24 43 -11 6 6 19 11 29
11 11 0 18 6 17 13 -3 27 2 37 19 37 10 0 24 6 31 13 11 9 12 9 7 0 -5 -9 -2
-11 8 -7 9 3 13 10 10 15 -3 5 3 6 12 2 10 -3 15 -2 12 3 -4 5 5 10 18 10 15
1 22 -2 18 -10 -3 -6 2 -2 10 8 9 11 16 26 16 33 0 7 9 13 20 13 11 0 22 0 25
0 3 0 14 9 25 20 19 19 57 29 46 12 -7 -11 42 -38 51 -29 3 4 1 7 -5 7 -24 0
-11 19 33 49 25 17 45 27 45 22 0 -8 41 -24 46 -18 1 1 5 12 8 25 6 17 3 22
-10 22 -10 0 -14 3 -11 7 4 3 -1 15 -10 26 -13 15 -15 21 -5 24 6 3 10 8 7 13
-3 4 9 10 25 12 17 3 30 1 30 -4 0 -4 -5 -8 -11 -8 -8 0 -7 -5 1 -15 8 -9 21
-13 32 -9 10 3 26 0 34 -7 12 -10 13 -9 8 5 -5 12 -2 15 10 10 9 -3 16 -10 16
-14 0 -4 8 -7 17 -6 22 1 29 -52 8 -60 -19 -8 -7 -33 13 -29 9 2 19 4 22 5 3
1 8 2 13 1 4 0 6 2 6 6 -4 23 3 33 21 33 15 0 20 -7 20 -27 1 -27 1 -27 16 -8
9 12 11 21 4 23 -5 2 -10 8 -10 13 0 10 22 8 31 -4 3 -4 12 -1 19 8 8 10 9 15
1 15 -6 0 -11 9 -11 20 0 13 7 20 19 20 14 0 18 -6 15 -25 -2 -21 1 -25 16
-20 21 7 26 -6 35 -75 3 -25 8 -53 11 -62 7 -22 -40 -36 -61 -18 -8 7 -24 10
-34 7 -14 -3 -25 3 -35 18 -17 25 -71 33 -62 9 3 -8 -1 -14 -10 -14 -8 0 -13
4 -9 9 9 16 -45 7 -56 -9 -9 -13 -10 -13 -6 1 4 12 -2 15 -27 14 -17 -1 -41
-7 -53 -13 -11 -6 -24 -8 -27 -4 -4 4 -5 -5 -1 -20 l7 -26 -61 4 c-33 2 -71 8
-85 14 -19 7 -24 6 -20 -4 3 -9 -4 -11 -26 -8 -16 2 -30 9 -30 14 0 5 9 7 20
3 15 -5 18 -3 14 8 -7 18 -44 26 -70 15 -17 -7 -16 -8 4 -4 15 3 22 -1 22 -11
0 -8 -4 -11 -10 -8 -5 3 -10 1 -10 -5 0 -6 -10 -8 -26 -4 -23 6 -25 5 -16 -12
9 -17 6 -19 -21 -19 -18 0 -35 4 -39 10 -8 11 -50 -24 -42 -36 3 -5 -1 -6 -8
-4 -8 3 -24 -6 -37 -21 -14 -17 -28 -23 -39 -19 -9 3 -13 3 -9 -1 7 -7 -43
-30 -90 -41 -13 -3 -23 -10 -23 -15 0 -6 9 -8 20 -5 25 6 26 -5 1 -27 -10 -9
-26 -34 -35 -55 -18 -39 -17 -39 -101 -44 -16 -1 -34 -6 -38 -12 -6 -6 -10 -6
-14 3 -2 6 -9 12 -14 12 -6 0 -7 -6 -3 -12 6 -10 5 -10 -7 -1 -11 9 -19 7 -36
-13 -12 -13 -19 -24 -16 -24 3 0 0 -7 -7 -15 -7 -9 -19 -14 -27 -11 -8 3 -16
-1 -20 -9 -3 -9 -12 -13 -23 -10 -9 3 -30 1 -45 -5 -20 -8 -26 -15 -22 -30 3
-11 1 -20 -5 -20 -5 0 -6 -4 -3 -10 3 -6 -1 -7 -9 -4 -10 4 -16 1 -16 -9 0 -8
-9 -17 -20 -20 -24 -6 -28 20 -5 29 16 6 21 24 7 24 -12 0 -40 -54 -35 -67 7
-19 -8 -16 -23 5 -11 14 -13 14 -14 2 0 -8 -9 -26 -19 -39 -13 -17 -23 -22
-40 -16 -12 3 -19 11 -16 16 4 5 2 9 -4 9 -6 0 -15 -9 -22 -21 -9 -17 -17 -20
-45 -14 -24 4 -34 2 -32 -6 5 -18 -18 -21 -35 -4 -9 8 -24 15 -34 15 -17 -1
-17 -1 -1 -11 10 -5 15 -16 12 -24 -7 -17 12 -20 22 -4 4 8 12 3 20 -12 7 -13
13 -27 14 -30 0 -11 -40 -18 -46 -7 -3 5 -12 7 -20 4 -8 -3 -11 0 -7 10 4 10
0 12 -11 8 -9 -3 -13 -10 -10 -15 3 -5 1 -9 -5 -9 -6 0 -8 -7 -5 -15 5 -12 -2
-15 -31 -15 -20 0 -34 4 -30 9 3 5 1 12 -5 16 -5 3 -12 -6 -16 -20 -3 -13 -10
-22 -15 -19 -5 3 -7 9 -4 14 3 5 -6 12 -20 16 -14 3 -25 9 -25 13 0 4 -16 13
-35 21 -19 7 -32 17 -29 22 3 4 14 4 24 -2 25 -13 33 -13 27 3 -6 19 25 36 58
30 l30 -6 -28 26 c-22 21 -35 26 -70 24 -24 -2 -54 -10 -67 -20 -13 -9 -25
-15 -27 -13 -6 6 9 36 18 36 5 0 9 4 9 10 0 6 -8 6 -23 -1 -15 -7 -23 -19 -22
-36 0 -39 -19 -38 -34 2 -12 35 -36 46 -58 24 -7 -7 -12 -6 -16 5 -4 9 -1 16
6 17 7 1 1 4 -13 8 -21 6 -24 12 -22 39 3 24 0 32 -12 32 -13 0 -14 4 -6 20 5
11 14 29 20 40 12 24 2 59 -11 38 -6 -9 -9 -6 -9 11 0 20 4 23 25 19 18 -4 35
3 58 23 17 16 39 29 48 29 25 0 51 25 48 45 -4 16 -6 17 -19 4 -8 -9 -25 -18
-37 -21 -19 -5 -20 -4 -10 13 6 10 19 19 29 19 9 0 27 13 40 29 32 37 64 54
89 46 12 -4 33 2 55 16 42 25 64 15 42 -20 -13 -22 -38 -29 -38 -11 0 6 5 10
12 10 6 0 9 2 6 5 -3 3 -17 -1 -32 -9 l-27 -13 31 -6 c28 -6 43 -27 19 -27 -5
0 -8 -4 -5 -9 8 -13 -26 -50 -49 -54 -11 -1 -26 -6 -32 -10 -7 -5 -17 -5 -23
-2 -5 3 -10 2 -10 -3 0 -14 40 -22 40 -9 0 7 7 3 15 -7 10 -13 15 -15 15 -6 0
7 2 11 5 8 11 -11 -7 -39 -19 -29 -18 15 -59 17 -63 4 -3 -8 6 -12 24 -12 40
1 68 -6 68 -19 0 -6 3 -14 8 -18 4 -4 7 -16 7 -26 0 -10 4 -18 9 -18 6 0 8 25
5 57 -3 50 0 64 30 119 19 34 32 64 29 67 -9 9 17 47 32 47 19 0 19 -14 1 -30
-8 -6 -13 -17 -10 -25 3 -7 1 -16 -5 -20 -6 -3 -11 -17 -11 -31 0 -24 1 -24
24 -8 14 8 28 28 31 44 6 29 37 50 43 31 2 -6 11 -11 20 -11 15 0 15 2 2 11
-11 8 -12 12 -2 16 17 7 5 23 -18 23 -20 0 -37 47 -22 62 11 11 52 -7 52 -22
0 -14 -6 -12 -24 6 -13 12 -16 13 -16 1 0 -23 44 -41 69 -28 12 7 26 9 32 6 5
-4 16 -1 24 5 8 7 20 10 27 7 8 -3 0 -10 -17 -18 -28 -12 -29 -13 -7 -16 12
-3 29 3 38 11 8 9 22 16 30 16 8 0 13 4 10 9 -3 5 4 11 16 14 21 6 21 7 3 27
-10 11 -14 20 -9 20 5 0 2 5 -6 10 -9 6 -10 10 -3 10 6 0 15 -4 18 -10 10 -16
23 -12 30 10 7 24 15 25 40 7 13 -10 16 -21 11 -40 -6 -25 -36 -39 -36 -17 0
6 -3 10 -7 10 -5 0 -9 -15 -9 -32 -1 -34 21 -61 44 -53 9 3 11 -1 8 -13 -4
-12 1 -26 14 -37 28 -25 25 -46 -11 -78 -24 -21 -30 -32 -25 -51 3 -14 2 -28
-4 -31 -5 -3 -10 -11 -10 -16 0 -11 45 27 89 74 14 15 30 27 37 27 12 0 34 64
34 98 0 11 -7 22 -15 26 -13 4 -14 2 -5 -14 9 -18 8 -20 -15 -20 -14 0 -25 6
-26 13 0 10 -2 10 -6 0 -4 -13 -33 -19 -33 -8 0 3 10 25 22 48 12 23 21 45 20
50 -3 12 25 8 40 -5 43 -40 108 -53 108 -22 0 12 19 19 43 15 8 -1 8 1 9 59 1
22 -3 40 -8 40 -5 -1 -8 -9 -7 -18 2 -9 -1 -23 -6 -31 -7 -11 -12 -10 -28 5
-17 17 -18 22 -6 44 l13 25 1 -30 c1 -29 1 -29 8 -5 5 18 14 24 29 23 13 -2
21 2 19 10 -1 6 3 11 8 10 6 -1 11 7 11 17 0 11 -5 16 -15 12 -9 -3 -12 0 -9
9 6 17 46 14 68 -6 9 -8 25 -15 34 -15 13 0 16 -5 11 -17 -5 -14 -3 -15 6 -6
13 13 4 33 -17 33 -22 0 -17 18 7 25 14 5 25 2 30 -6 7 -11 9 -11 9 2 0 9 9
19 21 22 15 4 19 2 15 -8 -3 -8 -1 -17 3 -19 12 -8 44 31 36 43 -3 6 -2 11 4
11 6 0 8 7 5 15 -7 16 12 45 28 45 6 0 7 -11 4 -25 -5 -20 -3 -25 13 -25 10 0
24 7 31 15 7 8 19 15 26 15 8 0 11 6 8 15 -4 8 -1 15 5 15 6 0 10 -3 10 -7z
m-4569 -18 c0 -8 -7 -15 -15 -15 -8 0 -15 7 -15 15 0 8 7 15 15 15 8 0 15 -7
15 -15z m947 -2 c3 -10 12 -25 20 -35 10 -11 11 -18 3 -23 -14 -8 -40 12 -40
32 0 8 -4 12 -9 9 -5 -4 -7 3 -4 14 7 25 22 26 30 3z m4174 1 c-18 -13 -25
-14 -34 -4 -9 10 -8 12 5 7 10 -3 20 -2 23 3 4 6 11 10 18 10 6 0 1 -7 -12
-16z m69 -9 c0 -8 5 -15 12 -15 6 0 2 -9 -11 -21 -12 -12 -25 -18 -29 -14 -4
4 -1 10 6 12 6 3 12 11 12 20 0 10 -6 13 -22 8 -22 -6 -22 -6 -4 9 25 20 36
20 36 1z m108 4 c-2 -6 -8 -10 -13 -10 -5 0 -11 4 -13 10 -2 6 4 11 13 11 9 0
15 -5 13 -11z m-2193 -9 c3 -6 -1 -7 -9 -4 -18 7 -21 14 -7 14 6 0 13 -4 16
-10z m-1523 -22 c-7 -7 -12 -8 -12 -2 0 14 12 26 19 19 2 -3 -1 -11 -7 -17z
m2332 -4 c8 -29 -9 -58 -22 -38 -4 6 -18 15 -31 19 l-25 8 23 18 c32 26 48 24
55 -7z m111 6 c3 -5 1 -10 -4 -10 -6 0 -11 5 -11 10 0 6 2 10 4 10 3 0 8 -4
11 -10z m397 -15 c-3 -20 -7 -23 -18 -14 -11 9 -11 15 -3 25 18 21 27 17 21
-11z m-3507 -5 c-2 -11 -1 -19 3 -19 22 3 34 -3 29 -14 -7 -19 3 -31 37 -49
29 -15 29 -16 8 -22 -12 -4 -22 -14 -22 -22 0 -8 -4 -14 -10 -14 -5 0 -10 -6
-10 -14 0 -7 -7 -19 -15 -26 -13 -10 -15 -9 -15 9 0 11 -5 21 -11 21 -6 0 -9
9 -6 20 4 17 2 20 -15 14 -14 -4 -18 -2 -14 5 4 6 10 32 13 58 5 41 17 73 29
73 1 0 1 -9 -1 -20z m1522 14 c-3 -3 -12 -4 -19 -1 -8 3 -5 6 6 6 11 1 17 -2
13 -5z m705 -16 c-7 -7 -12 -8 -12 -2 0 14 12 26 19 19 2 -3 -1 -11 -7 -17z
m134 -5 c-6 -6 -36 9 -36 18 0 5 9 4 20 -3 10 -7 18 -14 16 -15z m520 11 l25
-17 -31 -19 c-17 -10 -35 -16 -40 -13 -4 3 -10 0 -12 -6 -2 -7 -8 -6 -16 4
-11 13 -8 20 15 41 33 31 28 30 59 10z m1519 6 c3 -5 1 -10 -4 -10 -6 0 -11 5
-11 10 0 6 2 10 4 10 3 0 8 -4 11 -10z m885 -3 c0 -8 -9 -22 -20 -32 -18 -17
-20 -17 -20 -1 0 18 19 45 33 46 4 0 7 -6 7 -13z m981 -61 c17 -27 42 -58 55
-69 13 -10 24 -25 24 -34 0 -19 34 -77 72 -120 15 -18 25 -39 22 -47 -3 -7 5
-32 16 -54 25 -47 19 -73 -11 -46 -10 9 -19 23 -19 29 0 18 -74 91 -112 111
-90 46 -147 116 -114 140 17 12 21 54 7 70 -12 12 -31 81 -24 88 13 13 56 -22
84 -68z m-3951 43 c0 -5 7 -6 15 -3 8 4 15 1 15 -5 0 -6 5 -10 12 -8 7 1 17
-8 23 -20 5 -13 15 -23 22 -23 7 0 13 -4 13 -10 0 -5 -7 -10 -17 -10 -9 0 -13
-3 -10 -7 4 -3 2 -12 -4 -20 -14 -16 -71 -17 -87 -1 -9 9 -12 9 -12 -3 0 -24
-46 -42 -70 -26 -11 6 -18 18 -15 25 3 8 5 18 5 23 0 6 4 8 9 5 5 -3 14 1 21
9 9 10 9 15 1 15 -6 0 -11 -4 -11 -9 0 -5 -9 -7 -20 -4 -15 4 -20 0 -20 -13
-1 -18 -1 -18 -11 -1 -9 14 -7 22 8 32 22 18 32 18 62 1 14 -8 31 -12 38 -9
21 8 4 23 -27 23 -16 0 -31 4 -34 9 -7 10 50 7 76 -4 10 -4 15 -11 12 -16 -3
-5 -3 -9 0 -9 3 0 10 9 16 20 8 15 7 18 -2 15 -7 -2 -21 6 -30 19 -17 23 -17
24 2 19 11 -3 20 -9 20 -14z m1454 0 c-3 -5 -10 -7 -15 -3 -5 3 -7 10 -3 15 3
5 10 7 15 3 5 -3 7 -10 3 -15z m-2978 -10 c16 -13 19 -45 4 -54 -5 -3 -6 -13
-3 -21 5 -14 0 -15 -38 -9 -24 4 -52 14 -62 23 -17 15 -16 17 14 48 32 33 57
37 85 13z m314 1 c4 -8 12 -25 18 -37 8 -15 8 -24 1 -29 -6 -3 -8 -13 -5 -21
5 -12 0 -13 -27 -8 -17 4 -36 11 -41 16 -6 5 -23 9 -39 9 -16 0 -26 4 -22 10
3 6 14 10 24 10 10 0 22 13 30 36 10 27 18 34 33 32 12 -2 24 -10 28 -18z
m-975 0 c3 -5 1 -10 -4 -10 -6 0 -11 5 -11 10 0 6 2 10 4 10 3 0 8 -4 11 -10z
m2650 0 c-3 -5 -12 -10 -20 -10 -8 0 -17 5 -20 10 -4 6 5 10 20 10 15 0 24 -4
20 -10z m-6626 -22 c-12 -24 -69 -92 -69 -84 0 17 24 63 43 82 29 29 41 30 26
2z m6031 12 c0 -5 -4 -10 -10 -10 -5 0 -10 5 -10 10 0 6 5 10 10 10 6 0 10 -4
10 -10z m1081 -13 c-10 -9 -11 -8 -5 6 3 10 9 15 12 12 3 -3 0 -11 -7 -18z
m-3380 -10 c-13 -13 -26 -3 -16 12 3 6 11 8 17 5 6 -4 6 -10 -1 -17z m1538 7
c2 -2 1 -10 -2 -19 -5 -10 -20 -15 -52 -15 -49 0 -57 11 -23 34 18 13 61 13
77 0z m1358 0 c-3 -3 -12 -4 -19 -1 -8 3 -5 6 6 6 11 1 17 -2 13 -5z m-4219
-44 c94 -15 102 -23 89 -92 -21 -112 -61 -163 -123 -157 -16 2 -35 0 -42 -4
-6 -5 -16 -5 -22 -2 -15 9 -12 35 5 41 23 9 18 24 -7 24 -33 -1 -62 -25 -54
-46 4 -9 0 -27 -8 -38 -14 -22 -11 -72 5 -81 4 -3 15 8 24 25 21 41 50 57 115
63 l56 5 10 -34 c10 -31 9 -37 -9 -49 -12 -8 -18 -18 -14 -21 4 -4 -2 -13 -13
-21 -13 -10 -20 -26 -20 -49 0 -20 -5 -34 -12 -34 -9 0 -9 -3 0 -12 20 -20 13
-30 -18 -26 -18 3 -31 0 -34 -8 -7 -19 -60 -1 -65 22 -2 10 -8 23 -15 27 -7 5
-3 7 9 5 12 -2 21 4 23 15 5 24 -28 35 -43 13 -7 -9 -19 -14 -26 -11 -15 6
-44 -53 -55 -115 -4 -19 -14 -45 -22 -57 -8 -13 -11 -23 -7 -23 4 0 0 -12 -10
-26 -9 -15 -12 -23 -6 -20 6 4 11 0 11 -9 0 -9 5 -13 10 -10 6 3 10 1 10 -4 0
-15 -23 -14 -39 2 -10 10 -12 9 -10 -3 7 -42 -52 -173 -70 -155 -2 2 6 32 18
67 26 75 90 304 95 335 2 13 8 28 13 35 6 7 14 32 18 55 3 22 13 49 20 60 8
10 15 32 15 49 0 17 3 34 7 38 11 11 42 138 36 151 -11 30 52 104 77 90 3 -1
38 -8 78 -15z m6488 4 c-3 -9 -6 -20 -6 -25 0 -5 -7 -9 -15 -9 -12 0 -13 4 -3
25 12 27 34 35 24 9z m-4101 -15 c-8 -12 -35 -12 -35 0 0 11 22 20 33 14 4 -2
5 -9 2 -14z m726 -22 c10 3 19 0 19 -6 0 -12 -58 -15 -84 -5 -13 5 -14 10 -5
20 9 12 14 12 31 0 10 -8 28 -12 39 -9z m1084 13 c-3 -5 -1 -10 4 -10 6 0 11
-5 11 -11 0 -8 -5 -8 -15 1 -17 14 -20 30 -4 30 5 0 7 -4 4 -10z m-4902 -48
c-5 -11 -8 -11 -21 1 -8 9 -12 23 -8 33 6 16 7 16 20 -2 8 -10 11 -24 9 -32z
m3285 18 c-8 -13 -15 -15 -19 -8 -8 12 12 38 23 31 4 -2 2 -13 -4 -23z m-1288
16 c0 -2 -7 -9 -15 -16 -12 -10 -15 -10 -15 4 0 9 7 16 15 16 8 0 15 -2 15 -4z
m391 -31 c15 10 10 -12 -7 -25 -12 -11 -18 -10 -31 3 -15 15 -15 17 0 23 9 3
18 14 18 23 1 9 4 6 6 -7 2 -12 9 -20 14 -17z m787 18 c-4 -25 -20 -34 -35
-21 -18 14 -16 31 2 24 8 -3 15 -1 15 4 0 6 5 10 10 10 6 0 10 -8 8 -17z
m1035 -5 c46 -24 -14 -66 -95 -67 -38 -1 -38 -1 -38 38 0 22 5 41 13 44 17 7
98 -4 120 -15z m442 -17 c-6 -5 -25 10 -25 20 0 5 6 4 14 -3 8 -7 12 -15 11
-17z m-2580 9 c-3 -5 -12 -10 -18 -10 -7 0 -6 4 3 10 19 12 23 12 15 0z m1808
3 c-7 -2 -19 -2 -25 0 -7 3 -2 5 12 5 14 0 19 -2 13 -5z m-1643 -27 c0 -8 12
-37 26 -66 21 -41 29 -50 45 -45 21 7 26 -14 8 -32 -9 -9 -8 -21 5 -46 9 -19
16 -42 16 -51 0 -10 5 -13 17 -9 12 5 15 2 10 -9 -3 -10 0 -19 9 -22 8 -3 14
-19 14 -38 0 -31 -3 -29 -50 45 -28 42 -54 77 -58 77 -9 0 -32 58 -32 79 0 18
-36 62 -44 54 -3 -3 -6 0 -6 7 0 7 -7 18 -15 24 -10 8 -12 15 -5 26 8 12 12
13 19 2 7 -11 9 -11 14 2 8 20 27 21 27 2z m2314 3 c-4 -7 0 -9 13 -5 10 3 27
0 38 -7 16 -13 13 -14 -28 -13 -43 1 -58 12 -40 29 11 11 25 8 17 -4z m-277
-5 c-3 -3 -12 -4 -19 -1 -8 3 -5 6 6 6 11 1 17 -2 13 -5z m-2172 -18 c11 -10
11 -16 2 -25 -9 -9 -8 -11 7 -5 16 6 17 5 7 -14 -13 -25 -29 -28 -37 -8 -3 8
-11 14 -17 12 -7 -1 -9 -1 -4 1 4 3 7 13 7 22 0 31 14 38 35 17z m1135 10 c0
-3 -4 -8 -10 -11 -5 -3 -10 -1 -10 4 0 6 5 11 10 11 6 0 10 -2 10 -4z m1740
-11 c12 -15 6 -35 -11 -35 -6 0 -8 4 -5 8 3 5 -8 8 -25 7 -36 -2 -46 10 -22
24 25 15 49 13 63 -4z m-515 -4 c3 -5 1 -12 -5 -16 -5 -3 -10 1 -10 9 0 18 6
21 15 7z m-1870 -44 l1 -27 -23 22 c-25 23 -23 38 5 34 11 -2 17 -12 17 -29z
m1630 23 c-3 -5 -12 -10 -18 -10 -7 0 -6 4 3 10 19 12 23 12 15 0z m585 0 c0
-5 -4 -10 -10 -10 -5 0 -10 5 -10 10 0 6 5 10 10 10 6 0 10 -4 10 -10z m1200
0 c0 -5 -5 -10 -11 -10 -5 0 -7 5 -4 10 3 6 8 10 11 10 2 0 4 -4 4 -10z m100
0 c0 -5 -4 -10 -10 -10 -5 0 -10 5 -10 10 0 6 5 10 10 10 6 0 10 -4 10 -10z
m50 6 c0 -2 -7 -7 -16 -10 -8 -3 -12 -2 -9 4 6 10 25 14 25 6z m970 -12 c0 -8
-5 -12 -10 -9 -6 4 -8 11 -5 16 9 14 15 11 15 -7z m-2570 -3 c0 -6 -4 -13 -10
-16 -5 -3 -10 1 -10 9 0 9 5 16 10 16 6 0 10 -4 10 -9z m161 -4 c-1 -4 -4 -7
-7 -6 -4 0 -11 -5 -15 -13 -7 -10 -9 -10 -9 3 0 9 3 19 7 23 8 8 25 3 24 -7z
m-1320 -27 c19 0 31 -23 23 -45 -7 -17 -24 -20 -24 -5 0 6 -7 10 -15 10 -25 0
-56 35 -49 53 5 15 8 15 27 2 12 -8 29 -15 38 -15z m2885 -15 c0 -25 -6 -45
-12 -45 -6 0 -9 18 -8 43 2 50 2 47 13 47 5 0 8 -20 7 -45z m-4905 -23 c-1
-29 -6 -65 -11 -81 -5 -17 -4 -33 2 -39 6 -6 0 -24 -17 -52 -25 -40 -26 -43
-6 -37 29 7 48 -18 24 -32 -13 -8 -14 -10 -3 -11 10 0 11 -3 2 -12 -8 -8 -15
-8 -27 2 -20 17 -24 12 -29 -39 -2 -23 -9 -47 -14 -54 -5 -7 -15 -45 -22 -85
-6 -40 -19 -79 -27 -87 -8 -8 -10 -15 -4 -15 6 0 8 -6 6 -12 -3 -7 -6 -30 -8
-51 -5 -43 -14 -56 -44 -61 l-21 -5 18 67 c10 37 23 99 30 137 7 39 23 115 36
170 14 55 27 120 29 145 12 114 47 212 75 208 11 -2 13 -16 11 -56z m2761 38
c-13 -11 -21 -24 -17 -29 10 -16 -6 -61 -22 -61 -8 0 -21 -7 -30 -15 -8 -8
-19 -13 -23 -10 -14 9 -1 33 22 38 15 4 18 11 13 27 -7 23 8 48 40 60 34 14
41 10 17 -10z m-2062 0 c0 -5 11 -10 25 -10 18 0 25 -5 25 -20 0 -11 7 -23 15
-26 23 -9 18 -33 -7 -39 -23 -6 -53 -53 -42 -64 4 -3 9 0 11 7 3 6 9 9 14 6 6
-3 2 -12 -8 -19 -17 -13 -17 -14 0 -20 9 -4 17 -13 17 -20 0 -8 12 -28 27 -45
20 -24 27 -44 29 -85 1 -30 5 -59 9 -65 4 -6 -4 -10 -18 -10 -31 0 -39 9 -22
26 17 18 1 74 -21 74 -21 0 -28 28 -13 47 10 12 10 15 2 9 -7 -4 -13 -3 -13 3
0 6 -11 6 -30 1 -34 -10 -37 -6 -15 17 18 18 11 35 -12 26 -13 -5 -15 -3 -9
13 5 10 12 31 16 45 7 23 5 26 -11 22 -33 -9 -24 39 14 65 29 20 30 22 9 22
-21 0 -31 27 -15 43 10 10 23 8 23 -3z m477 -17 c-8 -7 -37 9 -31 19 3 5 12 4
20 -3 8 -6 13 -14 11 -16z m898 17 c3 -5 1 -10 -4 -10 -6 0 -11 5 -11 10 0 6
2 10 4 10 3 0 8 -4 11 -10z m2419 -5 c-4 -8 -11 -12 -16 -9 -6 4 -5 10 3 15
19 12 19 11 13 -6z m1461 5 c3 -5 1 -10 -4 -10 -6 0 -11 5 -11 10 0 6 2 10 4
10 3 0 8 -4 11 -10z m-5305 -41 c0 -6 -4 -7 -10 -4 -5 3 -10 11 -10 16 0 6 5
7 10 4 6 -3 10 -11 10 -16z m2180 17 c0 -3 -4 -8 -10 -11 -5 -3 -10 -1 -10 4
0 6 5 11 10 11 6 0 10 -2 10 -4z m1640 -6 c0 -5 -5 -10 -11 -10 -5 0 -7 5 -4
10 3 6 8 10 11 10 2 0 4 -4 4 -10z m-1776 -19 c3 -5 -5 -8 -19 -8 -14 0 -22 3
-19 8 3 5 11 9 19 9 8 0 16 -4 19 -9z m2616 -3 c0 -5 -8 -8 -18 -8 -10 0 -24
-6 -31 -12 -11 -10 -14 -10 -18 0 -3 6 -20 12 -39 12 -20 0 -33 3 -31 8 7 9
137 10 137 0z m-6765 -17 c3 -10 1 -30 -4 -45 -6 -14 -8 -39 -5 -56 7 -35 -4
-38 -37 -11 -18 14 -28 16 -45 9 -32 -15 -74 -2 -74 22 0 13 9 22 28 26 15 4
40 16 55 26 15 11 34 17 42 14 13 -5 20 5 16 27 -2 16 18 6 24 -12z m3565 -3
c0 -19 -2 -20 -10 -8 -13 19 -13 30 0 30 6 0 10 -10 10 -22z m2860 12 c0 -5
-2 -10 -4 -10 -3 0 -8 5 -11 10 -3 6 -1 10 4 10 6 0 11 -4 11 -10z m-1095 -10
c3 -5 2 -10 -4 -10 -5 0 -13 5 -16 10 -3 6 -2 10 4 10 5 0 13 -4 16 -10z m825
-5 c0 -8 4 -15 10 -15 5 0 8 -13 7 -30 -1 -16 -3 -30 -4 -30 -16 0 -53 23 -48
30 4 6 11 7 17 4 7 -5 8 -2 3 5 -4 8 -17 10 -32 6 l-25 -6 28 25 c34 29 44 32
44 11z m-3705 -13 c-3 -3 -11 0 -18 7 -9 10 -8 11 6 5 10 -3 15 -9 12 -12z
m1820 -33 c-5 -14 -1 -19 14 -19 25 0 27 -18 6 -34 -18 -13 -22 -40 -11 -75 6
-17 5 -21 -3 -16 -20 12 -52 -34 -44 -64 3 -14 10 -29 16 -32 16 -11 -3 -47
-45 -88 -26 -24 -39 -44 -34 -52 20 -40 36 -63 36 -51 0 6 7 12 16 12 11 0 14
-6 9 -22 l-7 -23 17 23 c29 40 65 72 81 72 8 0 12 -4 9 -10 -3 -5 0 -10 8 -10
7 0 14 7 14 15 0 8 -4 15 -9 15 -4 0 -8 4 -8 9 0 12 37 12 65 1 11 -5 28 -11
38 -14 13 -4 17 -15 15 -41 -2 -37 -14 -43 -49 -25 -14 8 -19 7 -19 -2 0 -8
-3 -9 -8 -3 -11 15 -52 14 -52 -2 0 -7 -9 -13 -21 -13 -11 0 -17 -5 -14 -10 4
-6 11 -8 16 -5 5 4 9 1 9 -5 0 -6 4 -9 9 -5 14 8 111 -47 111 -62 0 -7 5 -13
10 -13 6 0 10 -5 10 -11 0 -6 14 -31 30 -56 36 -53 32 -64 -11 -39 -23 14 -33
15 -39 7 -4 -7 -25 -14 -47 -15 -23 -2 -46 -7 -52 -10 -6 -4 -11 -3 -11 3 0 5
9 13 20 16 11 3 20 11 20 16 0 5 8 9 17 9 14 0 13 3 -5 23 -12 13 -22 28 -22
35 0 18 -34 32 -51 21 -7 -5 -27 -9 -42 -9 -24 0 -26 2 -17 19 16 32 12 39
-22 37 -26 -1 -32 3 -30 17 2 9 -2 17 -8 17 -5 0 -10 7 -10 15 0 10 -10 15
-34 15 -35 0 -55 13 -36 25 6 4 8 11 4 16 -4 7 -10 7 -18 0 -21 -18 -39 5 -40
51 -1 24 -8 55 -17 69 l-17 24 -37 -20 c-35 -18 -38 -18 -50 -2 -7 9 -18 17
-24 17 -24 0 -5 24 25 32 36 9 64 48 37 49 -11 0 -13 3 -5 6 6 2 12 9 12 15 0
6 -20 8 -52 5 -52 -6 -52 -5 -15 5 37 12 50 28 21 28 -31 0 -9 34 28 45 33 9
98 67 98 87 0 4 7 8 15 8 22 0 20 -50 -2 -50 -24 -1 -51 -22 -46 -37 4 -12
-24 -32 -42 -30 -5 1 -11 -6 -13 -16 -3 -17 -1 -17 33 -3 20 9 49 25 65 36 15
11 31 20 34 20 4 0 19 11 34 25 15 14 36 28 47 31 11 4 31 15 44 25 28 22 55
9 46 -22z m1945 31 c0 -5 -8 -10 -17 -10 -15 0 -16 2 -3 10 19 12 20 12 20 0z
m1165 0 c3 -5 1 -10 -4 -10 -6 0 -11 5 -11 10 0 6 2 10 4 10 3 0 8 -4 11 -10z
m-5305 -4 c0 -3 -4 -8 -10 -11 -5 -3 -10 -1 -10 4 0 6 5 11 10 11 6 0 10 -2
10 -4z m4000 -6 c0 -5 -4 -10 -10 -10 -5 0 -10 5 -10 10 0 6 5 10 10 10 6 0
10 -4 10 -10z m-4153 -6 c-3 -3 -12 -4 -19 -1 -8 3 -5 6 6 6 11 1 17 -2 13 -5z
m727 -19 c-4 -8 -10 -12 -15 -9 -5 3 -9 0 -9 -7 0 -10 -3 -10 -11 -2 -15 15
-3 33 21 33 13 0 17 -5 14 -15z m3136 -17 c0 -14 -5 -18 -16 -14 -9 3 -20 6
-25 6 -5 0 -4 9 3 19 14 23 38 16 38 -11z m440 2 c0 -11 -4 -20 -10 -20 -5 0
-10 9 -10 20 0 11 5 20 10 20 6 0 10 -9 10 -20z m-3510 -20 c0 -16 -4 -30 -10
-30 -5 0 -10 14 -10 30 0 17 5 30 10 30 6 0 10 -13 10 -30z m-599 -3 c-10 -9
-11 -8 -5 6 3 10 9 15 12 12 3 -3 0 -11 -7 -18z m135 -32 c-3 -9 -10 -13 -16
-10 -12 7 -13 48 -3 59 11 11 27 -30 19 -49z m319 22 c4 5 1 -2 -6 -14 -24
-39 -49 -23 -49 30 l0 20 23 -21 c13 -12 27 -19 32 -15z m3698 27 c9 -9 -4
-35 -14 -28 -5 3 -9 12 -9 20 0 14 12 19 23 8z m-7216 -26 c-3 -8 -6 -5 -6 6
-1 11 2 17 5 13 3 -3 4 -12 1 -19z m3603 -19 c0 -11 -11 -24 -24 -30 -16 -8
-22 -17 -19 -27 4 -10 2 -13 -5 -8 -7 4 -12 1 -12 -8 0 -19 -36 -22 -43 -3 -4
7 -8 4 -12 -9 -9 -28 -51 -49 -59 -28 -3 8 1 14 11 14 13 0 15 8 10 40 -3 22
-1 40 4 40 5 0 9 -6 9 -13 0 -10 10 -12 38 -7 21 3 36 11 35 18 -3 11 3 13 24
11 4 0 11 9 15 21 9 25 28 18 28 -11z m3825 21 c-3 -5 -14 -10 -23 -10 -15 0
-15 2 -2 10 20 13 33 13 25 0z m-4595 -30 c0 -11 -4 -20 -10 -20 -5 0 -10 9
-10 20 0 11 5 20 10 20 6 0 10 -9 10 -20z m-1967 -16 c-4 -10 -9 -12 -15 -6
-12 12 -1 35 12 27 5 -3 6 -13 3 -21z m2151 5 c-7 -11 -34 -12 -34 -1 0 14 11
21 26 15 8 -3 11 -9 8 -14z m36 11 c0 -5 -5 -10 -11 -10 -5 0 -7 5 -4 10 3 6
8 10 11 10 2 0 4 -4 4 -10z m4300 -10 c0 -5 -4 -10 -10 -10 -5 0 -10 5 -10 10
0 6 5 10 10 10 6 0 10 -4 10 -10z m-460 -10 c0 -5 -7 -10 -16 -10 -8 0 -12 5
-9 10 3 6 10 10 16 10 5 0 9 -4 9 -10z m74 -5 c-6 -16 -24 -21 -24 -7 0 11 11
22 21 22 5 0 6 -7 3 -15z m246 5 c0 -5 -5 -10 -11 -10 -5 0 -7 5 -4 10 3 6 8
10 11 10 2 0 4 -4 4 -10z m750 -11 c0 -24 -23 -21 -28 4 -2 10 3 17 12 17 10
0 16 -9 16 -21z m-5914 -84 c15 -38 43 -101 62 -140 43 -86 62 -138 68 -190 3
-22 7 -45 9 -52 4 -12 -79 -27 -121 -23 -35 4 -45 0 -37 -12 4 -7 -5 -5 -20 5
-15 10 -33 17 -40 16 -26 -3 -36 2 -43 24 -5 12 -7 25 -6 30 1 4 -2 7 -7 7 -6
0 -10 8 -10 18 0 9 -3 36 -7 59 -5 33 -2 49 13 75 21 36 45 109 64 198 14 64
28 88 40 68 5 -7 21 -44 35 -83z m4744 67 c0 -30 -25 -45 -95 -57 l-40 -6 50
45 c59 53 85 59 85 18z m227 22 c-3 -3 -12 -4 -19 -1 -8 3 -5 6 6 6 11 1 17
-2 13 -5z m893 -109 c18 -43 46 -115 62 -160 36 -96 49 -130 82 -213 l25 -63
-117 3 -117 3 3 30 c4 42 -26 238 -45 294 -22 64 -50 101 -78 101 -21 0 -23
-6 -30 -67 -12 -113 -18 -118 -53 -41 -50 111 -58 136 -44 150 7 7 42 14 78
16 44 3 84 13 122 32 67 32 62 36 112 -85z m-5206 44 c11 -14 9 -17 -17 -27
-27 -10 -28 -10 -14 6 19 20 6 52 -21 52 -15 0 -15 2 -2 10 11 7 19 5 28 -8 7
-9 18 -24 26 -33z m291 41 c3 -5 1 -10 -4 -10 -6 0 -11 5 -11 10 0 6 2 10 4
10 3 0 8 -4 11 -10z m605 6 c0 -3 -4 -8 -10 -11 -5 -3 -10 -1 -10 4 0 6 5 11
10 11 6 0 10 -2 10 -4z m-647 -20 c3 -8 -1 -17 -10 -20 -20 -8 -25 -3 -17 18
8 20 20 21 27 2z m3449 -8 c-7 -7 -12 -8 -12 -2 0 14 12 26 19 19 2 -3 -1 -11
-7 -17z m442 1 c-12 -20 -66 -41 -77 -30 -8 8 -4 11 15 11 18 0 29 7 33 19 4
12 12 18 20 14 8 -3 12 -9 9 -14z m-3999 1 c3 -5 1 -10 -4 -10 -6 0 -11 5 -11
10 0 6 2 10 4 10 3 0 8 -4 11 -10z m765 0 c0 -5 -5 -10 -11 -10 -5 0 -7 5 -4
10 3 6 8 10 11 10 2 0 4 -4 4 -10z m3509 -4 c9 -11 7 -13 -11 -11 -33 4 -34 4
-18 15 19 12 16 12 29 -4z m-2665 -37 c10 -21 53 -48 99 -63 11 -3 21 -15 24
-27 3 -11 11 -18 18 -15 9 3 11 -2 8 -15 -3 -12 3 -32 14 -47 34 -46 37 -69
11 -83 l-22 -12 22 -8 c33 -13 27 -32 -8 -27 -17 3 -33 1 -36 -4 -3 -4 -13 -4
-23 1 -9 5 -25 9 -35 8 -16 -2 -19 6 -22 51 -1 32 -9 61 -19 72 -10 11 -15 31
-13 52 3 29 0 33 -22 36 -20 3 -60 35 -60 49 0 2 12 8 27 14 20 7 23 13 15 21
-7 7 -12 19 -12 27 0 19 17 3 34 -30z m-1479 13 c-6 -4 -16 -15 -24 -24 -12
-16 -11 -18 9 -18 15 0 20 5 17 14 -3 8 1 17 9 20 20 8 17 -18 -4 -37 -16 -14
-21 -15 -37 -4 -17 13 -17 15 5 40 13 15 26 24 29 21 3 -3 1 -8 -4 -12z m635
4 c0 -3 -4 -8 -10 -11 -5 -3 -10 -1 -10 4 0 6 5 11 10 11 6 0 10 -2 10 -4z
m56 -23 c-2 -9 -7 -18 -13 -20 -6 -2 -8 7 -6 21 6 28 23 27 19 -1z m3407 2
c-5 -13 -23 -22 -23 -11 0 15 14 35 21 31 4 -3 6 -12 2 -20z m267 -5 c0 -5 -4
-10 -10 -10 -5 0 -10 5 -10 10 0 6 5 10 10 10 6 0 10 -4 10 -10z m-3119 -32
c16 -18 29 -42 29 -53 1 -30 23 -63 41 -60 13 2 15 -5 13 -36 -1 -21 2 -39 6
-39 5 0 7 -6 4 -13 -2 -7 -24 -17 -48 -23 l-44 -10 0 40 c-1 29 -7 45 -23 57
-17 13 -21 23 -16 47 4 20 1 34 -8 42 -9 8 -11 19 -6 33 5 12 6 28 4 35 -9 23
18 12 48 -20z m594 23 c-15 -14 -105 -25 -105 -13 0 13 23 19 75 21 24 1 35
-3 30 -8z m-2425 -11 c0 -5 -9 -10 -21 -10 -11 0 -17 5 -14 10 3 6 13 10 21
10 8 0 14 -4 14 -10z m400 0 c0 -5 -4 -10 -10 -10 -5 0 -10 5 -10 10 0 6 5 10
10 10 6 0 10 -4 10 -10z m-2880 -10 c0 -5 -4 -10 -10 -10 -5 0 -10 5 -10 10 0
6 5 10 10 10 6 0 10 -4 10 -10z m3560 6 c0 -3 -4 -8 -10 -11 -5 -3 -10 -1 -10
4 0 6 5 11 10 11 6 0 10 -2 10 -4z m60 0 c0 -3 -4 -8 -10 -11 -5 -3 -10 -1
-10 4 0 6 5 11 10 11 6 0 10 -2 10 -4z m70 -25 c-4 -16 -6 -32 -2 -35 3 -3 -1
-6 -9 -6 -27 0 -10 67 18 70 1 0 -2 -13 -7 -29z m-2807 -11 c-5 -19 -23 -29
-23 -12 0 7 20 32 26 32 1 0 0 -9 -3 -20z m6160 1 c-3 -11 -13 -21 -24 -24
-10 -3 -19 -12 -19 -21 0 -9 -8 -16 -20 -16 -27 0 -25 20 5 53 30 32 66 37 58
8z m-5441 -23 c-9 -9 -12 -7 -12 12 0 19 3 21 12 12 9 -9 9 -15 0 -24z m1544
17 c-3 -20 -13 -28 -26 -20 -8 5 -8 11 1 21 15 18 28 18 25 -1z m71 9 c-3 -3
-12 -4 -19 -1 -8 3 -5 6 6 6 11 1 17 -2 13 -5z m390 -38 c-23 -35 -29 -37 -33
-9 -3 17 36 54 48 47 4 -3 -3 -20 -15 -38z m3163 24 c-8 -5 -17 -7 -19 -4 -3
3 1 9 9 14 8 5 17 7 19 4 3 -3 -1 -9 -9 -14z m-5034 -5 c16 -13 17 -16 4 -25
-22 -14 -33 -12 -26 5 3 8 1 15 -4 15 -6 0 -10 5 -10 10 0 14 13 12 36 -5z
m44 -25 c0 -19 -11 -26 -23 -14 -8 8 3 34 14 34 5 0 9 -9 9 -20z m3170 5 c0
-8 -9 -15 -20 -15 -20 0 -26 11 -13 23 12 13 33 7 33 -8z m85 5 c3 -5 1 -10
-4 -10 -6 0 -11 5 -11 10 0 6 2 10 4 10 3 0 8 -4 11 -10z m365 -5 c0 -8 -4
-15 -10 -15 -5 0 -7 7 -4 15 4 8 8 15 10 15 2 0 4 -7 4 -15z m-1610 -3 c0 -13
-12 -22 -22 -16 -10 6 -1 24 13 24 5 0 9 -4 9 -8z m1074 -28 c10 -27 -13 -24
-45 5 l-33 30 37 -11 c20 -6 38 -17 41 -24z m-3164 16 c0 -5 -4 -10 -10 -10
-5 0 -10 5 -10 10 0 6 5 10 10 10 6 0 10 -4 10 -10z m2150 -10 c-6 -11 -13
-20 -16 -20 -2 0 0 9 6 20 6 11 13 20 16 20 2 0 0 -9 -6 -20z m1500 10 c0 -5
-4 -10 -10 -10 -5 0 -10 5 -10 10 0 6 5 10 10 10 6 0 10 -4 10 -10z m-4428
-25 c-2 -14 -8 -25 -12 -25 -4 0 -5 11 -2 25 2 14 8 25 12 25 4 0 5 -11 2 -25z
m6233 15 c-4 -6 -11 -8 -16 -5 -5 4 -9 1 -9 -5 0 -6 -5 -8 -11 -4 -8 4 -7 9 2
15 19 12 42 11 34 -1z m-3781 -26 c27 -28 34 -58 15 -70 -6 -3 -8 -17 -5 -30
4 -13 4 -24 1 -24 -10 0 -35 61 -29 72 4 6 3 8 -3 5 -11 -7 -23 23 -23 56 0
24 13 21 44 -9z m-2584 5 c0 -5 -9 -9 -20 -9 -11 0 -20 4 -20 8 0 4 9 8 20 9
11 1 20 -2 20 -8z m867 -25 c-2 -2 -16 0 -32 5 -28 7 -29 8 -10 19 16 9 22 8
32 -5 7 -9 11 -18 10 -19z m48 27 c7 -12 -12 -24 -25 -16 -11 7 -4 25 10 25 5
0 11 -4 15 -9z m43 -10 c3 -8 -1 -12 -9 -9 -7 2 -15 10 -17 17 -3 8 1 12 9 9
7 -2 15 -10 17 -17z m4019 -10 c-1 -12 -7 -17 -19 -13 -21 5 -24 18 -5 25 22
9 26 7 24 -12z m-63 -7 c15 -6 15 -8 -1 -20 -10 -7 -25 -14 -35 -14 -9 0 -18
-5 -20 -12 -2 -6 -10 -8 -17 -4 -16 11 5 36 30 36 11 0 19 5 19 10 0 12 3 12
24 4z m1216 -4 c0 -5 -4 -10 -9 -10 -6 0 -13 5 -16 10 -3 6 1 10 9 10 9 0 16
-4 16 -10z m-4266 -9 c3 -5 -1 -12 -10 -15 -20 -8 -29 -1 -19 13 8 13 22 14
29 2z m459 -6 c4 -8 2 -17 -3 -20 -6 -4 -10 3 -10 14 0 25 6 27 13 6z m-1423
-15 c12 -8 11 -10 -7 -10 -13 0 -23 5 -23 10 0 13 11 13 30 0z m1480 0 c0 -5
-4 -10 -10 -10 -5 0 -10 5 -10 10 0 6 5 10 10 10 6 0 10 -4 10 -10z m3700 6
c0 -3 -4 -8 -10 -11 -5 -3 -10 -1 -10 4 0 6 5 11 10 11 6 0 10 -2 10 -4z
m-4190 -26 c0 -13 -5 -18 -15 -14 -12 5 -13 10 -4 20 15 19 19 18 19 -6z
m-1013 -27 c-2 -12 0 -24 5 -27 5 -2 3 -3 -4 -2 -7 2 -12 10 -10 20 2 11 -4
16 -18 16 -12 0 -19 4 -15 9 3 6 15 9 26 8 16 -1 19 -7 16 -24z m-74 10 c-22
-8 -14 -33 10 -33 27 0 126 -72 108 -78 -25 -8 -61 9 -67 32 -3 15 -15 26 -32
30 -15 3 -33 9 -40 14 -17 11 -4 42 17 41 10 0 11 -2 4 -6z m127 -8 c-7 -9
-15 -13 -19 -10 -3 3 1 10 9 15 21 14 24 12 10 -5z m3936 -12 c-10 -10 -19 5
-10 18 6 11 8 11 12 0 2 -7 1 -15 -2 -18z m-83 9 c4 10 7 11 18 1 9 -9 9 -13
1 -13 -8 0 -9 -7 -2 -24 8 -21 5 -25 -18 -29 -34 -6 -55 2 -48 19 4 11 -1 13
-19 8 -13 -3 -29 -3 -36 2 -17 10 17 33 40 27 10 -3 22 0 26 7 5 8 10 8 20 0
10 -8 14 -7 18 2z m-3850 -37 c-10 -7 -22 -10 -28 -7 -5 4 -2 8 8 10 9 2 17 8
17 13 0 6 5 7 11 4 6 -5 4 -12 -8 -20z m1007 15 c0 -5 -5 -10 -11 -10 -5 0 -7
5 -4 10 3 6 8 10 11 10 2 0 4 -4 4 -10z m1531 -23 c-13 -13 -26 -3 -16 12 3 6
11 8 17 5 6 -4 6 -10 -1 -17z m477 -19 c17 -17 15 -35 -5 -42 -10 -3 -24 -9
-31 -12 -9 -4 -12 2 -8 23 2 15 5 31 5 36 1 11 26 8 39 -5z m-2007 -30 c11
-21 11 -22 -4 -9 -10 7 -17 17 -17 22 0 15 9 10 21 -13z m1523 6 c4 -9 4 -19
1 -22 -7 -8 -35 19 -29 29 8 14 21 11 28 -7z m1591 -9 c27 -8 51 -13 54 -11 3
2 17 -7 31 -20 l25 -24 -37 0 c-20 0 -40 4 -43 10 -3 5 -19 7 -35 3 -19 -3
-39 0 -55 11 -13 9 -31 16 -39 16 -8 0 -18 5 -22 11 -5 8 1 10 20 7 14 -3 26
-1 26 3 0 13 20 11 75 -6z m-4331 -45 c-6 -6 -10 -2 -11 12 -2 16 1 18 10 9 7
-7 8 -14 1 -21z m-511 7 c4 -10 -2 -13 -19 -9 -13 2 -21 8 -18 13 8 14 31 11
37 -4z m-263 -7 c0 -5 -5 -10 -11 -10 -5 0 -7 5 -4 10 3 6 8 10 11 10 2 0 4
-4 4 -10z m671 -4 c7 4 9 3 6 -3 -4 -6 7 -13 25 -17 21 -4 28 -10 22 -16 -11
-11 -94 28 -94 44 0 5 7 3 15 -4 8 -6 20 -8 26 -4z m339 -2 c0 -2 -7 -4 -15
-4 -8 0 -15 4 -15 10 0 5 7 7 15 4 8 -4 15 -8 15 -10z m2877 -9 c-7 -14 -18
-25 -25 -25 -8 0 -10 5 -6 13 24 42 49 52 31 12z m-3144 8 c-7 -2 -19 -2 -25
0 -7 3 -2 5 12 5 14 0 19 -2 13 -5z m1657 -3 c0 -5 -4 -10 -10 -10 -5 0 -10 5
-10 10 0 6 5 10 10 10 6 0 10 -4 10 -10z m-2270 -16 c0 -2 -7 -4 -15 -4 -8 0
-15 4 -15 10 0 5 7 7 15 4 8 -4 15 -8 15 -10z m285 6 c3 -5 1 -10 -4 -10 -6 0
-11 5 -11 10 0 6 2 10 4 10 3 0 8 -4 11 -10z m705 0 c0 -3 -4 -11 -9 -19 -6
-9 -10 -10 -16 -2 -5 9 -10 9 -20 1 -9 -8 -14 -6 -19 5 -3 9 -2 13 3 10 5 -3
12 -1 16 4 6 10 45 11 45 1z m58 -9 c13 5 27 7 30 4 9 -9 -4 -16 -40 -21 -28
-5 -35 -3 -35 10 0 11 4 13 10 7 6 -6 19 -6 35 0z m-378 -16 c-10 -12 -9 -15
6 -15 16 0 17 -2 4 -10 -19 -12 -33 -13 -25 -1 3 5 1 12 -5 16 -17 11 -11 25
11 25 18 0 19 -2 9 -15z m515 5 c17 -7 16 -9 -10 -9 -16 0 -37 4 -45 9 -12 8
-10 10 10 9 14 0 34 -4 45 -9z m2640 -20 c19 -36 19 -40 0 -40 -12 0 -13 -4
-3 -25 8 -17 14 -22 19 -14 4 7 6 1 6 -13 -2 -20 -6 -24 -27 -20 -34 6 -62 42
-47 60 9 11 7 17 -6 27 -20 14 -21 27 -5 43 21 21 47 13 63 -18z m-6785 10 c0
-5 -5 -10 -11 -10 -5 0 -7 5 -4 10 3 6 8 10 11 10 2 0 4 -4 4 -10z m873 -24
c-3 -4 -9 -2 -14 5 -13 22 -11 31 5 17 8 -7 12 -17 9 -22z m3437 24 c0 -5 -5
-10 -11 -10 -5 0 -7 5 -4 10 3 6 8 10 11 10 2 0 4 -4 4 -10z m2080 -37 c0 -19
-17 -16 -24 5 -3 9 -9 24 -12 32 -5 10 0 9 15 -4 11 -11 21 -25 21 -33z
m-4636 28 c8 -12 -3 -41 -15 -41 -5 0 -9 11 -9 25 0 25 14 34 24 16z m1831 -9
c-3 -3 -11 0 -18 7 -9 10 -8 11 6 5 10 -3 15 -9 12 -12z m762 12 c-3 -3 -12
-4 -19 -1 -8 3 -5 6 6 6 11 1 17 -2 13 -5z m-1724 -16 c16 -12 16 -16 1 -55
-21 -52 -37 -56 -28 -7 6 30 4 36 -15 41 -11 3 -21 12 -21 19 0 17 40 18 63 2z
m887 -18 c8 -31 -4 -76 -18 -73 -6 2 -9 -3 -6 -11 8 -20 -35 -153 -54 -168
-14 -11 -15 -10 -8 7 21 52 47 161 43 177 -3 10 -1 21 4 24 6 4 6 11 0 18 -6
7 -8 16 -4 19 3 4 1 7 -5 7 -7 0 -12 7 -12 16 0 27 53 13 60 -16z m-4045 -18
c-13 -14 -16 -14 -13 -2 4 21 22 40 27 28 2 -5 -4 -17 -14 -26z m4940 -9 c-3
-21 -8 -46 -9 -55 -1 -10 -5 -21 -9 -24 -4 -4 -7 -21 -7 -39 0 -17 -4 -35 -9
-40 -5 -6 -12 -32 -15 -58 -5 -45 -30 -87 -43 -74 -3 3 1 30 8 59 7 29 13 60
14 68 0 9 3 20 6 25 3 6 7 28 8 49 1 22 4 43 6 47 3 4 -2 9 -10 13 -15 5 -21
47 -8 59 3 4 22 7 41 7 35 0 35 0 27 -37z m903 28 c10 -6 8 -10 -9 -14 -26 -7
-34 -3 -24 12 7 13 15 14 33 2z m2092 -1 c0 -5 -4 -10 -10 -10 -5 0 -10 5 -10
10 0 6 5 10 10 10 6 0 10 -4 10 -10z m230 -6 c0 -2 -12 -4 -26 -4 -14 0 -23 4
-20 9 6 8 46 4 46 -5z m-8124 -16 c-9 -5 -13 -15 -10 -21 4 -7 4 -9 -1 -5 -4
4 -14 3 -22 -4 -11 -8 -12 -7 -7 6 3 9 10 16 15 16 5 0 9 7 9 15 0 9 6 12 16
8 15 -5 15 -7 0 -15z m6941 -8 c0 -16 -4 -27 -9 -24 -4 3 -8 16 -8 30 0 13 4
24 8 24 5 0 9 -13 9 -30z m2497 -4 c15 -23 -18 -48 -59 -44 -43 4 -45 34 -3
52 39 17 48 16 62 -8z m-3664 -19 c0 -12 -6 -31 -14 -42 -7 -11 -14 -23 -15
-27 0 -5 -4 -8 -8 -7 -5 0 -7 7 -5 15 2 8 -4 24 -13 36 -24 35 -19 48 20 48
30 0 35 -3 35 -23z m3024 -12 c2 -6 -4 -22 -15 -36 l-18 -24 5 25 c2 14 2 19
-2 13 -7 -15 -34 -18 -34 -4 0 28 54 50 64 26z m863 -4 c10 -15 9 -20 -2 -25
-20 -7 -19 -26 0 -26 8 0 15 -4 15 -10 0 -24 -27 -7 -48 30 -17 29 -18 38 -7
34 8 -4 15 -1 15 5 0 17 14 13 27 -8z m1721 -16 c-3 -3 -9 2 -12 12 -6 14 -5
15 5 6 7 -7 10 -15 7 -18z m-838 -65 c0 -5 -5 -10 -11 -10 -5 0 -7 5 -4 10 3
6 8 10 11 10 2 0 4 -4 4 -10z m-875 -20 c3 -5 1 -10 -4 -10 -6 0 -11 5 -11 10
0 6 2 10 4 10 3 0 8 -4 11 -10z m-3934 -43 c-8 -8 -11 -3 -11 19 1 25 2 27 11
11 8 -14 8 -22 0 -30z m-11 -92 c0 -8 -4 -15 -10 -15 -5 0 -7 7 -4 15 4 8 8
15 10 15 2 0 4 -7 4 -15z m-1810 -25 c0 -5 -4 -10 -10 -10 -5 0 -10 5 -10 10
0 6 5 10 10 10 6 0 10 -4 10 -10z m910 -16 c0 -7 -43 -85 -45 -82 -2 2 2 24 8
49 7 32 15 45 24 42 7 -3 13 -7 13 -9z m895 6 c3 -5 1 -10 -4 -10 -6 0 -11 5
-11 10 0 6 2 10 4 10 3 0 8 -4 11 -10z m11 -62 c-2 -10 0 -21 5 -24 5 -3 6
-10 3 -16 -4 -7 -14 -2 -25 13 -21 29 -25 26 -32 -28 -5 -41 -4 -43 18 -37 28
7 40 -26 19 -53 -7 -10 -14 -28 -14 -40 0 -18 -6 -23 -27 -23 -25 0 -25 1 -10
18 10 10 17 32 17 48 0 21 -3 25 -9 15 -7 -11 -11 -5 -16 22 -4 20 -11 37 -16
37 -5 0 -9 9 -9 21 0 12 -5 19 -12 17 -27 -9 -29 -138 -4 -238 4 -14 9 -50 12
-80 l4 -55 -20 44 c-11 24 -22 57 -25 75 -8 43 -26 99 -36 111 -5 5 -9 15 -9
22 0 8 -11 24 -25 36 -33 29 -51 113 -26 127 9 5 67 8 129 7 102 -2 112 -4
108 -19z m910 -32 c-3 -14 -11 -26 -16 -26 -11 0 -14 53 -3 64 13 12 26 -13
19 -38z m2475 -8 c2 -34 -2 -61 -11 -78 -8 -14 -11 -8 -52 83 -6 14 -2 17 27
17 29 0 35 -4 36 -22z m1717 4 c-1 -4 -16 -30 -32 -59 -30 -55 -60 -67 -70
-28 -3 11 -19 36 -36 55 -25 29 -33 32 -40 20 -8 -13 -10 -12 -10 3 0 15 11
17 96 17 53 0 94 -3 92 -8z m-6048 -56 c0 -21 -11 -46 -20 -46 -13 0 -18 38
-7 49 15 15 27 14 27 -3z m1862 -7 c-2 -8 -5 -49 -6 -91 -1 -45 -6 -82 -13
-89 -17 -17 -28 13 -15 38 6 11 7 36 2 63 -11 59 -3 102 19 97 9 -2 14 -10 13
-18z m928 -36 c0 -27 3 -78 6 -115 6 -76 -5 -88 -32 -36 -18 36 -16 138 5 176
17 32 22 27 21 -25z m-2834 -55 c-5 -59 -14 -88 -27 -88 -17 0 -14 107 3 128
21 24 29 11 24 -40z m6629 2 c3 -5 2 -10 -4 -10 -5 0 -13 5 -16 10 -3 6 -2 10
4 10 5 0 13 -4 16 -10z m-1895 -107 c6 -67 -3 -92 -19 -50 -6 14 -15 28 -20
32 -15 9 -14 88 1 103 18 18 30 -9 38 -85z m-955 75 c8 -28 11 -118 4 -118
-16 0 -38 70 -32 100 6 31 21 40 28 18z m1880 -63 c8 -51 0 -72 -21 -54 -8 6
-14 30 -14 54 0 71 25 72 35 0z m972 -121 c-9 -9 -59 65 -52 76 5 7 17 -4 32
-30 14 -23 23 -44 20 -46z"/>
<path d="M4565 5080 c-3 -6 1 -13 10 -16 19 -8 30 0 20 15 -8 14 -22 14 -30 1z"/>
<path d="M3860 4876 c-43 -14 -110 -66 -110 -85 0 -8 -10 -25 -21 -37 -18 -19
-25 -21 -40 -11 -15 10 -23 8 -40 -10 l-21 -21 21 -21 c29 -29 79 -28 90 1 9
24 23 27 120 29 66 1 113 21 155 67 18 20 17 22 -15 61 -37 45 -68 51 -139 27z"/>
<path d="M3523 4684 c-28 -43 -28 -50 -4 -64 28 -14 74 40 62 73 -13 34 -34
30 -58 -9z"/>
<path d="M3303 4660 c10 -26 13 -28 26 -15 12 11 12 17 1 29 -7 9 -18 16 -25
16 -11 0 -11 -6 -2 -30z"/>
<path d="M4172 4620 l-23 -19 22 -22 c21 -21 21 -23 5 -35 -22 -16 -31 -85
-10 -77 19 7 18 -11 -1 -27 -23 -19 -19 -26 32 -50 40 -19 47 -20 55 -7 6 12
14 13 37 4 16 -6 32 -18 35 -26 3 -9 9 -22 12 -28 10 -22 -34 -15 -46 7 -13
25 -41 26 -71 1 -17 -14 -29 -17 -46 -10 -28 10 -96 -18 -85 -35 3 -6 -6 -3
-21 7 -28 18 -47 16 -47 -7 0 -27 -28 -40 -57 -27 -22 10 -25 16 -20 46 5 30
3 35 -14 35 -11 0 -29 5 -39 10 -16 9 -18 15 -10 36 6 14 8 30 4 35 -8 14 -26
-1 -20 -16 3 -8 -1 -19 -9 -25 -9 -8 -12 -22 -8 -41 4 -21 1 -30 -11 -35 -12
-5 -14 -10 -6 -20 7 -7 17 -11 24 -8 7 3 25 -5 40 -17 20 -16 27 -28 23 -45
-5 -29 7 -39 53 -47 19 -3 43 -8 52 -12 13 -5 19 0 24 19 4 17 15 28 33 32 14
4 37 13 50 21 12 8 32 13 42 10 11 -3 35 -1 55 4 40 12 75 4 68 -15 -3 -7 2
-16 10 -19 12 -5 16 0 16 19 0 18 7 28 21 31 12 4 22 17 26 34 7 35 28 37 60
7 20 -19 27 -20 43 -10 23 14 50 16 50 3 0 -4 12 -24 28 -42 23 -29 32 -34 57
-29 28 5 30 8 31 55 1 28 7 63 13 79 9 23 9 31 -1 38 -25 15 -29 8 -23 -36 9
-59 -11 -71 -78 -49 -42 14 -47 19 -47 44 0 24 -4 29 -25 29 -18 0 -28 7 -35
25 -10 27 -58 74 -76 75 -5 0 -23 13 -39 30 -15 16 -41 32 -56 35 -16 4 -27
11 -24 16 8 12 -23 69 -38 69 -6 -1 -22 -9 -35 -20z m48 -55 c-7 -9 -15 -13
-17 -11 -7 7 7 26 19 26 6 0 6 -6 -2 -15z"/>
<path d="M2820 4516 c0 -8 5 -18 10 -21 6 -3 10 1 10 9 0 8 -4 18 -10 21 -5 3
-10 -1 -10 -9z"/>
<path d="M3206 4511 c-3 -4 -17 -6 -31 -4 -13 3 -31 3 -40 0 -13 -5 -13 -10 0
-41 20 -46 19 -69 -2 -95 -25 -29 -60 -18 -68 20 -7 33 -19 37 -33 13 -7 -13
-19 -16 -50 -12 -60 9 -132 -19 -132 -50 -1 -9 -19 -29 -40 -44 -47 -33 -50
-49 -14 -77 31 -24 69 -27 77 -6 4 8 23 23 45 34 21 11 44 27 51 35 17 20 45
20 61 1 11 -13 16 -12 40 8 63 50 75 57 96 57 28 0 57 -28 50 -46 -3 -8 1 -14
9 -14 8 0 12 6 9 13 -7 18 22 41 41 33 9 -3 14 -16 13 -31 -2 -19 -8 -25 -25
-25 -13 0 -23 -6 -23 -14 0 -18 22 -26 49 -19 12 3 28 0 36 -7 11 -10 25 -6
71 19 32 17 69 31 82 31 24 0 24 1 -9 25 -19 14 -42 28 -51 31 -10 4 -18 10
-18 15 0 12 17 12 24 0 6 -9 84 13 99 28 17 17 -23 43 -94 60 -42 10 -97 30
-121 45 -44 26 -92 34 -102 17z"/>
<path d="M3740 4400 c0 -5 5 -10 10 -10 6 0 10 5 10 10 0 6 -4 10 -10 10 -5 0
-10 -4 -10 -10z"/>
<path d="M4446 4244 c-8 -22 -9 -22 19 -40 30 -20 49 -11 35 16 -16 30 -47 43
-54 24z"/>
<path d="M4855 4063 c-30 -5 -45 -18 -45 -40 0 -16 86 -10 133 10 46 20 48 31
3 23 -20 -4 -37 -2 -41 4 -3 5 -9 9 -13 9 -4 -1 -20 -4 -37 -6z"/>
<path d="M4734 4047 c-8 -21 2 -35 16 -21 5 5 6 15 0 24 -8 12 -10 12 -16 -3z"/>
<path d="M5410 4005 c-7 -8 -28 -15 -46 -15 -38 0 -38 0 -23 -34 10 -21 15
-23 36 -15 31 11 73 2 96 -22 31 -33 43 -25 53 36 3 21 2 35 -3 32 -5 -3 -24
3 -41 14 -39 23 -55 24 -72 4z"/>
<path d="M5672 3848 c3 -7 19 -18 36 -25 31 -13 32 -13 32 14 0 22 -2 25 -10
13 -8 -12 -13 -13 -30 -2 -25 15 -33 15 -28 0z"/>
<path d="M5490 3830 c-26 -20 -27 -19 23 -34 9 -3 12 4 9 25 -2 16 -5 29 -6
29 0 0 -12 -9 -26 -20z"/>
<path d="M9316 3925 c-15 -11 -16 -15 -5 -15 8 0 24 7 35 15 14 11 15 14 4 14
-8 0 -24 -6 -34 -14z"/>
<path d="M9376 3898 c-62 -46 -71 -73 -28 -81 31 -6 48 5 58 36 4 12 15 33 25
46 20 26 24 41 10 41 -5 0 -34 -19 -65 -42z"/>
<path d="M9258 3903 c7 -3 16 -2 19 1 4 3 -2 6 -13 5 -11 0 -14 -3 -6 -6z"/>
<path d="M8867 3393 c-4 -3 -24 -9 -44 -13 l-38 -8 41 -1 c29 -1 44 4 48 14 6
16 3 19 -7 8z"/>
<path d="M8948 3383 c6 -2 18 -2 25 0 6 3 1 5 -13 5 -14 0 -19 -2 -12 -5z"/>
<path d="M8667 4036 l-28 -12 26 -12 c14 -7 35 -12 45 -12 21 0 27 15 10 25
-6 4 -8 11 -5 16 8 12 -14 10 -48 -5z"/>
<path d="M8544 3988 c-3 -5 4 -12 16 -15 14 -4 19 -11 15 -22 -4 -9 -7 -20 -8
-25 -2 -10 35 -14 153 -19 76 -3 86 -1 101 17 10 12 15 24 13 28 -2 4 -35 7
-72 7 -37 0 -100 9 -140 20 -44 11 -75 15 -78 9z"/>
<path d="M8483 3863 c-7 -2 -13 -9 -13 -14 0 -15 53 -6 58 9 4 12 -21 15 -45
5z"/>
<path d="M6544 4125 c-18 -13 -18 -14 4 -8 12 3 25 9 28 14 8 14 -10 11 -32
-6z"/>
<path d="M9573 3825 c-3 -9 -3 -18 0 -21 9 -9 27 6 27 22 0 19 -19 18 -27 -1z"/>
<path d="M7381 3747 c-7 -14 -11 -31 -8 -39 3 -8 9 -2 16 16 15 38 9 55 -8 23z"/>
<path d="M6002 3618 c2 -12 10 -23 18 -25 12 -4 13 -3 1 5 -8 6 -11 17 -8 26
4 9 2 16 -4 16 -6 0 -9 -10 -7 -22z"/>
<path d="M5743 3113 c-9 -18 -9 -31 -2 -44 13 -26 23 -24 16 3 -4 13 0 29 9
39 12 13 12 18 2 22 -8 2 -19 -6 -25 -20z"/>
<path d="M5683 3067 c-18 -12 -32 -26 -33 -31 0 -5 7 -3 15 4 9 7 15 8 15 2 0
-5 9 -8 20 -5 13 3 20 14 20 29 0 13 -1 24 -2 23 -2 0 -17 -11 -35 -22z"/>
<path d="M5728 3034 c-8 -7 13 -44 24 -44 12 0 10 14 -5 34 -7 9 -16 14 -19
10z"/>
<path d="M5518 2965 c-5 -25 -4 -25 10 -11 12 11 13 19 5 27 -7 7 -12 3 -15
-16z"/>
<path d="M5625 2949 c-11 -17 1 -21 15 -4 8 9 8 15 2 15 -6 0 -14 -5 -17 -11z"/>
<path d="M5740 2739 c0 -5 5 -7 10 -4 6 3 10 8 10 11 0 2 -4 4 -10 4 -5 0 -10
-5 -10 -11z"/>
<path d="M6780 3600 c0 -5 5 -10 11 -10 5 0 7 5 4 10 -3 6 -8 10 -11 10 -2 0
-4 -4 -4 -10z"/>
<path d="M8437 3430 c3 -11 7 -20 9 -20 2 0 4 9 4 20 0 11 -4 20 -9 20 -5 0
-7 -9 -4 -20z"/>
<path d="M10555 3140 c3 -5 8 -10 11 -10 2 0 4 5 4 10 0 6 -5 10 -11 10 -5 0
-7 -4 -4 -10z"/>
<path d="M10430 3119 c0 -5 5 -7 10 -4 6 3 10 8 10 11 0 2 -4 4 -10 4 -5 0
-10 -5 -10 -11z"/>
<path d="M10445 3090 c-3 -5 -1 -10 4 -10 6 0 11 5 11 10 0 6 -2 10 -4 10 -3
0 -8 -4 -11 -10z"/>
<path d="M10485 3049 c-4 -6 -5 -12 -2 -15 2 -3 7 2 10 11 7 17 1 20 -8 4z"/>
<path d="M8390 3136 c0 -2 7 -9 15 -16 13 -11 14 -10 9 4 -5 14 -24 23 -24 12z"/>
<path d="M8462 3080 c-30 -25 -28 -30 11 -29 25 0 28 2 12 8 -18 7 -18 8 -1
18 10 6 15 13 10 16 -5 3 -19 -3 -32 -13z"/>
<path d="M8586 2965 c-3 -9 0 -15 8 -15 24 0 46 12 40 21 -9 14 -41 10 -48 -6z"/>
<path d="M7605 3070 c3 -5 8 -10 11 -10 2 0 4 5 4 10 0 6 -5 10 -11 10 -5 0
-7 -4 -4 -10z"/>
<path d="M2920 2870 c0 -5 11 -10 24 -10 14 0 28 5 31 10 4 6 -7 10 -24 10
-17 0 -31 -4 -31 -10z"/>
<path d="M2866 2841 c-4 -5 3 -7 14 -4 23 6 26 13 6 13 -8 0 -17 -4 -20 -9z"/>
<path d="M9496 3005 c4 -8 10 -15 16 -15 5 0 7 4 4 9 -4 5 0 12 6 14 7 3 3 6
-9 6 -16 1 -21 -3 -17 -14z"/>
<path d="M10270 2930 c0 -5 5 -10 11 -10 6 0 9 -8 7 -18 -4 -12 1 -18 13 -18
30 0 7 55 -23 56 -5 0 -8 -4 -8 -10z"/>
<path d="M10225 2890 c4 -6 11 -8 16 -5 14 9 11 15 -7 15 -8 0 -12 -5 -9 -10z"/>
<path d="M10330 2840 c0 -5 5 -10 10 -10 6 0 10 5 10 10 0 6 -4 10 -10 10 -5
0 -10 -4 -10 -10z"/>
<path d="M9160 2729 c0 -5 5 -7 10 -4 6 3 10 8 10 11 0 2 -4 4 -10 4 -5 0 -10
-5 -10 -11z"/>
<path d="M9375 2620 c-10 -11 -14 -20 -9 -20 12 1 44 25 44 34 0 12 -17 6 -35
-14z"/>
<path d="M9329 2573 c-13 -16 -12 -17 4 -4 16 13 21 21 13 21 -2 0 -10 -8 -17
-17z"/>
<path d="M8365 2480 c-12 -19 6 -31 21 -15 9 8 20 12 26 9 7 -4 8 -2 4 4 -9
15 -43 16 -51 2z"/>
<path d="M9105 2480 c-3 -5 -2 -10 4 -10 5 0 13 5 16 10 3 6 2 10 -4 10 -5 0
-13 -4 -16 -10z"/>
<path d="M8980 2449 c0 -6 -9 -8 -20 -4 -11 3 -20 2 -20 -3 0 -5 -11 -15 -25
-22 -14 -7 -23 -15 -21 -17 2 -3 15 1 28 8 12 8 33 14 46 16 19 2 22 -2 16
-20 -6 -20 -4 -19 15 5 26 33 27 48 1 48 -11 0 -20 -5 -20 -11z"/>
<path d="M8472 2428 c-7 -7 -12 -20 -12 -29 0 -9 -7 -22 -15 -29 -20 -17 -19
-31 3 -23 15 6 15 5 3 -11 -8 -10 -23 -15 -33 -13 -10 3 -18 1 -18 -4 0 -11
14 -11 63 0 34 8 38 7 43 -14 4 -15 11 -22 20 -18 8 3 11 9 8 14 -3 5 4 9 15
9 12 0 21 5 21 10 0 6 11 8 26 4 20 -5 25 -3 22 7 -3 9 -17 13 -41 11 -26 -3
-41 2 -53 17 -10 11 -22 17 -27 14 -5 -3 -6 7 -2 25 7 33 -5 48 -23 30z"/>
<path d="M8208 2414 c-7 -26 8 -54 27 -54 19 0 19 14 2 32 -8 7 -16 20 -19 28
-3 10 -6 9 -10 -6z"/>
<path d="M8630 2300 c-8 -16 -8 -20 4 -20 9 0 14 8 13 20 -1 11 -2 20 -4 20
-1 0 -7 -9 -13 -20z"/>
<path d="M8245 2910 c3 -5 12 -7 20 -3 21 7 19 13 -6 13 -11 0 -18 -4 -14 -10z"/>
<path d="M4412 2838 c-14 -14 -16 -48 -3 -48 5 0 11 14 13 30 3 17 4 30 3 30
0 0 -6 -5 -13 -12z"/>
<path d="M5040 2210 c0 -5 5 -10 10 -10 6 0 10 5 10 10 0 6 -4 10 -10 10 -5 0
-10 -4 -10 -10z"/>
<path d="M5905 2700 c3 -5 8 -10 11 -10 2 0 4 5 4 10 0 6 -5 10 -11 10 -5 0
-7 -4 -4 -10z"/>
<path d="M5865 2669 c-4 -6 -5 -12 -2 -15 2 -3 7 2 10 11 7 17 1 20 -8 4z"/>
<path d="M7943 2524 c-3 -8 -1 -20 4 -25 7 -7 12 -2 15 15 6 28 -9 36 -19 10z"/>
<path d="M8015 2130 c-4 -6 -12 -7 -18 -4 -9 5 -9 4 -1 -5 11 -12 44 -5 44 10
0 12 -17 11 -25 -1z"/>
<path d="M7290 2355 c0 -9 5 -15 11 -13 6 2 11 8 11 13 0 5 -5 11 -11 13 -6 2
-11 -4 -11 -13z"/>
</g>
</svg>
