<?xml version="1.0" standalone="no"?>
<!DOCTYPE svg PUBLIC "-//W3C//DTD SVG 20010904//EN"
 "http://www.w3.org/TR/2001/REC-SVG-20010904/DTD/svg10.dtd">
<svg version="1.0" xmlns="http://www.w3.org/2000/svg"
 width="612.000000pt" height="518.000000pt" viewBox="0 0 612.000000 518.000000"
 preserveAspectRatio="xMidYMid meet">

<g transform="translate(0.000000,518.000000) scale(0.100000,-0.100000)"
fill="#000000" stroke="none">
<path d="M2845 4730 c-444 -47 -898 -274 -1244 -621 -180 -181 -301 -350 -412
-574 -102 -208 -157 -378 -200 -622 -30 -168 -33 -498 -6 -667 74 -466 281
-876 607 -1205 525 -529 1242 -717 2010 -527 398 99 744 289 1010 556 299 299
481 657 565 1115 26 138 31 459 11 615 -61 462 -253 865 -571 1198 -301 315
-670 540 -1079 658 -233 67 -494 95 -691 74z m468 -59 c223 -45 392 -103 602
-206 683 -336 1128 -932 1230 -1647 17 -121 20 -416 4 -538 -47 -383 -204
-758 -436 -1041 -79 -97 -238 -249 -336 -322 -273 -205 -644 -355 -1017 -413
-158 -25 -513 -25 -655 -1 -120 21 -295 67 -388 101 -395 149 -780 479 -1017
870 -287 476 -373 1069 -235 1617 143 570 509 1049 1033 1352 102 59 249 125
354 161 134 45 217 63 413 90 72 10 354 -5 448 -23z"/>
<path d="M2825 4329 c-318 -25 -595 -139 -827 -343 -348 -305 -571 -720 -643
-1201 -20 -130 -23 -392 -6 -512 11 -76 10 -84 -9 -115 -11 -18 -20 -47 -20
-64 0 -37 30 -79 62 -88 18 -4 29 -23 51 -89 15 -47 27 -87 27 -89 0 -3 -21
-5 -47 -5 -93 1 -157 -59 -156 -144 1 -91 62 -149 156 -149 43 0 51 -4 91 -46
44 -46 45 -46 104 -42 57 3 61 1 83 -27 54 -71 197 -220 267 -279 254 -211
529 -334 856 -382 155 -23 448 -15 601 15 790 159 1370 750 1456 1482 14 126
7 379 -15 498 -19 105 -58 248 -92 337 -67 180 -195 402 -321 556 -82 101
-257 264 -364 340 -211 151 -504 272 -778 323 -73 13 -336 37 -366 33 -5 0
-55 -4 -110 -9z m301 -40 c377 -36 783 -200 1029 -413 39 -34 39 -35 14 -36
-16 0 -51 20 -95 53 -438 338 -1093 459 -1590 292 -167 -56 -288 -125 -434
-250 -329 -280 -565 -727 -625 -1181 -16 -121 -19 -348 -6 -449 8 -58 -2 -96
-20 -78 -14 14 -31 275 -24 373 20 291 86 543 206 783 176 350 462 646 754
781 236 110 510 153 791 125z m200 -103 c267 -57 570 -194 749 -340 l30 -24
-46 -49 c-25 -27 -48 -55 -51 -63 -3 -9 -17 -1 -47 29 -54 54 -107 77 -198 85
-112 9 -120 15 -213 134 -57 74 -137 112 -233 112 -40 0 -80 -6 -96 -15 -62
-32 -121 -133 -121 -207 0 -22 14 -73 30 -115 33 -82 35 -100 18 -138 -15 -33
-28 -32 -28 3 0 40 -27 139 -55 199 -81 178 -302 273 -566 243 -340 -39 -582
-265 -740 -692 -63 -171 -110 -376 -153 -671 -14 -92 -30 -186 -37 -209 -15
-56 -62 -149 -87 -171 -20 -18 -20 -18 -27 38 -4 32 -5 139 -2 239 6 205 31
348 93 534 143 430 464 818 816 987 200 95 358 125 638 121 173 -4 224 -8 326
-30z m104 -179 c30 -15 67 -48 112 -102 77 -93 108 -110 217 -120 42 -4 92
-15 112 -25 52 -27 132 -120 103 -120 -3 0 -25 17 -49 38 -92 81 -206 113
-275 77 -96 -50 -74 -170 53 -293 l63 -60 -19 -38 c-16 -30 -18 -52 -15 -111
3 -40 2 -73 -2 -73 -4 0 -34 16 -65 35 -99 59 -175 60 -322 2 -102 -41 -227
-67 -242 -52 -6 6 -5 34 4 75 8 36 17 112 21 170 5 91 10 108 30 130 52 56 55
106 14 200 -35 80 -38 135 -10 189 25 49 72 94 107 102 43 10 113 0 163 -24z
m-663 -21 c176 -47 274 -159 308 -351 56 -317 -51 -672 -282 -938 -118 -135
-216 -209 -478 -358 -224 -127 -308 -214 -362 -374 -27 -82 -51 -115 -82 -115
-22 0 -77 51 -86 80 -9 27 -21 25 -63 -11 -31 -27 -41 -30 -76 -26 -64 9 -86
42 -86 128 0 41 -4 69 -10 69 -6 0 -27 -8 -48 -19 -88 -44 -142 -35 -142 24 0
27 9 42 47 77 177 163 194 199 238 506 82 572 217 919 438 1129 113 107 238
169 388 192 80 12 227 6 296 -13z m1478 -210 c49 -49 56 -161 15 -252 -15 -34
-28 -46 -75 -68 -65 -29 -65 -29 -65 -17 0 6 18 20 40 32 46 26 55 47 10 24
-35 -18 -35 -19 -11 38 11 25 37 59 60 78 46 36 47 55 1 21 -38 -28 -41 -28
-34 6 3 15 1 38 -4 51 -7 21 -10 16 -15 -32 -8 -76 -14 -83 -44 -47 -34 42
-43 29 -9 -14 29 -39 30 -44 15 -83 l-11 -28 -15 30 c-21 39 -28 19 -9 -26 12
-29 12 -37 0 -61 -21 -41 -34 -34 -34 20 0 32 -9 66 -26 101 -24 47 -25 57
-15 90 37 124 163 200 226 137z m-420 -74 c93 -50 177 -149 196 -229 8 -36 5
-38 -37 -23 -37 13 -54 40 -70 110 l-12 55 -1 -43 -1 -44 -34 29 c-19 15 -41
46 -49 68 -15 38 -15 38 -16 11 -1 -23 -4 -27 -18 -21 -44 18 -54 14 -18 -7
35 -20 37 -23 18 -26 -37 -6 -26 -22 15 -22 33 -1 82 -27 82 -44 0 -3 -17 -6
-37 -7 l-38 -1 30 -8 c17 -4 42 -11 58 -14 37 -9 34 -26 -3 -26 -17 0 -44 -7
-61 -15 -28 -15 -32 -14 -58 4 -41 30 -97 95 -121 140 -34 67 -26 115 24 137
39 18 87 10 151 -24z m624 -132 c32 -41 66 -88 77 -105 l19 -30 -32 20 c-36
23 -169 184 -184 222 -26 68 6 40 120 -107z m-76 -19 c20 -27 37 -51 37 -53 0
-2 -26 -4 -58 -4 l-58 -1 15 54 c9 29 18 53 21 53 3 -1 22 -23 43 -49z m101
-119 c17 -10 40 -34 50 -53 17 -31 17 -38 5 -64 -20 -40 -57 -64 -111 -71 -45
-6 -49 -5 -107 44 -45 37 -56 52 -45 56 36 14 69 5 101 -26 18 -18 33 -27 33
-21 0 6 -7 16 -15 23 -26 22 -16 30 28 25 31 -4 37 -3 22 4 -11 5 -31 10 -45
11 -24 1 -24 1 -6 15 10 8 24 16 30 18 6 2 9 7 6 10 -3 3 -23 -4 -45 -14 -22
-11 -60 -23 -85 -26 l-45 -5 29 31 c38 40 14 41 -25 1 -21 -21 -46 -32 -86
-40 -31 -5 -58 -10 -60 -10 -2 0 -3 6 -3 14 0 19 93 72 161 91 67 19 169 13
213 -13z m-471 -35 c125 -69 103 -267 -34 -308 -80 -25 -177 45 -198 141 -32
149 96 241 232 167z m652 -162 c74 -151 123 -293 156 -455 21 -101 24 -141 24
-335 0 -189 -4 -234 -23 -321 -55 -251 -162 -480 -315 -671 -87 -109 -268
-276 -385 -354 -692 -463 -1583 -425 -2158 93 -103 92 -256 266 -252 286 5 28
23 22 50 -16 47 -66 155 -182 230 -248 316 -279 713 -418 1148 -401 650 25
1241 392 1517 940 57 115 116 294 139 422 22 120 25 401 6 515 -32 194 -93
386 -174 544 -42 82 -72 191 -41 150 8 -10 43 -77 78 -149z m-410 85 c18 -19
17 -20 -6 -20 -13 -1 -35 -7 -49 -15 -14 -8 -35 -14 -48 -15 -20 0 -23 4 -20
27 2 22 10 29 33 34 54 12 72 9 90 -11z m355 -134 c59 -126 107 -275 137 -415
24 -112 27 -148 27 -321 0 -218 -12 -302 -69 -477 -158 -480 -554 -862 -1071
-1032 -213 -70 -317 -86 -564 -86 -186 1 -229 4 -320 23 -335 73 -610 226
-838 466 -107 113 -165 195 -157 223 8 35 -13 102 -42 131 -23 23 -24 28 -14
64 20 66 50 128 62 128 6 0 20 -11 31 -25 29 -37 74 -57 108 -50 42 9 74 53
98 132 49 161 141 248 422 403 149 82 237 147 345 255 145 143 235 280 294
441 l27 75 65 3 c43 2 100 16 169 41 215 77 234 77 345 10 32 -19 71 -35 85
-35 17 0 38 -13 60 -35 39 -40 107 -65 160 -57 l35 5 -22 -24 c-32 -35 -45
-79 -38 -124 5 -38 4 -41 -32 -60 -21 -11 -62 -41 -93 -66 -46 -38 -58 -44
-68 -33 -12 13 -40 19 -72 14 -8 -1 -25 -11 -38 -23 -18 -17 -23 -30 -19 -57
2 -19 7 -42 11 -50 10 -24 -97 -70 -146 -63 -49 7 -91 -31 -87 -80 2 -20 -7
-48 -23 -77 -65 -110 -73 -137 -73 -260 0 -104 3 -121 27 -172 29 -63 103
-148 158 -183 19 -12 72 -36 118 -55 61 -24 111 -55 185 -113 160 -126 256
-156 385 -123 132 34 206 94 288 234 32 54 88 129 125 169 83 88 110 139 117
219 5 73 -8 119 -56 191 l-35 53 32 79 c35 89 39 146 16 212 -21 59 -58 104
-111 135 -39 23 -63 28 -153 34 -134 9 -143 12 -129 51 8 22 6 41 -6 79 -9 27
-16 50 -16 52 0 2 17 4 37 5 71 4 129 75 118 144 -6 36 -6 37 31 44 42 7 109
39 119 55 3 5 8 10 11 10 3 0 23 -38 44 -84z m-320 65 c0 -5 9 -11 20 -14 14
-4 18 -10 13 -23 -5 -13 -3 -16 10 -11 12 4 19 -3 27 -29 14 -41 0 -88 -31
-104 -28 -15 -33 -12 -11 8 36 30 33 76 -6 100 -16 9 -27 23 -25 30 3 6 0 12
-6 12 -6 0 -11 -7 -11 -15 0 -14 -16 -20 -50 -17 -12 1 -15 -10 -15 -42 0 -51
15 -72 58 -82 18 -4 26 -9 20 -11 -7 -3 -28 0 -47 7 -55 18 -82 74 -65 134 12
43 35 64 51 48 16 -16 28 -15 28 3 0 8 9 15 20 15 11 0 20 -4 20 -9z m-157
-123 l7 -48 -41 0 -41 0 25 30 c14 16 29 39 32 51 9 27 11 23 18 -33z m175 0
c4 -37 -32 -48 -61 -20 -17 18 -18 23 -7 37 8 9 24 15 39 13 20 -2 27 -9 29
-30z m-129 -107 c38 -26 64 -85 57 -125 -6 -31 -56 -92 -56 -68 0 7 -5 12 -11
12 -6 0 -9 -6 -6 -14 12 -31 -72 -36 -119 -7 -32 20 -64 74 -64 111 0 91 121
146 199 91z m-179 -216 c48 -51 147 -56 213 -10 25 17 39 20 51 13 10 -6 66
-13 124 -17 114 -8 149 -20 194 -68 65 -68 74 -152 27 -268 -34 -86 -33 -94
20 -173 30 -46 36 -65 39 -121 5 -88 -11 -123 -104 -223 -43 -47 -96 -119
-122 -167 -73 -131 -144 -194 -257 -226 -124 -36 -220 -6 -375 118 -75 60
-115 84 -189 113 -56 22 -115 54 -145 79 -55 44 -110 127 -127 190 -18 64 -13
175 10 240 26 74 70 140 85 125 16 -16 72 -12 97 9 20 16 24 28 23 69 l0 50
65 31 c36 17 74 31 84 31 24 0 67 44 67 69 0 31 150 157 191 161 3 0 16 -11
29 -25z m-279 -85 c23 -13 25 -52 4 -70 -8 -7 -25 -10 -39 -6 -32 8 -40 42
-15 67 22 22 24 22 50 9z m-207 -203 c23 -17 18 -55 -9 -73 -29 -19 -65 6 -65
46 0 39 38 53 74 27z m-2010 -554 c18 -52 21 -89 7 -97 -8 -5 -27 37 -51 117
-7 23 -6 27 10 27 13 0 23 -14 34 -47z m148 -108 l36 -7 -25 -71 -24 -70 30
-24 c17 -13 36 -41 42 -62 23 -77 -52 -161 -124 -140 -40 11 -65 35 -72 70
l-7 29 -68 -6 c-67 -7 -70 -6 -99 23 -38 39 -47 74 -30 120 10 25 26 42 53 56
40 21 48 20 138 -9 11 -4 18 2 23 18 4 12 14 42 22 65 15 41 16 42 42 28 15
-7 43 -16 63 -20z"/>
<path d="M2845 3868 c-51 -27 -60 -84 -20 -123 50 -51 129 -20 129 50 0 29 -7
43 -28 61 -30 26 -50 29 -81 12z m59 -44 c31 -30 8 -69 -36 -62 -26 3 -37 41
-18 64 16 18 35 18 54 -2z"/>
<path d="M2605 3840 c-32 -12 -47 -36 -48 -73 -1 -48 25 -85 67 -92 90 -17
142 81 77 146 -30 29 -58 35 -96 19z m73 -42 c17 -17 15 -63 -2 -78 -23 -18
-59 -8 -75 22 -14 24 -14 28 3 47 21 23 56 27 74 9z"/>
<path d="M2500 3560 c-27 -27 -26 -65 2 -84 30 -21 44 -20 68 4 27 27 26 65
-2 84 -30 21 -44 20 -68 -4z m48 -37 c-5 -25 -28 -28 -28 -4 0 12 6 21 16 21
9 0 14 -7 12 -17z"/>
<path d="M2757 3562 c-50 -55 21 -124 73 -72 24 24 25 38 4 68 -18 27 -55 29
-77 4z m51 -34 c-6 -18 -28 -21 -28 -4 0 9 7 16 16 16 9 0 14 -5 12 -12z"/>
<path d="M2932 3554 c-16 -11 -22 -25 -22 -54 0 -65 65 -93 108 -47 61 65 -13
152 -86 101z m71 -36 c7 -21 -12 -48 -33 -48 -14 0 -20 7 -20 23 0 13 3 27 7
30 11 12 41 8 46 -5z"/>
<path d="M2745 3382 c-68 -13 -88 -101 -34 -146 35 -30 58 -32 98 -11 86 44
32 175 -64 157z m46 -42 c22 -12 26 -59 7 -78 -7 -7 -21 -12 -33 -12 -29 0
-45 19 -45 52 0 39 34 57 71 38z"/>
<path d="M3970 3345 c0 -8 5 -15 10 -15 6 0 10 7 10 15 0 8 -4 15 -10 15 -5 0
-10 -7 -10 -15z"/>
<path d="M4026 3333 c-11 -11 -6 -23 9 -23 8 0 15 4 15 9 0 13 -16 22 -24 14z"/>
<path d="M3940 3305 c0 -8 5 -15 10 -15 6 0 10 7 10 15 0 8 -4 15 -10 15 -5 0
-10 -7 -10 -15z"/>
<path d="M3853 3275 c-73 -51 2 -183 87 -153 27 9 48 41 44 66 -1 6 -2 19 -3
28 -2 25 -57 74 -83 74 -13 0 -33 -7 -45 -15z m67 -25 c24 -13 41 -61 28 -83
-9 -17 -44 -22 -64 -9 -23 15 -34 50 -24 76 10 27 29 32 60 16z"/>
<path d="M3992 3278 c6 -18 28 -21 28 -4 0 9 -7 16 -16 16 -9 0 -14 -5 -12
-12z"/>
<path d="M4055 3260 c4 -6 11 -8 16 -5 14 9 11 15 -7 15 -8 0 -12 -5 -9 -10z"/>
<path d="M4016 3231 c-4 -5 -2 -12 3 -15 5 -4 12 -2 15 3 4 5 2 12 -3 15 -5 4
-12 2 -15 -3z"/>
<path d="M3443 3130 c-26 -10 -63 -66 -63 -93 0 -30 27 -72 55 -85 40 -18 62
-15 97 17 28 25 33 36 32 71 -2 67 -65 113 -121 90z m67 -50 c11 -11 20 -28
20 -38 0 -26 -28 -62 -48 -62 -29 0 -62 30 -62 56 0 27 32 64 55 64 8 0 24 -9
35 -20z"/>
<path d="M3650 3047 c-39 -20 -55 -62 -41 -108 28 -93 143 -92 166 2 9 37 -18
97 -50 109 -34 13 -45 12 -75 -3z m67 -35 c18 -11 26 -58 13 -81 -13 -25 -47
-27 -72 -4 -46 41 7 118 59 85z"/>
<path d="M3152 3003 c-23 -9 -44 -64 -38 -98 8 -41 34 -64 79 -72 31 -5 40 -1
67 25 40 41 41 88 2 125 -27 26 -74 35 -110 20z m76 -39 c43 -30 21 -94 -32
-94 -22 0 -46 28 -46 55 0 20 32 55 50 55 3 0 16 -7 28 -16z"/>
<path d="M3366 2889 c-67 -79 5 -190 93 -145 38 20 51 44 51 94 0 80 -92 113
-144 51z m105 -37 c8 -20 6 -31 -9 -51 -35 -47 -82 -35 -82 20 0 63 70 86 91
31z"/>
<path d="M3025 2778 c-42 -24 -60 -78 -40 -124 25 -60 102 -75 146 -28 36 38
34 107 -4 140 -30 26 -70 30 -102 12z m79 -44 c19 -19 21 -54 3 -78 -19 -26
-68 -18 -86 15 -13 24 -13 29 2 53 20 30 57 35 81 10z"/>
<path d="M3244 2708 c-64 -30 -53 -139 16 -168 45 -19 81 -4 103 42 42 85 -36
167 -119 126z m72 -36 c22 -14 26 -52 10 -77 -19 -29 -42 -32 -68 -8 -46 42 6
120 58 85z"/>
<path d="M3023 2545 c-27 -19 -46 -75 -38 -108 16 -64 94 -82 143 -34 37 37
39 109 3 138 -28 23 -78 25 -108 4z m79 -32 c24 -21 23 -58 -2 -83 -24 -24
-43 -25 -64 -4 -23 22 -20 51 9 79 29 30 33 30 57 8z"/>
<path d="M3223 2510 c-37 -15 -54 -69 -37 -115 10 -25 62 -47 95 -40 70 16 83
117 18 150 -32 17 -44 18 -76 5z m65 -42 c16 -16 15 -53 -3 -68 -19 -16 -45
-10 -61 15 -26 39 31 86 64 53z"/>
<path d="M2801 2464 c-43 -55 -18 -132 49 -149 60 -15 118 45 105 106 -15 67
-114 94 -154 43z m82 -15 c40 -21 49 -56 21 -83 -32 -33 -86 -9 -86 39 0 16 7
34 18 42 22 16 20 16 47 2z"/>
<path d="M3162 2298 c-40 -11 -57 -43 -48 -92 8 -40 47 -76 83 -76 34 0 83 51
83 87 0 60 -55 98 -118 81z m59 -47 c20 -16 22 -23 14 -47 -12 -34 -45 -43
-69 -19 -19 19 -21 56 -4 73 17 17 32 15 59 -7z"/>
<path d="M2667 2256 c-101 -37 -135 -135 -84 -236 31 -60 140 -151 242 -201
137 -68 228 -61 282 20 51 75 15 171 -105 282 -124 114 -252 166 -335 135z
m170 -60 c26 -13 78 -50 114 -81 l67 -56 -24 -24 c-26 -26 -32 -65 -11 -65 7
0 21 14 31 31 21 35 34 29 60 -25 38 -80 6 -152 -70 -163 -85 -11 -222 54
-327 155 -60 58 -77 89 -77 142 0 110 112 150 237 86z"/>
<path d="M2805 2130 c-19 -42 -16 -56 10 -46 17 6 46 66 39 78 -12 19 -32 5
-49 -32z"/>
<path d="M2666 2089 c-28 -33 -34 -59 -13 -59 13 0 67 63 67 79 0 21 -29 10
-54 -20z"/>
<path d="M2815 1980 c-18 -36 -19 -60 -2 -60 12 0 47 59 47 80 0 22 -30 8 -45
-20z"/>
<path d="M2974 1879 c-12 -24 -13 -34 -4 -43 14 -14 50 26 50 55 0 30 -28 22
-46 -12z"/>
<path d="M2249 2067 c-47 -31 -95 -115 -115 -201 -22 -93 -31 -349 -14 -400
16 -51 54 -93 96 -106 78 -26 169 43 229 174 39 86 51 135 65 257 17 151 -5
225 -80 277 -46 31 -134 31 -181 -1z m168 -34 c21 -14 43 -43 43 -56 0 -3 -15
0 -34 5 -38 12 -70 5 -64 -14 6 -16 79 -29 95 -17 29 24 24 -168 -9 -298 -9
-39 -12 -42 -37 -37 -28 7 -27 7 -53 5 -30 -2 -21 -31 10 -31 52 0 59 -14 33
-62 -64 -115 -126 -157 -188 -125 -56 29 -66 70 -60 241 5 160 22 262 41 247
6 -5 35 -11 64 -15 48 -6 53 -5 50 11 -3 18 -69 38 -101 29 -14 -3 -17 0 -11
17 31 105 139 154 221 100z"/>
<path d="M2334 1786 c-4 -9 -5 -18 -3 -20 11 -9 120 -13 125 -4 10 16 -8 26
-63 34 -44 5 -54 4 -59 -10z"/>
<path d="M2175 1660 c-8 -14 42 -32 79 -28 20 2 31 9 31 18 0 18 -99 27 -110
10z"/>
<path d="M2195 1500 c-11 -18 5 -27 57 -33 46 -6 71 5 52 23 -16 14 -102 22
-109 10z"/>
<path d="M2640 1818 c-56 -38 -74 -87 -79 -212 -6 -190 29 -326 105 -402 29
-29 42 -34 80 -34 83 0 122 66 144 247 35 276 -105 499 -250 401z m134 -50
c67 -65 98 -209 76 -362 -11 -82 -22 -108 -34 -87 -9 14 -86 -9 -86 -25 0 -16
37 -18 74 -4 31 11 31 11 10 -34 -44 -91 -134 -53 -183 77 -11 30 -24 97 -30
150 -16 143 -19 133 41 132 44 0 53 3 56 19 4 17 -1 18 -47 14 -48 -5 -51 -4
-51 19 0 32 24 87 49 112 33 33 84 28 125 -11z"/>
<path d="M2697 1733 c-13 -12 15 -33 44 -33 22 0 29 5 29 20 0 16 -7 20 -33
20 -19 0 -37 -3 -40 -7z"/>
<path d="M2753 1534 c-7 -3 -13 -12 -13 -20 0 -12 10 -14 43 -12 29 2 42 8 42
18 0 15 -47 24 -72 14z"/>
<path d="M2645 1386 c-18 -13 -18 -15 -4 -21 30 -11 94 -1 94 15 0 21 -64 25
-90 6z"/>
<path d="M3276 1790 c-85 -26 -148 -109 -154 -206 -5 -76 9 -121 50 -163 45
-46 85 -64 143 -64 87 -1 164 54 206 148 50 109 -15 245 -135 280 -55 17 -68
17 -110 5z m120 -49 c40 -18 94 -76 94 -99 0 -7 -15 -12 -32 -12 -96 -1 -154
-99 -114 -195 16 -37 13 -45 -20 -45 -43 0 -53 9 -44 41 7 22 3 39 -16 76 -31
62 -30 75 6 101 41 31 63 77 57 119 -7 40 6 42 69 14z m-106 -28 c0 -30 -7
-43 -45 -77 -52 -49 -56 -72 -20 -131 14 -22 25 -48 25 -57 0 -26 -19 -32 -42
-12 -77 71 -65 218 24 288 45 36 58 33 58 -11z m207 -139 c9 -25 -17 -80 -58
-120 -39 -38 -41 -38 -55 -20 -19 27 -17 96 4 123 30 39 96 50 109 17z"/>
<path d="M3619 1550 c-163 -86 -162 -312 3 -394 96 -48 197 -29 270 52 96 106
67 266 -61 336 -61 33 -156 36 -212 6z m158 -25 c65 -19 123 -79 100 -102 -23
-23 -98 -28 -135 -9 -48 25 -82 106 -49 119 20 9 31 8 84 -8z m-127 -32 c0
-40 34 -91 74 -110 19 -9 37 -26 40 -38 8 -30 44 -74 78 -95 l29 -18 -27 -21
c-32 -25 -44 -27 -44 -5 0 29 -40 81 -74 98 -45 21 -84 20 -130 -4 -22 -10
-42 -17 -46 -15 -15 9 -21 76 -9 117 11 41 74 118 98 118 6 0 11 -12 11 -27z
m260 -144 c0 -22 -5 -49 -10 -60 -10 -18 -13 -18 -40 -4 -28 14 -68 61 -59 69
5 4 91 34 102 35 4 1 7 -17 7 -40z m-181 -96 c16 -16 32 -40 35 -55 6 -27 5
-28 -39 -28 -48 0 -111 26 -135 55 -13 15 -11 20 9 36 36 29 94 25 130 -8z"/>
<path d="M3160 1325 c-173 -55 -192 -294 -33 -395 87 -56 153 -50 242 20 110
87 121 201 29 305 -60 69 -154 97 -238 70z m157 -52 c43 -22 103 -103 103
-139 0 -33 -33 -32 -73 2 -28 23 -36 25 -88 19 -53 -6 -60 -5 -84 19 -31 31
-32 64 -3 101 19 24 26 27 64 22 24 -2 60 -13 81 -24z m-201 -48 c0 -73 60
-119 142 -110 46 6 56 4 83 -19 17 -14 39 -26 50 -26 26 0 24 -19 -7 -51 l-26
-27 -30 34 c-56 63 -152 67 -211 8 l-26 -25 -14 28 c-34 67 -29 142 14 197 11
14 21 26 23 26 1 0 2 -16 2 -35z m175 -214 c36 -37 36 -47 -1 -66 -47 -25
-111 -15 -153 22 -16 16 -16 17 0 36 42 46 112 50 154 8z"/>
<path d="M4084 3020 c-29 -11 -37 -26 -30 -56 7 -27 59 -64 92 -64 26 0 54 30
54 57 0 41 -72 80 -116 63z m75 -45 c16 -16 8 -45 -13 -45 -8 0 -28 11 -43 25
-24 21 -26 26 -13 35 17 11 48 4 69 -15z"/>
<path d="M4177 2884 c-8 -8 1 -24 14 -24 5 0 9 7 9 15 0 15 -12 20 -23 9z"/>
<path d="M4110 2860 c0 -5 7 -10 15 -10 8 0 15 5 15 10 0 6 -7 10 -15 10 -8 0
-15 -4 -15 -10z"/>
<path d="M417 3932 c-15 -17 -16 -37 -2 -258 8 -131 17 -266 19 -299 5 -59 5
-59 -9 -28 -24 52 -44 194 -56 383 -12 186 -19 210 -64 210 -12 0 -30 -9 -40
-20 -17 -19 -17 -31 -6 -208 12 -195 36 -338 71 -432 26 -70 82 -146 124 -171
l34 -20 8 -192 c5 -106 6 -491 4 -857 -7 -941 -6 -1037 11 -1085 28 -80 140
-98 201 -33 25 27 28 38 28 97 0 37 -16 229 -35 427 -73 747 -100 1152 -105
1615 0 20 6 28 23 33 42 10 105 75 136 139 57 115 66 176 66 437 0 258 -5 280
-53 280 -57 0 -56 2 -58 -267 0 -197 -4 -259 -17 -302 -8 -29 -18 -56 -21 -59
-3 -3 -6 130 -6 296 0 300 0 301 -22 316 -30 21 -44 20 -68 -4 -19 -19 -20
-34 -21 -257 0 -131 -4 -260 -9 -288 -6 -44 -8 -46 -9 -15 -15 319 -32 554
-42 566 -16 20 -63 17 -82 -4z m57 -44 c3 -13 8 -93 11 -178 9 -222 24 -429
36 -472 10 -39 41 -53 52 -25 13 33 19 144 26 408 4 212 9 283 19 287 9 3 12
-70 12 -342 0 -368 2 -385 46 -331 60 76 90 265 80 513 -6 139 -5 162 8 162
23 0 29 -87 23 -303 -4 -134 -10 -210 -22 -252 -43 -154 -118 -235 -216 -235
-69 0 -119 40 -162 132 -57 121 -80 246 -93 511 -6 123 -5 137 10 137 9 0 16
-8 16 -17 1 -79 23 -336 36 -413 23 -138 77 -270 110 -270 18 0 18 27 -1 300
-29 434 -28 410 -11 410 9 0 18 -10 20 -22z m90 -900 c3 -51 8 -205 11 -343 7
-300 24 -523 100 -1289 14 -136 25 -281 25 -321 0 -68 -2 -75 -26 -94 -49 -38
-118 -22 -130 31 -13 57 -11 2108 3 2108 7 0 13 -32 17 -92z"/>
<path d="M5479 3934 c-11 -14 -13 -145 -11 -758 4 -772 -6 -1052 -54 -1626
-22 -265 -29 -506 -15 -557 14 -50 48 -73 111 -73 47 0 77 13 102 44 23 27 23
171 3 593 -19 398 -35 864 -35 1023 l0 126 86 114 c92 122 164 257 189 355 22
86 20 244 -5 341 -29 116 -88 228 -162 309 -106 115 -174 151 -209 109z m87
-45 c94 -58 214 -242 249 -384 23 -91 23 -240 1 -325 -24 -93 -86 -211 -163
-314 -38 -49 -79 -104 -92 -123 l-24 -34 12 -412 c6 -227 18 -547 26 -712 23
-471 23 -580 1 -603 -9 -11 -29 -23 -43 -27 -37 -9 -90 12 -97 38 -11 40 -6
271 9 442 52 611 60 808 61 1650 1 446 2 813 3 818 2 12 22 8 57 -14z"/>
</g>
</svg>
