<?xml version="1.0" standalone="no"?>
<!DOCTYPE svg PUBLIC "-//W3C//DTD SVG 20010904//EN"
 "http://www.w3.org/TR/2001/REC-SVG-20010904/DTD/svg10.dtd">
<svg version="1.0" xmlns="http://www.w3.org/2000/svg"
 width="550.000000pt" height="550.000000pt" viewBox="0 0 550.000000 550.000000"
 preserveAspectRatio="xMidYMid meet">
<metadata>
Created by potrace 1.16, written by Peter Selinger 2001-2019
</metadata>
<g transform="translate(0.000000,550.000000) scale(0.100000,-0.100000)"
fill="#000000" stroke="none">
<path d="M0 5359 c0 -91 4 -138 10 -134 5 3 10 13 10 21 0 8 8 14 18 14 9 0
27 16 40 35 19 30 20 38 10 55 -16 25 -34 20 -30 -8 2 -12 -2 -22 -7 -22 -6 0
-11 -7 -11 -15 0 -8 -6 -15 -13 -15 -8 0 -14 12 -14 30 0 24 3 27 14 19 10 -9
13 -6 13 14 0 14 3 32 6 41 7 17 34 22 34 6 0 -5 -6 -10 -12 -10 -9 0 -8 -3 2
-10 10 -6 20 -4 32 7 15 14 20 14 35 2 10 -8 14 -9 10 -2 -7 11 6 12 56 4 13
-2 7 -31 -7 -31 -8 0 -17 -6 -19 -12 -4 -10 -8 -10 -15 1 -8 12 -14 12 -25 3
-7 -7 -17 -9 -21 -5 -4 4 -4 0 -1 -9 4 -9 13 -14 21 -11 9 3 14 -1 14 -12 0
-9 5 -13 11 -10 16 11 59 -4 59 -20 0 -17 40 -29 76 -22 21 4 25 1 21 -13 -3
-13 1 -16 22 -12 14 3 32 9 38 15 10 7 13 4 13 -12 0 -21 1 -21 25 -5 14 9 35
14 47 11 31 -8 58 10 58 38 0 32 40 44 75 21 13 -9 32 -16 42 -16 10 0 26 -6
35 -14 19 -14 42 -66 33 -74 -3 -3 -5 -1 -5 5 0 15 -65 14 -83 0 -18 -15 -31
-67 -17 -67 5 0 10 10 10 23 0 14 3 18 8 10 8 -13 52 -7 52 7 0 10 54 7 58 -3
11 -33 -29 -70 -51 -48 -17 17 -50 14 -43 -4 4 -12 0 -14 -19 -9 -15 4 -32 1
-40 -6 -13 -11 -12 -17 7 -51 21 -38 41 -49 53 -29 4 7 12 7 25 0 25 -13 33
-13 28 3 -5 12 20 40 39 44 6 1 15 -9 21 -22 9 -20 9 -25 -3 -25 -8 0 -17 -15
-21 -37 -4 -21 -9 -42 -13 -48 -3 -5 -7 -25 -8 -44 -3 -44 -26 -69 -47 -52 -9
7 -15 16 -14 19 2 19 -3 26 -10 14 -10 -16 -42 -5 -42 14 0 14 -11 18 -42 15
-10 -1 -18 4 -18 12 0 8 -9 21 -20 28 -12 8 -22 25 -24 39 -2 14 -8 38 -15 53
-6 16 -11 32 -11 36 0 5 -7 14 -15 21 -12 10 -13 8 -6 -17 14 -44 23 -63 30
-63 4 0 5 -18 3 -40 -2 -22 -8 -40 -13 -40 -5 0 -9 5 -9 10 0 6 -8 10 -18 10
-10 0 -23 5 -30 12 -8 8 -12 8 -12 1 0 -6 7 -16 15 -23 8 -7 12 -16 9 -21 -2
-5 -26 12 -51 36 -43 43 -63 54 -63 38 0 -5 7 -16 14 -26 8 -10 12 -27 9 -38
-16 -61 -155 -3 -235 98 -34 43 -36 49 -22 65 22 23 9 62 -17 55 -11 -3 -26 1
-34 10 -13 13 -15 0 -15 -111 0 -83 4 -134 13 -147 9 -17 9 -23 0 -26 -23 -8
-15 -33 10 -30 17 1 21 -3 19 -18 -3 -22 50 -61 68 -50 6 3 7 -1 4 -9 -3 -9
-1 -16 6 -16 6 0 8 -5 5 -10 -4 -6 -1 -17 5 -25 6 -8 9 -19 5 -25 -3 -5 1 -10
9 -10 20 0 20 -18 2 -39 -11 -12 -12 -21 -5 -31 10 -13 10 -13 6 0 -2 8 4 24
14 34 11 12 19 14 19 7 0 -7 4 -9 10 -6 11 7 13 -6 4 -29 -3 -9 -12 -16 -20
-16 -8 0 -14 -4 -14 -10 0 -5 -8 -10 -17 -10 -15 0 -16 -2 -3 -10 13 -8 12
-10 -2 -10 -10 0 -18 -7 -18 -15 0 -8 -5 -15 -11 -15 -7 0 -9 -12 -5 -35 8
-40 -2 -44 -46 -21 -21 11 -28 12 -29 3 0 -7 -2 -26 -4 -43 -3 -17 -1 -50 3
-73 l7 -43 59 56 c32 31 61 56 65 56 3 0 12 15 20 33 8 17 21 39 30 48 9 9 36
38 60 63 43 46 45 47 100 44 48 -3 56 -6 56 -23 0 -16 7 -20 36 -21 21 -1 45
-4 54 -8 9 -3 25 -1 35 4 13 7 21 7 25 0 9 -15 45 7 45 28 0 14 2 15 10 2 5
-8 11 -12 14 -9 8 7 -16 82 -31 97 -17 18 -16 32 2 32 8 0 15 4 15 9 0 5 8 7
18 4 13 -3 22 6 36 37 15 35 22 41 44 38 25 -3 27 -6 25 -45 -1 -23 -9 -53
-19 -67 -11 -18 -13 -30 -7 -39 15 -19 22 -56 12 -63 -5 -3 -6 -10 -2 -17 3
-6 5 -32 4 -58 -2 -43 0 -47 23 -51 24 -5 26 -2 26 28 0 28 4 34 21 34 16 0
20 -5 16 -20 -3 -11 3 -29 14 -41 22 -26 23 -31 7 -47 -9 -9 -9 -18 0 -36 9
-21 9 -24 -3 -20 -8 3 -16 13 -18 22 -3 10 -3 -7 0 -37 3 -38 1 -57 -9 -63
-10 -7 -10 -11 0 -15 18 -7 15 -23 -6 -23 -10 0 -27 -7 -38 -15 -28 -21 -37
-18 -30 11 10 38 -25 28 -43 -12 -9 -21 -21 -32 -35 -32 -11 -1 -36 -3 -54 -5
-18 -2 -35 0 -37 4 -3 4 -14 5 -25 2 -11 -3 -17 -9 -14 -14 3 -5 -2 -6 -10 -3
-11 4 -16 0 -16 -14 0 -24 -16 -37 -25 -22 -4 6 -10 8 -15 5 -5 -3 -11 -1 -15
4 -3 6 -12 8 -19 5 -8 -3 -17 -1 -21 5 -10 18 -32 -10 -27 -36 2 -13 -1 -23
-7 -23 -5 0 -8 7 -5 15 11 26 -11 16 -23 -12 -15 -31 -10 -41 12 -23 12 10 15
10 15 -1 0 -8 -9 -20 -19 -26 -15 -9 -23 -9 -37 2 -27 20 -44 18 -44 -5 0 -11
-5 -20 -11 -20 -5 0 -8 4 -5 9 3 5 -8 11 -24 13 -16 3 -32 0 -34 -6 -3 -6 -10
-2 -17 9 -12 19 -12 19 -20 0 -5 -13 -8 -15 -8 -5 -1 14 -39 19 -76 10 -5 -1
-14 -2 -18 -1 -21 4 -39 -33 -41 -86 -2 -31 -8 -59 -14 -61 -8 -2 -11 -116
-12 -367 l0 -364 27 14 c16 8 118 53 228 100 110 48 205 91 211 96 6 5 28 15
50 23 21 7 71 28 109 46 224 103 314 143 348 153 20 6 37 15 37 19 0 4 4 8 9
8 5 0 38 13 73 29 35 15 113 49 173 75 61 26 128 56 150 67 22 10 43 19 48 19
7 0 62 25 234 106 39 19 74 34 77 34 3 0 48 18 98 41 51 22 102 44 113 49 11
4 41 18 66 29 25 12 55 21 66 21 12 0 23 3 25 8 4 10 98 55 183 89 39 16 109
52 158 81 57 35 93 51 106 47 10 -3 24 1 31 10 7 8 17 15 22 15 5 0 51 20 101
44 51 24 126 58 167 76 139 61 155 69 190 100 19 18 42 46 50 63 13 27 21 31
60 34 25 2 50 4 55 5 6 0 27 -2 47 -6 35 -5 84 9 223 69 146 62 271 85 437 81
122 -4 142 -7 185 -29 26 -14 62 -28 79 -31 37 -6 146 -54 155 -68 4 -6 8 -6
10 -2 2 5 20 1 38 -8 l35 -17 -40 3 c-21 2 -42 -1 -45 -6 -4 -7 -13 -7 -25 1
-18 10 -18 10 1 11 29 1 -43 39 -75 40 -26 0 -56 -33 -45 -50 3 -5 2 -26 -4
-45 -6 -24 -6 -33 1 -29 6 4 15 0 20 -7 7 -11 11 -11 15 -1 2 6 15 12 28 12
13 0 25 6 28 13 2 6 7 9 11 6 4 -3 2 -18 -3 -32 -9 -22 -15 -25 -43 -21 l-33
5 25 -20 c13 -11 27 -19 30 -19 19 2 30 -3 25 -11 -3 -5 -1 -12 5 -16 5 -3 10
-20 10 -36 0 -17 6 -32 15 -35 16 -7 21 -34 6 -34 -6 0 -5 -15 1 -36 9 -36 -4
-94 -22 -94 -10 0 -23 30 -24 57 -1 12 -9 30 -18 39 -15 15 -18 15 -32 1 -9
-8 -16 -21 -16 -27 0 -6 -8 -10 -17 -8 -12 2 -18 13 -18 30 -1 34 -11 44 -28
30 -19 -16 -90 6 -82 25 3 10 -1 13 -15 8 -15 -5 -20 -2 -20 12 0 15 -2 16
-10 3 -7 -12 -13 -6 -25 24 -9 22 -12 42 -8 45 5 3 12 13 16 23 3 9 21 19 39
23 18 4 42 14 53 21 11 8 28 14 38 14 17 0 17 1 2 16 -8 9 -22 13 -30 10 -8
-3 -17 -1 -20 4 -8 13 29 22 62 14 23 -5 26 -4 16 6 -10 11 -25 11 -68 3 -50
-9 -57 -8 -66 8 -5 10 -9 19 -9 21 0 5 81 1 125 -6 39 -6 39 -6 7 5 -36 11
-38 32 -4 37 24 4 31 22 8 22 -8 0 -16 4 -18 10 -5 17 -50 13 -106 -8 -55 -21
-81 -18 -122 14 -8 6 -38 14 -66 18 -41 5 -56 3 -75 -12 -13 -10 -41 -26 -61
-36 -44 -20 -52 -41 -11 -25 16 6 35 16 43 23 18 16 60 27 60 16 0 -4 15 -7
33 -8 57 0 78 -11 71 -38 -5 -19 0 -31 21 -50 18 -17 26 -20 21 -9 -4 11 -2
15 6 12 7 -2 13 -16 13 -30 -1 -23 3 -26 20 -21 17 6 18 5 7 -9 -8 -9 -11 -21
-8 -26 4 -5 2 -12 -4 -16 -5 -3 -10 1 -10 9 0 9 -6 16 -14 16 -8 0 -21 3 -30
6 -11 4 -19 -2 -26 -20 -11 -31 -30 -33 -53 -8 -19 21 -23 52 -6 52 5 0 8 4 5
8 -9 16 -66 12 -66 -4 0 -8 -7 -14 -15 -14 -8 0 -15 -4 -15 -10 0 -5 5 -10 11
-10 6 0 9 -10 7 -22 -4 -30 -40 -31 -53 -1 -5 13 -22 24 -41 28 -18 3 -37 12
-44 20 -7 8 -16 12 -21 9 -5 -3 -9 1 -9 8 0 7 -12 24 -25 37 -25 23 -26 23
-118 11 -50 -7 -103 -14 -116 -15 -27 -2 -45 -37 -37 -71 4 -13 0 -27 -9 -34
-8 -7 -15 -19 -15 -27 0 -15 -23 -43 -35 -43 -4 0 -13 -6 -20 -12 -34 -30 -45
-38 -55 -38 -6 0 -13 -7 -16 -15 -8 -20 -137 -81 -190 -89 -32 -6 -45 -3 -58
9 -25 26 -37 52 -30 70 7 16 -17 6 -89 -39 -12 -8 -55 -17 -96 -20 -82 -7 -88
-9 -75 -28 31 -42 -10 -144 -85 -214 -71 -68 -337 -201 -358 -180 -3 3 -12 -1
-19 -9 -8 -8 -21 -12 -30 -8 -21 8 -10 68 21 116 14 20 23 37 20 37 -3 0 -30
-20 -59 -44 -50 -41 -116 -66 -174 -66 -9 0 -43 -8 -75 -18 -54 -17 -56 -19
-35 -31 53 -28 56 -96 7 -151 -16 -17 -29 -35 -29 -41 0 -16 -83 -90 -130
-115 -43 -23 -69 -39 -142 -84 -63 -38 -113 -60 -143 -60 -17 0 -41 -7 -53
-16 -13 -9 -31 -13 -42 -9 -22 7 -28 -9 -8 -21 8 -5 3 -12 -17 -20 -30 -12
-55 0 -55 26 0 7 -8 9 -21 5 l-22 -7 22 31 c23 32 46 40 54 19 3 -10 7 -10 20
1 13 10 15 17 6 27 -9 11 -8 14 0 14 7 0 11 8 10 18 -2 9 10 42 25 72 20 42
22 49 7 30 -11 -14 -21 -28 -21 -32 0 -5 -6 -8 -13 -8 -18 0 -102 -88 -93 -97
4 -4 18 6 31 22 13 17 24 26 24 20 0 -26 -49 -68 -81 -71 -42 -3 -66 -8 -74
-17 -4 -4 -18 -7 -31 -7 -29 0 -30 -16 0 -24 33 -9 37 -8 37 10 0 11 6 14 20
9 11 -4 20 -2 20 4 0 6 7 11 15 11 10 0 13 -9 10 -30 -3 -28 4 -35 29 -31 14
3 36 -20 36 -38 0 -24 38 -45 56 -30 8 6 14 17 14 24 0 18 46 39 67 30 10 -5
26 -7 35 -6 13 2 16 -2 11 -16 -6 -15 -4 -16 9 -6 17 15 29 7 21 -13 -4 -10 0
-12 12 -8 14 6 16 3 10 -14 -3 -12 -2 -22 3 -22 6 0 8 -10 5 -21 -5 -19 -3
-20 18 -14 13 4 35 14 48 22 16 10 26 12 34 4 7 -7 5 -12 -6 -17 -9 -3 -17
-15 -17 -25 0 -23 -16 -25 -24 -3 -3 8 -10 13 -15 10 -13 -9 -1 -46 15 -46 15
0 19 -16 7 -23 -5 -2 -26 -7 -48 -10 -22 -3 -32 -3 -22 -1 42 13 9 30 -45 25
-22 -3 -23 7 -4 28 17 20 25 60 11 61 -5 0 -14 -12 -18 -27 -18 -59 -16 -56
-35 -42 -15 13 -16 12 -4 -3 9 -11 10 -18 2 -23 -5 -3 -10 -11 -10 -16 0 -6 7
-4 15 5 9 8 23 12 32 9 14 -5 13 -7 -4 -14 -12 -4 -24 -12 -28 -18 -9 -15 28
-14 44 2 10 10 11 9 6 -5 -5 -12 -1 -20 8 -24 9 -3 13 -12 10 -21 -4 -10 -2
-14 5 -9 6 3 13 2 16 -3 4 -5 2 -12 -2 -15 -13 -8 -52 23 -52 40 0 8 -5 14
-11 14 -6 0 -9 -9 -6 -20 3 -13 -3 -24 -19 -35 -27 -18 -30 -28 -11 -47 8 -7
12 -19 9 -26 -2 -6 1 -12 7 -12 6 0 11 -5 11 -10 0 -7 -7 -7 -21 0 -15 8 -24
8 -34 0 -8 -7 -19 -9 -25 -5 -5 3 -10 1 -10 -5 0 -6 -5 -8 -11 -4 -6 3 -15 0
-20 -7 -7 -12 -12 -12 -30 -1 -16 10 -19 10 -13 1 5 -9 2 -10 -10 -6 -22 9
-56 -9 -56 -29 0 -14 2 -13 16 1 11 10 26 14 43 11 14 -3 50 3 79 13 29 10 55
14 58 9 10 -16 39 11 39 38 0 15 5 29 12 31 7 3 9 -3 6 -17 -4 -16 -2 -19 11
-14 14 5 15 2 6 -20 -5 -14 -6 -26 -1 -26 5 0 25 -15 45 -33 26 -24 35 -39 30
-52 -6 -14 -3 -16 12 -11 13 4 23 -1 31 -14 11 -16 10 -18 -2 -14 -11 5 -15
-1 -15 -20 0 -16 -6 -26 -15 -26 -8 0 -15 -4 -15 -10 0 -5 -7 -10 -15 -10 -17
0 -20 -26 -5 -35 6 -4 8 -15 5 -25 -3 -11 0 -20 10 -24 8 -3 15 -10 15 -15 0
-15 -33 -22 -42 -9 -6 11 -10 11 -16 0 -5 -7 -13 -12 -19 -10 -6 2 -19 -8 -30
-21 -18 -22 -20 -22 -33 -6 -13 16 -13 17 6 11 16 -5 20 -2 19 18 0 32 -15 47
-15 16 0 -23 -1 -23 -14 -5 -8 11 -19 16 -30 12 -9 -4 -16 -2 -16 3 0 6 9 10
20 10 21 0 29 16 8 17 -7 0 -21 4 -30 8 -14 5 -18 2 -18 -14 0 -23 -15 -28
-24 -8 -3 6 -3 0 0 -15 4 -19 0 -29 -13 -38 -16 -10 -16 -10 3 -5 18 5 22 1
26 -24 2 -17 1 -36 -3 -42 -9 -15 -29 -3 -29 18 0 12 -3 13 -13 4 -16 -13 -27
-5 -27 21 0 23 -9 23 -26 1 -7 -10 -16 -14 -21 -9 -4 5 -3 11 4 13 8 3 7 13
-6 34 -18 30 -18 69 0 69 5 0 9 5 9 10 0 6 -7 10 -16 10 -14 0 -14 3 -4 16 11
13 10 19 -8 37 -12 12 -22 16 -22 9 0 -7 5 -12 10 -12 7 0 8 -14 4 -37 -9 -50
-21 -73 -39 -73 -11 0 -13 8 -8 30 6 31 0 35 -52 32 -13 -1 -31 13 -49 38 -28
38 -46 44 -46 14 0 -8 -4 -14 -9 -14 -16 0 -22 32 -9 49 7 9 13 17 14 19 4 8
34 -12 34 -24 0 -8 7 -14 15 -14 8 0 15 -7 15 -16 0 -8 4 -13 9 -9 6 3 14 -3
20 -12 10 -17 10 -17 11 -1 0 10 -11 25 -25 34 -31 20 -32 36 -2 33 25 -4 47
7 47 23 0 6 -6 6 -15 -2 -13 -10 -19 -10 -35 5 -11 10 -20 25 -20 33 0 8 -6
12 -15 8 -18 -7 -20 15 -3 32 9 9 9 15 1 23 -18 18 -79 -21 -75 -49 2 -11 -7
-31 -18 -42 -13 -13 -20 -30 -17 -40 3 -11 -2 -21 -11 -25 -14 -5 -14 -7 -2
-15 8 -5 23 -7 33 -4 21 7 22 -6 2 -32 -14 -19 -15 -19 -21 3 -3 13 -10 20
-15 18 -11 -7 1 -37 20 -52 14 -11 14 -12 -1 -13 -9 0 -20 5 -23 10 -4 6 -11
8 -16 4 -11 -7 33 -44 53 -44 16 -1 56 -30 41 -30 -7 0 -15 5 -18 10 -3 6 -18
10 -32 10 -14 0 -31 7 -38 17 -7 9 -17 13 -23 9 -17 -10 -15 -26 3 -20 23 9
18 -9 -6 -25 -18 -11 -23 -11 -30 1 -12 18 -11 36 2 43 6 4 8 14 5 22 -3 8 -2
11 3 8 5 -3 13 0 17 6 3 6 0 15 -7 20 -10 6 -11 9 -1 9 6 0 12 5 12 11 0 6 -9
9 -19 6 -13 -3 -23 3 -32 19 -9 18 -18 22 -36 18 -19 -5 -23 -2 -23 15 0 23 9
29 55 33 23 2 30 -1 29 -14 -1 -10 2 -18 7 -18 5 0 9 5 9 10 0 6 11 8 25 4 15
-4 25 -2 25 5 0 6 -9 11 -20 11 -23 0 -26 10 -8 28 17 17 28 15 29 -5 0 -14 2
-15 6 -3 4 8 13 20 22 27 13 10 13 12 2 13 -10 0 -3 12 17 33 33 34 44 60 16
36 -22 -18 -44 -20 -44 -3 0 8 8 14 18 14 11 0 24 17 37 45 16 38 24 45 48 45
30 0 97 25 97 36 0 3 -12 4 -27 1 -25 -5 -26 -4 -9 8 10 8 15 18 11 24 -3 6
-1 11 4 11 6 0 11 -7 11 -15 0 -8 5 -15 11 -15 6 0 9 9 6 20 -3 13 0 20 9 20
17 0 19 -37 1 -43 -6 -2 -9 -8 -5 -12 11 -11 38 14 38 35 0 10 7 21 16 24 11
4 14 13 11 28 -4 12 -1 28 5 35 6 8 8 16 4 20 -3 3 2 15 11 25 16 17 16 20 0
35 -19 20 -35 10 -18 -11 7 -9 8 -17 2 -20 -5 -3 -11 -1 -13 6 -2 6 -10 8 -16
4 -8 -5 -10 -16 -6 -29 6 -18 4 -20 -7 -10 -11 9 -19 7 -37 -8 -13 -10 -21
-22 -18 -27 7 -11 -22 -52 -36 -52 -6 0 -3 9 6 19 10 10 16 25 15 33 -4 32 2
63 9 50 11 -16 34 -8 50 19 17 26 10 34 -17 19 -16 -8 -21 -8 -21 1 0 8 -7 7
-22 -3 -19 -13 -24 -12 -50 14 -15 15 -28 32 -28 38 0 5 -7 10 -15 10 -8 0
-15 5 -15 10 0 13 -27 13 -35 1 -3 -5 1 -16 9 -24 8 -8 11 -19 6 -26 -10 -17
-52 8 -45 28 4 9 0 11 -11 7 -8 -3 -20 -6 -25 -6 -5 0 -9 -7 -9 -15 0 -18 -17
-20 -23 -2 -8 22 -20 -2 -17 -35 1 -18 2 -45 3 -61 0 -21 3 -25 13 -17 7 6 15
7 18 2 3 -5 18 -7 34 -4 29 4 29 5 19 38 -12 38 -27 45 -27 13 0 -18 -2 -20
-16 -8 -14 11 -14 13 1 21 10 6 14 17 10 29 -10 32 17 22 63 -22 46 -46 50
-56 25 -66 -10 -4 -29 -14 -43 -23 -66 -44 -182 -110 -193 -110 -7 0 -21 -6
-32 -14 -11 -7 -35 -17 -52 -21 -18 -3 -33 -11 -33 -16 0 -5 -8 -9 -18 -9 -10
0 -22 -4 -28 -10 -5 -5 -18 -11 -29 -13 -11 -2 -33 -9 -48 -15 -16 -7 -36 -12
-45 -12 -9 0 -30 -7 -46 -15 -22 -12 -32 -12 -42 -4 -11 9 -14 8 -14 -1 0 -7
-8 -10 -20 -7 -23 6 -24 3 -10 -24 7 -12 21 -19 40 -19 17 0 30 -4 30 -10 0
-5 -10 -10 -22 -10 -22 -1 -22 -1 -5 -15 11 -7 24 -12 30 -11 7 2 9 1 5 -1 -5
-3 -8 -10 -8 -16 0 -7 -11 -12 -25 -12 -14 0 -25 4 -25 9 0 6 -5 5 -12 -2 -17
-17 -29 -15 -22 3 4 8 3 15 -1 15 -7 0 -35 -26 -35 -33 0 -9 63 -21 93 -18 15
1 27 -3 27 -9 0 -6 -6 -10 -12 -9 -29 4 -38 -2 -38 -26 0 -14 3 -25 8 -26 4 0
21 -2 37 -2 17 -1 40 -12 53 -24 12 -13 27 -23 33 -23 5 0 7 -4 4 -10 -7 -12
-65 -14 -65 -2 0 4 -18 20 -40 36 -22 17 -40 36 -40 44 0 7 -5 10 -10 7 -6 -4
-8 -11 -5 -16 3 -5 -1 -6 -10 -2 -11 4 -15 14 -12 29 5 28 3 29 -17 8 -14 -14
-18 -14 -38 0 -12 9 -18 16 -13 16 6 0 16 9 23 20 12 20 12 21 -12 5 -14 -9
-30 -14 -36 -10 -9 5 -15 -15 -11 -37 0 -5 -6 -8 -14 -8 -8 0 -15 -4 -15 -10
0 -5 12 -10 26 -10 20 0 25 -4 20 -16 -3 -9 -6 -22 -6 -30 0 -8 -4 -14 -10
-14 -5 0 -10 7 -10 15 0 8 -6 15 -14 15 -18 0 -38 -25 -28 -35 4 -5 1 -5 -5
-1 -7 4 -18 4 -23 1 -16 -10 15 -35 39 -30 24 4 97 42 123 63 11 9 18 10 23 2
4 -6 14 -8 24 -5 11 3 30 -9 56 -35 21 -22 47 -40 57 -40 23 0 23 -16 1 -25
-15 -6 -13 -10 12 -22 l30 -14 -29 6 c-22 5 -27 3 -23 -9 8 -21 -21 -28 -48
-10 -15 10 -25 12 -30 5 -3 -6 -1 -11 6 -11 7 0 10 -2 7 -5 -9 -10 -38 7 -38
21 0 11 -4 12 -19 5 -15 -9 -22 -6 -36 15 -15 24 -18 24 -34 10 -12 -11 -16
-26 -13 -46 3 -25 1 -29 -12 -24 -23 9 -20 -13 3 -26 28 -15 33 -13 27 13 -3
12 -3 16 0 9 4 -9 10 -10 19 -2 16 13 45 2 45 -18 0 -8 8 -24 17 -34 16 -18
16 -19 -5 -25 -12 -3 -22 -11 -22 -18 0 -7 -7 -15 -15 -19 -23 -8 -18 20 7 44
19 18 20 22 8 30 -21 13 -24 13 -50 -10 -18 -16 -20 -20 -7 -20 11 0 14 -5 10
-16 -4 -11 -9 -12 -16 -5 -20 20 -27 11 -11 -14 14 -22 14 -25 1 -25 -8 0 -20
7 -27 15 -7 9 -21 13 -31 10 -11 -4 -19 -1 -19 5 0 7 -7 10 -15 7 -8 -4 -27 7
-45 24 l-30 31 0 -26 c0 -19 5 -26 20 -26 21 0 43 -39 35 -62 -3 -7 1 -30 8
-50 10 -29 16 -35 25 -26 6 6 15 8 19 3 5 -4 2 -10 -5 -12 -6 -3 -12 -14 -12
-26 1 -20 2 -20 11 -5 12 22 49 24 49 2 0 -8 -4 -13 -9 -9 -14 8 -40 -34 -35
-54 3 -9 -3 -1 -14 18 -10 19 -22 29 -25 24 -4 -6 0 -17 9 -24 11 -9 14 -22 9
-45 -4 -22 -1 -34 7 -37 9 -3 6 -10 -10 -22 -16 -12 -21 -23 -17 -36 5 -15 -2
-28 -27 -49 -23 -21 -28 -30 -17 -30 9 0 20 7 23 16 5 12 10 14 20 5 7 -6 16
-8 19 -4 4 3 7 3 7 0 0 -4 -17 -18 -38 -31 -22 -13 -47 -32 -56 -41 -16 -17
-17 -16 -23 4 -3 11 -9 18 -14 15 -5 -3 -3 -14 4 -26 9 -16 9 -22 -1 -25 -6
-3 -12 -10 -12 -16 0 -8 4 -7 12 1 14 14 72 17 64 3 -3 -5 3 -11 14 -14 11 -3
20 -1 20 4 0 5 7 9 15 9 8 0 15 -5 15 -11 0 -7 16 -9 47 -5 34 5 56 2 77 -9
36 -19 52 -19 36 0 -11 13 -8 14 21 9 19 -4 38 -10 42 -14 10 -9 57 -1 57 10
0 4 -7 11 -16 14 -9 4 -14 9 -11 12 3 3 13 1 24 -5 10 -5 25 -12 33 -15 8 -3
22 -11 31 -18 14 -9 20 -8 34 6 13 12 21 14 28 7 6 -6 18 -11 28 -11 9 0 38
-11 64 -25 26 -14 50 -23 53 -20 3 3 0 5 -6 5 -7 0 -12 11 -12 25 0 18 10 30
40 47 22 13 40 29 40 37 0 8 6 11 15 7 8 -3 15 -2 15 3 0 11 49 11 56 0 3 -5
10 -9 16 -9 6 0 9 3 5 6 -14 15 79 84 113 84 18 0 0 -20 -26 -30 -13 -5 -24
-15 -24 -22 0 -10 2 -10 9 1 5 7 13 11 19 7 6 -3 13 -2 17 4 3 5 26 8 51 6 24
-2 44 0 44 4 0 10 -31 24 -47 21 -7 -1 -13 3 -13 9 0 5 8 11 18 11 9 1 27 3
39 4 15 2 20 -2 15 -13 -3 -9 -1 -13 5 -9 6 4 19 0 27 -9 9 -8 16 -11 16 -5 0
6 4 11 9 11 14 0 52 18 86 40 17 11 44 27 62 37 18 9 30 20 27 24 -8 13 15 20
34 10 11 -6 24 -6 33 0 10 6 7 9 -13 9 -32 0 -37 16 -8 25 22 7 50 -14 50 -39
0 -8 5 -18 10 -21 6 -4 8 -11 5 -16 -3 -5 1 -6 10 -3 14 6 14 9 2 23 -20 22
-11 47 10 29 9 -7 22 -13 31 -13 8 0 22 -19 31 -42 9 -23 22 -48 29 -55 6 -6
12 -18 12 -25 0 -7 8 -13 18 -13 9 0 26 -8 37 -16 19 -15 19 -16 2 -29 -14
-10 -15 -15 -6 -21 7 -4 15 -2 17 4 2 7 8 12 13 12 5 0 4 -10 -3 -21 -10 -17
-10 -23 0 -26 6 -3 12 -13 12 -24 0 -10 7 -19 15 -19 8 0 15 -4 15 -10 0 -5
-4 -10 -9 -10 -6 0 -18 -13 -27 -29 l-18 -30 -19 22 c-16 18 -19 19 -14 4 8
-22 -17 -51 -38 -43 -23 9 -19 53 6 59 24 6 21 30 -4 35 -12 2 -17 -3 -17 -18
0 -16 -4 -20 -16 -16 -8 3 -26 -1 -40 -10 -22 -15 -24 -15 -24 1 0 15 -2 15
-15 1 -12 -12 -22 -13 -41 -6 -14 6 -30 8 -35 4 -12 -7 -11 3 3 26 11 16 9 23
-10 40 -33 31 -31 37 32 101 16 16 24 29 17 29 -6 0 -11 5 -11 11 0 6 9 8 22
3 21 -6 22 -5 8 11 -14 17 -14 18 10 5 l25 -13 -19 22 c-11 11 -25 21 -32 21
-7 0 -21 11 -32 25 l-20 25 -26 -21 c-14 -11 -30 -17 -36 -14 -5 3 -10 2 -10
-3 0 -18 12 -20 38 -6 15 8 33 14 40 14 16 0 16 -17 0 -23 -10 -3 -10 -10 -3
-23 14 -26 7 -71 -11 -78 -8 -3 -12 -2 -9 3 3 5 1 12 -5 16 -5 3 -14 -4 -19
-17 -5 -13 -19 -32 -31 -43 -22 -20 -22 -20 -36 0 -12 16 -12 21 -2 24 26 9
66 58 58 70 -5 10 -12 7 -24 -10 -18 -26 -22 -9 -5 23 8 14 8 23 0 31 -8 8
-11 5 -11 -12 0 -16 -9 -25 -31 -33 -27 -9 -29 -13 -23 -41 6 -28 5 -30 -9
-19 -20 17 -61 -5 -51 -28 4 -8 7 -25 7 -37 -1 -15 8 -25 28 -34 48 -19 70
-55 68 -111 -1 -26 -6 -48 -12 -48 -5 0 -26 -14 -47 -30 -21 -17 -44 -30 -52
-30 -8 0 -18 -3 -22 -7 -4 -4 -39 -8 -78 -9 -71 -2 -92 -13 -81 -41 6 -16 24
-17 20 -1 -1 9 19 13 68 14 39 0 95 6 125 13 72 15 106 10 103 -16 -1 -12 4
-20 13 -20 10 0 14 7 11 19 -3 10 -1 18 5 18 19 0 68 -34 68 -48 0 -7 -4 -11
-9 -8 -5 4 -12 0 -15 -6 -5 -10 -7 -10 -12 0 -4 10 -9 10 -19 2 -8 -6 -42 -13
-76 -15 -56 -4 -97 -15 -55 -15 12 0 16 -5 13 -14 -4 -9 -1 -13 6 -11 13 5
107 15 145 16 26 1 62 -27 62 -49 0 -8 6 -12 14 -9 8 3 16 1 18 -5 2 -6 19
-11 36 -11 l32 0 -20 -22 -21 -23 25 -6 c29 -7 34 -30 10 -44 -14 -8 -14 -10
4 -14 11 -3 26 -2 33 3 22 14 49 10 49 -7 0 -8 13 -20 30 -25 17 -6 30 -17 30
-24 0 -8 8 -19 18 -24 9 -6 12 -11 5 -11 -6 0 -11 -15 -10 -35 1 -27 4 -32 14
-23 7 6 13 19 13 29 0 29 29 23 48 -10 9 -17 28 -35 42 -42 18 -9 21 -13 10
-17 -8 -2 -24 -12 -34 -21 -11 -9 -16 -11 -13 -5 4 7 -3 12 -18 12 -26 0 -34
-13 -12 -21 6 -3 1 -6 -11 -6 -32 -1 -85 -40 -78 -57 8 -21 -35 -17 -64 6 -25
20 -60 27 -60 12 0 -4 14 -13 30 -20 17 -8 30 -18 30 -23 0 -12 -57 -12 -64 0
-3 5 -14 11 -25 14 -22 5 -19 -18 4 -27 8 -3 18 -14 24 -24 9 -17 8 -19 -8
-15 -11 3 -22 11 -25 19 -3 8 -13 14 -22 14 -10 0 -14 5 -10 15 4 12 0 14 -21
9 -21 -6 -25 -4 -20 9 8 21 -15 28 -30 8 -11 -15 -13 -15 -25 0 -7 8 -26 24
-43 34 -24 15 -26 19 -12 24 12 4 14 10 7 21 -5 8 -10 25 -10 38 0 32 -30 26
-43 -10 -4 -11 -17 -18 -32 -18 -28 0 -35 -28 -12 -52 14 -15 47 -73 47 -82 0
-3 -10 -6 -22 -6 -22 -1 -23 -1 -4 -15 29 -22 43 -18 58 15 7 16 19 30 25 30
16 0 17 -16 3 -25 -8 -5 -8 -11 0 -20 12 -14 -3 -31 -19 -21 -4 3 -16 -3 -26
-14 -16 -18 -16 -20 -2 -20 10 0 17 -6 17 -14 0 -8 10 -16 22 -18 13 -2 24
-12 28 -26 l5 -23 17 21 c15 17 15 20 3 20 -8 0 -15 5 -15 10 0 6 -7 10 -16
10 -8 0 -12 5 -9 10 5 8 12 7 22 -1 20 -17 36 7 22 33 -7 14 -6 18 6 18 8 0
15 -4 15 -10 0 -14 28 -12 33 3 2 6 8 8 13 4 5 -5 -4 -19 -21 -33 -28 -22 -29
-24 -12 -41 10 -11 17 -13 17 -5 0 7 5 12 10 12 6 0 10 -6 10 -14 0 -9 7 -12
20 -9 21 6 28 -13 8 -20 -10 -3 -10 -7 1 -20 10 -13 10 -17 1 -17 -7 0 -10 -7
-6 -15 3 -8 1 -15 -5 -15 -6 0 -8 -7 -5 -16 4 -10 -1 -26 -11 -37 -10 -11 -12
-17 -6 -13 10 5 11 -4 6 -39 -5 -41 -4 -45 13 -39 19 5 19 5 0 -7 -16 -10 -22
-8 -37 12 -20 26 -24 49 -9 49 6 0 10 5 10 10 0 7 -6 7 -20 0 -12 -6 -19 -19
-17 -32 3 -33 -28 -34 -73 -3 -22 15 -45 25 -52 22 -8 -3 -6 -6 5 -6 11 -1 17
-7 14 -13 -2 -7 -10 -12 -16 -10 -11 2 -41 -20 -41 -31 0 -2 12 -2 26 1 26 5
26 4 10 -20 -8 -13 -33 -30 -53 -37 -38 -14 -94 -51 -76 -51 5 0 13 4 19 9 17
16 73 30 79 20 4 -5 12 -9 18 -9 7 0 6 4 -3 11 -12 8 -10 9 9 4 14 -4 26 -2
30 4 4 6 24 12 44 13 42 1 44 4 20 30 -9 10 -11 18 -5 18 12 0 42 -28 42 -39
0 -12 -58 -41 -72 -36 -8 3 -21 -1 -28 -10 -7 -8 -18 -15 -25 -15 -6 0 -20
-10 -31 -22 -18 -21 -17 -21 26 3 25 13 47 26 50 29 5 5 19 7 79 13 l34 4 -23
-19 c-28 -23 -4 -25 28 -2 13 9 25 14 28 11 7 -7 -63 -48 -78 -46 -7 1 -20 1
-28 0 -13 -1 -13 -3 0 -12 12 -9 12 -10 -4 -5 -10 4 -26 0 -35 -7 -33 -28 -93
-57 -117 -57 -15 0 -24 -6 -24 -15 0 -8 -4 -15 -10 -15 -5 0 -10 -4 -10 -10 0
-5 12 -3 28 5 15 8 34 17 42 20 8 3 29 14 45 24 35 23 59 27 50 8 -4 -6 0 -4
9 7 9 11 21 16 32 12 9 -3 23 -1 30 5 8 6 14 8 14 4 0 -4 9 4 20 17 11 14 30
28 42 31 23 6 23 6 -2 -15 -14 -11 -24 -24 -23 -29 2 -5 -12 -16 -30 -25 -17
-9 -41 -24 -51 -33 -11 -9 -16 -10 -12 -3 4 6 3 12 -3 12 -12 0 -135 -72 -139
-82 -2 -5 -10 -8 -18 -8 -8 0 -14 -5 -14 -10 0 -6 25 4 56 21 30 18 68 33 84
35 32 4 123 60 156 96 12 13 34 24 49 26 24 2 26 0 14 -14 -12 -15 -11 -16 11
-9 41 12 12 -10 -58 -45 -84 -41 -74 -49 13 -10 37 17 63 24 56 16 -6 -7 -25
-19 -41 -26 -17 -7 -30 -19 -30 -28 0 -13 2 -13 18 1 10 10 22 14 27 10 4 -5
4 -2 0 6 -6 10 -4 13 7 9 8 -4 22 2 31 13 9 10 23 19 31 19 8 0 16 4 18 10 2
5 8 6 15 2 8 -5 -8 -20 -43 -42 -29 -19 -54 -40 -54 -46 0 -7 -8 -15 -17 -18
-12 -5 -13 -10 -5 -18 8 -8 15 -6 27 6 9 9 13 16 8 16 -11 1 37 40 48 40 17 0
9 -19 -12 -25 -11 -4 -18 -12 -16 -18 4 -13 -30 -47 -46 -47 -6 0 -8 -2 -5 -5
3 -3 17 -1 32 4 30 12 32 9 10 -13 -23 -23 -1 -20 26 4 13 11 27 20 32 20 4 0
8 5 8 10 0 7 -8 7 -22 -1 l-23 -11 21 19 c11 11 31 26 43 33 17 8 20 14 12 20
-9 5 -8 9 4 14 23 8 24 8 21 -8 -1 -8 -13 -24 -26 -35 -31 -25 -9 -28 31 -4
26 16 31 16 39 3 15 -23 12 -34 -5 -20 -13 11 -14 10 -9 -4 4 -10 1 -16 -7
-16 -7 0 -9 -3 -6 -6 8 -8 77 37 77 49 0 5 5 5 10 2 8 -5 8 -11 0 -20 -8 -9
-8 -15 0 -20 5 -3 10 -1 10 5 0 6 5 8 11 4 8 -5 6 -10 -5 -16 -9 -5 -20 -7
-25 -4 -10 7 -68 -21 -61 -29 3 -3 -10 -14 -27 -25 -18 -11 -33 -27 -33 -35 0
-9 -16 -25 -35 -36 -61 -36 -38 -31 43 10 43 21 118 66 167 98 115 77 135 87
135 72 0 -6 -9 -13 -20 -16 -11 -3 -20 -9 -20 -13 0 -5 -10 -12 -22 -16 -13
-4 -25 -9 -28 -13 -9 -10 -116 -81 -124 -81 -4 0 -31 -18 -61 -40 -30 -22 -55
-38 -55 -34 0 10 -74 -39 -105 -71 -16 -17 -41 -36 -55 -42 -24 -11 -24 -12
11 -12 21 -1 43 6 55 18 25 23 64 44 70 38 3 -2 -14 -16 -38 -30 -24 -15 -36
-26 -26 -27 9 0 23 6 30 13 13 14 68 32 68 23 0 -3 -12 -12 -27 -20 -16 -8
-22 -15 -14 -16 8 0 22 6 30 13 9 7 36 22 61 32 49 20 73 36 67 42 -3 2 -26
-8 -53 -22 -36 -19 -49 -22 -56 -13 -11 18 -10 28 3 28 5 0 7 -4 4 -10 -8 -12
18 -13 31 -1 16 15 85 41 78 29 -5 -8 2 -9 24 -5 18 4 32 5 32 2 0 -2 -38 -22
-85 -45 -47 -23 -85 -43 -85 -46 0 -9 61 1 68 11 8 11 17 17 110 65 34 17 62
36 62 40 0 5 21 7 48 5 28 -2 39 0 27 4 -19 8 -19 8 2 19 28 15 33 15 28 0 -3
-7 -1 -20 4 -28 9 -12 14 -12 43 2 19 10 26 17 16 17 -9 1 -20 -4 -23 -9 -4
-6 -11 -8 -16 -4 -12 7 8 34 25 34 7 0 27 15 46 33 18 17 30 26 26 19 -7 -11
-4 -11 13 0 37 23 -8 27 -57 6 -24 -11 -50 -17 -58 -14 -9 3 -28 -1 -45 -9
-16 -9 -29 -11 -29 -6 0 5 -26 -2 -57 -15 -93 -38 -96 -27 -5 16 93 44 98 46
86 27 -5 -7 0 -4 11 8 19 20 34 28 100 54 24 11 31 10 41 -3 7 -11 18 -14 30
-9 17 6 18 5 4 -12 -14 -18 -14 -18 15 1 17 10 33 23 36 28 4 5 12 6 18 2 6
-4 9 -1 5 7 -3 9 3 17 18 21 33 8 40 7 33 -4 -4 -6 10 -1 30 10 21 12 40 19
42 16 3 -3 14 -1 24 4 13 8 19 6 22 -8 4 -15 6 -14 12 4 4 12 18 27 31 35 15
8 21 16 15 22 -6 6 -22 1 -43 -13 l-33 -23 30 30 c17 16 33 28 36 26 4 -1 13
5 20 14 11 13 11 17 1 20 -13 5 -7 23 9 23 6 0 7 -4 4 -10 -3 -5 -1 -10 4 -10
6 0 11 -9 11 -20 0 -12 -7 -20 -17 -20 -13 0 -14 -3 -6 -11 9 -9 15 -8 25 2
18 18 28 45 21 53 -12 12 -8 64 4 59 6 -3 9 -11 6 -19 -7 -19 5 -64 17 -64 5
0 8 18 5 40 -2 22 1 40 6 40 5 0 9 -11 9 -24 0 -26 20 -39 45 -30 17 7 20 24
5 24 -5 0 -10 5 -10 10 0 6 6 10 14 10 8 0 21 6 28 14 12 12 18 11 36 -3 l22
-16 -25 -12 c-14 -6 -25 -7 -25 -2 0 5 5 9 11 9 5 0 8 4 4 10 -12 19 -34 -2
-30 -30 2 -18 -2 -30 -11 -34 -8 -3 -14 -11 -14 -17 0 -7 9 -6 25 5 27 18 35
20 35 8 0 -5 -12 -15 -28 -22 -15 -8 -33 -19 -40 -25 -8 -5 -47 -28 -87 -50
-41 -22 -104 -61 -142 -86 -37 -25 -95 -61 -128 -79 -49 -27 -56 -30 -41 -12
10 12 39 31 65 44 38 18 101 59 146 96 6 4 29 19 53 32 44 25 56 42 22 33 -11
-3 -20 -9 -20 -14 0 -5 -7 -9 -15 -9 -8 0 -29 -13 -46 -30 -17 -16 -40 -32
-50 -35 -11 -4 -19 -11 -19 -16 0 -5 -6 -9 -12 -10 -21 0 -153 -93 -153 -106
0 -7 -10 -20 -22 -28 -21 -15 -22 -15 -16 2 6 16 5 16 -10 4 -9 -7 -17 -19
-17 -25 0 -6 -35 -29 -78 -51 l-77 -40 754 -3 754 -2 166 97 c91 53 233 136
314 185 82 48 150 88 153 88 2 0 32 17 66 38 35 21 106 62 159 90 103 56 119
58 199 26 105 -41 152 -90 121 -125 -17 -21 -36 -26 -25 -6 4 6 -1 5 -12 -4
-30 -26 -84 -50 -94 -44 -6 3 -10 -1 -10 -10 0 -11 -5 -15 -14 -12 -8 3 -17
-1 -20 -9 -3 -8 -10 -14 -16 -14 -6 0 -8 6 -4 13 4 6 -2 4 -13 -6 -11 -9 -23
-17 -28 -17 -4 0 -14 -8 -21 -17 -7 -10 -16 -14 -20 -10 -5 4 -2 12 6 18 13 8
13 10 0 20 -12 8 -11 9 7 4 12 -3 24 -2 26 3 3 4 -6 8 -21 7 -21 0 -28 -5 -30
-25 -3 -24 -52 -60 -52 -39 0 5 10 13 22 18 13 5 17 10 10 15 -27 17 -72 -40
-49 -63 8 -8 7 -11 -2 -11 -7 0 -15 9 -18 20 -7 26 -9 25 -38 -6 -14 -15 -25
-22 -25 -15 0 6 -5 11 -11 11 -6 0 -8 -8 -5 -18 10 -30 -28 -66 -61 -58 -26 5
-26 5 -6 -6 21 -10 21 -11 -20 -39 -44 -30 -57 -35 -57 -20 0 5 16 16 35 25
34 16 50 34 20 22 -8 -3 -19 3 -25 12 -11 16 -11 16 -6 -1 4 -12 -2 -21 -19
-29 -14 -6 -25 -19 -25 -29 0 -10 -5 -21 -12 -25 -7 -4 -8 -3 -4 4 4 7 3 12
-3 12 -5 0 -13 -5 -16 -10 -4 -6 -16 -8 -28 -5 -12 4 -17 3 -12 -2 16 -13 16
-33 0 -33 -8 0 -15 -4 -15 -10 0 -16 667 -13 673 3 4 9 8 8 16 -3 5 -8 13 -11
17 -7 4 4 -1 17 -12 29 l-19 23 21 -18 c17 -14 23 -15 28 -5 3 7 3 2 0 -12 -4
-20 -3 -22 6 -10 9 11 13 12 17 3 2 -7 9 -13 13 -13 5 0 0 17 -11 38 l-21 37
37 -40 c21 -22 32 -30 26 -18 -17 33 -13 41 8 16 10 -12 21 -19 25 -16 3 3 13
0 22 -8 16 -13 16 -12 4 8 -8 11 -18 19 -25 17 -6 -3 -19 10 -29 28 l-19 33
26 -24 c15 -14 27 -19 27 -13 0 6 -4 14 -10 17 -5 3 -10 12 -10 18 0 7 9 1 20
-13 15 -20 20 -21 20 -8 0 9 -4 20 -10 23 -5 3 -10 12 -10 18 0 7 7 4 14 -6
10 -13 16 -15 21 -7 5 7 14 0 27 -20 10 -18 22 -30 25 -26 3 3 -1 14 -10 23
-20 23 -39 73 -28 73 5 0 14 -12 20 -28 6 -15 23 -41 37 -57 27 -31 23 -21
-18 45 -9 14 -19 36 -23 50 l-8 25 22 -25 21 -25 -10 30 -10 30 25 -28 c28
-32 33 -28 9 8 -24 37 -3 30 24 -8 12 -17 22 -27 22 -21 0 5 -7 19 -15 30 -8
10 -15 23 -15 28 0 15 32 -18 41 -42 5 -14 12 -22 15 -19 3 3 -6 27 -21 54
l-27 48 28 -30 c20 -21 26 -24 20 -10 -4 11 -11 27 -14 35 -5 13 -4 13 13 0
17 -14 18 -13 12 3 -12 31 2 18 33 -30 16 -27 30 -43 29 -38 0 6 -11 28 -24
50 -30 48 -33 66 -5 34 10 -13 19 -19 20 -12 0 6 -4 15 -10 18 -5 3 -10 12
-10 18 1 7 9 2 19 -10 11 -13 22 -23 26 -23 4 0 2 7 -5 15 -14 17 -4 39 16 31
8 -3 14 0 14 6 0 6 10 3 22 -8 19 -17 21 -17 15 -1 -6 16 2 21 31 18 6 -1 12
4 12 11 1 7 9 2 20 -11 11 -13 20 -28 20 -35 0 -6 -9 0 -20 14 -11 14 -20 19
-20 11 0 -8 -6 -11 -16 -7 -14 6 -15 4 -4 -9 10 -12 15 -13 21 -4 5 8 10 5 18
-10 9 -17 14 -19 25 -9 10 10 9 19 -8 47 -12 21 -15 31 -6 26 10 -6 12 -4 7
11 -8 21 16 -3 61 -61 14 -18 19 -21 13 -8 -17 34 -12 40 10 13 l20 -25 -15
30 c-20 40 -45 73 -46 58 0 -6 5 -15 10 -18 6 -3 10 -11 10 -16 0 -17 -19 1
-37 34 -15 31 -15 31 2 17 17 -14 18 -13 12 10 l-6 25 17 -24 c40 -59 50 -61
20 -6 -20 37 -26 55 -15 46 9 -7 17 -19 17 -25 0 -7 12 -23 26 -37 25 -23 25
-22 -5 25 -35 57 -42 83 -9 40 37 -50 42 -51 14 -2 -16 30 -21 46 -13 42 8 -3
20 -16 27 -30 7 -13 15 -22 18 -20 2 3 -5 18 -17 34 -25 36 -27 46 -5 38 12
-5 14 -1 9 17 -6 21 -5 21 6 2 12 -18 13 -18 19 -1 5 15 13 7 40 -38 19 -30
36 -53 38 -51 3 3 -11 29 -31 60 -21 30 -37 57 -37 61 0 11 28 33 34 27 3 -4
6 1 6 9 0 18 26 31 42 22 6 -4 8 1 3 15 -7 22 9 30 19 9 3 -7 3 -2 -1 12 -5
23 -5 24 12 10 16 -14 17 -13 11 7 -5 16 -2 23 14 28 11 3 20 10 20 15 0 5 9
11 20 15 20 6 20 17 20 1212 0 663 -3 1203 -6 1200 -7 -6 -34 17 -34 28 0 4 8
4 17 1 16 -6 16 -6 0 12 -21 23 -21 32 -3 46 19 14 24 137 9 186 -6 19 -14 48
-18 64 -5 25 -4 28 14 23 19 -5 21 -1 21 44 0 27 -4 49 -9 49 -5 0 -31 15 -57
33 -30 21 -67 36 -94 40 -43 5 -44 5 -25 -11 11 -9 19 -25 17 -35 -2 -11 2
-18 10 -16 27 3 34 -2 36 -27 2 -22 -1 -25 -18 -21 -16 4 -20 0 -20 -18 0 -14
-7 -25 -20 -28 -14 -3 -20 -14 -20 -32 0 -21 -4 -25 -19 -20 -16 5 -18 2 -14
-14 3 -12 9 -18 14 -16 10 7 28 -26 22 -42 -3 -7 0 -13 6 -13 6 0 11 -9 11
-20 0 -35 -31 -22 -48 20 -10 24 -22 38 -29 35 -8 -3 -13 6 -14 23 -1 15 -4
41 -6 57 -3 17 -6 42 -7 58 0 15 -5 27 -10 27 -4 0 -6 7 -2 15 10 27 -17 11
-33 -19 -19 -35 -41 -45 -41 -19 0 10 -13 27 -30 36 -16 10 -30 23 -30 28 0 6
-4 8 -9 4 -5 -3 -12 -1 -16 5 -3 5 1 10 9 10 10 0 16 9 16 23 0 17 -2 19 -10
7 -5 -8 -12 -11 -16 -7 -13 12 28 48 48 41 10 -3 18 -1 18 5 0 25 40 32 92 16
28 -8 53 -13 56 -11 11 12 -24 48 -64 65 -28 13 -44 26 -41 33 2 7 10 12 17
10 7 -1 18 3 26 9 8 7 17 9 21 5 3 -3 1 -6 -6 -6 -7 0 -10 -4 -7 -9 3 -4 22
-7 43 -7 21 1 44 -2 51 -7 18 -14 27 0 13 17 -8 10 -23 13 -40 10 -21 -4 -28
-2 -28 10 0 19 23 21 30 4 4 -10 6 -10 6 0 1 10 6 10 21 2 11 -6 20 -8 20 -6
0 3 -18 14 -40 25 -35 17 -41 17 -49 4 -6 -12 -10 -13 -16 -3 -4 7 -3 15 3 19
20 12 18 45 -3 49 -13 2 -16 0 -8 -5 21 -14 -1 -37 -24 -25 -11 6 -25 7 -33 2
-9 -5 -20 -4 -29 3 -12 10 -14 9 -8 -5 9 -25 -21 -23 -53 3 -17 14 -21 22 -12
26 17 7 15 26 -3 19 -9 -3 -15 0 -15 9 0 8 5 15 11 15 6 0 9 12 6 28 -2 15 -2
22 0 15 2 -6 10 -14 17 -16 9 -4 11 2 8 19 -3 17 0 24 11 24 9 0 20 7 25 16 5
8 15 16 23 17 20 3 39 17 39 28 0 5 -6 9 -12 9 -7 0 -28 14 -47 30 -38 34 -61
38 -62 13 0 -11 -3 -13 -6 -5 -2 6 -9 12 -14 12 -6 0 -6 -7 0 -19 10 -17 7
-18 -37 -14 -49 6 -81 22 -47 24 11 1 26 1 33 0 6 -1 12 3 12 9 0 5 7 10 16
10 14 0 14 3 4 15 -11 13 -14 13 -24 1 -13 -16 -108 -27 -103 -11 2 5 23 11
46 13 37 3 41 5 35 24 -4 13 -2 18 4 14 6 -3 13 -2 17 4 3 5 2 10 -4 10 -5 0
-11 7 -13 15 -3 13 -6 13 -32 0 -16 -9 -36 -13 -43 -11 -7 3 -13 2 -13 -3 0
-5 -10 -8 -23 -8 -21 0 -23 4 -23 43 1 28 5 44 14 44 16 0 15 5 -5 47 -15 32
-19 34 -47 28 -17 -4 -44 -9 -59 -11 -16 -2 -34 -6 -40 -10 -7 -3 -4 1 6 9 24
20 1 28 -33 11 -14 -7 -44 -21 -67 -31 -24 -10 -43 -21 -43 -25 0 -3 -17 -12
-37 -19 -21 -6 -44 -17 -52 -23 -12 -9 -13 -8 -8 7 3 9 2 17 -2 17 -5 0 -7 10
-4 23 4 17 2 19 -6 7 -5 -8 -12 -12 -14 -10 -8 11 -37 97 -36 110 0 13 91 80
108 80 4 0 12 12 19 28 8 18 10 20 6 5 -3 -13 -1 -23 5 -23 6 0 11 5 11 10 0
6 8 10 19 10 10 0 24 7 31 15 10 12 10 15 -4 15 -11 0 -16 9 -16 29 0 24 3 28
20 24 15 -4 18 -9 10 -18 -8 -10 -7 -15 1 -21 7 -4 15 -2 17 4 7 21 63 6 84
-23 5 -6 8 -4 8 5 0 11 2 12 8 3 4 -7 23 -14 42 -17 76 -11 179 -54 181 -76 1
-8 1 -23 0 -32 -2 -20 47 -78 66 -78 7 0 13 5 13 10 0 6 8 10 18 11 11 0 12 2
4 6 -7 3 -19 -1 -28 -8 -10 -8 -18 -9 -25 -2 -13 13 -2 56 12 47 6 -3 15 -1
22 4 20 17 127 19 127 2 0 -5 -7 -7 -16 -3 -12 4 -15 2 -12 -8 3 -8 12 -12 19
-11 8 2 42 5 77 5 59 2 75 -4 51 -18 -6 -5 -4 -12 8 -21 17 -13 17 -13 -5 -14
-13 0 -20 -4 -17 -10 3 -5 13 -10 21 -10 20 0 47 -27 39 -40 -3 -5 1 -10 9
-10 9 0 16 5 16 11 0 5 5 7 11 3 8 -4 7 -9 -2 -15 -11 -8 -10 -12 5 -24 11 -8
18 -16 15 -19 -11 -9 -88 -15 -94 -6 -6 10 -63 -24 -78 -47 -6 -10 -12 -10
-26 -1 -11 6 -26 8 -37 3 -15 -6 -16 -8 -4 -12 44 -14 44 -13 24 -29 -18 -15
-18 -15 8 -10 16 4 28 1 31 -7 4 -7 6 -6 6 4 2 28 28 72 36 59 4 -7 2 -17 -4
-23 -17 -17 -13 -31 4 -17 8 7 15 21 15 31 0 10 5 21 12 25 7 5 8 3 3 -6 -5
-8 1 -19 16 -31 21 -16 22 -20 9 -30 -12 -8 -11 -9 7 -4 15 4 25 0 32 -12 9
-17 11 -17 25 3 14 20 59 40 79 36 4 -1 7 5 7 13 0 8 5 15 10 15 6 0 10 -5 10
-11 0 -6 7 -4 15 5 20 19 22 164 3 149 -15 -11 -28 -11 -46 1 -10 6 -12 3 -10
-10 4 -23 -36 -32 -58 -14 -26 22 -16 40 21 40 21 0 37 6 43 16 5 9 13 16 18
16 5 0 18 4 29 9 18 7 18 8 2 8 -10 1 -15 6 -12 11 4 6 11 8 16 5 5 -4 9 201
9 529 l0 536 -1914 0 c-1585 0 -1917 -2 -1928 -13 -7 -8 -29 -37 -48 -65 -29
-44 -40 -52 -66 -52 -18 0 -40 9 -54 23 -14 12 -28 21 -33 19 -5 -1 -5 2 -2 9
4 6 -3 17 -14 26 -15 10 -20 21 -16 34 6 19 -9 19 -709 19 l-716 0 0 -141z
m1070 20 c0 -6 7 -9 15 -5 17 6 19 1 6 -23 -6 -9 -6 -23 -1 -31 7 -12 15 -12
49 0 34 11 48 11 81 0 22 -7 43 -10 47 -7 3 4 13 1 22 -7 9 -7 34 -19 56 -25
75 -23 71 -21 55 -31 -12 -8 -11 -10 4 -10 20 0 20 0 1 -14 -11 -8 -33 -12
-50 -10 -35 5 -50 -3 -59 -32 -5 -18 -1 -24 24 -32 17 -6 33 -18 36 -27 3 -8
14 -15 24 -15 11 0 22 -5 25 -10 5 -8 11 -7 21 1 10 8 14 8 14 0 0 -6 7 -11
15 -11 9 0 18 -7 21 -15 4 -8 14 -15 24 -15 10 0 23 -7 30 -15 7 -8 19 -15 27
-15 8 0 11 -4 8 -10 -3 -5 1 -10 9 -10 9 0 16 -7 16 -15 0 -8 4 -15 9 -15 14
0 7 -48 -9 -63 -10 -9 -13 -9 -17 1 -3 6 -9 12 -14 12 -6 0 -7 -4 -4 -10 3 -5
1 -10 -6 -10 -6 0 -9 8 -6 20 3 13 -1 24 -13 30 -24 13 -83 13 -75 1 3 -5 -2
-16 -10 -24 -8 -9 -15 -19 -15 -24 0 -4 -12 -9 -27 -10 -27 -1 -53 17 -53 37
0 6 -12 22 -27 36 -23 21 -24 25 -9 22 11 -2 20 3 21 13 2 13 -9 19 -46 26
-42 9 -47 8 -37 -4 9 -11 6 -20 -15 -41 -15 -15 -27 -21 -27 -14 0 7 -4 10
-10 7 -5 -3 -10 -1 -10 6 0 9 -4 9 -15 -1 -20 -16 -32 -6 -45 38 -13 48 -13
52 3 52 8 0 14 6 14 14 0 11 -12 13 -51 9 -43 -4 -54 -2 -70 16 -11 11 -24 21
-30 21 -6 0 -22 9 -36 20 -14 11 -33 20 -42 20 -9 0 -24 8 -34 18 -17 16 -17
16 -12 -5 4 -15 2 -20 -8 -16 -7 2 -10 11 -7 19 9 24 -15 41 -68 48 -55 8 -63
17 -51 61 11 39 46 56 94 46 22 -5 38 -5 40 0 2 5 16 12 32 15 16 3 45 9 65
13 53 13 101 13 101 0z m1284 -22 c16 16 -5 -55 -32 -106 -70 -136 -105 -197
-118 -212 -8 -8 -14 -20 -14 -25 0 -13 -46 -54 -60 -54 -5 0 -7 14 -3 33 6 36
60 211 74 242 5 11 17 43 27 70 16 47 20 50 57 55 22 3 45 2 51 -2 6 -4 14 -5
18 -1z m-1115 -480 c6 -8 8 -17 4 -20 -3 -4 2 -9 11 -13 10 -4 16 -18 16 -39
0 -33 -1 -34 -72 -55 -40 -11 -81 -25 -90 -31 -14 -7 -18 -5 -18 6 0 8 -6 12
-14 9 -14 -5 -16 13 -7 57 0 3 13 11 27 17 14 7 22 17 19 22 -4 6 -11 8 -16 5
-5 -4 -9 -2 -9 3 0 12 25 22 64 28 16 2 34 8 40 14 14 14 31 13 45 -3z m2209
-370 c10 -8 16 -7 21 2 5 7 22 11 42 9 29 -3 34 -7 40 -36 8 -40 11 -43 29
-32 11 7 11 12 2 23 -13 15 -6 27 15 27 9 0 13 -14 13 -41 0 -35 2 -40 18 -34
9 4 26 8 37 9 11 0 23 5 26 10 10 13 99 21 99 8 0 -11 -29 -26 -47 -23 -7 1
-9 -7 -6 -19 3 -11 12 -20 19 -20 8 0 14 -3 14 -8 0 -8 43 -27 85 -37 28 -6
68 -39 71 -57 1 -5 2 -12 3 -17 0 -5 10 -7 21 -4 16 4 50 -16 50 -30 0 -8 -99
-77 -110 -77 -6 0 -15 -11 -20 -25 -5 -14 -17 -25 -26 -25 -12 0 -15 -7 -12
-28 3 -23 0 -28 -17 -29 -11 -1 -14 1 -7 4 6 3 10 9 7 14 -3 5 -15 3 -26 -4
-17 -10 -22 -9 -32 4 -15 19 -57 20 -57 1 0 -8 6 -12 15 -8 14 5 45 -18 45
-34 0 -5 -9 -14 -19 -20 -23 -12 -31 -13 -30 -2 4 22 -4 33 -26 42 -14 5 -25
16 -25 24 0 9 -6 13 -14 10 -12 -5 -12 -9 0 -32 8 -15 14 -33 14 -39 0 -26
-52 -12 -98 24 -65 51 -73 62 -62 83 5 10 7 20 4 22 -8 9 -54 -4 -54 -16 0 -6
-5 -3 -11 7 -11 19 -36 22 -59 7 -11 -7 -12 -12 -3 -21 14 -14 6 -39 -14 -39
-18 0 -63 48 -63 68 0 8 -6 12 -13 9 -8 -3 -21 8 -32 26 -10 18 -21 34 -24 37
-8 7 -44 82 -47 98 -3 17 39 55 74 66 12 4 22 13 22 20 0 7 23 34 50 60 28 26
50 51 50 57 0 11 49 1 68 -14z m-682 -378 c3 -6 1 -15 -6 -19 -7 -4 -10 -15
-7 -23 3 -9 -2 -17 -14 -20 -23 -6 -25 -23 -3 -31 9 -3 25 5 40 21 21 23 23
28 10 33 -14 4 -13 7 3 17 14 9 24 8 45 -3 15 -7 35 -13 44 -12 49 4 53 0 33
-32 -14 -23 -16 -40 -11 -75 4 -25 3 -45 -2 -45 -21 0 -4 -21 28 -35 45 -18
44 -18 44 0 0 8 5 15 10 15 12 0 13 27 1 32 -4 2 -11 13 -15 25 -6 18 -2 25
18 35 14 6 26 15 26 19 0 4 11 2 24 -4 15 -7 21 -17 18 -29 -2 -10 -8 -15 -13
-12 -5 3 -9 -4 -9 -15 0 -25 17 -27 40 -6 14 12 21 13 43 2 15 -6 27 -18 27
-24 0 -18 35 -16 50 2 7 8 21 15 32 15 21 0 38 -32 20 -38 -7 -2 -12 -10 -12
-18 0 -17 -5 -17 -30 -2 -16 10 -22 10 -32 -1 -11 -12 -10 -13 6 -7 13 4 25
-2 42 -21 13 -16 24 -32 24 -36 0 -5 19 -8 43 -7 63 3 71 1 92 -14 16 -12 17
-16 6 -30 -12 -14 -16 -13 -47 10 -35 27 -48 20 -16 -9 18 -17 19 -21 13 -148
-1 -25 -48 -33 -79 -13 -24 16 -25 16 -19 -7 3 -13 2 -29 -4 -35 -14 -18 -39
-6 -39 18 0 10 -5 16 -10 13 -6 -4 -9 -19 -8 -33 2 -22 -1 -27 -19 -27 -12 0
-25 -4 -29 -8 -9 -9 -54 -9 -54 0 0 4 10 17 22 30 33 36 16 36 -36 1 -39 -25
-50 -29 -57 -17 -8 12 -10 12 -18 0 -5 -8 -16 -11 -26 -7 -16 6 -16 9 5 31 20
21 21 25 7 25 -9 0 -17 6 -17 13 0 13 -43 57 -56 57 -5 0 -20 9 -34 20 -28 22
-63 29 -42 8 17 -17 15 -48 -4 -48 -14 0 -16 -7 -11 -39 4 -34 2 -40 -22 -52
-22 -10 -23 -13 -8 -17 27 -6 20 -66 -9 -70 -12 -2 -26 -14 -32 -28 -7 -13
-17 -24 -23 -24 -6 0 -9 -7 -6 -14 4 -10 1 -13 -8 -10 -7 3 -16 11 -18 19 -3
8 -15 11 -31 8 -29 -6 -34 8 -11 27 17 14 20 40 5 40 -5 0 -14 -9 -20 -19 -6
-13 -17 -17 -30 -14 -12 3 -22 -1 -26 -11 -3 -9 -10 -13 -15 -10 -5 3 -9 0 -9
-5 0 -6 -6 -11 -13 -11 -8 0 -22 -9 -32 -20 -18 -19 -17 -20 3 -20 12 0 22 -4
22 -10 0 -5 -9 -10 -21 -10 -19 0 -19 -1 -5 -16 18 -18 11 -38 -10 -30 -9 3
-14 -2 -14 -14 0 -11 3 -19 8 -19 24 4 22 -4 -8 -31 -18 -16 -29 -30 -23 -30
7 0 18 7 27 15 8 8 23 15 32 15 14 0 15 -3 6 -12 -19 -19 -14 -28 13 -28 14 0
25 -5 25 -11 0 -5 -5 -7 -12 -3 -8 5 -9 2 -5 -9 3 -9 1 -20 -6 -24 -26 -17
-69 -93 -64 -113 3 -11 2 -18 -3 -15 -12 8 -22 -27 -10 -39 15 -15 12 -26 -5
-20 -9 4 -15 0 -15 -8 0 -7 -14 -22 -31 -32 -26 -15 -33 -16 -40 -5 -5 8 -7
25 -4 37 4 15 2 21 -5 17 -5 -3 -10 -22 -10 -41 0 -22 -6 -37 -15 -41 -9 -3
-18 -3 -20 -1 -8 7 17 132 29 147 9 12 8 13 -7 8 -15 -6 -17 -3 -12 13 7 22
-5 26 -23 8 -16 -16 -16 4 1 21 10 11 9 13 -6 7 -10 -3 -23 -6 -28 -6 -13 0
-11 -34 2 -47 8 -8 6 -16 -5 -29 -9 -11 -22 -28 -30 -39 -13 -17 -15 -17 -16
-4 0 9 7 22 15 29 9 7 13 15 10 18 -3 3 -16 -5 -30 -18 -14 -13 -25 -19 -25
-14 0 6 13 23 30 39 16 16 28 31 25 33 -2 2 -11 -3 -20 -12 -18 -18 -45 -22
-45 -6 0 6 4 10 9 10 5 0 -7 17 -27 39 -20 21 -47 51 -59 67 -22 28 -23 28
-23 7 0 -13 -4 -23 -9 -23 -19 0 -19 16 -1 53 20 40 17 46 -10 22 -25 -23 -48
-9 -46 28 1 27 -3 33 -31 42 -61 20 -96 74 -57 89 25 10 31 7 37 -14 6 -23 27
-27 27 -5 0 8 -4 15 -10 15 -13 0 -13 47 0 55 16 10 -8 45 -30 45 -12 0 -20 7
-20 16 0 14 -1 14 -16 0 -8 -9 -20 -16 -25 -16 -5 0 -9 -6 -9 -14 0 -8 -13
-16 -30 -18 -24 -4 -30 -1 -30 14 0 10 11 30 25 44 14 14 25 36 25 50 0 14 15
40 38 64 43 46 51 49 45 16 -3 -13 0 -27 7 -31 8 -5 8 -10 0 -20 -9 -11 -6
-22 15 -48 14 -19 24 -39 23 -45 -2 -5 2 -10 7 -11 6 0 10 8 9 18 0 13 5 17
18 13 10 -2 20 2 24 12 8 21 22 20 26 -1 2 -10 -5 -31 -17 -46 -13 -18 -20
-45 -20 -73 0 -45 8 -57 19 -28 3 8 10 12 16 9 5 -3 10 -1 10 4 0 6 -4 11 -9
11 -5 0 -12 7 -15 16 -4 11 -1 14 12 12 9 -1 23 1 30 6 11 6 12 0 6 -31 -4
-21 -12 -41 -18 -45 -7 -5 -4 -8 7 -8 25 0 52 65 48 118 -2 25 1 42 8 42 6 0
11 -7 11 -15 0 -8 4 -15 9 -15 5 0 8 -32 7 -70 -1 -39 0 -66 4 -60 3 5 20 -10
38 -35 17 -25 39 -45 49 -45 14 0 12 5 -9 28 -37 39 -50 69 -50 116 -1 62 0
65 23 59 14 -4 18 -11 13 -22 -10 -25 -10 -40 1 -43 6 -2 12 8 13 21 3 20 8
22 33 17 19 -4 29 -1 29 7 0 6 7 3 15 -7 8 -11 17 -18 19 -15 7 6 -17 35 -34
41 -8 3 -25 1 -37 -3 -21 -8 -22 -7 -10 11 6 11 18 18 24 15 8 -2 13 4 13 15
0 11 5 20 11 20 6 0 9 -7 5 -15 -3 -9 0 -15 8 -15 8 0 17 6 19 13 3 6 6 -3 6
-22 1 -26 4 -32 17 -27 13 5 15 2 11 -14 -7 -26 5 -26 22 1 10 17 15 19 21 8
6 -8 4 -17 -3 -21 -17 -11 11 -28 32 -20 31 12 42 29 26 42 -7 6 -11 19 -8 27
5 13 2 15 -15 11 -12 -4 -22 -2 -22 4 0 6 -9 8 -19 5 -16 -4 -18 -1 -11 17 6
16 15 21 40 19 38 -1 50 -11 30 -23 -12 -7 -12 -10 3 -16 10 -4 16 -12 14 -18
-5 -13 19 -13 71 -1 34 8 62 40 40 47 -6 2 5 4 24 4 20 0 43 7 52 16 8 9 21
18 27 20 8 3 10 14 6 30 -6 21 -12 25 -34 22 -16 -2 -22 -1 -15 2 17 8 15 34
-4 34 -8 0 -24 4 -34 10 -15 8 -16 13 -7 35 7 14 15 25 19 25 4 0 5 7 2 15 -4
10 0 15 14 15 12 0 28 13 41 35 11 19 16 35 11 35 -4 0 -10 -5 -12 -11 -3 -10
-78 -22 -78 -12 0 2 4 12 9 21 14 29 22 72 12 72 -5 0 -14 -14 -20 -31 -8 -22
-15 -30 -26 -25 -10 3 -26 -5 -42 -20 -23 -23 -28 -25 -38 -11 -7 10 -20 13
-38 10 -25 -5 -27 -3 -27 25 0 17 4 33 10 37 6 3 6 15 0 30 -8 20 -6 27 12 36
12 6 43 34 68 60 26 27 56 49 66 49 11 0 36 11 57 25 60 41 92 52 103 34z
m2182 -430 c13 -5 20 -13 17 -19 -3 -5 3 -10 14 -10 15 0 21 -6 21 -24 0 -13
-7 -26 -15 -30 -8 -3 -15 -13 -15 -23 0 -10 -14 -29 -31 -43 -42 -34 -158
-100 -175 -100 -8 0 -25 -7 -38 -15 -33 -22 -85 -35 -91 -24 -7 11 -55 8 -55
-4 0 -5 -8 -6 -17 -2 -10 4 -26 7 -35 7 -13 -1 -18 7 -18 24 0 13 -4 24 -10
24 -5 0 -10 6 -10 13 0 8 -14 11 -45 9 -26 -2 -45 0 -45 6 0 5 35 43 78 83 92
86 143 108 267 114 91 4 135 13 135 27 0 9 18 6 68 -13z m-621 -194 c-3 -20
-16 -44 -29 -54 -21 -17 -21 -21 -9 -45 13 -23 15 -24 27 -8 12 16 13 16 19 0
9 -22 25 -14 25 12 0 10 6 21 13 23 6 3 2 6 -10 6 -34 1 -17 31 17 31 33 0 47
-25 22 -39 -16 -10 -16 -10 1 -11 9 0 17 -2 17 -4 0 -2 3 -12 6 -20 4 -12 2
-15 -9 -10 -9 3 -25 -4 -36 -15 -12 -12 -32 -22 -45 -23 -34 -3 -23 -15 11
-14 15 1 38 -2 50 -6 18 -6 26 -2 39 17 9 14 23 25 30 25 16 0 19 -26 4 -35
-6 -4 -8 -11 -5 -16 3 -5 16 0 27 11 l22 20 -23 24 c-12 13 -18 26 -13 30 5 3
19 -6 32 -19 21 -22 48 -26 35 -4 -14 21 16 7 30 -15 13 -20 14 -29 5 -46 -14
-27 -5 -38 19 -23 25 16 61 5 61 -17 0 -10 -11 -28 -25 -41 -13 -13 -25 -32
-25 -41 0 -27 22 -68 37 -68 7 0 13 -4 13 -9 0 -5 3 -16 6 -25 4 -11 0 -16
-12 -17 -13 0 -11 -4 9 -11 15 -5 27 -14 27 -19 0 -4 7 -6 15 -3 8 4 15 1 15
-5 0 -6 -4 -11 -10 -11 -5 0 -10 -9 -10 -20 0 -22 15 -27 23 -7 4 9 8 8 16 -3
19 -28 25 1 6 36 -14 25 -23 33 -37 28 -25 -7 -23 13 2 26 11 6 18 16 14 22
-4 6 -9 6 -13 1 -3 -5 -14 -1 -23 9 -17 17 -17 18 5 20 12 1 31 2 42 3 11 1
27 3 35 4 20 1 90 63 90 79 0 6 5 12 10 12 6 0 20 10 31 21 21 21 22 21 32 4
7 -14 5 -21 -9 -32 -17 -13 -17 -14 4 -29 17 -12 20 -18 11 -33 -22 -34 36
-110 63 -83 5 5 19 7 29 5 19 -5 19 -7 -5 -32 -29 -31 -68 -116 -65 -145 4
-38 -13 -77 -40 -91 -14 -7 -36 -22 -47 -34 -22 -20 -64 -19 -64 2 0 12 79 87
92 87 5 0 16 16 24 36 16 39 8 78 -24 117 -21 24 -35 21 -22 -4 17 -30 4 -36
-23 -11 -13 12 -27 22 -32 22 -5 0 -19 9 -31 21 -12 12 -27 20 -33 18 -16 -6
16 -49 35 -49 8 0 26 -7 39 -16 20 -13 22 -19 12 -34 -8 -14 -15 -16 -24 -8
-20 16 -16 1 9 -32 18 -25 19 -32 8 -45 -7 -9 -16 -12 -19 -8 -11 14 -53 35
-59 28 -4 -3 0 -10 7 -14 17 -11 5 -32 -13 -25 -7 3 -16 -2 -19 -10 -4 -9 -13
-16 -21 -16 -7 0 -16 -10 -19 -22 -5 -18 -8 -19 -21 -8 -21 16 -20 30 2 46 16
12 16 13 0 14 -15 0 -28 22 -34 58 -3 17 -54 76 -54 63 0 -6 -4 -11 -10 -11
-5 0 -6 7 -3 17 5 12 3 14 -7 8 -9 -6 -11 -4 -6 4 5 7 15 10 24 6 9 -3 6 4 -8
18 -14 13 -28 22 -32 20 -13 -7 -48 17 -48 32 0 8 -18 19 -40 26 -22 7 -40 16
-40 20 0 4 -16 5 -35 2 -35 -6 -44 3 -25 25 6 6 7 10 4 7 -4 -2 -16 0 -27 6
-14 8 -18 8 -13 0 5 -7 -1 -10 -16 -7 -13 3 -29 5 -36 5 -10 1 -10 6 -2 22 7
11 10 23 7 25 -9 9 -62 -48 -59 -63 2 -9 -1 -12 -7 -8 -6 3 -11 15 -11 27 0
15 -4 18 -17 13 -38 -16 -76 -4 -55 17 21 21 14 47 -15 54 -26 7 -37 -2 -62
-44 -5 -9 -17 -11 -35 -6 -21 5 -24 9 -15 20 20 24 0 29 -23 6 -15 -14 -18
-22 -9 -22 11 0 11 -3 1 -15 -11 -13 -7 -15 23 -15 53 0 67 -9 67 -40 0 -29
-39 -70 -67 -70 -7 0 -27 -10 -43 -21 -16 -12 -35 -19 -44 -16 -8 3 -16 2 -18
-3 -2 -5 -36 -18 -77 -28 -41 -10 -77 -24 -79 -31 -3 -9 2 -11 17 -6 20 6 31
-10 11 -17 -5 -1 -7 -13 -4 -24 5 -17 13 -22 40 -22 24 0 34 5 34 15 0 12 -3
13 -14 3 -12 -9 -15 -7 -14 12 1 13 6 29 11 36 13 17 38 15 31 -2 -5 -12 0
-13 33 -3 21 6 41 16 45 22 5 7 8 7 8 -1 0 -18 -25 -46 -39 -42 -8 2 -17 -8
-20 -21 -5 -18 -19 -29 -49 -39 -24 -8 -42 -20 -42 -28 0 -11 5 -12 18 -6 9 5
23 7 30 5 19 -7 62 24 73 54 5 14 15 23 22 20 7 -3 21 1 31 8 10 8 25 11 34 8
14 -6 13 -7 -2 -13 -16 -5 -16 -7 4 -25 21 -19 21 -19 14 1 -4 14 -4 16 4 5 6
-8 8 -20 5 -28 -3 -7 0 -13 6 -13 6 0 11 -10 11 -23 0 -13 6 -29 13 -36 10
-10 8 -11 -7 -5 -17 6 -18 4 -12 -19 5 -20 3 -25 -7 -21 -15 5 -16 -17 -2 -48
10 -25 29 -23 22 2 -7 28 4 25 33 -10 27 -33 40 -38 40 -16 0 8 -9 17 -19 21
-16 5 -36 43 -27 52 2 2 20 -13 41 -33 29 -27 35 -38 25 -44 -11 -7 -10 -11 3
-24 8 -9 23 -16 31 -16 9 0 16 -4 16 -10 0 -5 7 -10 15 -10 18 0 20 -21 3 -38
-9 -9 -9 -12 1 -12 7 0 9 -4 6 -10 -3 -5 4 -10 15 -10 13 0 24 8 27 19 6 23
33 37 33 17 0 -7 -11 -25 -25 -40 -34 -37 -32 -43 15 -43 29 0 47 -7 61 -22
l20 -22 -23 6 c-19 5 -27 1 -38 -19 -13 -25 -43 -42 -67 -38 -27 6 -23 -20 6
-31 32 -12 41 -27 17 -27 -8 0 -18 -9 -21 -20 -3 -11 -11 -20 -16 -20 -6 0 -8
4 -5 9 3 5 -4 11 -16 14 -13 4 -26 1 -30 -6 -5 -9 -11 -7 -20 5 -15 21 -62 14
-54 -8 3 -7 0 -15 -7 -17 -9 -3 -9 -13 2 -42 10 -28 11 -40 2 -43 -6 -2 -11
-10 -11 -18 0 -8 -4 -14 -10 -14 -5 0 -10 5 -10 11 0 5 -4 7 -10 4 -14 -9 -13
8 2 23 6 6 8 15 4 19 -4 4 -11 2 -15 -6 -6 -10 -10 -9 -15 4 -3 9 -4 20 -1 25
2 4 -7 8 -22 8 -15 0 -29 5 -31 11 -2 6 -10 11 -18 11 -22 0 2 40 24 41 9 0 4
5 -12 9 -16 5 -33 7 -38 4 -4 -3 -8 4 -8 15 0 12 -4 21 -10 21 -5 0 -10 -4
-10 -10 0 -5 -5 -10 -11 -10 -6 0 -8 7 -5 15 3 8 8 23 11 33 5 15 5 15 -6 1
-11 -15 -14 -15 -31 0 -10 8 -18 19 -18 24 0 4 -13 22 -30 40 -21 22 -30 42
-30 65 0 25 -5 35 -25 42 -33 13 -97 80 -91 96 5 14 -20 28 -46 25 -11 -1 -18
4 -18 13 0 9 -11 23 -25 32 -20 13 -28 14 -40 4 -11 -9 -15 -9 -15 -1 0 7 -4
9 -10 6 -5 -3 -10 -1 -10 5 0 6 -5 8 -10 5 -6 -4 -24 1 -42 9 -32 17 -50 14
-31 -5 8 -8 6 -19 -4 -40 -16 -31 -20 -34 -43 -19 -12 7 -12 12 -2 22 18 18
15 25 -13 32 -20 5 -25 13 -25 36 0 22 5 30 18 30 16 1 16 1 -1 11 -12 7 -23
6 -39 -5 -12 -9 -17 -16 -10 -16 6 0 12 -4 12 -10 0 -5 -7 -10 -15 -10 -18 0
-20 -17 -2 -23 6 -2 8 -8 4 -13 -11 -11 -43 11 -39 28 1 7 -11 -2 -28 -19 -16
-18 -32 -33 -35 -33 -7 0 17 43 29 51 5 4 6 18 2 32 -3 14 -2 29 4 32 5 3 10
13 10 21 0 11 -10 8 -37 -12 l-38 -28 26 28 c15 15 41 31 58 35 18 3 33 11 33
16 3 16 79 83 128 112 25 14 54 34 65 44 37 32 149 87 213 105 53 14 72 15
114 6 76 -18 88 -15 129 29 34 37 42 41 76 37 29 -4 41 0 55 16 10 12 17 27
18 34 0 6 4 12 10 12 5 0 21 12 35 26 31 31 55 21 35 -16 -6 -12 -9 -24 -6
-27 3 -4 1 -12 -6 -20 -6 -7 -8 -16 -5 -19 10 -10 27 6 27 27 0 10 5 19 11 19
6 0 9 13 7 30 -2 25 6 38 50 80 28 27 52 56 52 63 0 17 20 37 38 37 11 0 13
-9 9 -35z m-1782 -559 c14 -22 14 -25 -12 -55 -48 -56 -95 -102 -100 -97 -8 8
27 52 52 66 14 7 25 19 25 27 0 20 -21 15 -27 -7 -4 -16 -9 -18 -24 -9 -16 8
-19 6 -19 -16 0 -15 -4 -24 -10 -20 -6 4 -8 11 -5 16 4 5 -23 -13 -60 -41 -36
-27 -72 -50 -80 -50 -7 0 -22 -3 -32 -7 -16 -6 -16 -5 -4 11 13 16 12 17 -12
11 -15 -4 -27 -5 -27 -2 0 3 24 29 53 59 62 63 118 98 144 92 11 -3 28 5 42
20 32 34 75 35 96 2z m1731 -37 c3 -6 17 -9 31 -6 18 3 23 1 18 -10 -4 -11 -1
-13 12 -8 10 3 32 9 48 12 l30 6 -22 -20 c-29 -26 -30 -39 -1 -19 12 9 31 16
41 16 17 0 18 2 6 17 -13 15 -12 15 8 3 11 -8 19 -20 16 -27 -3 -7 0 -13 6
-13 21 0 11 -25 -19 -45 -16 -11 -30 -27 -30 -35 0 -13 1 -13 10 0 5 8 12 11
17 7 9 -10 -16 -27 -40 -27 -11 0 -17 -5 -14 -12 2 -7 13 -12 23 -10 15 2 16
1 5 -6 -8 -6 -10 -15 -5 -23 6 -12 5 -12 -8 -1 -12 10 -22 10 -44 1 -39 -16
-54 -19 -54 -9 0 4 11 11 25 14 30 8 32 19 5 46 -10 10 -15 22 -10 25 4 3 10
-1 13 -7 3 -10 7 -10 20 1 10 7 17 10 17 5 0 -5 7 2 16 14 8 12 21 22 28 22 8
0 19 7 26 15 21 26 -19 18 -56 -10 -38 -29 -44 -30 -44 -11 0 7 -9 16 -21 19
-12 3 -18 10 -14 16 3 6 1 11 -5 11 -6 0 -8 5 -5 10 3 6 3 10 -2 10 -13 1 -59
40 -46 40 6 0 15 -5 19 -11z m-1249 -114 c-9 -8 -23 -15 -31 -15 -9 0 -16 -5
-16 -11 0 -6 6 -9 13 -6 17 6 77 -19 77 -33 0 -61 -113 -125 -250 -142 -100
-12 -211 -12 -219 1 -10 15 -54 -7 -47 -24 3 -9 -1 -18 -9 -21 -8 -4 -12 -10
-9 -15 8 -14 -4 -11 -31 7 -14 9 -25 23 -25 32 0 8 -3 12 -7 9 -3 -4 -13 2
-21 14 -10 15 -11 24 -3 32 6 6 11 18 11 27 0 10 -6 8 -20 -10 -21 -27 -26
-50 -10 -50 12 0 13 -11 0 -30 -7 -11 -12 -12 -21 -3 -6 6 -19 9 -28 5 -13 -5
-11 -7 8 -12 l24 -5 -26 -25 c-28 -27 -83 -34 -92 -12 -2 6 -12 12 -21 12 -16
0 -16 2 1 20 24 26 13 25 -33 -3 -20 -13 -48 -29 -62 -36 l-25 -12 24 19 c13
11 56 37 95 57 39 21 94 55 123 76 29 22 56 39 61 39 5 0 15 7 23 16 40 48
181 93 312 100 83 4 98 2 103 -11 7 -17 47 -13 89 8 43 22 50 25 54 21 2 -2
-4 -10 -12 -19z m-1371 -62 c-5 -26 -4 -33 3 -24 8 13 12 13 26 1 10 -8 19
-10 23 -4 4 5 17 14 28 21 19 10 22 9 22 -11 0 -15 -7 -22 -20 -23 -24 -2 -55
-29 -63 -54 -4 -12 -16 -19 -32 -19 -15 0 -23 -3 -20 -7 4 -3 2 -12 -4 -20 -6
-7 -8 -14 -3 -14 5 -1 -4 -4 -21 -8 -26 -6 -30 -11 -30 -40 0 -36 -33 -69 -42
-43 -3 6 -12 12 -20 12 -11 0 -14 -7 -9 -23 5 -22 3 -23 -37 -21 -23 1 -47 -2
-54 -7 -7 -6 -13 -6 -17 -1 -3 6 14 21 39 33 85 45 134 91 147 137 7 23 15 42
19 42 3 0 7 12 7 27 0 15 5 29 11 31 7 2 16 15 21 28 15 39 33 30 26 -13z
m1792 -39 c22 -15 32 -52 10 -38 -7 4 -8 3 -4 -4 4 -7 13 -12 20 -12 8 0 12
-9 11 -22 -4 -34 -4 -34 -16 -18 -8 11 -9 9 -3 -10 9 -33 11 -35 28 -21 10 8
16 9 21 1 3 -5 1 -10 -4 -10 -6 0 -11 -6 -11 -12 0 -7 -4 -19 -9 -27 -7 -11
-13 -10 -33 3 -14 9 -28 13 -31 9 -6 -6 -11 11 -8 30 0 4 -5 6 -11 5 -8 -2
-13 8 -13 25 1 15 -5 27 -12 27 -20 0 -15 16 10 33 12 9 17 16 10 16 -15 1
-77 -58 -69 -66 3 -3 12 0 21 7 10 8 15 9 15 1 0 -14 -37 -38 -72 -46 -24 -6
-28 -4 -28 15 0 17 -4 20 -19 15 -14 -4 -23 0 -30 14 -14 26 -14 31 4 31 8 0
15 7 15 16 0 8 -4 12 -10 9 -5 -3 -10 2 -10 13 0 15 5 18 25 14 14 -2 25 -8
25 -13 0 -5 7 -9 15 -9 8 0 15 6 15 14 0 26 114 34 148 10z m-395 -91 c-7 -19
8 -16 23 4 7 10 16 15 20 11 10 -10 -58 -69 -73 -63 -7 2 -15 0 -19 -6 -3 -6
-12 -8 -19 -5 -7 2 -15 -3 -18 -12 -3 -9 -8 -26 -12 -37 -6 -19 -6 -19 5 -2
11 18 12 18 27 0 14 -17 14 -17 10 5 -4 14 0 22 9 22 18 0 19 -50 2 -51 -10 0
-10 -2 -1 -5 7 -3 9 -12 6 -20 -3 -10 0 -12 10 -8 19 7 31 34 15 34 -21 0 5
17 37 24 29 7 29 7 10 -8 -18 -14 -18 -15 -2 -16 10 0 20 8 23 18 17 53 19 55
33 38 12 -14 12 -16 -3 -10 -9 4 -16 1 -16 -6 0 -6 9 -14 21 -17 15 -4 17 -8
8 -13 -9 -6 -9 -12 4 -24 11 -12 14 -23 8 -39 -8 -21 -26 -27 -26 -8 0 5 -3
13 -7 17 -5 4 -8 0 -8 -8 0 -16 -40 -33 -50 -20 -3 4 -23 7 -45 7 -22 0 -69 4
-104 9 -41 5 -61 5 -58 -2 9 -13 76 -24 168 -27 53 -2 87 -9 115 -24 43 -23
54 -26 54 -12 0 5 -10 11 -22 13 -25 3 -23 23 2 22 12 0 15 8 12 31 -2 20 2
36 13 45 9 7 15 9 14 4 -5 -28 2 -43 17 -37 14 5 16 1 12 -25 -3 -21 0 -33 10
-37 22 -8 34 -6 27 5 -7 12 -3 12 19 4 10 -4 16 -18 16 -40 0 -19 4 -34 10
-34 5 0 7 -7 3 -16 -4 -10 1 -17 15 -21 13 -3 19 -10 15 -19 -3 -9 2 -14 15
-14 11 0 22 -5 24 -10 2 -6 13 -12 24 -12 12 -1 21 -9 20 -18 -1 -8 5 -14 12
-12 6 1 12 -2 12 -8 0 -5 -8 -10 -17 -10 -16 -1 -16 -2 2 -16 12 -8 30 -12 45
-9 15 3 33 -1 45 -9 18 -14 18 -15 3 -16 -22 0 -23 -13 -4 -29 10 -8 16 -9 21
-1 3 5 11 10 18 10 20 0 -16 -26 -59 -43 -46 -17 -48 -16 -92 41 -11 16 -23
21 -35 17 -24 -10 -21 -28 3 -22 27 7 50 -29 43 -65 -4 -19 -12 -28 -25 -28
-10 0 -17 -4 -14 -9 3 -5 0 -9 -7 -8 -30 1 -47 -4 -47 -13 0 -5 7 -7 15 -4 8
4 15 1 15 -5 0 -6 7 -11 15 -11 8 0 15 5 15 10 0 15 97 74 129 77 17 2 8 -5
-29 -22 -57 -27 -90 -52 -90 -67 0 -5 20 5 44 22 25 16 48 30 53 30 4 1 31 11
58 24 28 13 53 22 57 19 12 -7 -15 -41 -37 -47 -11 -3 -30 -16 -42 -28 -85
-89 -93 -94 -104 -77 -7 11 -9 10 -9 -3 0 -19 -26 -25 -32 -9 -1 5 -16 -2 -33
-15 -25 -21 -28 -26 -15 -35 13 -9 13 -10 0 -6 -8 2 -16 13 -18 25 -2 13 -8
19 -18 15 -14 -5 -44 13 -44 27 0 5 6 10 13 13 6 2 3 3 -7 1 -11 -2 -26 2 -33
8 -19 15 -43 2 -40 -23 1 -12 -5 -24 -13 -27 -13 -5 -13 -3 0 13 14 17 14 18
-8 6 -21 -11 -22 -10 -18 15 3 15 10 32 15 37 6 6 8 2 4 -14 -6 -22 -5 -23 11
-10 9 8 15 19 13 25 -2 6 2 25 10 43 16 41 16 44 -2 37 -8 -4 -15 -14 -15 -23
0 -14 -2 -14 -10 -1 -9 14 -14 7 -11 -13 1 -4 -7 -3 -18 2 -14 8 -20 8 -23 -1
-2 -6 -14 3 -27 21 -16 22 -28 30 -41 26 -22 -7 -38 14 -20 25 14 9 47 -6 67
-30 11 -13 12 -13 13 3 0 9 -5 17 -11 17 -6 0 -8 7 -5 16 5 13 1 15 -18 10
-16 -4 -30 0 -40 9 -8 8 -17 15 -21 15 -10 0 -38 30 -28 30 4 0 0 5 -10 11 -9
6 -14 15 -11 21 4 7 2 8 -5 4 -6 -4 -18 -2 -26 4 -17 14 -20 50 -5 50 6 0 10
7 10 15 0 8 -9 15 -20 15 -14 0 -20 -6 -18 -17 2 -10 -4 -19 -14 -21 -11 -2
-18 3 -18 12 0 11 -5 13 -17 9 -17 -7 -17 -6 0 20 9 14 17 29 17 32 0 10 -36
5 -48 -7 -6 -6 -15 -8 -19 -3 -5 4 -2 10 5 12 20 7 14 25 -7 18 -11 -3 -21 0
-24 9 -8 19 33 14 78 -10 19 -10 38 -14 42 -10 4 5 2 11 -5 13 -7 3 -19 11
-26 19 -8 8 -28 14 -45 14 -16 0 -32 4 -36 10 -3 5 -12 7 -20 4 -21 -8 -75 18
-75 36 0 10 -3 11 -8 3 -5 -8 -14 -5 -32 9 l-25 20 23 18 c12 10 22 23 22 29
0 16 -11 13 -26 -6 -7 -10 -16 -14 -20 -10 -5 4 -2 13 6 18 12 9 11 10 -4 5
-25 -8 -48 12 -41 35 4 11 2 19 -3 19 -5 0 -12 9 -15 20 -4 17 0 20 23 20 16
0 32 -5 36 -11 4 -8 8 -8 13 -1 7 11 33 16 156 28 39 4 82 13 97 20 15 8 40
14 57 14 16 0 32 4 36 9 9 15 44 9 38 -6z m-2527 -44 c-6 -31 -6 -31 12 -10
l17 22 18 -30 c16 -27 16 -31 3 -31 -9 0 -16 7 -16 16 0 8 -4 12 -10 9 -19
-12 -10 -30 23 -43 17 -8 43 -18 56 -23 19 -8 21 -13 12 -22 -10 -9 -15 -8
-25 6 -7 9 -21 17 -32 17 -16 0 -16 -2 -3 -12 23 -20 37 -61 28 -83 l-8 -20
-1 20 c-2 11 -2 25 -1 31 1 7 -5 14 -14 18 -18 6 -19 2 -4 -25 7 -15 7 -24 -2
-35 -6 -8 -7 -14 -2 -14 5 0 10 -13 10 -30 0 -16 -4 -30 -8 -30 -5 0 -6 -7 -3
-15 4 -8 2 -15 -4 -15 -6 0 -12 4 -14 8 -1 5 -16 12 -33 16 -29 7 -29 7 -11
-13 11 -12 16 -24 11 -29 -4 -4 -10 -1 -12 6 -6 16 -23 15 -23 -2 0 -8 7 -16
14 -19 16 -6 17 -69 3 -84 -5 -4 -5 0 -1 10 5 13 1 17 -17 17 -32 -1 -69 -33
-69 -59 0 -27 -74 -62 -119 -56 -22 3 -29 0 -25 -10 4 -10 0 -12 -15 -8 -28 7
-31 34 -7 60 12 12 30 31 40 42 11 12 29 21 40 21 20 0 21 6 22 93 2 145 10
172 67 225 9 9 17 22 17 29 0 7 5 13 10 13 6 0 10 -7 10 -16 0 -10 6 -14 14
-11 7 3 22 0 32 -7 29 -19 54 -27 54 -16 0 6 -7 10 -15 10 -19 0 -48 64 -40
89 10 34 28 25 21 -10z m1934 -45 c0 -8 5 -14 10 -14 6 0 10 7 10 15 0 8 4 15
10 15 5 0 9 -11 8 -24 -2 -16 -7 -22 -17 -18 -10 4 -12 1 -6 -9 14 -22 13 -50
-2 -56 -7 -3 -13 -11 -13 -19 0 -16 16 -19 24 -5 9 14 48 0 42 -15 -3 -8 1
-14 8 -14 8 0 17 -7 20 -16 4 -12 1 -14 -14 -9 -11 4 -20 2 -20 -4 0 -8 -18
-9 -62 -2 -5 0 -8 6 -8 12 0 6 7 9 15 5 9 -3 19 3 26 17 11 20 11 21 -5 7 -16
-13 -20 -12 -31 3 -11 15 -15 16 -27 4 -14 -15 -45 -16 -66 -3 -14 9 -16 26
-2 26 6 0 10 -8 10 -17 0 -14 2 -15 9 -4 5 7 13 11 19 7 6 -4 10 2 9 13 -1 16
-4 18 -15 9 -10 -9 -15 -9 -21 0 -4 7 -15 10 -24 6 -10 -3 -17 -1 -17 5 0 9
-6 9 -22 1 -21 -10 -21 -10 -5 3 9 8 17 22 17 31 0 12 5 16 19 11 13 -4 27 4
46 23 29 31 75 40 75 16z m1170 -13 c4 -8 13 -10 19 -7 6 4 11 3 11 -3 0 -5
-8 -14 -17 -20 -10 -5 -14 -13 -10 -17 4 -4 14 1 21 12 14 18 15 18 35 0 16
-15 18 -22 10 -33 -6 -7 -8 -13 -4 -13 4 0 2 -7 -5 -15 -7 -8 -10 -15 -7 -15
3 0 13 -3 22 -6 13 -5 15 -2 9 20 -4 16 -2 26 5 26 6 0 11 -4 11 -9 0 -5 9
-13 20 -16 11 -3 20 -11 20 -16 0 -6 7 -17 15 -25 18 -19 20 -60 3 -67 -8 -3
-6 -6 5 -6 19 -1 23 -16 7 -26 -12 -7 -31 10 -49 43 -6 12 -18 22 -26 22 -21
0 -19 -14 5 -35 11 -10 20 -22 20 -27 0 -4 -9 -3 -20 4 -11 7 -20 18 -20 25 0
7 -4 13 -10 13 -5 0 -10 -6 -10 -12 0 -7 -3 -23 -6 -34 -5 -19 -2 -21 20 -17
14 3 26 1 26 -5 0 -17 27 -21 54 -7 28 15 34 11 14 -8 -7 -7 -46 -13 -86 -14
-63 -2 -72 0 -70 15 2 13 -4 17 -24 16 -15 -1 -25 2 -23 6 6 9 -23 35 -49 44
-11 4 -16 12 -12 22 5 13 2 15 -13 11 -17 -4 -18 -2 -9 19 9 20 6 28 -30 66
-23 23 -39 45 -36 47 2 3 11 -5 20 -17 13 -19 18 -20 37 -10 12 7 28 11 35 10
6 -2 12 2 12 8 0 5 8 10 18 10 22 1 56 26 44 33 -4 3 -21 -2 -37 -13 -15 -10
-34 -16 -41 -13 -8 3 -14 1 -14 -5 0 -5 -11 -9 -25 -9 -21 0 -23 2 -14 18 5
11 16 19 23 19 8 0 16 6 19 14 7 17 95 15 107 -3z m-1492 -35 c-10 -7 -14 -17
-10 -21 4 -5 2 -5 -5 -1 -13 7 -53 -30 -53 -50 0 -7 -12 -25 -27 -39 -23 -20
-25 -27 -14 -34 8 -5 20 -7 26 -5 18 7 75 -51 75 -75 0 -30 -56 -80 -125 -112
-43 -19 -64 -24 -72 -17 -9 7 -13 7 -13 0 0 -15 -55 -29 -103 -28 -20 1 -37
-2 -37 -6 0 -4 -16 0 -36 8 -20 8 -33 10 -29 5 10 -16 -14 -13 -31 4 -18 17
-38 20 -28 4 5 -8 1 -8 -14 0 -27 14 -32 14 -32 -2 0 -7 9 -18 20 -25 24 -15
26 -45 4 -63 -13 -11 -14 -9 -9 13 5 20 1 29 -16 41 -12 9 -26 14 -30 11 -4
-2 -15 6 -24 18 l-16 23 7 -27 c3 -17 2 -28 -4 -28 -16 0 -23 47 -13 91 10 42
39 79 76 93 16 6 17 9 5 17 -12 8 -10 10 8 6 12 -3 28 0 35 6 7 7 52 32 100
55 66 33 102 45 150 49 41 3 57 1 48 -5 -7 -5 -22 -7 -33 -4 -15 3 -19 1 -16
-9 3 -9 17 -13 41 -11 23 2 37 -2 37 -9 0 -8 4 -8 15 1 8 7 15 18 14 24 0 7
-2 6 -6 -1 -6 -15 -23 -17 -23 -3 0 5 17 21 38 35 101 69 126 85 132 85 3 0
-3 -7 -12 -14z m436 -152 c9 -3 13 -11 10 -16 -4 -6 -1 -9 6 -6 7 2 24 -6 38
-19 13 -12 37 -28 53 -35 16 -7 29 -19 29 -25 0 -7 5 -13 10 -13 6 0 10 -8 10
-17 0 -13 -3 -14 -12 -5 -7 7 -24 12 -39 12 -15 0 -29 5 -31 11 -3 9 -10 9
-26 0 -31 -16 -27 -32 6 -28 15 3 41 -1 57 -8 18 -7 39 -9 52 -4 27 10 56 -17
33 -31 -22 -14 -4 -23 19 -10 18 9 25 7 46 -14 23 -24 36 -86 18 -86 -8 0 -61
-43 -95 -76 -26 -25 -35 -8 -16 27 16 27 16 29 -1 29 -26 0 -32 10 -20 34 10
20 9 20 -5 2 -8 -10 -20 -15 -26 -11 -6 4 -21 0 -33 -8 -12 -8 -36 -17 -53
-21 -26 -6 -32 -4 -37 13 -4 15 -13 21 -34 21 -24 0 -34 -8 -51 -39 -23 -41
-49 -67 -58 -58 -3 3 8 19 25 36 35 35 39 51 15 51 -22 0 -64 -46 -64 -71 0
-10 -7 -19 -16 -19 -9 0 -13 -5 -9 -12 4 -7 -2 -4 -12 7 -10 12 -26 24 -37 28
-17 7 -16 9 8 28 14 11 30 17 36 14 6 -4 8 3 6 17 -3 13 -5 26 -5 31 -1 4 -9
7 -18 7 -14 0 -15 -2 -4 -9 17 -11 7 -27 -28 -46 -26 -13 -30 -13 -46 5 -10
11 -22 17 -27 14 -6 -4 -5 -10 3 -14 10 -7 10 -12 1 -22 -9 -11 -3 -16 34 -26
50 -14 64 -34 40 -61 -26 -29 -19 -48 9 -21 15 15 31 21 45 17 11 -3 35 -1 53
4 18 6 70 14 116 18 75 8 85 11 106 37 13 17 19 31 13 33 -6 2 -19 -7 -28 -20
-17 -21 -18 -21 -22 -3 -5 29 56 60 90 45 13 -7 22 -14 19 -18 -4 -3 -13 0
-22 7 -9 7 -18 11 -20 8 -9 -9 7 -38 21 -38 11 0 11 -5 2 -25 -6 -14 -17 -25
-24 -25 -7 0 -19 -7 -28 -15 -12 -12 -19 -13 -41 -3 -21 9 -28 9 -35 -1 -5
-10 -13 -10 -25 -3 -10 5 -26 7 -35 5 -15 -4 -14 -9 11 -34 16 -16 29 -37 29
-46 0 -10 6 -14 20 -10 13 3 20 0 20 -9 0 -8 4 -14 9 -14 5 0 13 -15 16 -32 4
-18 14 -41 22 -50 14 -16 14 -18 -1 -24 -9 -3 -13 -10 -10 -15 9 -15 44 10 38
26 -4 8 -1 15 5 15 6 0 11 -5 11 -11 0 -6 7 -9 15 -6 8 4 17 1 21 -5 4 -7 9
-6 15 3 6 10 9 8 9 -8 0 -30 20 -40 36 -19 10 14 16 15 33 6 18 -9 21 -8 21
12 0 14 3 18 8 12 10 -16 39 -19 90 -10 26 5 42 13 42 22 0 8 5 14 10 14 16 0
12 -19 -9 -41 -14 -15 -29 -20 -52 -17 -27 2 -34 -1 -37 -17 -3 -16 -1 -17 7
-5 9 13 11 13 11 -2 0 -12 -8 -18 -24 -18 -18 0 -34 -13 -57 -45 -18 -25 -36
-45 -41 -45 -5 0 -7 -4 -4 -8 3 -5 -4 -15 -15 -22 -10 -8 -19 -18 -19 -23 0
-13 -27 -37 -42 -37 -7 0 -5 -6 6 -12 15 -8 21 -8 24 0 5 15 29 15 38 0 4 -6
3 -8 -4 -4 -6 3 -17 0 -25 -8 -8 -8 -18 -12 -22 -8 -5 4 -5 -1 -2 -10 3 -10 2
-20 -4 -24 -7 -4 -6 -10 1 -19 9 -11 7 -12 -7 -9 -16 4 -18 -2 -18 -48 1 -72
-2 -77 -37 -73 -34 4 -58 21 -58 41 0 14 -17 19 -57 15 -24 -2 -31 13 -12 25
8 4 8 9 0 17 -6 6 -11 21 -11 32 0 34 -10 36 -49 13 l-36 -22 20 24 c13 15 16
24 8 27 -8 3 -9 13 -2 36 13 44 11 55 -5 34 -8 -11 -15 -14 -18 -7 -5 15 -38
1 -38 -16 0 -8 -6 -11 -15 -8 -8 4 -15 12 -15 19 0 7 -7 16 -16 19 -8 3 -13
10 -9 16 8 14 -14 52 -26 44 -7 -4 -6 -10 1 -19 8 -9 6 -14 -6 -19 -9 -3 -20
-4 -25 0 -12 7 -11 34 1 34 15 0 2 63 -15 72 -7 5 -11 17 -8 28 4 14 0 20 -11
20 -10 0 -16 -9 -16 -24 0 -15 -7 -26 -17 -29 -14 -4 -14 -5 3 -6 16 -1 22 -8
22 -25 0 -22 -2 -23 -16 -10 -8 9 -26 20 -39 25 -13 5 -23 17 -23 29 0 11 -4
20 -10 20 -5 0 -10 -5 -10 -10 0 -12 -50 -59 -63 -60 -5 0 -5 6 -1 13 6 10 4
10 -7 0 -19 -18 -69 -17 -69 2 0 18 20 20 20 3 1 -8 6 -5 15 6 9 12 11 25 5
41 -6 17 -4 27 8 38 9 8 22 13 27 11 6 -3 11 5 12 16 2 24 -1 25 -22 4 -11
-12 -25 -14 -50 -10 l-34 7 32 29 c17 15 29 31 26 35 -4 3 -14 -1 -22 -10 -23
-22 -28 -19 -22 15 4 22 1 30 -9 30 -17 0 -29 -27 -16 -35 15 -9 1 -33 -23
-39 -20 -5 -21 -4 -4 8 16 13 24 36 11 36 -8 0 -54 -53 -54 -61 0 -10 28 -19
56 -19 13 0 24 -4 24 -10 0 -5 7 -10 15 -10 15 0 20 -12 9 -23 -4 -3 -15 4
-25 16 -16 20 -18 20 -19 4 0 -10 5 -15 10 -12 6 4 10 -8 10 -30 0 -32 -3 -36
-20 -30 -14 5 -20 2 -20 -9 0 -9 3 -16 8 -16 4 0 8 -11 8 -24 2 -22 -2 -24
-32 -21 -19 1 -36 -1 -39 -5 -11 -18 -74 8 -112 46 -17 16 -17 41 -1 46 10 4
8 9 -3 21 -9 9 -19 13 -23 10 -3 -4 -6 -2 -6 3 0 5 9 16 19 24 11 7 18 16 17
19 -2 3 0 15 5 26 6 17 8 17 8 3 1 -28 21 -21 21 7 0 29 12 32 31 9 10 -13 10
-19 0 -36 -12 -19 -11 -20 11 -15 12 4 27 7 31 7 5 0 6 8 2 19 -3 12 0 21 10
25 8 3 15 12 15 20 0 9 10 21 22 27 14 7 18 14 11 16 -9 3 -8 12 5 31 l17 27
-32 -23 c-17 -12 -36 -22 -42 -22 -6 0 -11 -4 -11 -10 0 -15 -17 -12 -23 4 -4
11 -1 13 10 9 12 -5 15 -2 10 10 -3 9 -2 17 2 17 5 0 11 6 14 14 4 10 0 12
-14 9 -21 -6 -28 22 -6 30 6 3 2 6 -11 6 -21 1 -23 4 -17 32 5 22 4 29 -4 25
-10 -6 -15 6 -12 26 0 4 -10 18 -23 31 -18 18 -27 22 -36 13 -9 -8 -11 -6 -9
9 2 11 1 25 -3 30 -4 6 8 10 29 9 36 -1 64 -26 43 -39 -12 -8 -13 -25 -1 -25
5 0 13 17 18 37 4 20 15 39 22 41 10 3 12 -1 9 -16 -5 -18 -3 -19 23 -10 16 5
29 12 29 15 0 3 -7 3 -15 -1 -8 -3 -15 -1 -15 3 0 13 30 22 51 16 26 -9 24
-29 -6 -45 -26 -14 -32 -39 -15 -56 12 -12 -4 -64 -23 -76 -7 -4 -7 -8 -2 -8
6 0 15 4 20 8 15 11 48 73 42 79 -10 9 15 63 29 63 8 0 14 5 14 10 0 6 -4 10
-8 10 -24 0 -4 31 30 46 44 20 120 93 114 110 -3 7 3 10 15 7 10 -3 19 -12 19
-19 0 -8 5 -14 11 -14 6 0 8 7 5 15 -3 10 1 18 12 21 9 3 24 9 32 14 9 4 39
11 68 15 29 4 52 10 52 13 0 4 11 7 24 7 13 0 23 -2 21 -5 -5 -8 33 -56 39
-49 3 3 -1 17 -9 32 -13 25 -12 27 11 33 13 3 21 10 18 15 -3 5 1 6 9 3 8 -3
18 -1 22 5 7 12 44 15 69 5z m249 -419 c4 3 3 0 -2 -6 -6 -8 -15 -8 -29 0 -14
7 -23 8 -27 1 -3 -5 3 -10 14 -10 25 0 37 -18 17 -26 -9 -3 -16 -10 -16 -15 0
-6 8 -5 19 1 33 17 46 11 72 -32 33 -58 40 -78 29 -78 -6 0 -10 7 -10 15 0 8
-5 15 -11 15 -6 0 -9 -6 -7 -12 3 -7 -2 -19 -9 -26 -11 -11 -17 -11 -28 -2
-12 10 -15 10 -15 0 0 -8 -3 -10 -7 -7 -3 4 2 16 12 27 9 10 15 26 12 34 -3 8
-1 17 6 20 9 5 9 7 0 12 -7 3 -13 12 -13 20 0 17 -20 19 -21 2 -1 -7 -2 -17
-4 -23 -1 -5 -3 -19 -4 -30 -2 -17 -4 -16 -12 7 -7 17 -17 26 -29 25 -23 -1
-36 -43 -19 -63 16 -19 1 -18 -18 1 -11 12 -12 19 -4 29 12 15 5 46 -11 46 -6
0 -5 -7 2 -15 14 -17 8 -31 -9 -20 -15 9 -14 42 2 49 6 2 1 4 -13 3 -17 -1
-25 4 -27 18 -1 11 0 14 3 8 9 -20 24 -15 24 8 0 12 5 19 13 16 6 -2 19 4 27
13 24 26 43 29 66 9 11 -11 24 -17 27 -14z m-1099 -339 c9 3 16 2 16 -4 0 -5
8 -12 18 -16 9 -3 35 -17 56 -30 22 -13 45 -22 52 -19 16 6 28 -15 31 -54 2
-36 -7 -42 -27 -18 -10 12 -10 19 -2 27 7 7 12 16 12 22 0 5 -9 0 -20 -12 -23
-25 -36 -28 -43 -9 -2 7 -8 8 -13 3 -5 -5 -4 -11 4 -13 18 -7 15 -16 -9 -32
-19 -11 -21 -11 -16 3 4 10 1 16 -9 16 -8 0 -13 4 -9 9 3 5 -4 12 -15 16 -18
6 -25 28 -20 64 1 9 -4 12 -15 8 -11 -5 -19 1 -25 19 -13 34 -13 39 4 25 7 -6
21 -9 30 -5z m342 -93 c-3 -10 -1 -25 4 -33 9 -13 13 -12 28 5 20 23 67 22 58
-1 -3 -8 0 -13 7 -11 7 1 12 -4 11 -10 -1 -7 -2 -20 -2 -28 -1 -8 -17 -17 -38
-21 -32 -6 -35 -9 -29 -31 3 -14 3 -33 0 -44 -8 -24 -35 -25 -35 -1 0 15 2 15
11 2 9 -13 10 -13 6 0 -2 8 -10 15 -18 16 -38 3 -41 5 -36 25 5 20 5 20 -14 3
-19 -17 -19 -17 -17 6 2 12 -3 25 -11 28 -10 3 -12 -2 -7 -22 4 -15 2 -26 -4
-26 -5 0 -10 -4 -10 -10 0 -5 13 -7 29 -4 24 5 29 2 35 -20 3 -14 13 -26 22
-26 11 0 14 -6 8 -22 -10 -34 -11 -34 -42 -1 -16 16 -34 27 -42 25 -7 -3 -10
0 -6 6 4 6 -2 20 -14 32 -24 24 -26 45 -4 36 9 -3 12 -2 9 4 -4 6 3 22 14 36
12 15 21 37 21 50 0 15 6 24 16 24 8 0 22 7 30 15 20 20 27 19 20 -2z m366
-102 c-5 -3 -12 -18 -16 -34 -11 -45 -87 -130 -109 -121 -14 5 -32 -22 -51
-79 -5 -16 -7 -16 -34 0 -69 43 -104 81 -62 68 11 -4 20 -2 20 4 0 6 18 27 40
47 42 39 51 58 23 47 -11 -4 -14 -3 -9 5 4 7 19 9 36 5 17 -3 36 0 43 6 8 6
16 8 19 5 3 -3 15 8 26 24 15 21 29 29 52 29 17 0 27 -3 22 -6z m-507 -221 c7
-22 20 -21 98 5 20 7 37 9 37 5 0 -5 -16 -14 -35 -20 -19 -6 -33 -16 -29 -21
3 -5 10 -7 15 -4 5 3 29 -10 55 -29 25 -19 51 -37 57 -39 8 -3 9 -8 1 -16 -6
-7 -8 -33 -4 -66 5 -44 3 -55 -8 -55 -9 0 -13 -7 -10 -18 3 -12 -2 -24 -13
-31 -15 -9 -19 -8 -19 1 0 7 -9 0 -19 -15 -10 -16 -20 -24 -22 -19 -2 6 -17
13 -34 16 -22 5 -25 4 -10 -2 19 -9 19 -9 -2 -20 -36 -19 -62 -15 -56 8 4 16
2 19 -13 14 -18 -5 -18 -5 -1 6 9 6 17 17 17 24 0 8 10 20 22 28 18 12 20 18
11 29 -15 19 -23 129 -9 129 6 0 -1 10 -16 21 -16 11 -28 29 -28 39 0 10 -4
22 -10 25 -15 9 -12 25 4 25 8 0 18 -9 21 -20z"/>
<path d="M4910 3661 c0 -13 -72 -29 -107 -24 -48 7 -142 -16 -153 -37 -5 -10
-20 -22 -32 -26 -12 -3 -36 -19 -52 -35 -17 -16 -33 -29 -36 -29 -3 0 -11 -4
-19 -9 -12 -8 -12 -12 3 -26 12 -13 34 -17 81 -18 36 0 65 -3 65 -6 0 -4 8 -7
19 -8 13 -1 17 3 14 16 -3 13 6 24 31 39 20 12 36 28 36 36 0 10 6 13 15 9 9
-3 23 1 33 9 9 8 34 23 56 33 21 11 40 26 43 33 3 6 14 12 24 12 23 0 25 25 3
34 -21 8 -24 8 -24 -3z"/>
</g>
</svg>
