<?xml version="1.0" standalone="no"?>
<!DOCTYPE svg PUBLIC "-//W3C//DTD SVG 20010904//EN"
 "http://www.w3.org/TR/2001/REC-SVG-20010904/DTD/svg10.dtd">
<svg version="1.0" xmlns="http://www.w3.org/2000/svg"
 width="300.000000pt" height="300.000000pt" viewBox="0 0 300.000000 300.000000"
 preserveAspectRatio="xMidYMid meet">
<metadata>
Created by potrace 1.16, written by Peter Selinger 2001-2019
</metadata>
<g transform="translate(0.000000,300.000000) scale(0.100000,-0.100000)"
fill="#000000" stroke="none">
<path d="M1595 2813 c-139 -29 -275 -101 -380 -202 -133 -127 -118 -275 50
-495 l27 -36 -60 0 c-87 0 -156 17 -188 47 -26 24 -27 26 -21 114 8 108 -1
135 -50 155 -38 16 -39 16 -261 -2 -76 -6 -86 -5 -113 15 l-29 22 0 -41 c0
-100 65 -154 265 -220 113 -38 161 -73 147 -110 -4 -12 -36 -50 -70 -84 -42
-43 -62 -72 -62 -88 0 -25 17 -48 34 -48 6 0 3 5 -6 11 -35 20 -21 55 47 121
35 35 67 75 71 90 10 45 -34 79 -151 118 -55 18 -118 42 -140 52 -71 35 -125
99 -125 148 0 21 14 27 24 11 12 -19 83 -21 161 -6 100 19 156 19 200 0 46
-19 57 -49 46 -128 -12 -82 -5 -112 30 -142 40 -33 89 -45 184 -45 l81 0 39
-41 40 -40 -37 15 c-43 18 -130 21 -159 6 -23 -13 -25 -43 -4 -60 18 -15 20 1
3 19 -11 10 -9 15 6 27 39 28 150 10 192 -31 16 -16 24 -19 26 -10 2 10 14 5
38 -15 l35 -29 -125 -1 c-253 -1 -328 -27 -377 -128 0 -2 -27 -10 -60 -17 -56
-13 -59 -13 -75 8 -11 14 -26 21 -50 20 -36 -1 -226 -59 -245 -75 -18 -15 -16
-74 3 -92 18 -19 42 -20 79 -6 22 8 26 8 22 -4 -3 -8 2 -52 11 -99 14 -67 24
-92 50 -121 18 -20 32 -42 32 -48 0 -23 80 -147 131 -202 28 -30 73 -72 100
-92 l49 -36 -49 -91 c-28 -51 -56 -91 -63 -90 -7 1 -27 7 -45 14 -44 18 -105
-1 -134 -43 -51 -71 -31 -219 35 -259 93 -57 186 21 186 157 0 60 1 62 76 162
74 100 91 115 98 90 28 -106 30 -89 -49 -409 -57 -233 -79 -307 -97 -326 -28
-30 -33 -119 -7 -136 50 -32 107 38 94 114 -5 31 9 88 85 321 58 181 97 287
108 293 9 6 36 29 60 53 33 34 47 41 66 36 56 -14 258 26 356 70 11 5 45 -29
126 -126 60 -73 125 -152 143 -176 l33 -43 -12 -64 c-20 -104 7 -197 65 -223
99 -45 196 52 203 203 4 88 -16 132 -72 159 -34 17 -45 18 -80 7 -23 -6 -47
-13 -55 -14 -13 -2 -210 324 -211 350 0 6 18 27 40 46 41 35 134 145 143 169
3 9 11 4 26 -14 33 -41 84 -38 142 5 24 19 86 61 136 95 98 66 116 91 95 137
-14 29 -53 41 -96 29 -17 -5 -64 -8 -105 -6 l-74 3 7 54 c5 48 3 57 -20 85
-15 17 -40 38 -58 47 l-31 16 61 13 c84 17 139 47 168 92 66 101 95 326 61
478 -23 105 -80 225 -143 300 -31 38 -53 76 -57 98 -16 81 -77 122 -171 113
-39 -4 -89 -1 -131 8 -86 18 -198 18 -288 -2z m300 -18 c212 -54 381 -217 456
-440 21 -61 24 -89 24 -215 0 -285 -67 -387 -261 -398 -97 -5 -154 9 -154 39
0 49 -39 88 -120 121 -48 19 -74 22 -196 23 l-142 0 -43 32 c-61 45 -123 102
-118 107 11 12 266 39 364 39 93 1 118 -2 160 -22 59 -26 92 -55 112 -96 l14
-30 -6 30 c-9 41 -48 79 -109 106 -44 20 -67 23 -171 23 -66 0 -178 -8 -249
-18 -149 -20 -137 -24 -212 80 -98 137 -125 259 -77 350 34 65 171 172 281
221 138 61 319 80 447 48z m-82 -905 c37 -11 79 -33 96 -49 28 -26 31 -35 31
-88 0 -68 -15 -131 -38 -157 -52 -57 -193 -84 -277 -51 -50 19 -74 52 -76 107
-1 23 -3 26 -6 11 -3 -14 -13 -25 -26 -27 -48 -9 -137 -26 -238 -47 -130 -27
-189 -21 -229 21 -52 56 -64 167 -23 213 10 11 38 29 63 40 39 18 76 22 258
28 118 4 216 10 219 13 15 15 184 5 246 -14z m-823 -204 c0 -26 -12 -32 -193
-94 -67 -23 -79 -25 -87 -12 -5 8 -10 20 -10 26 0 10 246 102 278 103 6 1 12
-10 12 -23z m1120 -1 c67 -34 83 -61 74 -121 -4 -30 -15 -55 -28 -65 -19 -16
-19 -20 -8 -40 23 -37 -4 -53 -95 -53 -74 -1 -78 -2 -81 -24 -2 -14 4 -29 13
-36 15 -11 9 -15 -46 -30 -136 -36 -228 -48 -437 -53 -302 -8 -531 22 -683 90
-103 46 -123 78 -144 232 -5 39 -5 39 8 13 40 -86 163 -139 412 -180 128 -21
563 -17 700 6 238 39 375 104 375 177 0 51 -19 51 -108 4 -73 -39 -85 -43
-112 -33 -17 5 -30 13 -30 16 1 17 39 52 78 71 23 12 42 28 42 36 0 21 13 19
70 -10z m-665 -83 c-6 -5 -90 -43 -188 -86 l-177 -77 -63 11 c-34 7 -68 15
-75 19 -22 12 173 78 268 90 47 7 117 20 155 30 82 22 93 24 80 13z m125 -43
c17 -17 30 -32 28 -33 -2 -1 -53 -25 -115 -54 -106 -49 -117 -52 -190 -51
-133 1 -128 7 65 91 97 43 178 77 179 78 1 0 16 -14 33 -31z m374 2 c16 -6 0
-19 -85 -65 -112 -62 -166 -76 -299 -75 l-65 1 85 40 c60 29 104 43 150 48 37
4 90 18 120 32 61 29 66 30 94 19z m504 -73 c7 -7 12 -22 12 -34 0 -24 -23
-44 -148 -129 -40 -28 -80 -55 -90 -62 -16 -11 -17 -9 -14 26 3 34 0 42 -27
62 l-31 22 78 45 c141 81 192 98 220 70z m-1563 -176 c165 -55 262 -66 545
-66 268 0 365 10 518 55 96 29 105 30 121 20 11 -7 5 -23 -33 -80 -105 -157
-283 -273 -475 -307 -96 -17 -156 -17 -251 0 -205 37 -387 159 -496 332 -46
74 -52 89 -31 80 6 -2 53 -18 102 -34z m1089 -457 c58 -101 106 -189 106 -194
0 -26 -20 -15 -54 30 -21 28 -82 104 -137 169 -54 65 -99 122 -99 127 0 6 63
49 77 53 1 0 49 -83 107 -185z m-1080 -28 c23 -17 14 -49 -19 -71 -19 -13 -25
-25 -25 -55 0 -73 42 -78 66 -8 6 18 15 30 20 27 13 -7 8 -74 -10 -107 -14
-27 -31 -33 -78 -24 -4 0 -15 15 -24 33 -25 47 -16 154 15 179 13 11 27 16 32
13 5 -3 9 0 9 6 0 20 -42 6 -62 -21 -11 -14 -21 -49 -24 -80 -7 -72 26 -141
71 -150 l30 -6 -28 -11 c-73 -30 -147 46 -147 150 0 44 30 107 59 123 33 18
92 19 115 2z m329 -4 c10 -3 16 -11 14 -17 -2 -6 -44 -132 -92 -281 -48 -148
-91 -274 -96 -279 -25 -27 -16 28 51 299 62 257 74 295 88 290 10 -4 25 -10
35 -12z m1032 -147 c55 -55 54 -174 -3 -266 -51 -83 -127 -88 -179 -11 -49 73
-16 247 55 286 43 23 99 19 127 -9z"/>
<path d="M1291 2601 c-58 -20 -115 -71 -126 -111 -6 -23 -5 -22 13 5 58 91
177 128 339 105 127 -17 189 -36 308 -95 348 -170 576 -524 444 -687 -24 -30
-27 -37 -11 -29 64 34 83 164 39 271 -76 185 -298 393 -516 485 -115 49 -194
66 -321 71 -96 4 -124 2 -169 -15z"/>
<path d="M1440 1859 c-14 -6 -37 -21 -51 -35 -27 -25 -27 -25 -80 -10 -54 16
-116 19 -157 8 -43 -13 -22 -24 47 -27 52 -1 83 -9 126 -29 31 -16 54 -31 51
-34 -10 -10 -140 -31 -191 -31 -95 -1 -169 53 -142 104 9 18 9 19 -6 6 -42
-34 9 -102 91 -120 52 -11 100 -6 296 29 150 27 161 27 176 -10 15 -37 30 -46
91 -55 75 -11 153 10 199 54 22 21 40 46 40 56 0 13 -7 8 -23 -16 -33 -50 -97
-79 -174 -79 -76 0 -109 14 -122 51 -9 27 -14 29 -59 29 -27 0 -73 -5 -102
-10 -29 -6 -55 -8 -57 -6 -2 2 2 19 10 38 13 32 35 54 83 85 18 11 18 12 -1
12 -11 0 -31 -5 -45 -10z"/>
<path d="M495 2604 c-33 -9 -75 -13 -92 -10 -40 6 -42 -5 -7 -33 32 -25 75
-37 169 -46 73 -7 102 -18 122 -44 11 -14 16 -12 43 17 36 39 38 61 8 90 -49
45 -130 53 -243 26z m201 -14 c46 -23 59 -42 45 -69 -21 -38 -38 -44 -68 -23
-19 14 -57 24 -120 31 -51 5 -107 18 -125 27 l-33 18 85 17 c117 23 166 23
216 -1z"/>
<path d="M2370 70 l0 -70 315 0 315 0 0 70 0 70 -315 0 -315 0 0 -70z"/>
</g>
</svg>
