<?xml version="1.0" standalone="no"?>
<!DOCTYPE svg PUBLIC "-//W3C//DTD SVG 20010904//EN"
 "http://www.w3.org/TR/2001/REC-SVG-20010904/DTD/svg10.dtd">
<svg version="1.0" xmlns="http://www.w3.org/2000/svg"
 width="850.000000pt" height="549.000000pt" viewBox="0 0 850.000000 549.000000"
 preserveAspectRatio="xMidYMid meet">
<metadata>
Created by potrace 1.16, written by Peter Selinger 2001-2019
</metadata>
<g transform="translate(0.000000,549.000000) scale(0.100000,-0.100000)"
fill="#000000" stroke="none">
<path d="M1 2745 l0 -2745 4250 0 4249 0 0 2745 0 2745 -4250 0 -4249 0 0
-2745z m4509 2100 c81 -5 93 -7 130 -22 13 -5 41 -9 63 -7 26 2 36 0 31 -8 -5
-7 -1 -8 12 0 12 7 26 7 43 0 15 -6 44 -12 66 -14 49 -4 67 -7 82 -17 12 -7
107 -21 133 -18 53 4 97 -1 148 -18 31 -11 84 -25 117 -31 69 -14 102 -22 199
-48 55 -15 77 -17 105 -9 42 12 465 15 563 5 37 -4 82 -14 100 -21 18 -8 49
-17 69 -21 44 -8 63 -28 54 -55 -7 -24 -23 -29 -100 -32 -33 -1 -71 -6 -85
-10 -14 -4 -45 -12 -69 -19 -37 -10 -42 -14 -28 -22 10 -5 48 -12 85 -14 92
-6 92 -6 86 -16 -3 -4 -1 -8 5 -8 6 0 8 -8 5 -17 -5 -17 -5 -17 6 0 14 22 37
22 49 -2 12 -22 -4 -47 -34 -54 -15 -3 -13 -5 8 -6 115 -5 375 -111 475 -194
51 -42 58 -45 134 -51 92 -8 135 -26 149 -64 11 -29 12 -32 53 -267 39 -218
66 -349 77 -360 5 -5 9 -27 9 -50 0 -22 4 -65 10 -95 5 -30 18 -107 29 -170
11 -63 36 -205 56 -315 19 -110 44 -256 55 -325 11 -69 26 -154 35 -190 8 -36
31 -162 51 -280 20 -118 48 -287 64 -375 67 -382 92 -524 101 -580 5 -33 12
-72 15 -86 5 -25 5 -25 -58 -23 l-63 2 57 -6 c31 -4 61 -12 67 -17 5 -6 11
-30 14 -55 2 -25 15 -100 27 -166 22 -117 22 -202 0 -189 -5 3 -12 -1 -17 -8
-4 -8 -20 -16 -35 -19 -15 -3 -25 -1 -22 3 3 5 12 9 21 9 9 0 14 2 11 5 -10
10 -68 -7 -61 -19 3 -6 -4 -2 -17 9 -13 11 -20 15 -17 8 5 -8 0 -11 -13 -10
-11 1 -20 6 -20 12 0 5 -4 4 -9 -4 -6 -9 -11 -10 -15 -2 -4 6 -13 8 -19 4 -6
-4 -54 -6 -107 -5 -67 2 -91 0 -80 -8 8 -5 10 -10 4 -10 -6 0 -14 3 -18 7 -8
8 -321 8 -334 -1 -4 -3 -20 1 -35 9 -16 8 -29 10 -32 4 -4 -5 0 -9 7 -10 11 0
11 -2 0 -6 -7 -3 -23 3 -34 13 -12 11 -18 14 -15 8 9 -16 -54 -25 -72 -10 -11
8 -13 8 -8 -1 5 -8 -61 -11 -256 -13 -418 -2 -658 -7 -709 -15 -28 -4 -48 -3
-48 2 0 5 -26 10 -57 10 -32 0 -73 1 -92 2 -18 1 -38 -3 -45 -8 -6 -5 -30 -10
-53 -13 -33 -3 -39 -1 -31 10 11 13 12 13 -39 -4 -27 -8 -166 -11 -146 -2 10
4 -20 5 -67 1 -47 -3 -103 -5 -125 -5 -215 2 -348 2 -785 1 -278 0 -536 2
-575 5 -98 8 -700 13 -645 5 42 -6 41 -6 -21 -7 -40 -1 -70 3 -78 11 -11 10
-12 9 -6 -2 7 -12 -2 -13 -53 -7 -34 4 -70 3 -79 -2 -10 -5 -27 -6 -38 -1 -17
6 -16 8 9 8 16 1 27 4 23 7 -3 4 -32 3 -63 -1 -39 -5 -53 -10 -43 -16 8 -5 9
-9 3 -9 -5 0 -16 6 -23 13 -8 6 -11 7 -8 2 6 -12 -159 -9 -257 4 -43 6 -63 5
-68 -3 -7 -10 -12 -2 -10 15 1 3 -11 4 -26 1 -24 -5 -25 -6 -7 -13 16 -6 17
-8 3 -8 -9 -1 -19 3 -22 8 -3 5 -38 7 -76 6 -39 -2 -68 0 -65 5 3 5 -7 7 -22
4 -36 -7 -43 -14 -13 -14 13 0 21 -3 17 -6 -9 -9 -57 5 -57 16 0 6 8 10 18 11
9 0 12 3 6 5 -6 3 -22 0 -35 -5 -13 -5 -17 -10 -9 -11 13 0 13 -1 0 -10 -20
-13 -33 -13 -25 0 3 5 1 10 -4 10 -6 0 -11 -4 -11 -10 0 -12 -103 -2 -111 12
-3 5 -19 6 -35 3 -22 -5 -25 -4 -14 4 19 14 60 14 60 1 0 -5 5 -10 11 -10 5 0
8 4 4 9 -3 5 3 11 12 14 10 2 2 4 -19 4 -20 1 -49 3 -65 5 -15 3 -23 3 -16 1
19 -7 -18 -43 -44 -43 -12 0 -24 4 -27 8 -3 5 9 7 27 5 l32 -2 -35 9 c-37 9
-167 23 -137 14 9 -3 17 -10 17 -15 0 -5 5 -9 11 -9 5 0 7 5 4 10 -3 6 -2 10
4 10 5 0 12 -4 15 -9 3 -5 16 -7 29 -5 20 4 20 4 2 -5 -11 -5 -56 -7 -100 -4
-142 8 -253 8 -242 1 8 -5 6 -8 -5 -8 -10 0 -18 4 -18 9 0 4 -22 8 -50 7 -27
-1 -50 -5 -50 -9 0 -5 -6 -5 -12 0 -14 8 -27 9 -123 12 -44 2 -55 5 -40 11 14
6 15 9 5 10 -10 1 -9 4 5 10 17 6 13 9 -20 15 -64 11 -73 16 -50 26 19 8 19 9
1 6 -12 -1 -20 -11 -21 -25 -2 -20 2 -23 24 -18 22 5 23 5 8 -5 -20 -12 -52
-5 -43 10 3 5 -3 7 -13 4 -18 -5 -19 0 -17 64 2 37 4 75 5 84 1 14 8 15 54 7
28 -6 71 -8 95 -5 37 4 40 3 25 -8 -17 -13 -17 -14 1 -21 30 -12 126 -6 126 7
0 5 5 9 11 9 5 0 7 -6 4 -12 -4 -7 -1 -6 7 2 9 11 26 15 53 13 22 -2 153 -4
291 -6 185 -1 250 1 247 9 -2 7 -14 10 -26 8 -19 -4 -20 -3 -3 4 23 10 78 3
70 -9 -3 -5 -10 -6 -16 -3 -7 4 -8 2 -4 -4 4 -7 15 -8 30 -2 16 6 28 5 36 -3
10 -10 10 -8 3 8 -6 11 -8 25 -6 32 3 9 -4 10 -29 2 -18 -5 -33 -9 -34 -9 0 0
-1 6 -1 14 0 10 14 15 43 18 23 1 42 1 42 -2 -1 -21 4 -30 15 -25 6 4 4 0 -7
-9 -18 -14 -17 -15 8 -22 15 -3 30 -4 33 0 4 3 -5 6 -18 7 l-24 0 23 9 c28 12
28 27 -1 33 -16 3 -13 5 11 6 17 0 32 -3 32 -9 0 -5 8 -10 18 -10 11 0 13 3 5
8 -7 4 7 7 30 7 23 0 55 4 70 8 18 5 26 4 23 -2 -3 -5 0 -12 6 -15 7 -3 1 -4
-15 -2 -15 2 -30 -1 -33 -5 -3 -5 -19 -7 -37 -4 -17 4 -28 3 -24 -2 5 -4 39
-8 77 -8 53 0 66 3 58 13 -12 14 0 16 27 6 13 -5 14 -8 3 -15 -9 -6 -5 -9 13
-9 14 0 31 6 38 13 11 10 12 9 6 -1 -6 -11 -3 -12 11 -4 11 6 24 12 29 14 6 1
9 7 7 11 -1 5 2 6 8 2 19 -12 190 -13 183 -1 -4 6 2 4 12 -4 11 -9 16 -10 11
-2 -4 7 -1 12 9 12 9 0 14 -4 11 -8 -3 -5 13 -7 35 -5 24 2 49 -3 64 -13 16
-11 25 -12 25 -5 0 8 11 10 33 6 58 -11 316 -11 309 0 -3 5 1 4 10 -3 8 -7 24
-9 33 -5 10 3 16 2 13 -3 -4 -5 81 -9 210 -8 120 0 186 -2 147 -5 l-70 -6 64
-7 c92 -11 210 -10 191 2 -26 16 -3 22 41 9 51 -14 123 -13 127 1 2 6 8 10 13
10 6 0 8 -4 5 -9 -9 -13 31 -20 43 -8 8 8 11 8 11 -1 0 -10 3 -10 14 0 12 11
11 14 -8 20 -17 5 -14 6 12 7 20 1 31 -3 27 -9 -9 -14 55 -10 74 4 11 8 13 8
7 -1 -4 -7 -3 -13 3 -13 5 0 13 5 16 10 4 6 37 8 85 5 48 -3 81 -2 85 5 4 6
-7 10 -27 11 -107 2 -167 1 -177 -5 -6 -4 -11 -3 -11 3 0 6 -8 8 -17 5 -10 -3
-7 2 7 10 30 18 30 18 -42 7 -32 -6 -69 -6 -85 -1 -15 4 -21 9 -13 9 13 1 13
3 0 12 -12 9 -11 10 5 4 29 -10 125 -15 125 -7 0 4 12 8 26 8 18 2 24 -2 20
-13 -5 -11 1 -13 27 -9 17 2 32 5 32 6 0 8 90 11 265 8 96 -2 107 -4 128 -26
12 -12 22 -18 22 -13 0 6 12 11 27 11 36 0 25 9 -16 12 -32 2 -56 18 -28 18
48 0 106 -14 100 -24 -4 -6 1 -5 10 2 9 8 21 11 26 7 17 -10 133 -7 144 4 6 6
17 7 26 2 9 -5 63 -12 121 -16 58 -4 119 -9 137 -10 28 -3 30 -1 19 11 -10 9
-35 13 -79 11 -36 -1 -63 1 -60 6 2 4 16 8 31 8 l27 1 -30 8 -30 7 33 8 c24 6
30 10 20 16 -8 6 -1 9 22 8 29 0 31 -2 15 -9 -17 -7 -14 -9 15 -10 19 -1 45
-3 58 -6 26 -5 30 12 5 19 -10 2 -2 3 17 1 19 -2 62 -4 95 -5 50 -1 55 -3 30
-10 -17 -4 23 -6 95 -2 69 3 128 7 133 10 4 2 7 -1 7 -8 0 -8 5 -7 17 2 9 8
14 9 10 3 -11 -19 117 -57 178 -52 30 3 52 2 50 -2 -2 -4 1 -7 8 -7 7 0 21 -4
32 -7 13 -5 12 -2 -5 8 l-25 15 32 1 c17 0 34 4 37 9 7 10 100 2 104 -10 2 -5
11 -10 20 -11 10 -1 -19 -5 -63 -8 -72 -6 -68 -7 52 -7 73 -1 145 2 160 7 22
6 11 9 -47 10 -80 2 -143 17 -85 21 17 1 39 3 50 4 11 1 31 3 45 4 l25 3 -25
7 c-14 4 24 7 85 8 61 0 101 -2 90 -4 -32 -8 -39 -21 -8 -16 19 3 24 2 15 -5
-11 -7 -10 -11 5 -17 10 -4 26 -9 35 -10 10 -1 26 -8 35 -16 13 -10 33 -13 73
-8 l55 6 -56 1 c-40 2 -56 6 -56 16 0 11 32 13 171 9 118 -2 166 -1 156 7 -10
7 12 8 75 4 50 -3 97 -5 105 -6 8 0 37 -4 64 -9 28 -5 54 -5 60 0 6 5 94 10
196 13 102 2 169 2 150 0 -19 -2 -39 -9 -45 -16 -5 -7 -17 -15 -25 -19 -8 -3
3 -5 25 -5 22 0 34 2 28 5 -24 9 -13 24 15 21 15 -2 25 -7 24 -12 -2 -5 2 -13
10 -17 18 -12 61 -11 53 1 -3 6 4 10 17 11 13 0 18 3 11 6 -9 3 -7 10 6 24 11
12 16 29 13 44 -3 17 0 25 9 26 8 0 5 4 -6 10 -14 6 -4 8 35 4 49 -4 51 -3 20
6 -19 5 -41 11 -49 13 -8 1 -18 12 -22 24 -7 17 -5 22 9 22 16 1 16 1 0 11
-26 15 -22 29 10 30 l27 2 -28 4 c-34 5 -33 3 -52 128 -8 55 -18 114 -21 130
-6 32 -8 44 -20 118 -5 37 -4 51 7 58 11 7 11 9 -3 9 -10 0 -18 11 -22 27 -5
31 -19 112 -21 128 -2 17 -17 109 -22 130 -2 11 -9 52 -14 90 -6 39 -15 78
-20 88 -5 10 -8 21 -5 25 2 4 0 30 -6 57 -5 28 -13 73 -18 100 -4 28 -13 79
-20 115 -16 93 -18 104 -35 210 -8 52 -22 138 -30 190 -27 161 -55 341 -70
435 -8 50 -21 126 -30 170 -32 165 -45 241 -45 277 0 20 -4 39 -9 42 -4 3 -11
27 -14 53 -10 69 -12 82 -20 89 -4 4 -7 1 -7 -7 0 -8 -17 -48 -37 -89 -20 -41
-35 -81 -34 -89 1 -8 -2 -10 -10 -5 -8 4 -10 3 -5 -4 4 -7 14 -12 21 -12 18 0
31 -25 40 -77 5 -35 4 -43 -14 -52 -15 -8 -23 -7 -35 4 -8 8 -16 15 -18 15 -5
0 -1 -84 5 -106 3 -10 9 -48 12 -84 3 -36 10 -81 15 -100 5 -19 11 -57 14 -85
2 -27 8 -70 14 -95 22 -98 24 -138 5 -149 -17 -10 -17 -10 -1 -11 10 0 20 -10
24 -24 4 -17 11 -22 25 -19 22 6 25 19 5 26 -16 7 -15 53 2 85 11 18 10 22 -2
22 -10 0 -12 7 -8 22 3 14 2 19 -6 14 -7 -4 -12 -1 -12 8 0 42 54 19 56 -24 1
-14 -4 -28 -10 -32 -8 -6 -7 -10 2 -16 18 -12 42 -110 28 -116 -6 -2 -3 -5 7
-5 9 -1 18 -4 18 -8 1 -5 3 -18 4 -29 1 -12 5 -26 9 -32 8 -14 -25 -32 -64
-35 -31 -2 -34 -5 -24 -31 6 -16 25 -23 23 -8 -4 22 4 28 31 24 17 -2 30 -7
31 -11 1 -8 5 -26 23 -91 19 -70 26 -140 14 -140 -5 0 -3 -6 4 -14 8 -7 15
-35 17 -61 1 -27 6 -56 12 -66 6 -11 5 -20 -1 -24 -7 -4 -6 -13 1 -27 6 -11 9
-29 6 -39 -3 -10 -1 -19 3 -19 5 0 7 -15 6 -32 -1 -18 2 -38 7 -45 4 -6 3 -14
-2 -18 -7 -4 -6 -17 4 -41 7 -18 12 -34 9 -34 -3 0 1 -10 7 -22 7 -13 14 -48
15 -78 1 -30 3 -55 4 -55 1 0 4 -12 6 -27 2 -19 -2 -28 -12 -28 -8 0 -14 -5
-14 -11 0 -6 7 -9 15 -5 9 3 16 -1 16 -9 4 -41 19 -75 34 -75 15 0 30 -18 22
-26 -3 -3 -14 -1 -26 5 -16 9 -22 8 -29 -6 -5 -10 -7 -24 -5 -31 3 -7 -3 -23
-13 -35 -10 -12 -12 -16 -4 -10 21 19 59 17 56 -3 -1 -9 -10 -20 -19 -26 -9
-5 -17 -14 -17 -20 0 -7 5 -6 15 2 8 6 20 8 27 4 8 -5 0 -12 -23 -19 -35 -13
-49 -11 -49 6 0 6 5 7 10 4 6 -3 10 1 10 9 0 9 -6 16 -14 16 -10 0 -13 8 -10
24 3 16 -2 26 -13 30 -15 6 -15 8 -3 16 12 7 12 12 3 21 -10 10 -9 15 5 26 12
11 14 16 5 19 -7 3 -13 12 -13 20 0 8 -5 14 -11 14 -6 0 -9 7 -6 15 4 8 1 17
-4 21 -6 3 -8 17 -5 30 4 14 2 24 -4 24 -6 0 -9 4 -5 9 3 5 0 13 -5 16 -11 7
-9 -82 2 -101 3 -5 9 -29 12 -54 4 -25 9 -57 12 -72 5 -23 2 -26 -15 -21 -11
3 -22 12 -25 20 -5 11 -2 13 10 9 9 -3 14 -1 12 5 -2 6 -7 10 -11 10 -4 -1
-17 -1 -29 -1 -17 0 -19 -3 -9 -9 8 -5 11 -16 7 -28 -9 -28 16 -48 42 -34 22
12 32 -2 32 -44 0 -18 -6 -25 -27 -28 -26 -4 -26 -4 5 -6 25 -1 32 -5 32 -21
0 -10 5 -42 11 -69 9 -45 12 -49 26 -36 8 8 18 13 23 10 5 -3 11 -1 15 5 6 10
-14 15 -44 11 -7 -2 -11 4 -8 11 2 7 11 12 18 10 9 -1 8 3 -3 11 -22 17 -23
33 -3 41 8 3 15 10 15 16 0 6 -8 4 -17 -6 -12 -12 -18 -13 -21 -4 -6 17 11 31
47 36 23 4 31 1 31 -10 0 -8 -8 -17 -17 -19 -13 -3 -11 -5 6 -6 17 -1 22 -5
17 -17 -4 -9 -1 -23 6 -32 10 -12 10 -16 1 -19 -16 -6 -17 -24 -1 -20 20 4 21
-33 1 -39 -10 -3 -30 -11 -45 -19 -24 -12 -27 -11 -31 3 -3 12 -5 11 -6 -5 0
-12 4 -25 9 -28 6 -3 10 -2 10 3 0 8 50 32 66 32 1 0 9 -13 18 -30 14 -29 14
-30 -10 -30 -25 0 -29 -7 -15 -29 6 -9 11 -10 15 -2 8 12 26 6 26 -9 0 -5 -7
-7 -15 -4 -8 4 -15 2 -15 -2 0 -5 -14 -10 -30 -11 -24 -2 -30 1 -28 15 2 9 7
20 12 23 17 13 -10 15 -34 3 -19 -10 -20 -14 -7 -14 15 0 22 -16 18 -47 -1 -6
4 -15 10 -19 8 -4 9 -3 5 4 -4 7 -1 12 8 12 9 0 16 6 16 13 0 6 8 0 18 -16 9
-15 22 -25 28 -23 17 6 35 -29 21 -43 -8 -8 -7 -11 4 -11 12 0 12 -2 -1 -10
-10 -6 -22 -4 -37 6 -14 9 -23 10 -23 4 0 -6 -5 -8 -10 -5 -15 9 -8 39 10 47
10 4 6 7 -12 7 -18 1 -28 -4 -28 -14 0 -21 -27 -25 -173 -29 -70 -2 -130 -6
-134 -10 -4 -3 66 -4 155 -2 153 4 162 3 162 -14 0 -23 -31 -29 -80 -17 -19 5
-77 6 -130 2 -149 -12 -162 -13 -780 -20 -322 -4 -582 -5 -579 -1 3 3 26 6 52
7 25 1 52 6 59 11 13 8 -105 2 -152 -9 -14 -3 -46 -5 -72 -4 -28 2 -48 -2 -48
-8 0 -6 -15 -5 -40 4 -35 12 -41 12 -48 -1 -8 -14 -11 -14 -27 3 -17 16 -18
16 -12 1 6 -16 0 -18 -43 -18 -28 0 -50 3 -50 8 0 4 -24 7 -53 8 -37 1 -46 -1
-32 -7 11 -5 -57 -6 -155 -3 -203 7 -188 7 -219 -2 -18 -5 -22 -4 -16 5 5 9 1
12 -11 11 -47 -5 -105 1 -99 10 8 12 -40 13 -63 1 -10 -5 -26 -5 -37 0 -18 9
-18 9 3 5 12 -2 22 0 22 5 0 9 -18 12 -60 10 -20 -2 -22 0 -10 8 8 6 10 11 4
11 -6 0 -14 -3 -18 -7 -3 -4 -30 -6 -59 -6 -45 1 -48 0 -17 -6 l35 -7 -45 -5
c-50 -6 -62 -3 -40 12 11 7 -3 9 -45 9 -67 0 -221 8 -247 13 -48 9 -21 16 53
13 46 -1 95 0 109 4 14 4 56 4 93 0 38 -3 71 -2 73 2 3 4 10 8 16 8 7 0 6 -6
-2 -15 -14 -17 -10 -18 45 -5 22 5 62 10 88 11 83 5 60 16 -25 13 -45 -1 -101
1 -125 5 -24 5 -40 5 -37 0 7 -12 1 -11 -31 5 -23 12 -24 15 -8 19 12 3 9 5
-10 6 -20 1 -26 -3 -21 -11 6 -10 5 -10 -7 -1 -8 7 -26 9 -40 6 -13 -3 -21 -3
-17 1 3 4 32 11 63 15 42 6 58 5 62 -4 3 -9 15 -10 46 -3 23 5 70 10 105 10
45 0 60 3 55 11 -5 9 -3 9 8 0 8 -6 31 -10 52 -9 20 1 37 -2 37 -5 0 -9 183 0
192 9 4 4 -48 7 -115 6 -67 -1 -131 3 -142 7 -20 8 -20 8 0 8 16 1 17 3 5 10
-8 6 -18 7 -22 5 -4 -3 -5 2 -1 11 3 9 9 13 12 8 6 -9 23 -9 86 1 39 5 39 5
15 -9 -25 -14 -25 -15 10 -9 19 3 58 10 85 14 85 15 235 24 345 21 189 -7 300
-6 300 1 0 13 -35 17 -150 16 -148 0 -300 8 -308 17 -4 4 4 6 18 4 14 -2 35 2
47 9 17 10 24 9 37 -3 8 -8 25 -15 38 -14 18 0 20 2 6 7 -10 4 29 7 85 7 118
0 187 7 187 18 0 7 -29 11 -70 7 -14 -1 -22 1 -19 4 3 3 32 8 64 11 63 7 87
15 42 15 -14 0 -28 4 -31 9 -8 13 31 20 43 8 7 -7 12 -5 17 6 3 9 9 15 13 13
3 -2 29 0 56 4 l50 7 -69 2 c-68 1 -86 9 -33 13 15 1 27 6 27 10 0 4 16 8 37
8 44 0 40 8 -5 12 -32 2 -46 18 -17 18 8 0 14 6 12 13 -2 12 8 13 71 4 40 -5
74 2 66 14 -3 5 -33 10 -67 10 -34 1 -53 4 -43 6 15 4 16 7 5 15 -9 6 6 8 46
5 44 -3 64 0 74 10 11 13 7 14 -33 10 -25 -3 -49 -1 -52 4 -3 5 -10 7 -15 4
-5 -4 -9 -2 -9 3 0 5 29 10 64 11 35 1 77 6 94 10 17 5 33 6 37 3 4 -4 11 -7
16 -7 5 0 9 -4 10 -10 0 -14 -43 -23 -63 -13 -9 4 -19 4 -22 -1 -6 -10 16 -22
52 -28 17 -3 22 0 16 9 -6 10 -5 10 7 2 10 -8 38 -8 98 -1 64 8 88 7 103 -2
11 -7 38 -11 60 -10 26 2 42 -2 48 -11 16 -25 11 -34 -9 -16 -13 12 -21 14
-26 6 -3 -5 -11 -7 -17 -4 -7 4 -8 2 -4 -4 4 -6 13 -9 21 -6 9 4 16 -3 21 -20
3 -14 11 -26 16 -26 6 0 6 -5 -1 -14 -11 -13 -49 -11 -61 3 -3 3 -18 13 -35
21 -35 19 -36 31 -4 47 19 10 20 13 6 13 -33 0 -56 -18 -50 -40 3 -13 0 -20
-8 -21 -8 0 -76 0 -151 -1 -76 0 -138 -3 -138 -7 0 -4 66 -6 148 -5 82 1 158
-3 172 -9 14 -6 28 -11 32 -11 3 -1 10 -5 14 -9 5 -5 -41 -6 -101 -3 -61 3
-135 2 -165 -3 -54 -8 -54 -9 -15 -11 22 -1 106 -2 188 0 129 2 147 0 147 -14
0 -17 -47 -21 -177 -17 -44 2 -63 -1 -63 -9 0 -9 14 -10 48 -6 l47 7 -24 -21
c-13 -11 -22 -20 -20 -21 50 -10 66 -5 48 17 -6 8 -10 14 -8 15 2 0 42 2 89 4
75 3 88 1 107 -17 19 -18 26 -19 45 -9 13 6 15 9 6 7 -27 -8 -21 9 7 22 14 6
33 8 42 5 16 -6 16 -5 4 10 -12 15 -11 17 8 17 16 0 23 -8 28 -30 4 -25 10
-30 34 -30 18 0 35 -9 49 -27 12 -16 27 -28 33 -28 7 -1 22 -6 35 -13 12 -7
22 -11 22 -9 0 8 -38 47 -46 47 -16 0 -35 53 -24 64 8 8 13 7 19 -2 6 -11 14
-8 34 12 33 33 81 39 85 11 3 -24 -48 -58 -72 -49 -23 9 -16 -25 12 -60 12
-16 19 -32 16 -37 -7 -12 -81 -11 -89 1 -4 6 -16 5 -33 -2 -15 -6 -41 -10 -58
-9 -17 1 -43 -3 -56 -8 -17 -6 -29 -6 -36 1 -6 6 -12 6 -16 -1 -7 -10 16 -17
39 -11 6 1 67 4 136 6 121 4 127 3 132 -17 7 -26 -12 -33 -65 -26 -24 3 -36 2
-29 -3 11 -6 10 -9 -5 -13 -27 -6 88 2 206 15 18 2 28 -4 38 -25 7 -15 17 -27
23 -27 14 0 11 16 -6 30 -8 7 -12 16 -9 21 8 14 52 11 57 -3 2 -7 8 -9 13 -5
5 5 1 13 -9 18 -9 6 -17 17 -17 24 0 24 -39 56 -63 53 -14 -2 -22 2 -22 12 0
18 -14 34 -37 42 -25 10 -41 44 -25 56 37 29 87 16 87 -22 0 -24 26 -54 37
-42 3 3 2 6 -4 6 -17 0 -22 50 -7 65 8 7 14 18 14 24 0 6 5 11 10 11 6 0 10
-6 9 -12 -1 -7 -1 -20 0 -28 1 -13 2 -13 11 0 8 12 10 12 10 1 0 -10 4 -11 13
-3 6 6 15 11 20 11 18 2 5 16 -18 19 -17 2 -29 12 -35 28 -5 13 -15 24 -21 24
-6 0 -9 7 -5 15 3 8 1 15 -4 15 -5 0 -7 6 -4 14 4 10 -5 13 -35 11 -38 -2 -42
1 -61 37 -25 49 -25 64 0 71 26 7 26 23 -1 30 -13 3 -19 12 -17 23 2 11 -4 20
-14 22 -13 2 -15 -2 -11 -20 3 -13 10 -28 15 -34 12 -16 -1 -44 -17 -38 -8 3
-15 15 -17 27 -2 15 -10 22 -27 22 -13 0 -26 7 -29 15 -5 13 -3 13 12 1 19
-16 31 -9 23 12 -6 16 -57 20 -57 5 0 -6 -7 -5 -15 2 -29 24 -36 -4 -9 -33 16
-18 20 -27 11 -27 -29 0 -50 37 -42 76 6 34 5 36 -15 31 -13 -3 -29 1 -40 11
-11 8 -29 17 -41 19 -12 2 -28 8 -36 14 -10 9 -13 5 -14 -17 0 -16 -3 -23 -6
-17 -2 7 -20 20 -40 29 -22 11 -30 20 -22 24 8 6 5 11 -10 19 -24 13 -29 51
-6 51 8 0 15 -5 15 -11 0 -19 30 -41 50 -36 13 3 20 0 20 -9 0 -8 5 -14 11
-14 6 0 8 7 5 16 -3 9 -6 24 -6 35 0 11 -7 19 -16 19 -8 0 -13 -4 -9 -9 3 -5
1 -12 -4 -15 -5 -4 -13 -1 -17 5 -4 7 5 22 22 37 l29 24 -32 -6 c-35 -6 -44 9
-21 32 9 9 7 13 -5 18 -18 6 -24 34 -8 34 5 0 21 -16 36 -36 22 -28 32 -34 51
-30 16 4 26 1 33 -11 6 -10 11 -15 11 -10 0 4 9 -2 20 -13 15 -15 28 -19 48
-14 l27 6 -22 -16 c-21 -16 -24 -16 -44 2 -11 11 -29 18 -39 15 -10 -3 -21 0
-24 6 -4 6 -13 11 -19 11 -7 0 -6 -4 3 -10 10 -6 11 -10 3 -10 -7 0 -13 -5
-13 -11 0 -8 5 -7 15 1 14 12 15 8 9 -26 -5 -37 -4 -39 20 -40 26 -2 31 15 13
44 -13 20 4 14 24 -10 11 -11 19 -16 19 -9 0 7 5 9 10 6 6 -3 10 -15 10 -26 0
-10 7 -19 15 -19 9 0 15 6 14 13 -3 27 2 38 17 35 10 -2 19 3 21 10 3 6 -3 12
-12 12 -13 0 -15 3 -7 13 6 7 10 21 8 31 -3 22 -36 43 -45 28 -10 -15 -69 -10
-63 6 6 16 -18 63 -28 57 -5 -3 -11 2 -14 11 -3 8 -10 12 -16 9 -5 -3 -7 0 -4
9 13 34 53 25 54 -11 0 -14 5 -15 37 -7 27 7 28 51 2 59 -9 3 -20 17 -23 30
-6 22 -9 23 -26 13 -10 -7 -20 -21 -22 -32 -3 -21 -38 -32 -38 -11 0 16 -29
13 -39 -3 -11 -18 -81 -11 -81 8 0 9 -15 22 -32 30 -18 7 -37 16 -42 18 -5 3
-6 0 -2 -7 4 -6 0 -11 -11 -11 -12 0 -14 -3 -6 -8 6 -4 15 -21 19 -37 4 -16
13 -36 21 -43 7 -7 13 -21 13 -31 0 -9 5 -22 12 -29 15 -15 2 -30 -29 -35 -34
-5 -103 -65 -97 -82 4 -9 0 -15 -10 -15 -10 0 -13 6 -10 15 4 8 1 15 -6 15 -6
0 -9 -4 -5 -9 3 -5 1 -12 -5 -16 -18 -11 -10 -26 13 -25 42 4 57 0 57 -15 0
-13 -3 -13 -20 -3 -17 11 -22 10 -30 -2 -17 -27 -11 -32 30 -25 22 4 53 4 69
0 25 -5 29 -11 29 -35 -1 -16 -5 -27 -10 -24 -5 3 -6 15 -3 27 4 13 3 17 -2
11 -4 -6 -19 -15 -33 -19 -14 -4 -29 -13 -33 -19 -5 -7 -7 -2 -4 11 3 12 -1
24 -7 26 -20 8 -12 -34 9 -49 29 -21 5 -42 -30 -26 -15 7 -31 10 -36 7 -5 -3
-6 2 -3 12 6 17 6 17 -7 1 -14 -17 -114 -28 -135 -15 -6 3 -16 2 -24 -3 -7 -4
-24 -4 -37 1 -16 6 -22 5 -18 -1 4 -6 -5 -10 -19 -10 -35 0 -38 40 -3 41 12 0
51 2 87 3 36 2 73 -1 84 -6 11 -6 16 -6 13 -1 -4 6 10 10 30 11 20 1 38 4 41
7 6 5 -99 10 -155 7 -20 -1 -33 3 -33 11 0 8 -4 7 -10 -3 -5 -8 -12 -11 -16
-8 -4 4 -15 3 -25 -3 -16 -8 -19 -6 -19 12 0 15 4 19 16 15 9 -3 12 -2 9 5 -8
11 32 8 53 -4 7 -5 12 -3 12 4 0 7 3 9 6 6 4 -3 16 -1 28 5 21 11 21 12 -5 19
-15 4 -45 3 -68 -1 -23 -4 -41 -3 -41 1 0 5 5 9 10 9 6 0 10 8 11 18 0 10 3
12 6 4 2 -6 9 -9 15 -6 5 4 29 6 51 7 l42 0 -50 12 c-46 10 -48 12 -23 18 15
4 26 13 24 20 -1 6 -1 9 1 5 3 -5 14 -8 25 -8 20 0 20 1 4 19 -16 18 -16 19 9
19 15 0 31 4 37 10 8 8 -15 11 -76 11 -62 -1 -92 3 -104 14 -9 8 -31 13 -49
12 -18 -1 -30 2 -27 7 3 5 10 6 15 2 6 -3 8 11 5 38 l-5 43 19 -23 c10 -12 25
-21 32 -20 7 2 12 -3 10 -9 -1 -7 5 -13 13 -13 22 0 -2 37 -30 45 -19 6 -19 7
5 15 14 4 19 8 12 9 -9 1 -10 6 -2 20 11 21 -2 37 -19 26 -5 -3 -12 -1 -16 5
-8 13 -92 13 -100 0 -9 -15 -35 -12 -35 4 0 9 7 12 20 9 14 -4 20 0 20 11 0 9
-7 16 -15 16 -7 0 -19 8 -24 18 -6 9 -11 12 -11 5 0 -6 5 -15 11 -18 6 -5 3
-13 -11 -22 -15 -11 -24 -12 -34 -4 -7 6 -16 8 -19 4 -4 -3 -7 3 -7 14 0 11
-7 26 -15 33 -8 7 -15 19 -15 27 0 7 -7 16 -15 19 -8 4 -12 10 -9 15 3 5 10 7
15 4 5 -4 9 -1 9 4 0 6 -4 11 -10 11 -5 0 -10 7 -10 15 0 20 19 19 43 -2 19
-18 20 -17 7 6 -6 13 -8 21 -3 19 4 -3 16 -8 27 -12 14 -5 16 -9 7 -20 -8 -10
-5 -15 14 -24 14 -6 25 -18 25 -25 0 -8 7 -14 15 -14 9 0 14 6 11 13 -4 10 1
11 19 4 20 -8 27 -6 35 10 12 23 13 33 1 26 -4 -3 -7 6 -6 19 2 13 -1 23 -7
22 -6 -1 -13 4 -16 12 -3 10 0 12 12 8 9 -4 16 -2 16 4 0 16 -25 20 -56 9
l-29 -10 24 19 c23 18 23 19 5 29 -18 11 -18 11 3 12 43 0 32 19 -22 36 -30
10 -55 21 -55 26 0 4 -7 5 -15 2 -23 -9 -18 14 9 41 32 32 21 38 -28 16 -21
-10 -34 -21 -28 -25 5 -3 12 -19 14 -35 3 -23 1 -28 -11 -23 -12 4 -11 0 4
-18 l20 -23 -25 13 c-14 7 -32 16 -40 20 -8 4 -15 14 -15 23 0 9 -4 19 -8 24
-5 4 -7 1 -5 -7 2 -10 -4 -15 -19 -14 -18 0 -20 -2 -11 -14 9 -11 9 -13 -3
-12 -29 5 -60 0 -55 -8 3 -5 -1 -9 -9 -9 -8 0 -15 4 -15 9 0 4 -8 8 -17 8 -10
0 -14 4 -8 8 17 12 17 35 0 29 -17 -7 -20 4 -4 20 7 7 3 15 -14 26 -23 15 -24
15 -23 -1 0 -9 -5 -16 -12 -14 -10 2 -10 -2 0 -20 7 -13 11 -26 10 -30 -1 -4
6 -4 16 -1 14 6 15 4 5 -8 -15 -19 -58 -22 -72 -5 -9 11 -6 12 16 8 24 -4 26
-3 16 10 -7 8 -10 18 -6 21 3 4 1 7 -5 7 -18 0 -14 13 13 42 19 21 21 27 10
32 -17 6 -20 42 -5 51 6 3 7 17 4 30 -5 20 -2 25 20 30 14 3 38 7 52 11 22 4
25 2 20 -13 -13 -33 -11 -38 17 -37 15 1 27 -2 27 -6 0 -5 10 -6 22 -2 14 3
19 2 14 -6 -11 -17 5 -15 26 5 17 15 18 15 18 0 0 -10 -5 -17 -11 -17 -5 0 -7
-5 -3 -11 4 -8 9 -7 15 2 7 11 12 12 28 2 15 -10 21 -10 24 0 3 7 6 2 6 -10 1
-20 32 -48 42 -38 3 2 29 5 59 7 49 3 55 1 55 -17 0 -14 -6 -19 -20 -17 -18 2
-18 1 -3 -8 9 -6 39 -12 65 -14 26 -2 48 -5 48 -6 0 -2 27 -4 156 -13 30 -3
65 -8 77 -11 16 -5 22 -3 22 8 0 10 -9 14 -29 14 -15 -1 -33 2 -38 5 -6 4 -51
10 -99 13 -82 6 -117 9 -136 13 -5 0 -8 9 -8 19 0 19 27 20 143 8 20 -2 37 0
37 6 0 5 6 6 13 1 6 -4 21 -8 32 -9 73 -3 86 -5 80 -14 -4 -6 17 -10 57 -10
119 1 -3 35 -161 45 -104 6 -116 10 -99 29 10 11 15 11 26 -1 16 -15 36 -7 25
10 -5 9 -3 9 8 0 8 -6 68 -14 139 -18 69 -3 153 -8 188 -10 34 -1 65 1 68 6 3
5 2 9 -3 10 -4 0 -47 4 -96 8 -86 8 -107 14 -93 28 6 7 21 9 89 12 34 1 26 21
-8 21 -25 0 -59 26 -50 39 6 10 72 4 96 -9 21 -12 39 8 19 20 -7 5 2 9 24 12
26 3 36 0 36 -10 0 -8 -5 -10 -12 -6 -10 5 -10 3 0 -7 9 -10 41 -15 105 -16
51 -1 112 -4 137 -7 25 -3 69 -7 98 -8 28 -1 52 -5 52 -9 0 -25 66 -16 73 10
4 15 -5 17 -67 16 -53 0 -78 4 -98 18 -16 10 -32 15 -38 12 -5 -3 -10 -1 -10
4 0 6 5 11 12 11 9 0 9 3 0 12 -18 18 -15 24 13 26 46 3 54 5 49 13 -2 4 -1 9
3 12 5 2 2 2 -4 1 -7 -2 -13 1 -13 5 0 5 -20 17 -45 28 -25 10 -45 21 -45 24
0 7 61 -1 75 -10 6 -3 26 -6 45 -6 19 0 37 -3 40 -6 9 -11 60 -19 60 -10 0 5
-14 12 -30 16 -26 6 -50 30 -50 49 0 3 15 6 32 6 l32 0 -24 17 c-13 10 -43 20
-65 23 -31 4 -40 9 -40 25 0 11 -4 26 -9 34 -9 14 14 36 24 23 3 -4 21 -8 40
-9 19 -1 42 -3 50 -4 55 -7 95 12 50 24 -11 3 -20 0 -20 -6 0 -6 -6 -3 -13 8
-10 12 -22 16 -40 13 -16 -3 -24 -1 -20 5 3 5 -3 6 -16 2 -11 -3 -21 -3 -21 2
0 15 37 32 59 26 15 -4 21 -1 21 11 0 10 4 15 9 11 6 -3 15 3 20 12 10 17 12
17 26 -1 13 -17 15 -18 15 -3 0 9 5 17 10 17 6 0 10 6 10 14 0 15 21 26 51 26
10 0 19 5 19 10 0 9 -28 14 -67 13 -7 -1 -10 3 -7 8 3 5 -1 9 -10 9 -13 0 -13
3 0 30 16 31 34 48 34 32 0 -5 12 -7 26 -4 l27 5 -27 14 c-21 11 -24 16 -14
27 7 8 18 11 23 8 6 -3 -2 8 -17 24 -25 27 -26 31 -13 62 8 17 21 32 29 32 8
0 18 9 21 20 4 11 19 28 33 38 33 21 63 57 79 94 l12 29 -27 -15 c-95 -51
-175 -76 -184 -59 -3 4 -3 2 -2 -4 2 -7 -4 -13 -14 -14 -9 0 -26 -3 -37 -5
-42 -10 -259 -6 -285 6 -3 1 -13 2 -22 1 -10 -1 -18 4 -18 13 0 11 -11 16 -37
18 -61 2 -63 3 -73 18 -5 8 -12 11 -16 7 -4 -4 -13 -2 -20 4 -8 7 -14 7 -19
-1 -5 -8 -11 -8 -21 1 -7 6 -12 14 -10 18 3 4 -8 12 -25 18 -16 6 -27 7 -24 2
4 -5 -1 -6 -9 -3 -9 3 -16 10 -16 14 0 10 -57 40 -76 40 -8 0 -11 6 -7 17 5
12 2 15 -10 10 -11 -4 -20 1 -27 14 -6 11 -19 18 -28 17 -12 -2 -18 5 -20 25
-3 23 -14 34 -25 25 -1 -2 -12 6 -23 17 -31 32 -78 136 -80 181 -1 23 -6 50
-12 59 -6 12 -6 30 -1 49 7 24 6 34 -6 42 -8 6 -13 18 -11 25 2 8 7 36 10 63
5 38 3 46 -7 39 -6 -6 -66 -9 -132 -7 -282 6 -840 16 -1088 19 -259 3 -269 4
-284 24 -14 21 -40 31 -28 11 9 -15 -1 -12 -17 4 -12 12 -20 12 -54 -1 -21 -8
-47 -15 -58 -14 -10 0 -20 -9 -23 -20 -4 -12 -14 -19 -30 -19 -34 0 -24 -24
11 -27 16 -1 29 4 33 13 3 8 13 14 23 14 23 0 73 -58 66 -77 -3 -8 -1 -11 4
-8 6 3 10 13 10 21 0 22 37 17 43 -6 3 -12 13 -20 24 -19 16 1 16 2 1 6 -26 6
-22 32 6 44 20 9 29 7 55 -12 19 -14 31 -32 31 -46 0 -28 10 -29 40 -3 27 23
34 24 62 9 12 -7 18 -7 14 -1 -4 6 2 8 14 5 11 -3 18 -9 15 -13 -3 -5 19 -6
47 -3 29 3 67 5 83 6 17 0 33 5 37 11 5 8 8 7 8 -1 0 -12 52 -11 110 2 14 3
75 4 135 3 61 -1 149 -2 198 -2 51 -1 87 -5 87 -11 0 -5 5 -3 10 5 7 10 10 11
10 2 0 -8 15 -12 43 -12 40 0 226 -6 257 -9 8 -1 57 0 108 3 92 4 92 4 99 -22
3 -14 -1 -51 -9 -81 -13 -52 -17 -56 -41 -53 -20 2 -25 -1 -21 -11 5 -14 -19
-25 -66 -32 -8 -1 -23 -6 -32 -10 -12 -5 -18 -3 -18 6 0 7 -3 9 -6 6 -4 -4 -2
-13 5 -21 9 -11 6 -16 -19 -24 -22 -8 -30 -8 -30 1 0 8 -2 9 -8 1 -4 -6 -17
-10 -29 -9 -13 1 -23 -2 -23 -7 0 -13 -30 -9 -31 5 0 6 -4 3 -9 -8 -9 -19 -9
-19 -16 3 -6 23 -38 30 -49 12 -4 -6 -10 -8 -15 -5 -4 3 -10 -2 -14 -10 -5
-13 9 -29 26 -30 3 0 10 -4 15 -9 4 -5 3 -6 -3 -3 -7 4 -14 0 -18 -8 -3 -8
-13 -15 -22 -15 -14 0 -15 2 -3 17 12 15 12 16 -3 10 -11 -4 -17 -2 -15 6 1 8
-11 12 -36 12 -30 -1 -36 2 -32 15 4 13 4 13 -8 0 -13 -16 -22 -19 -62 -22
-14 -1 -25 -6 -25 -11 0 -5 -9 -7 -20 -4 -11 3 -20 1 -20 -5 0 -6 -6 -8 -14
-5 -17 7 -39 -16 -28 -29 4 -4 -1 -3 -10 5 -14 11 -19 9 -30 -8 -7 -12 -23
-21 -35 -21 -13 0 -23 -5 -23 -11 0 -6 -10 -10 -22 -9 -45 4 -58 0 -58 -17 0
-10 -4 -14 -8 -8 -4 6 -18 10 -32 9 -14 0 -35 3 -46 7 -12 4 -26 3 -31 -2 -13
-13 -43 -1 -43 17 0 8 -5 14 -11 14 -5 0 -7 5 -3 12 5 7 2 9 -9 5 -8 -3 -20 0
-25 6 -13 17 -22 58 -12 52 14 -8 61 6 54 16 -3 5 -10 7 -15 4 -5 -4 -9 -1 -9
5 0 7 -7 9 -15 6 -8 -3 -22 -9 -30 -12 -9 -4 -15 0 -15 9 0 8 -6 17 -12 19 -9
3 -8 9 4 22 10 9 19 16 20 16 5 -2 38 9 93 31 28 10 58 19 67 19 21 0 32 29
13 36 -8 3 -22 -1 -30 -10 -10 -10 -25 -14 -39 -10 -12 3 -45 -3 -72 -14 -28
-10 -57 -18 -65 -17 -8 2 -20 -3 -26 -11 -10 -10 -10 -16 2 -28 9 -9 11 -17 5
-21 -14 -9 -12 -35 3 -35 15 0 20 -67 6 -76 -5 -3 -7 -10 -4 -15 11 -17 -6
-31 -21 -18 -7 6 -11 15 -8 20 3 5 0 9 -6 9 -7 0 -9 -8 -5 -19 8 -27 -9 -34
-50 -20 -26 10 -34 17 -30 30 5 14 1 16 -16 12 -17 -5 -20 -3 -14 8 4 8 -1 5
-12 -6 -11 -11 -16 -21 -12 -23 5 -2 9 -9 9 -17 0 -14 -94 -30 -113 -18 -6 4
-30 8 -52 9 -22 1 -34 -1 -27 -3 12 -5 18 -53 5 -53 -22 0 -40 34 -36 66 3 19
-1 41 -7 49 -6 8 -8 20 -4 26 4 7 3 9 -3 6 -17 -11 -23 46 -8 69 8 12 11 31 9
42 -7 26 7 33 70 39 73 7 78 20 5 15 -60 -5 -61 -4 -49 18 9 18 9 25 -6 41 -9
10 -23 19 -29 19 -14 0 -27 -25 -18 -34 4 -3 7 -18 8 -32 0 -19 -6 -29 -23
-35 -34 -13 -34 -12 -17 21 10 19 14 47 12 70 -4 43 0 54 17 41 7 -5 19 -1 31
12 l20 20 -20 -7 c-33 -12 -40 -12 -38 2 2 6 -3 12 -11 12 -8 0 -16 -10 -18
-22 -2 -12 -9 -23 -15 -26 -17 -5 -17 30 -1 46 7 7 9 12 5 12 -4 0 -21 -15
-37 -32 l-29 -33 -1 26 c0 14 7 34 15 45 16 21 19 35 8 32 -15 -4 -53 13 -53
23 0 6 -4 8 -9 4 -5 -3 -12 -1 -16 5 -4 6 -11 8 -16 4 -5 -3 -7 -10 -4 -15 4
-5 2 -9 -4 -9 -5 0 -13 -9 -16 -21 -8 -25 -30 -20 -30 8 -1 11 -6 28 -13 36
-14 17 -10 21 30 31 15 3 29 2 33 -4 7 -11 41 0 82 27 l26 17 -24 7 c-13 3
-31 0 -39 -6 -28 -22 -75 -26 -87 -6 -16 26 0 45 31 37 35 -9 33 -1 -6 18 -38
19 -58 20 -58 4 0 -10 -2 -10 -9 0 -7 11 -9 11 -14 -2 -9 -23 -26 -20 -20 4 4
15 -2 22 -23 31 -27 10 -27 12 -9 18 11 4 47 7 80 6 112 -3 1129 -17 1435 -20
168 -1 351 -3 408 -4 97 -1 103 -2 112 -23 8 -22 9 -22 9 5 1 31 87 131 122
142 11 4 19 11 19 17 0 24 -75 100 -150 153 -101 71 -190 111 -294 131 -72 14
-164 39 -180 50 -10 7 -32 10 -50 8 -25 -4 -37 1 -64 26 -18 17 -42 32 -55 32
-12 1 -29 7 -37 13 -8 6 -28 12 -45 14 -16 2 -32 6 -35 10 -3 3 -16 6 -30 7
-41 2 -146 13 -171 18 -13 3 -37 8 -54 10 -28 5 -42 7 -125 22 -19 4 -42 8
-50 9 -8 1 -37 8 -63 14 -27 6 -53 9 -58 6 -5 -4 -9 -1 -9 5 0 6 -8 9 -18 6
-10 -4 -27 0 -38 8 -18 14 -17 14 11 10 17 -3 64 -7 105 -9z m-415 -298 c11
-15 11 -25 3 -41 -15 -27 -34 -46 -47 -46 -10 0 -15 -14 -12 -34 1 -4 -6 -14
-16 -22 -19 -14 -47 -19 -40 -6 3 4 -21 5 -54 4 -34 -2 -59 0 -59 6 0 6 -41 9
-99 8 -54 0 -97 -4 -94 -8 2 -5 -15 -9 -39 -9 -24 -1 -65 -3 -93 -5 -27 -3
-82 -6 -121 -8 -39 -2 -76 -6 -82 -10 -7 -4 -21 -2 -32 4 -15 8 -32 7 -63 -2
-23 -6 -69 -13 -102 -14 -124 -5 -258 -15 -266 -20 -5 -3 -9 -1 -9 4 0 12 -60
10 -60 -3 0 -5 -5 -3 -10 5 -11 18 -47 20 -79 3 -17 -8 -29 -9 -37 -2 -8 6
-14 7 -18 0 -8 -12 -46 -10 -46 2 0 5 -24 7 -53 6 -29 -1 -59 1 -65 5 -15 9
-34 -2 -27 -15 12 -18 -31 -9 -53 11 -22 21 -30 36 -13 26 5 -3 14 8 21 24 15
36 19 38 160 45 63 3 158 10 210 15 52 5 124 12 160 15 36 4 72 8 80 11 26 7
243 32 270 31 23 -1 150 8 245 18 76 8 181 15 330 21 83 3 151 7 153 9 8 8 44
-10 57 -28z m355 23 c20 -5 52 -27 73 -49 33 -35 40 -39 67 -31 19 5 30 5 30
-1 0 -6 4 -8 9 -4 5 3 15 0 23 -7 28 -28 84 -47 161 -55 43 -5 47 -3 47 16 0
12 6 21 15 21 11 0 13 -8 8 -32 -4 -22 -3 -29 5 -24 7 4 18 4 25 -1 6 -4 23
-9 37 -11 42 -5 54 -12 43 -23 -12 -12 -64 -17 -259 -23 -82 -3 -186 -8 -230
-12 -88 -7 -103 0 -83 38 17 32 -9 46 -89 47 -54 0 -70 -3 -85 -20 -12 -12
-25 -18 -36 -14 -9 4 -28 9 -43 12 -16 3 -28 9 -28 14 0 5 -3 8 -7 7 -5 -2 -9
-1 -10 2 -1 3 -6 17 -12 32 -10 28 1 49 15 27 5 -8 3 -9 -6 -4 -9 5 -11 4 -6
-4 4 -6 12 -9 17 -5 5 3 7 10 4 15 -4 5 -2 9 3 9 5 0 7 10 5 23 -8 39 19 50
135 54 59 3 112 6 117 8 16 6 18 5 55 -5z m-1935 -375 c341 -4 624 -11 629
-15 4 -5 -10 -19 -33 -32 -23 -12 -44 -31 -47 -40 -3 -10 -17 -27 -31 -38 -22
-17 -41 -20 -147 -21 -170 -1 -157 -1 -511 6 -720 12 -729 12 -760 0 -45 -18
-61 -55 -46 -105 6 -22 18 -40 26 -40 8 0 25 -5 37 -11 20 -8 23 -16 20 -45
-2 -19 -8 -34 -13 -34 -17 0 -59 44 -59 62 0 11 -4 16 -10 13 -5 -3 -10 -24
-10 -45 0 -31 -4 -40 -21 -45 -16 -5 -18 -9 -9 -15 8 -5 23 -2 37 7 21 14 23
14 23 -4 0 -10 9 -26 20 -36 22 -18 27 -80 10 -107 -5 -8 -10 -10 -10 -5 0 6
-4 4 -9 -4 -6 -10 -12 -4 -21 23 -6 20 -10 42 -7 49 2 6 0 20 -5 30 -15 29
-34 -1 -35 -57 -1 -28 -6 -52 -11 -54 -6 -2 -6 -21 -1 -48 7 -35 5 -49 -5 -60
-16 -15 -66 -19 -66 -5 0 11 -49 11 -55 1 -3 -5 -16 -3 -29 3 -19 9 -23 18
-20 42 2 16 8 80 14 140 6 61 17 146 25 190 8 44 15 98 17 120 2 22 8 46 15
53 7 7 10 19 6 28 -3 8 3 24 13 36 11 12 13 18 7 14 -19 -11 -15 12 5 32 13
13 36 19 77 21 33 1 60 3 61 4 3 3 208 1 929 -8z m-455 -245 c0 -7 22 -9 63
-4 104 10 201 12 213 2 6 -4 91 -7 188 -5 97 2 176 1 176 -2 0 -3 -28 -16 -62
-29 -96 -35 -149 -64 -185 -101 -18 -19 -26 -21 -37 -12 -11 9 -16 9 -22 0 -4
-7 -3 -9 3 -6 6 4 16 0 23 -8 9 -11 7 -16 -9 -27 -12 -7 -21 -18 -21 -23 0
-12 -68 -82 -75 -78 -9 4 -35 -9 -35 -18 0 -4 8 -5 18 -2 16 6 16 6 0 -10 -9
-9 -24 -17 -33 -17 -10 0 -26 -11 -37 -25 -11 -14 -25 -25 -31 -25 -7 0 -22
-16 -35 -36 -12 -19 -27 -32 -32 -29 -11 7 -14 -18 -4 -28 3 -3 18 -1 32 4 21
8 23 7 13 -5 -17 -21 -51 -27 -51 -9 0 8 -5 11 -12 7 -8 -5 -9 -2 -5 10 4 9 3
15 -2 11 -5 -3 -11 0 -13 5 -2 6 -29 14 -60 17 -32 3 -55 9 -53 13 3 4 -2 10
-10 13 -9 4 -12 1 -8 -9 5 -14 -5 -17 -52 -16 -17 1 -17 0 -2 -4 9 -3 17 -9
17 -14 0 -5 7 -7 15 -4 8 4 15 1 15 -6 0 -9 11 -10 35 -6 19 4 35 3 35 -1 0
-5 14 -10 31 -11 21 -2 28 1 23 9 -4 8 -3 9 5 5 23 -14 4 -31 -35 -32 -49 -2
-47 -1 -32 -18 7 -8 16 -12 21 -9 4 2 7 0 7 -6 0 -5 8 -8 18 -6 22 4 48 -10
35 -18 -5 -3 -26 -2 -46 3 -31 7 -37 5 -37 -9 0 -14 -2 -14 -10 -1 -8 13 -13
13 -41 -3 -21 -11 -36 -14 -42 -8 -5 5 -16 7 -23 4 -8 -3 -14 0 -14 6 0 7 -10
3 -22 -8 -11 -11 -25 -18 -29 -15 -5 2 -29 5 -54 6 -26 0 -45 5 -45 12 0 6 -4
5 -9 -3 -16 -24 -23 8 -16 67 9 79 14 92 35 92 21 0 35 29 20 44 -7 7 -10 6
-10 -2 0 -7 -7 -12 -16 -12 -15 0 -16 8 -10 58 4 31 9 83 11 115 2 32 6 80 10
107 6 40 3 52 -13 68 -19 19 -19 20 37 26 31 4 101 9 156 12 54 3 101 7 104 9
8 9 31 5 31 -5z m1187 -187 c-2 -55 1 -68 13 -67 10 1 15 -9 16 -29 1 -16 8
-34 17 -39 13 -6 14 -14 7 -33 -10 -25 -6 -65 7 -74 5 -3 8 -17 9 -31 0 -14 4
-47 8 -75 7 -48 6 -49 -9 -25 l-16 25 7 -35 c4 -19 13 -44 20 -55 8 -11 14
-29 14 -41 0 -12 16 -48 35 -80 19 -32 35 -64 35 -73 0 -8 3 -12 6 -9 3 4 -1
30 -10 60 -37 129 -47 189 -47 278 0 108 10 154 34 158 12 3 17 -4 17 -22 0
-16 6 -26 15 -26 18 0 20 -16 2 -23 -10 -4 -13 -38 -12 -144 1 -112 6 -159 26
-234 24 -95 32 -110 103 -183 30 -33 34 -35 19 -11 -23 34 -51 108 -55 144 -5
42 20 35 32 -10 15 -56 59 -153 66 -147 7 7 -49 143 -106 258 -52 105 -62 130
-52 130 16 0 146 -284 193 -421 21 -59 29 -70 78 -104 34 -24 48 -30 37 -17
-11 12 -17 24 -15 27 3 2 43 -34 89 -80 47 -46 95 -89 107 -96 12 -6 24 -18
27 -25 4 -10 1 -11 -12 -4 -9 5 -38 18 -64 29 -50 21 -178 112 -217 155 -14
14 -31 26 -39 26 -16 0 -168 159 -164 172 1 5 -2 7 -7 3 -6 -3 -19 2 -29 12
-30 29 -84 72 -134 106 -29 19 -46 37 -43 46 3 7 -12 32 -32 55 -129 144 -168
190 -172 200 -7 19 155 -157 215 -234 34 -43 88 -94 144 -134 52 -36 53 -28 3
20 -12 12 -26 39 -32 61 -11 41 -61 117 -61 92 0 -8 5 -20 11 -26 14 -14 21
-63 8 -63 -7 0 -32 36 -34 50 -6 32 -69 146 -105 188 -14 15 2 16 18 0 18 -18
15 2 -8 64 -11 29 -21 64 -24 78 -2 14 -5 25 -6 25 -1 0 -3 11 -6 25 -6 41 10
5 47 -102 19 -54 37 -98 41 -98 3 0 2 15 -4 33 -40 128 -50 171 -51 242 -2 78
17 175 34 175 5 0 7 -30 6 -67z m816 -239 c18 -36 15 -63 -3 -34 -13 20 -12 3
0 -21 9 -15 7 -21 -5 -25 -17 -7 -21 -59 -5 -69 6 -3 7 1 4 9 -12 31 25 16 66
-26 37 -39 39 -43 21 -46 -28 -5 -27 -19 2 -17 12 1 30 -2 40 -7 12 -6 23 -6
32 2 10 8 18 4 34 -17 11 -15 21 -23 21 -17 0 6 -13 25 -30 42 -16 18 -30 37
-30 42 0 6 -4 8 -10 5 -5 -3 -10 -1 -10 5 0 11 41 5 73 -12 10 -5 21 -7 25 -4
3 3 0 6 -7 6 -7 0 -9 4 -6 10 3 5 0 7 -8 4 -8 -3 -19 2 -26 10 -7 8 -19 12
-27 9 -8 -3 -14 0 -14 5 0 16 18 24 25 12 3 -5 19 -10 36 -10 19 0 29 -5 29
-15 0 -10 10 -15 28 -15 l27 1 -27 17 c-16 9 -28 22 -28 29 0 7 -4 13 -10 13
-5 0 -17 14 -25 30 -17 33 -36 33 -28 0 7 -28 -13 -25 -22 3 -6 19 -8 19 -12
5 -8 -31 -22 -20 -21 15 l1 34 41 -10 c23 -5 84 -10 138 -12 53 -1 101 -5 106
-9 5 -3 15 0 21 7 6 8 23 12 39 9 18 -2 33 2 41 12 15 18 41 22 41 6 0 -5 7
-10 15 -10 9 0 19 -8 23 -17 6 -15 22 -18 102 -19 61 -1 95 -5 98 -13 2 -6 8
-9 13 -5 5 3 9 0 9 -5 0 -6 5 -11 11 -11 5 0 7 5 4 10 -3 6 0 10 9 10 8 0 13
-7 11 -17 -1 -10 -9 -16 -16 -14 -8 2 -22 3 -31 3 -10 0 -20 2 -22 6 -2 4 -33
6 -68 6 -34 -1 -69 3 -76 9 -11 8 -16 7 -23 -6 -8 -13 -24 -17 -74 -17 -35 0
-67 -5 -70 -11 -8 -13 23 -38 48 -39 9 0 17 -7 17 -15 0 -8 6 -12 13 -9 8 3
20 -2 27 -11 7 -8 19 -15 27 -15 9 0 13 -6 10 -14 -8 -19 18 -28 49 -16 35 14
39 13 23 -7 -13 -15 -12 -15 7 -5 17 9 25 8 43 -9 29 -27 27 -33 -9 -25 -22 4
-30 2 -30 -8 0 -16 31 -30 39 -19 9 13 45 8 73 -11 23 -15 26 -22 21 -53 -5
-27 -2 -38 10 -45 21 -11 22 -38 1 -38 -11 0 -14 -6 -9 -21 6 -19 4 -21 -19
-17 -23 5 -26 3 -20 -15 5 -16 3 -19 -10 -14 -9 4 -16 2 -16 -2 0 -19 -31 -20
-47 -1 -20 24 -38 26 -29 5 3 -8 1 -15 -4 -15 -6 0 -10 6 -10 14 0 8 -10 22
-22 30 -23 16 -21 18 36 31 23 5 27 8 16 15 -9 6 -19 5 -24 0 -14 -14 -28 -12
-24 2 6 16 -11 33 -40 42 -12 4 -20 12 -17 17 4 5 -7 9 -23 9 -16 0 -39 9 -52
20 -13 11 -28 20 -34 20 -6 0 -21 3 -34 6 -18 5 -21 3 -16 -10 9 -24 -23 -20
-36 4 -6 11 -16 20 -23 19 -9 0 -9 -2 1 -6 19 -7 14 -30 -7 -36 -11 -3 -29 1
-40 9 -15 11 -20 11 -24 1 -3 -9 -7 -9 -20 1 -9 8 -21 11 -27 7 -12 -7 -50 3
-49 13 3 19 -2 25 -10 13 -5 -8 -28 -16 -50 -17 -36 -2 -41 1 -42 20 -1 16 -2
17 -6 4 -5 -22 -23 -24 -23 -3 0 9 -9 15 -24 15 -14 0 -33 13 -50 32 -14 17
-26 26 -26 20 0 -7 -4 -12 -10 -12 -5 0 -10 11 -10 24 0 18 8 27 31 35 25 9
30 8 26 -3 -3 -7 0 -19 6 -25 16 -16 27 -14 21 4 -4 8 -1 15 5 15 6 0 11 5 11
10 0 6 -6 10 -14 10 -7 0 -24 9 -38 19 -24 19 -25 19 -54 0 -37 -24 -40 -24
-47 3 -4 13 0 26 10 33 9 7 13 17 9 23 -9 15 15 52 34 52 13 0 13 2 1 9 -23
15 -21 37 3 37 17 -1 20 4 18 27 -5 38 10 33 31 -9z m-2274 -264 c21 12 44 1
31 -15 -8 -10 -4 -15 18 -20 35 -7 82 3 79 17 -1 6 4 13 12 16 10 3 12 0 8
-12 -4 -10 -1 -16 9 -16 9 0 12 5 8 13 -6 10 -4 10 7 0 17 -17 29 -16 29 0 0
15 37 17 59 3 8 -5 37 -9 65 -10 54 -1 64 -16 18 -29 -35 -9 -130 -20 -162
-17 -88 7 -170 2 -170 -10 0 -5 12 -13 26 -16 38 -10 13 -28 -26 -19 -19 4
-34 15 -37 26 -3 10 -9 16 -14 13 -5 -3 -9 -1 -9 4 0 5 -7 9 -15 10 -8 1 -21
3 -29 4 -8 1 -12 7 -9 14 2 7 11 10 19 7 13 -5 15 0 13 25 0 10 45 20 51 11 3
-4 12 -4 19 1z m1386 -56 c13 -9 29 -13 34 -9 6 3 19 1 28 -5 15 -9 14 -10 -7
-4 -22 5 -23 4 -10 -8 8 -8 56 -46 105 -84 95 -72 279 -244 270 -252 -5 -5
-72 44 -196 142 -42 34 -87 70 -101 81 -62 49 -168 155 -155 155 4 0 19 -7 32
-16z m-1694 -37 c4 -5 1 -39 -6 -76 -7 -37 -12 -86 -11 -109 3 -51 -6 -68 -30
-57 -11 4 -32 9 -48 11 -16 2 -35 9 -43 15 -8 8 -13 8 -13 1 0 -6 -10 -7 -27
-3 -38 10 -36 36 2 38 17 0 48 2 70 3 l40 2 -37 10 c-45 12 -51 37 -9 36 15
-1 34 3 41 7 8 5 11 4 7 -2 -4 -6 2 -13 12 -16 23 -6 36 29 14 37 -8 3 -12 10
-9 15 7 11 -22 23 -35 16 -5 -4 -6 1 -3 10 4 10 13 14 22 10 9 -3 13 -3 9 1
-4 4 1 13 11 20 14 11 14 14 2 15 -8 1 -19 3 -25 3 -5 1 -16 5 -22 9 -8 5 -13
3 -13 -4 0 -7 -3 -10 -6 -6 -3 3 -3 10 0 15 7 12 98 11 107 -1z m2548 -23 c12
-15 21 -23 21 -19 0 4 11 0 25 -9 21 -14 24 -14 19 -1 -7 17 11 21 21 5 3 -5
15 -10 25 -10 10 0 30 -14 44 -31 21 -24 24 -34 15 -45 -6 -8 -18 -14 -25 -14
-8 0 -14 -4 -14 -9 0 -5 -12 -8 -27 -7 -27 2 -83 44 -83 62 -1 18 -36 50 -75
69 -39 18 -39 19 -15 26 41 12 48 10 69 -17z m505 -7 c-5 -22 -3 -23 25 -19
24 3 31 0 31 -12 0 -9 6 -16 13 -17 6 -1 1 -5 -13 -9 -16 -5 -19 -8 -8 -9 23
-1 71 -48 65 -63 -2 -7 -1 -23 4 -34 6 -17 13 -20 33 -17 27 5 34 -5 16 -23
-7 -7 -7 -19 -2 -34 9 -24 9 -24 17 6 5 16 9 35 10 43 0 10 15 15 55 16 30 1
48 0 39 -2 -26 -6 -30 -51 -6 -73 11 -11 25 -16 30 -13 6 4 8 0 4 -10 -4 -11
-1 -17 9 -17 8 0 12 -4 9 -10 -9 -14 -55 -13 -55 1 0 8 -13 10 -36 6 -20 -4
-46 -1 -57 5 -17 9 -19 8 -14 -11 3 -12 1 -19 -4 -15 -6 3 -7 -5 -3 -21 l6
-26 -38 26 c-49 33 -70 65 -44 65 6 0 10 -9 10 -20 0 -25 4 -25 35 2 28 24 37
71 10 48 -8 -7 -15 -20 -15 -29 0 -10 -7 -5 -19 14 -16 25 -17 32 -5 41 18 14
18 24 0 24 -7 0 -21 -20 -30 -45 -10 -25 -22 -45 -28 -45 -6 0 -7 8 -3 18 10
25 12 83 3 88 -5 3 -8 0 -8 -5 0 -6 -7 -11 -15 -11 -8 0 -15 6 -15 14 0 8 -6
16 -14 19 -18 7 -27 55 -11 61 14 5 27 46 15 46 -5 0 -20 -13 -33 -30 -29 -34
-37 -37 -37 -15 0 12 -4 13 -19 5 -23 -12 -51 -3 -51 16 0 8 -3 14 -7 15 -5 0
-18 2 -30 3 -31 4 -29 -4 10 -38 29 -26 30 -28 7 -21 -13 4 -30 14 -38 21 -7
8 -17 14 -22 14 -15 0 -19 28 -7 54 12 26 27 35 27 16 0 -10 43 -8 73 5 9 4
28 4 41 1 14 -3 28 -1 34 7 6 7 22 13 37 15 22 2 25 -1 19 -21z m-857 -119
c-8 -5 -7 -8 5 -8 10 0 23 -10 29 -22 7 -13 18 -29 26 -37 8 -7 12 -20 9 -28
-3 -8 -2 -12 2 -9 8 5 42 -28 42 -40 0 -8 41 -44 50 -44 4 0 11 -10 17 -22 6
-13 67 -84 136 -159 69 -75 124 -139 121 -142 -3 -2 7 -8 22 -11 14 -4 25 -9
23 -11 -2 -2 -29 3 -59 10 -50 12 -52 13 -20 15 34 1 34 2 -30 32 -36 18 -69
32 -75 32 -5 1 -12 3 -15 6 -3 3 -23 16 -45 29 l-40 23 34 -36 c19 -20 32 -36
29 -36 -20 0 -325 146 -330 158 -1 4 -30 27 -62 50 -65 46 -65 57 -1 17 69
-42 139 -75 162 -75 12 0 25 -4 28 -10 3 -5 14 -10 24 -10 9 0 38 -13 63 -29
27 -17 48 -25 50 -19 3 7 22 3 52 -11 95 -41 90 -33 -81 143 -136 140 -187
213 -176 255 4 17 8 19 14 10 5 -8 3 -17 -4 -21z m1400 -19 c3 -11 11 -19 17
-19 23 0 49 -26 41 -40 -6 -10 -11 -9 -22 5 -14 21 -15 18 -17 -40 -1 -23 5
-45 13 -51 7 -5 14 -25 16 -44 3 -38 18 -48 42 -28 11 9 17 10 20 2 2 -6 9
-19 16 -28 12 -16 14 -16 26 -2 12 14 12 16 -3 10 -11 -4 -16 -1 -16 11 0 9 4
14 9 10 5 -3 12 -1 16 5 6 9 -13 14 -41 11 -7 -1 -15 6 -18 15 -4 12 -2 15 9
10 22 -8 18 12 -5 24 -14 7 -20 7 -20 0 0 -5 -4 -10 -9 -10 -5 0 -9 23 -9 50
-1 56 9 62 45 28 13 -12 23 -17 23 -10 0 6 -12 20 -27 32 -18 14 -23 24 -16
31 7 7 25 -5 56 -35 46 -46 49 -56 33 -117 -6 -21 -4 -27 13 -32 12 -3 21 -1
21 5 0 5 5 6 11 3 6 -4 4 -12 -8 -20 -17 -13 -17 -15 7 -42 14 -15 28 -29 33
-31 4 -2 7 -11 7 -19 0 -9 6 -13 15 -9 21 8 42 -33 24 -45 -11 -7 -11 -9 -1
-9 7 0 10 -5 7 -11 -4 -5 1 -19 11 -30 11 -12 17 -33 16 -59 -1 -30 2 -40 13
-40 8 0 15 -5 15 -11 0 -10 -25 -8 -62 6 -9 4 -19 -4 -26 -17 -11 -20 -12 -17
-8 24 2 26 0 45 -5 42 -5 -3 -9 -1 -9 4 0 5 -8 12 -18 14 -15 4 -18 1 -14 -20
3 -17 1 -23 -7 -18 -6 4 -11 2 -11 -3 0 -6 -5 -11 -11 -11 -6 0 -8 9 -4 20 8
25 -20 28 -29 3 -6 -14 -8 -14 -22 3 -15 18 -15 18 -9 -3 5 -18 2 -21 -14 -18
-12 2 -21 -1 -21 -6 0 -6 -7 -3 -16 5 -20 20 -34 20 -34 1 0 -8 -4 -15 -9 -15
-15 0 -23 18 -11 25 6 4 7 11 4 17 -4 6 -2 8 4 4 6 -3 22 5 36 19 l26 26 -6
-31 c-8 -37 3 -38 36 -4 23 25 23 28 8 53 -15 27 -15 28 11 23 14 -3 20 -7 14
-9 -7 -3 -13 -9 -13 -15 0 -6 7 -8 15 -4 8 3 15 1 15 -4 0 -6 13 -10 28 -10
15 0 34 -6 41 -12 11 -11 11 -9 2 10 -6 12 -17 22 -22 22 -6 0 -9 7 -5 15 3 8
1 15 -4 15 -6 0 -10 -9 -10 -20 0 -11 -5 -20 -11 -20 -6 0 -8 9 -4 20 4 13 2
20 -7 21 -8 0 -7 3 4 7 14 6 13 9 -6 24 -16 12 -27 13 -37 6 -11 -8 -11 -9 3
-4 21 6 34 -12 19 -27 -8 -8 -11 -8 -11 1 0 7 -12 12 -26 12 -14 0 -23 4 -19
10 10 15 -21 12 -34 -4 -9 -11 -9 -16 0 -21 8 -6 7 -10 -5 -17 -9 -5 -14 -13
-11 -18 8 -13 -19 -6 -47 12 -22 14 -25 14 -34 1 -8 -13 -10 -12 -10 6 0 15 6
21 23 21 13 0 23 5 23 10 0 6 5 10 11 10 5 0 9 -8 8 -17 -3 -31 1 -44 10 -39
5 3 7 15 4 26 -3 11 -1 20 5 20 5 0 13 7 16 16 5 13 1 15 -19 12 -13 -3 -26
-1 -27 3 -2 5 -22 11 -46 13 -23 2 -40 1 -38 -3 3 -4 -4 -7 -15 -7 -12 0 -18
5 -15 13 3 7 -1 13 -9 13 -14 0 -19 -11 -12 -26 3 -9 -54 -37 -61 -30 -3 4 3
13 14 22 10 8 14 13 7 10 -6 -4 -18 3 -26 15 -10 14 -16 16 -19 8 -3 -10 -6
-10 -12 -1 -4 7 0 15 10 19 10 4 20 0 26 -10 5 -10 18 -17 29 -17 19 0 19 1 4
17 -16 16 -16 18 2 32 26 22 34 46 20 61 -9 10 -8 12 5 7 9 -3 19 -3 23 1 3 3
-11 11 -31 17 -28 8 -38 16 -39 33 -2 23 -15 44 -15 24 0 -7 -5 -12 -11 -12
-6 0 -8 9 -4 20 5 15 2 20 -10 20 -13 0 -16 6 -13 25 3 14 1 25 -3 25 -5 0 -9
5 -9 11 0 5 5 7 12 3 19 -12 98 -5 122 11 21 14 25 13 46 -5 27 -24 30 -24 30
-6 0 8 -11 17 -25 20 -14 4 -25 12 -25 19 0 22 62 8 67 -14z m-3622 -111 c-3
-13 -7 -50 -10 -83 -2 -33 -4 -63 -4 -67 -1 -5 -12 -8 -26 -8 -20 0 -25 5 -25
24 0 29 -12 39 -34 30 -14 -5 -14 -8 -1 -21 22 -22 18 -36 -7 -29 -13 3 -40 6
-60 6 -37 0 -38 1 -38 38 0 64 6 67 112 73 28 1 49 8 52 15 3 8 2 13 -2 12
-12 -2 -42 14 -42 23 0 5 20 9 45 9 42 0 45 -2 40 -22z m208 -25 c-4 -10 -2
-14 4 -10 5 3 10 0 10 -8 0 -8 -4 -12 -9 -9 -4 3 -8 -2 -8 -10 0 -12 9 -16 33
-15 17 1 24 3 15 6 -10 2 -18 11 -18 19 0 16 17 19 22 4 3 -11 132 -21 263
-21 60 0 65 -2 38 -10 -49 -14 -48 -26 4 -33 160 -22 156 -21 161 -35 3 -9 -6
-10 -32 -6 -23 5 -42 3 -51 -5 -16 -13 -50 -6 -41 8 3 5 -17 7 -45 6 -27 -2
-49 0 -49 4 0 4 -18 6 -40 4 -32 -3 -38 -7 -30 -17 8 -10 7 -14 -2 -18 -7 -3
4 -6 25 -6 25 -1 40 -6 44 -17 5 -13 14 -15 44 -10 31 5 39 3 39 -9 0 -8 6
-15 14 -15 8 0 16 -7 20 -15 4 -12 20 -14 83 -11 43 2 99 8 126 11 34 6 47 4
47 -4 0 -7 5 -9 10 -6 6 3 10 2 10 -4 0 -7 10 -6 30 0 25 9 36 7 60 -8 26 -16
28 -22 18 -36 -11 -14 -19 -15 -53 -6 -22 6 -72 11 -111 12 -40 2 -78 8 -87
15 -11 9 -17 10 -22 2 -4 -6 -19 -9 -33 -5 -15 3 -80 7 -145 10 -65 2 -123 7
-129 11 -6 4 -43 9 -82 11 -39 2 -83 8 -98 14 -16 6 -37 9 -48 6 -24 -6 -34 6
-25 33 6 18 15 20 113 20 73 0 102 3 92 10 -9 6 -11 10 -3 10 7 0 10 6 8 13
-3 7 -29 13 -68 14 -40 2 -57 -1 -47 -7 8 -5 18 -6 22 -4 4 3 8 1 8 -4 0 -14
-29 -19 -77 -14 l-42 4 5 41 c3 23 7 53 9 67 2 14 4 31 4 38 1 7 5 11 11 7 5
-3 6 -13 3 -22z m2859 -32 c11 -18 25 -40 33 -48 8 -8 15 -24 15 -36 -1 -19
-7 -15 -43 26 -39 43 -67 60 -67 38 0 -14 26 -32 35 -23 5 4 5 1 1 -6 -10 -17
2 -65 14 -57 14 9 50 -13 50 -31 0 -10 -6 -13 -19 -9 -12 3 -21 0 -25 -10 -3
-9 -2 -13 4 -10 6 3 13 0 16 -9 3 -8 13 -12 22 -9 13 3 14 2 4 -4 -7 -5 -10
-17 -6 -26 7 -20 9 -20 35 -7 18 10 18 12 3 28 -11 10 -13 17 -6 20 8 2 6 12
-5 28 -17 27 -11 43 10 26 8 -7 18 -8 22 -4 5 4 5 1 1 -5 -4 -8 -1 -13 8 -13
9 0 16 -4 16 -9 0 -5 3 -16 6 -25 4 -10 1 -16 -9 -16 -8 0 -18 6 -20 13 -4 7
-6 8 -6 1 -1 -6 6 -17 14 -24 8 -7 15 -17 15 -22 0 -6 -7 -8 -15 -4 -19 7 -19
4 4 -22 10 -12 21 -19 25 -15 3 3 6 2 6 -4 0 -6 -11 -10 -25 -10 -13 0 -23 3
-21 6 3 4 -4 7 -15 8 -18 2 -18 0 -4 -34 19 -45 19 -56 0 -23 -8 14 -14 21
-14 15 0 -13 48 -103 49 -92 0 5 -5 18 -11 29 -16 29 5 49 26 25 8 -9 10 -12
3 -7 -23 19 -27 10 -13 -24 8 -19 13 -41 12 -48 -2 -7 -2 -10 0 -6 7 12 43
-26 43 -45 0 -32 28 -74 75 -112 37 -31 43 -40 34 -56 -14 -27 3 -24 31 6 26
28 44 24 35 -8 -5 -16 -4 -18 3 -8 8 10 14 5 27 -23 10 -20 21 -39 26 -42 12
-7 12 -7 -12 61 -11 32 -18 69 -14 82 3 13 1 23 -5 23 -5 0 -10 6 -10 14 0 18
-29 14 -41 -5 -6 -10 -9 -4 -9 21 -1 19 -7 60 -15 90 -11 41 -14 45 -11 17 5
-43 -9 -41 -19 3 -4 16 -17 46 -31 65 -13 20 -20 34 -15 31 5 -4 12 -3 15 2 2
4 -11 18 -29 31 -30 20 -73 71 -61 71 3 0 17 -11 31 -24 17 -16 33 -22 47 -18
15 3 19 2 14 -7 -4 -6 -13 -8 -19 -5 -7 4 1 -7 17 -24 21 -23 32 -29 37 -20 6
9 8 6 7 -7 0 -11 9 -42 20 -70 12 -27 24 -67 27 -87 7 -47 25 -50 25 -4 0 18
6 49 14 67 16 38 79 103 89 93 4 -4 14 -1 24 7 12 10 10 4 -6 -18 -12 -18 -19
-33 -14 -33 4 0 3 -4 -2 -8 -17 -12 -55 -81 -51 -95 1 -6 1 -9 -1 -4 -9 15
-23 -5 -22 -31 0 -24 1 -25 10 -7 6 13 7 2 2 -35 -9 -78 -6 -96 24 -154 35
-65 32 -61 44 -49 6 6 19 8 30 6 14 -4 16 -9 9 -23 -7 -13 -6 -20 6 -24 8 -3
13 -2 10 2 -2 4 -1 14 5 22 7 12 9 12 9 -3 0 -10 5 -15 10 -12 6 3 10 -1 10
-10 0 -9 -4 -13 -10 -10 -5 3 -10 4 -10 1 0 -6 75 -46 85 -46 3 0 5 9 5 20 0
11 4 20 9 20 4 0 6 -11 3 -25 -2 -14 0 -31 5 -38 31 -39 20 -45 -30 -15 -133
80 -169 95 -232 92 -33 -2 -78 -6 -100 -8 -28 -4 -34 -3 -20 4 18 8 16 9 -10
11 -16 1 1 6 40 11 38 6 73 15 77 21 7 11 -32 47 -52 47 -7 0 -18 6 -24 14 -6
8 -49 44 -96 82 -87 69 -152 138 -78 82 57 -43 55 -33 -6 30 -68 70 -145 188
-146 222 0 15 -5 31 -11 37 -7 7 -6 12 5 16 9 4 15 3 15 -1 -6 -39 3 -74 20
-79 11 -3 22 -12 26 -20 4 -13 3 -14 -10 -3 -23 19 -18 -4 5 -25 11 -10 30
-37 41 -59 12 -23 35 -52 52 -66 23 -17 27 -18 16 -5 -29 35 -74 118 -108 200
-19 44 -42 96 -52 115 -11 19 -22 49 -25 67 -3 18 -10 33 -15 33 -5 0 -9 7 -9
15 0 8 5 15 11 15 5 0 8 4 5 9 -7 11 35 62 49 58 5 -2 17 -18 27 -36z m-138
-108 c8 -29 11 -91 4 -98 -3 -4 -2 -21 3 -38 5 -18 9 -50 9 -72 0 -50 18 -76
67 -99 21 -9 48 -32 61 -51 12 -19 21 -35 20 -35 -2 0 -30 14 -63 30 -32 16
-63 26 -68 23 -5 -3 -12 -2 -16 3 -7 10 -74 36 -169 66 -35 11 -61 22 -58 25
2 3 21 0 40 -7 20 -6 40 -9 46 -5 5 3 10 2 10 -3 0 -5 10 -12 23 -15 21 -6 21
-6 -3 13 -14 11 -31 20 -37 20 -7 0 -13 4 -13 8 0 5 -11 14 -25 20 -32 15 -38
15 -29 0 9 -13 -7 -5 -53 30 -18 13 -30 28 -28 33 3 4 -7 15 -22 23 -17 9 -22
15 -12 16 9 0 34 -13 55 -28 22 -16 44 -27 51 -25 6 2 27 -3 45 -12 l33 -16
-35 30 c-19 17 -30 31 -25 31 18 0 129 -88 137 -109 4 -12 12 -21 18 -21 7 0
9 19 5 58 -11 99 -11 156 -3 190 9 35 24 42 32 15z m-2953 -50 c3 -18 3 -34
-1 -35 -4 -2 -10 -45 -14 -96 l-7 -93 36 5 c20 4 34 2 31 -2 -3 -5 5 -14 19
-20 23 -11 29 -42 12 -69 -4 -6 -2 -15 3 -18 7 -4 8 -19 5 -37 -4 -17 -9 -38
-10 -47 -2 -9 -4 -16 -5 -16 -8 0 -5 -82 4 -87 7 -5 5 -8 -6 -8 -9 0 -20 -5
-24 -12 -4 -7 -3 -8 4 -4 8 5 12 0 12 -13 0 -14 -6 -21 -20 -21 -11 0 -20 4
-20 9 0 5 -8 12 -17 14 -14 4 -12 5 5 6 28 1 29 17 1 24 -14 4 -18 10 -13 19
6 10 4 10 -9 -1 -9 -7 -14 -18 -11 -25 3 -6 -1 -3 -9 7 -8 9 -27 17 -43 17
-22 0 -25 -3 -14 -9 8 -6 18 -7 22 -5 4 3 8 -4 8 -14 0 -18 -6 -19 -67 -16
-38 2 -80 3 -94 4 -22 0 -26 4 -22 24 5 24 27 41 42 31 4 -2 21 0 37 5 25 7
22 8 -24 9 -45 1 -53 4 -50 19 2 11 16 19 43 23 l40 6 -43 2 c-42 1 -43 2 -38
29 3 15 8 44 10 64 4 37 25 85 26 59 0 -9 9 -12 33 -8 17 2 41 1 52 -3 20 -8
50 12 38 24 -4 3 -37 6 -74 6 l-67 0 4 41 c4 46 11 62 25 54 5 -4 9 -1 9 5 0
7 -7 10 -15 6 -10 -4 -15 1 -15 15 0 13 8 23 21 26 20 6 21 7 5 19 -15 10 -16
22 -11 69 l7 56 91 -3 91 -3 7 -32z m211 -53 c2 -5 38 -11 80 -12 43 -2 78 -7
78 -11 0 -5 10 -7 23 -6 12 1 29 -1 37 -4 8 -3 49 -8 90 -11 41 -2 95 -6 120
-9 49 -5 73 0 64 14 -7 11 -6 11 36 -1 37 -11 102 -19 185 -24 28 -2 63 -10
78 -17 l27 -15 -35 -39 c-19 -22 -35 -48 -35 -58 0 -15 -7 -17 -45 -15 -25 2
-45 5 -45 8 0 3 -10 6 -23 7 -12 1 -61 6 -109 11 -49 5 -103 6 -120 2 -18 -4
-28 -8 -21 -9 7 -1 10 -7 7 -15 -4 -9 2 -14 18 -14 13 0 41 -3 63 -5 22 -3 78
-8 125 -11 46 -4 86 -9 89 -11 2 -2 12 0 23 6 18 10 18 9 8 -11 -16 -30 -30
-33 -101 -19 -58 10 -100 14 -289 22 -30 2 -66 0 -80 -4 -19 -4 -12 -7 30 -12
202 -23 215 -24 222 -13 5 8 8 7 8 -1 0 -8 13 -13 33 -13 60 0 137 -13 137
-23 0 -5 -9 -7 -20 -4 -17 4 -20 2 -15 -13 6 -20 -14 -72 -26 -65 -11 8 -23
-16 -12 -24 6 -3 10 -14 10 -23 0 -12 -5 -15 -15 -9 -18 10 -54 2 -46 -10 3
-5 -2 -9 -10 -9 -10 0 -13 6 -10 18 5 16 5 16 -6 0 -6 -10 -19 -18 -29 -18
-11 0 -22 -7 -25 -16 -10 -26 -7 -34 12 -27 13 4 12 2 -4 -10 -21 -16 -65 -15
-181 4 -21 4 -53 -2 -53 -9 0 -5 32 -9 70 -10 46 -1 75 -6 85 -15 11 -12 23
-12 60 -4 35 8 48 8 58 -3 10 -10 7 -12 -13 -7 -14 3 -33 0 -43 -7 -12 -10
-47 -13 -120 -11 -73 2 -95 0 -77 -7 22 -8 71 -14 158 -17 12 -1 22 -4 22 -8
0 -5 -30 -7 -67 -7 -70 2 -136 -12 -83 -17 76 -7 99 -6 94 3 -4 7 0 7 12 0 11
-5 35 -10 54 -10 33 -1 34 0 16 14 -17 12 -18 14 -3 14 15 0 21 -11 19 -32 -2
-11 27 -18 33 -8 4 6 2 10 -3 10 -6 0 -12 7 -16 15 -3 9 0 15 10 15 8 0 13 -4
9 -9 -3 -6 16 -13 42 -17 70 -10 82 -12 92 -18 5 -4 11 0 13 6 3 8 9 5 17 -9
11 -23 11 -23 -46 -17 -32 3 -66 6 -75 7 -10 1 -18 5 -18 10 0 4 -7 4 -16 -1
-9 -5 -32 -6 -50 -2 -22 5 -35 4 -39 -4 -3 -8 -7 -7 -11 2 -3 6 -10 12 -15 12
-6 0 -7 -4 -4 -10 9 -14 -8 -13 -23 2 -7 7 -12 8 -12 3 0 -6 -27 -8 -62 -7
-35 2 -60 1 -56 -3 3 -4 41 -8 82 -10 42 -3 84 -8 93 -13 10 -6 -44 -8 -142
-6 -87 2 -160 6 -163 9 -3 3 6 5 19 5 26 0 43 9 46 25 1 6 -22 9 -58 7 -32 -2
-59 -8 -59 -13 0 -5 7 -9 15 -9 8 0 15 -5 15 -10 0 -6 -13 -8 -32 -5 -37 7
-50 15 -24 15 10 0 16 6 13 13 -2 7 -21 12 -45 11 -23 0 -39 3 -36 7 2 4 0 11
-6 14 -6 4 -9 1 -8 -6 2 -7 -7 -14 -18 -15 -18 -1 -21 4 -21 38 l0 39 41 -5
c22 -3 33 -3 23 0 -9 3 -15 10 -12 15 4 5 -8 9 -24 9 -30 0 -41 13 -21 25 6 4
8 11 5 16 -4 5 4 9 17 10 23 1 23 1 -2 8 -34 10 78 19 136 11 27 -4 44 -2 53
7 6 7 8 13 4 14 -4 0 -24 3 -43 5 -80 10 -107 13 -139 13 -28 1 -31 3 -22 15
8 10 9 16 1 21 -6 3 -7 12 -3 18 4 7 8 39 9 72 1 33 5 96 8 140 8 83 11 121
14 168 2 26 17 37 24 17z m956 -180 c20 0 42 -4 48 -8 11 -7 24 -39 23 -56 0
-5 5 -12 12 -17 8 -4 10 -11 6 -16 -7 -6 -84 -18 -152 -23 -25 -2 -50 8 -50
21 0 21 45 27 105 13 58 -13 70 -11 70 12 0 8 -4 12 -10 9 -5 -3 -10 -2 -10 3
0 5 -13 7 -29 4 -16 -2 -32 1 -35 7 -4 6 -14 11 -22 11 -8 0 -13 -3 -11 -7 3
-5 -7 -9 -22 -10 -25 -2 -28 1 -24 25 8 50 10 53 38 42 15 -6 43 -10 63 -10z
m45 -187 c37 -4 56 -10 52 -17 -3 -6 -8 -19 -11 -29 -6 -16 -32 -19 -93 -8 -3
1 4 8 15 16 18 13 15 14 -28 15 -27 0 -48 -5 -48 -11 0 -5 4 -7 10 -4 5 3 18
1 27 -4 17 -10 16 -10 -2 -12 -11 0 -41 0 -66 1 -35 1 -46 -2 -46 -14 0 -12 3
-13 14 -4 9 7 17 8 21 2 4 -5 26 -9 49 -9 22 0 39 -3 36 -7 -2 -5 1 -8 6 -8 6
0 11 4 11 8 0 4 16 6 35 4 27 -3 33 -7 25 -16 -12 -15 -121 -9 -131 7 -4 6
-12 6 -20 1 -16 -10 -89 -12 -89 -3 0 4 7 9 15 13 8 3 15 17 15 32 0 19 4 25
15 20 8 -3 14 -2 14 2 -4 25 3 30 36 25 22 -3 35 -2 35 5 0 6 10 9 23 6 12 -3
48 -8 80 -11z m-1276 -156 c-2 -7 -13 -13 -25 -15 -12 -2 -22 -8 -22 -14 0 -6
9 -8 20 -5 14 3 24 -1 31 -15 7 -13 7 -18 1 -14 -6 4 -11 -2 -11 -11 0 -32
-13 -103 -20 -104 -34 -5 -68 -5 -76 0 -5 4 -28 4 -50 1 -34 -5 -36 -6 -15
-11 14 -3 53 -5 86 -5 45 1 60 -2 57 -11 -3 -7 -22 -14 -42 -15 -115 -4 -141
-4 -141 4 0 4 6 8 13 9 10 0 10 2 0 6 -8 2 -13 22 -13 44 0 30 4 39 18 40 14
1 14 2 1 6 -12 3 -14 13 -9 51 3 26 9 52 12 57 9 15 190 16 185 2z m3893 -32
c0 -30 25 -44 69 -37 22 3 32 1 27 -6 -3 -6 -2 -13 3 -17 5 -3 14 3 20 12 9
16 10 14 11 -9 0 -31 -18 -47 -31 -27 -6 10 -8 7 -6 -9 1 -12 6 -21 12 -18 14
5 15 -37 1 -46 -6 -4 -13 -2 -17 4 -7 10 -42 19 -89 21 -25 1 -40 13 -40 32 1
6 8 1 17 -10 14 -18 15 -18 9 -2 -3 10 -6 23 -6 28 0 6 -8 6 -19 -1 -25 -13
-31 -13 -31 0 0 6 11 15 23 21 24 11 34 44 11 35 -8 -3 -11 0 -7 9 3 8 9 12
15 9 5 -3 9 0 7 7 -3 27 1 40 11 34 6 -3 10 -17 10 -30z m-2346 -101 c9 -3 14
-9 12 -13 -3 -4 11 -11 30 -17 19 -6 34 -7 34 -2 0 5 5 6 12 2 6 -4 30 -6 53
-6 31 2 45 -2 49 -14 5 -13 -1 -15 -39 -13 -24 2 -47 0 -51 -4 -6 -6 43 -11
86 -8 10 0 11 -1 3 -5 -7 -3 -13 -10 -13 -15 0 -6 5 -7 10 -4 6 3 10 1 10 -4
0 -6 -6 -11 -13 -11 -8 0 -14 -6 -14 -14 0 -8 3 -15 6 -14 19 2 31 -3 31 -13
0 -6 -6 -9 -14 -6 -8 3 -22 -1 -33 -9 -10 -9 -12 -13 -5 -9 7 4 19 2 27 -5 9
-8 15 -8 20 0 7 12 25 4 25 -11 0 -6 -16 -9 -34 -8 -41 4 -49 -1 -30 -19 8 -7
14 -8 14 -2 0 16 46 11 61 -7 10 -11 10 -14 2 -9 -9 5 -13 0 -12 -16 0 -13 3
-17 6 -10 5 13 23 7 23 -8 0 -5 -30 -10 -67 -12 -63 -3 -66 -4 -40 -16 16 -6
26 -8 22 -2 -7 11 66 7 84 -5 22 -13 10 -25 -25 -25 -21 0 -33 4 -29 10 3 6
-6 5 -21 -2 l-27 -12 33 -9 c19 -5 42 -6 52 -4 15 4 17 2 8 -8 -11 -13 -63
-18 -55 -6 2 4 -10 5 -27 3 l-31 -5 39 -13 c20 -7 41 -11 45 -9 4 3 12 -2 19
-10 10 -12 9 -15 -8 -15 -12 0 -24 -5 -27 -11 -4 -6 -1 -10 6 -8 8 1 30 0 49
-1 l35 -2 -30 -9 c-16 -5 -43 -7 -60 -4 -85 14 -168 17 -161 6 4 -6 11 -9 16
-6 5 3 18 -3 30 -15 l20 -20 -25 0 c-15 0 -32 10 -45 28 -22 30 -82 43 -96 21
-4 -7 -3 -9 3 -6 6 4 18 -4 27 -18 19 -29 16 -30 -64 -11 -49 11 -55 15 -63
46 -6 24 -5 35 5 41 10 7 9 9 -4 9 -10 0 -18 7 -18 16 0 14 7 15 40 10 26 -4
40 -2 40 4 0 6 6 8 13 4 6 -4 3 2 -7 14 -18 21 -63 32 -51 12 3 -5 12 -7 19
-4 8 3 17 0 21 -6 5 -8 -6 -10 -36 -8 -27 2 -44 9 -47 18 -5 13 -3 13 11 1 15
-12 17 -11 17 3 0 9 -7 16 -15 16 -21 0 -47 44 -52 89 -4 36 -3 38 24 39 15 0
39 5 53 11 22 8 18 10 -27 10 -29 1 -53 6 -53 11 0 11 11 13 55 10 17 -1 42
-3 57 -4 15 -1 25 2 22 6 -3 4 -10 8 -15 8 -6 0 -17 7 -25 15 -14 13 -10 15
30 15 25 0 46 4 46 9 0 13 -89 18 -100 7 -7 -7 -10 -6 -10 2 0 6 -7 9 -15 6
-8 -4 -15 -1 -15 5 0 6 4 11 9 11 5 0 13 9 16 20 4 12 15 20 28 19 21 0 21 -1
2 -9 -11 -5 -15 -9 -10 -9 6 -1 5 -5 -2 -9 -6 -4 26 -7 72 -7 46 0 81 3 78 8
-2 4 -11 7 -18 7 -9 0 -12 6 -9 15 7 17 7 17 28 9z m2501 -65 c-4 -12 -1 -32
6 -45 12 -23 14 -23 31 -7 11 9 18 11 18 5 0 -7 -6 -12 -12 -12 -7 0 -3 -6 8
-14 19 -14 20 -21 15 -88 0 -10 -6 -17 -12 -15 -6 1 -13 -6 -14 -15 -4 -25 22
-23 35 2 6 11 15 18 21 14 7 -4 6 -10 0 -18 -6 -7 -8 -16 -4 -20 4 -3 12 6 18
20 9 24 8 31 -13 51 -13 13 -21 30 -18 39 3 8 1 26 -4 40 -7 18 -7 23 1 18 8
-4 9 1 4 16 -6 20 -5 21 8 9 9 -9 12 -18 6 -23 -16 -17 -10 -30 20 -47 16 -10
30 -28 33 -43 5 -26 5 -26 -21 -10 -26 17 -26 17 -8 -3 9 -11 14 -23 10 -26
-3 -4 -2 -7 4 -7 6 0 9 -9 6 -20 -3 -11 -8 -20 -12 -20 -4 0 -6 -19 -5 -42 1
-24 0 -37 -3 -30 -2 6 -11 12 -18 12 -8 0 -17 5 -21 12 -5 8 -2 9 9 5 14 -5
15 -3 5 13 -7 10 -14 18 -17 17 -4 -1 -16 4 -27 11 -12 6 -23 10 -25 9 -2 -1
-3 0 -2 2 2 2 -2 10 -8 18 -6 7 -8 13 -3 13 5 0 2 4 -6 10 -8 5 -11 12 -7 17
4 4 16 2 27 -4 15 -10 19 -9 24 3 9 23 7 34 -5 34 -5 0 -7 -6 -3 -12 4 -7 -2
-5 -12 5 -18 18 -18 19 -1 32 12 8 14 15 8 20 -6 3 -11 0 -12 -7 0 -10 -2 -10
-6 0 -8 21 -23 13 -21 -13 1 -14 6 -25 11 -25 15 0 -12 -27 -33 -33 -13 -3
-17 -1 -13 9 3 8 10 11 17 7 6 -4 4 2 -4 12 -12 15 -12 17 -1 10 11 -6 13 -3
8 15 -4 16 0 28 11 36 11 9 13 13 4 14 -18 0 -32 42 -20 58 16 19 30 14 23 -9z
m-3525 -59 c-11 -7 -5 -10 20 -10 26 0 31 3 20 10 -19 12 -17 12 169 11 142 0
168 -4 142 -20 -7 -5 25 -9 76 -10 98 -2 192 -9 203 -16 4 -3 10 -14 13 -24 4
-17 1 -19 -24 -14 -16 3 -29 1 -29 -4 0 -6 -10 -15 -22 -21 -22 -10 -22 -11
-3 -12 11 -1 29 -1 40 0 l20 2 -20 -16 c-11 -9 -15 -16 -10 -15 39 5 55 -2 55
-26 0 -27 -6 -29 -61 -16 -21 5 -42 5 -49 1 -21 -13 9 -23 62 -21 l49 1 -4
-45 c-3 -37 0 -48 20 -67 14 -13 22 -32 22 -47 -1 -14 3 -39 10 -54 l11 -28
-75 2 c-41 1 -78 -1 -82 -4 -3 -4 7 -7 23 -8 82 -1 157 -12 181 -25 26 -14 21
-15 -72 -8 -154 10 -198 11 -225 4 l-25 -7 28 -5 c15 -3 27 -1 27 4 0 5 4 7 9
4 5 -3 60 -8 122 -11 63 -3 126 -7 142 -9 15 -2 30 1 33 6 4 5 16 7 29 4 25
-6 61 9 90 37 10 10 24 16 32 13 8 -3 11 -2 8 3 -6 11 7 21 35 26 13 2 20 -2
20 -11 0 -8 -10 -14 -22 -15 -15 0 -10 -5 17 -13 24 -7 35 -15 28 -19 -6 -4
-9 -16 -6 -26 7 -26 -24 -30 -102 -15 -36 8 -66 9 -75 4 -11 -7 -8 -10 15 -11
17 0 39 -2 50 -4 11 -1 35 -4 53 -6 17 -2 32 -7 32 -12 0 -4 7 -7 16 -5 10 2
19 -1 20 -7 4 -11 -104 -11 -146 0 -36 9 -130 12 -130 3 0 -3 -8 -9 -17 -11
-14 -4 -12 -5 5 -6 12 0 22 2 22 7 0 8 66 8 95 -1 11 -3 39 -9 62 -12 41 -6
202 -51 210 -59 3 -2 0 -7 -6 -11 -6 -3 -11 -3 -11 2 0 4 -10 8 -22 9 -13 0
-32 4 -42 9 -14 6 -17 5 -12 -3 5 -8 2 -10 -8 -6 -9 3 -16 10 -16 15 0 5 -5 9
-11 9 -5 0 -8 -4 -5 -9 3 -5 -12 -5 -36 0 -29 7 -44 6 -52 -2 -8 -8 -8 -10 0
-6 16 9 87 -15 72 -24 -8 -5 -5 -8 9 -6 12 0 19 5 17 9 -3 4 0 8 5 8 6 0 11
-4 11 -8 0 -9 71 -34 87 -31 4 1 15 1 23 0 12 -1 12 -3 2 -10 -14 -9 -157 13
-176 27 -12 10 -65 7 -75 -4 -3 -4 4 -4 17 -1 12 3 22 2 22 -2 0 -4 8 -7 18
-8 9 0 42 -6 72 -13 30 -6 61 -12 68 -13 6 0 12 -4 12 -9 0 -4 13 -8 28 -8 16
0 32 -3 36 -7 3 -4 17 -8 29 -10 57 -9 97 -23 97 -35 0 -5 16 -16 35 -24 32
-13 40 -34 14 -34 -6 0 -7 5 -4 10 4 7 -3 9 -19 6 -15 -3 -24 -1 -21 5 4 5 -1
9 -10 9 -10 0 -14 -5 -10 -12 4 -7 1 -6 -7 3 -7 9 -27 19 -43 22 -17 3 -68 17
-115 32 -99 30 -140 37 -140 24 0 -6 6 -9 13 -7 31 7 278 -72 270 -86 -3 -6
-3 -8 2 -4 9 8 117 -30 127 -46 5 -8 8 -7 8 1 0 7 7 10 16 6 13 -5 13 -7 2
-14 -9 -6 -6 -9 12 -10 14 0 34 -4 45 -9 23 -10 -79 -3 -140 10 -22 5 -41 7
-43 5 -4 -4 64 -24 88 -26 8 -1 4 -5 -10 -10 -24 -8 -24 -8 5 -7 59 1 88 -2
82 -8 -3 -4 -49 -6 -102 -6 -62 0 -95 -3 -95 -10 0 -6 -2 -9 -5 -6 -3 3 -33 0
-66 -7 -34 -7 -57 -9 -52 -5 4 5 19 10 33 13 14 3 0 4 -30 4 -75 -1 -203 13
-210 21 -8 12 -58 13 -65 2 -3 -6 -21 -9 -38 -9 l-32 2 35 7 c31 6 27 8 -30
11 -70 3 -230 1 -270 -4 -14 -2 -33 -8 -44 -14 -16 -9 -14 -11 15 -18 l34 -8
-30 -5 c-30 -5 -30 -5 -5 -12 20 -6 15 -8 -22 -9 -27 -1 -48 3 -48 9 0 5 6 7
14 4 8 -3 17 -1 21 5 3 6 -1 11 -11 11 -14 0 -14 3 -4 15 7 9 10 18 6 22 -3 3
-6 1 -6 -5 0 -6 -9 -9 -21 -7 -15 3 -18 1 -11 -8 8 -9 0 -12 -33 -12 -24 0
-41 4 -38 8 2 4 -7 5 -20 1 -14 -3 -34 -1 -44 5 -14 8 -2 10 50 7 39 -3 65 -1
62 5 -8 12 -122 12 -130 -1 -4 -7 -12 -7 -25 0 -25 13 -97 13 -105 -1 -5 -7
-27 -8 -64 -4 -31 4 -67 7 -81 6 -20 -1 -22 1 -10 9 11 7 1 9 -35 8 -27 -1
-72 0 -100 1 -46 3 -48 4 -20 12 21 6 10 7 -35 3 -89 -7 -101 -6 -125 7 -5 3
-25 5 -42 3 -26 -1 -33 2 -33 17 0 16 8 19 48 21 l47 1 -42 4 c-33 3 -43 8
-43 22 0 14 6 17 25 13 28 -5 100 6 91 15 -3 3 -30 5 -61 4 l-55 -1 4 33 c2
17 4 42 5 55 1 13 8 22 19 23 16 1 16 2 0 6 -10 2 -18 11 -18 19 0 10 14 15
48 16 l47 1 -42 4 c-34 3 -43 8 -43 23 0 16 11 20 80 26 44 3 80 9 80 13 0 3
-35 5 -78 3 l-79 -3 -1 40 c-1 22 2 42 6 45 4 2 36 6 71 8 34 1 64 5 66 8 2 3
22 7 45 8 22 2 51 7 63 13 18 8 16 9 -13 5 -91 -13 -230 -18 -230 -9 0 5 6 10
13 10 54 1 192 14 196 19 3 3 -29 4 -72 3 -42 -1 -80 1 -84 4 -3 4 -18 4 -32
2 -25 -5 -25 -5 -3 4 12 6 30 7 39 4 10 -4 14 -2 10 4 -5 7 10 12 41 15 26 2
49 0 50 -4 2 -4 8 -8 13 -8 6 0 8 4 5 9 -3 4 18 7 47 6 28 -1 57 1 62 4 15 8
79 11 278 15 98 2 181 7 185 10 4 4 -31 7 -78 6 -47 0 -119 2 -160 5 -41 3
-118 1 -170 -5 -52 -6 -123 -11 -158 -11 -34 -1 -65 -6 -68 -10 -9 -15 -104
-11 -104 4 0 8 6 14 13 15 6 0 27 4 45 7 18 3 71 7 117 8 47 1 85 4 85 7 0 4
16 4 36 2 24 -3 35 -1 30 6 -4 6 -34 10 -70 9 -35 -1 -62 1 -59 6 2 4 -3 7
-12 7 -9 0 -13 -4 -10 -10 5 -9 -66 -16 -125 -12 -8 0 -21 -3 -30 -8 -12 -6
-16 -4 -17 11 -2 21 13 34 22 19 3 -5 11 -10 17 -10 7 0 6 6 -2 15 -7 8 -19
15 -26 15 -27 0 -10 35 21 43 18 4 18 5 -2 6 -42 2 -24 21 20 21 44 1 101 29
61 31 -10 1 1 6 24 11 24 5 42 12 39 14 -3 3 -39 6 -81 6 -57 1 -76 4 -76 14
0 10 13 14 42 14 32 0 39 3 30 12 -6 6 -24 11 -40 10 -17 0 -29 5 -29 12 0 9
11 12 36 9 27 -3 32 -1 21 6 -8 6 -23 11 -32 11 -10 0 -18 5 -18 11 0 7 18 10
50 7 36 -2 50 1 50 10 0 7 -5 10 -10 7 -18 -11 -90 6 -90 21 0 11 24 13 133 9
72 -3 144 -7 159 -9 16 -2 33 3 39 11 7 7 14 11 18 8 3 -3 -1 -10 -9 -15z
m-534 -2 c4 -7 3 -8 -4 -4 -8 5 -12 -3 -12 -22 0 -23 -4 -30 -17 -27 -10 1
-13 0 -6 -2 19 -7 24 -33 7 -40 -23 -9 5 -24 31 -17 11 2 2 -5 -20 -18 -29
-16 -35 -23 -22 -26 9 -2 17 -7 17 -12 0 -5 -8 -14 -17 -19 -10 -6 -12 -11 -5
-11 6 0 12 -9 12 -19 0 -17 -8 -19 -75 -20 -40 0 -78 -1 -82 -2 -23 -4 -40 3
-40 16 0 15 10 19 35 16 6 -1 12 3 12 9 0 5 -11 10 -25 10 -34 0 -22 30 14 31
24 2 24 2 3 6 -29 6 -34 19 -24 58 7 26 14 31 53 36 l44 6 -46 1 c-44 2 -46 3
-45 32 l1 30 102 0 c66 0 104 -4 109 -12z m-39 -264 c4 -11 -1 -22 -12 -30
-10 -8 -13 -14 -7 -14 8 0 11 -14 8 -42 -3 -24 -5 -53 -5 -65 -1 -20 -6 -21
-104 -22 l-104 -1 6 37 c6 34 10 39 41 43 l35 6 -32 7 c-21 4 -33 12 -33 23 0
13 6 15 31 10 17 -3 43 -6 58 -7 23 0 24 -1 6 -9 l-20 -9 20 -1 c17 -2 16 -3
-5 -10 -20 -7 -16 -8 20 -6 38 2 44 5 42 20 -2 11 2 23 10 28 10 8 10 9 -2 5
-8 -2 -28 2 -45 10 -29 13 -29 13 -10 -3 l20 -17 -20 8 c-11 4 -39 10 -63 12
-57 7 -49 28 12 29 26 1 50 5 53 8 4 3 26 6 50 6 31 0 45 -5 50 -16z m-43
-430 c7 -17 -13 -31 -49 -37 -27 -4 -27 -4 8 -6 40 -1 53 -21 14 -21 -13 0
-24 -6 -24 -13 0 -13 35 -16 55 -3 16 10 15 -2 0 -17 -8 -8 -40 -11 -85 -10
-40 2 -73 -1 -73 -6 0 -5 -15 -8 -34 -8 -30 1 -33 4 -25 19 5 10 6 18 2 18
-25 1 37 30 64 30 35 0 45 15 15 22 -10 3 -27 -1 -37 -8 -27 -20 -35 -17 -35
12 0 23 4 25 33 24 46 -3 59 -1 54 8 -3 4 21 7 54 7 37 1 60 -3 63 -11z m1326
-246 c25 -2 50 -6 56 -10 6 -4 29 -5 52 -3 23 2 40 0 37 -5 -3 -4 5 -8 18 -9
12 0 43 -1 69 -2 28 -1 45 -5 42 -11 -3 -5 -43 -9 -88 -8 -44 0 -88 0 -96 0
-41 -3 -220 7 -226 12 -3 4 -12 4 -19 2 -7 -3 -16 -1 -20 5 -7 12 29 10 41 -2
11 -11 34 -8 34 3 0 6 -9 10 -21 10 -11 0 -18 3 -15 8 2 4 -13 6 -34 4 -21 -2
-40 1 -44 6 -6 9 70 9 214 0z m-814 -19 c3 -5 10 -9 15 -9 6 0 8 4 4 9 -3 6 6
6 25 1 18 -5 32 -5 36 1 3 5 23 8 45 6 21 -2 40 0 42 6 1 5 9 4 17 -4 10 -9
40 -14 91 -14 43 0 75 -3 72 -7 -2 -5 5 -8 17 -8 12 0 19 4 16 9 -3 4 12 5 34
1 22 -4 40 -4 40 0 0 4 7 7 15 7 8 0 11 -5 8 -10 -4 -6 0 -8 10 -4 10 3 17 2
17 -3 0 -13 -617 -10 -636 4 -12 9 0 12 56 11 43 -1 63 2 51 7 -12 4 -21 9
-21 12 0 7 40 -6 46 -15z"/>
<path d="M6349 4295 c-3 -2 -32 -5 -67 -6 -34 -1 -62 -6 -62 -11 0 -5 -4 -6
-10 -3 -5 3 -10 -2 -10 -12 0 -14 -2 -15 -9 -4 -7 11 -10 9 -13 -10 -1 -13
-10 -24 -18 -24 -8 -1 -31 -8 -50 -17 -19 -8 -55 -24 -80 -34 -50 -21 -59 -27
-101 -66 -16 -14 -29 -24 -29 -21 0 2 -12 -10 -27 -29 -15 -18 -30 -35 -34
-38 -26 -21 -61 -99 -65 -143 -2 -29 -1 -45 2 -37 50 120 87 189 96 184 5 -3
7 -1 6 4 -2 5 21 28 51 50 43 33 58 39 68 30 12 -10 11 -13 -4 -21 -39 -20
-103 -104 -135 -174 -32 -70 -32 -218 0 -288 25 -55 90 -128 105 -118 6 3 7 1
3 -5 -10 -16 47 -52 72 -45 13 3 22 1 22 -6 0 -6 1 -14 1 -18 3 -14 60 -44
137 -70 69 -24 91 -27 222 -27 144 0 174 4 265 42 153 62 267 219 268 367 1
94 -9 185 -21 197 -7 7 -12 8 -12 3 0 -7 -64 84 -95 136 -22 35 -62 70 -105
92 -25 12 -46 25 -48 30 -2 4 -10 7 -17 7 -7 0 -28 8 -47 17 -18 9 -46 23 -61
31 -15 7 -42 15 -60 17 -31 4 -70 10 -113 20 -12 3 -23 3 -25 0z"/>
<path d="M6124 2411 c-11 -11 -2 -21 18 -17 12 1 48 -5 80 -14 41 -13 58 -15
62 -6 2 6 4 4 5 -4 0 -19 -17 -59 -18 -42 -1 6 -10 12 -21 12 -11 0 -20 5 -20
12 0 9 -3 9 -12 0 -15 -15 16 -41 49 -42 29 0 53 -10 53 -22 0 -5 -4 -6 -10
-3 -5 3 -7 0 -4 -8 3 -8 24 -18 46 -21 41 -7 61 -1 42 12 -6 4 -13 15 -17 25
-3 9 -14 17 -22 17 -11 0 -15 7 -13 23 3 21 7 22 76 19 41 -1 83 -7 94 -13 11
-6 31 -8 44 -5 13 4 33 1 44 -6 15 -10 22 -10 32 0 16 16 6 24 -36 25 -30 1
-33 3 -23 16 11 14 10 14 -6 2 -15 -12 -26 -11 -75 2 -31 9 -93 17 -137 18
-44 2 -84 6 -90 10 -11 8 -134 17 -141 10z"/>
<path d="M6402 2173 c-8 -13 -2 -21 25 -40 20 -13 41 -22 49 -19 7 3 15 0 18
-7 3 -9 8 -8 15 3 9 13 11 13 11 -2 0 -10 -6 -18 -12 -19 -17 0 18 -15 60 -23
45 -10 40 8 -5 21 -32 9 -34 11 -13 13 14 1 39 2 55 2 66 1 75 -2 69 -17 -5
-11 -2 -13 10 -9 9 3 13 11 9 18 -4 6 0 6 9 -2 19 -15 26 -7 26 30 -1 31 -9
33 -182 43 -54 3 -107 10 -117 15 -13 8 -20 6 -27 -7z"/>
<path d="M6125 2060 c11 -5 35 -9 53 -9 32 -1 47 -21 15 -21 -9 0 -13 -3 -10
-7 4 -3 2 -12 -4 -19 -23 -28 18 -77 46 -54 7 6 23 6 41 1 31 -9 42 -3 63 37
11 20 9 24 -19 35 -30 13 -33 31 -2 20 9 -4 13 -2 9 4 -4 6 -26 11 -49 11 -24
1 -70 4 -103 6 -39 3 -53 2 -40 -4z"/>
<path d="M6850 1385 c0 -8 -4 -15 -10 -15 -5 0 -10 -9 -10 -20 0 -14 7 -20 21
-20 11 0 17 5 14 10 -3 6 0 10 9 10 8 0 17 -6 19 -12 3 -8 6 -6 6 5 1 9 8 17
17 17 18 0 70 -50 66 -62 -1 -5 12 -8 28 -8 23 0 33 -6 42 -25 6 -14 18 -25
26 -25 9 0 13 3 10 6 -3 3 5 16 19 30 16 16 22 31 18 43 -5 16 0 21 22 24 15
2 7 3 -20 2 -26 -1 -50 -5 -54 -9 -12 -12 -23 -6 -21 12 1 9 0 26 -1 37 -1 17
-3 18 -11 5 -6 -8 -7 -28 -4 -44 5 -21 3 -27 -7 -23 -8 2 -13 10 -11 17 7 30
-9 47 -45 48 -20 1 -38 4 -41 7 -3 2 -13 -5 -23 -16 l-18 -20 -20 20 c-16 16
-21 17 -21 6z"/>
<path d="M1045 630 c2 -4 26 -10 52 -13 26 -3 49 -10 51 -16 2 -6 8 -11 13
-11 6 0 8 4 5 9 -4 5 12 5 37 0 62 -14 68 -19 17 -16 -25 2 -37 2 -27 0 9 -3
17 -9 17 -15 0 -6 -9 -7 -22 -3 -13 4 -39 9 -58 11 -19 1 -26 1 -15 -2 11 -3
27 -8 35 -11 8 -4 17 -7 20 -8 3 -1 19 -6 37 -10 18 -4 31 -12 30 -18 -1 -6 6
-13 17 -15 11 -2 16 0 12 7 -4 6 0 11 9 11 9 0 13 -4 10 -10 -3 -5 -1 -10 4
-10 6 0 11 4 11 9 0 5 8 8 18 6 9 -2 26 -4 37 -5 l20 -1 -20 -9 c-16 -7 -17
-9 -3 -9 9 -1 20 4 23 9 4 6 10 8 15 5 18 -11 90 -14 84 -3 -7 12 35 1 50 -12
5 -5 19 -4 33 1 17 6 22 6 17 -2 -4 -8 3 -9 26 -4 21 5 30 4 26 -3 -3 -6 7 -9
24 -8 58 2 4 23 -91 35 -73 9 -94 9 -107 -1 -13 -11 -14 -11 -7 1 6 11 3 13
-13 9 -12 -4 -22 -3 -22 2 0 4 -15 7 -32 6 -18 -1 -48 4 -66 11 -20 8 -31 10
-27 4 3 -6 1 -11 -4 -11 -6 0 -11 5 -11 11 0 7 -11 8 -31 4 -22 -5 -29 -4 -25
4 9 13 79 14 122 2 24 -7 31 -6 31 6 0 7 -7 13 -16 12 -28 -2 -36 1 -23 9 7 5
43 1 81 -8 68 -17 209 -35 200 -25 -3 3 -44 10 -90 16 -92 12 -146 32 -69 26
25 -2 34 -2 21 0 -20 4 -22 7 -10 14 11 8 9 9 -6 6 -11 -3 -38 -8 -60 -11 -40
-6 -40 -6 -10 7 24 11 26 14 12 20 -10 4 -17 2 -17 -5 0 -6 -3 -8 -7 -5 -3 4
-13 1 -21 -6 -13 -9 -14 -9 -8 1 5 8 0 12 -18 12 -14 0 -28 -4 -31 -10 -3 -5
-11 -10 -16 -10 -6 0 -8 3 -6 8 3 4 -24 7 -58 6 -35 0 -62 2 -60 5 1 3 -23 7
-56 7 -32 1 -57 -2 -54 -6z"/>
</g>
</svg>
